<svg xmlns="http://www.w3.org/2000/svg" xmlns:xlink="http://www.w3.org/1999/xlink" width="2000" zoomAndPan="magnify" viewBox="0 0 1500 749.999995" height="1000" preserveAspectRatio="xMidYMid meet" version="1.0"><defs><g/><clipPath id="4d5436587c"><rect x="0" width="1500" y="0" height="138"/></clipPath></defs><g transform="matrix(1, 0, 0, 1, 0, 306)"><g clip-path="url(#4d5436587c)"><g fill="#fffbeb" fill-opacity="1"><g transform="translate(0.00653235, 86.544677)"><g><path d="M 38 -53.84375 L 38 -16.5 C 38 -13.65625 38.304688 -11.566406 38.921875 -10.234375 C 39.535156 -8.910156 40.257812 -7.953125 41.09375 -7.359375 C 41.925781 -6.773438 42.648438 -6.203125 43.265625 -5.640625 C 43.890625 -5.085938 44.203125 -4.195312 44.203125 -2.96875 C 44.203125 -1.851562 43.816406 -1.078125 43.046875 -0.640625 C 42.273438 -0.210938 40.835938 0 38.734375 0 L 21.78125 0 C 19.800781 0 18.394531 -0.210938 17.5625 -0.640625 C 16.726562 -1.078125 16.3125 -1.851562 16.3125 -2.96875 C 16.3125 -3.957031 16.523438 -4.710938 16.953125 -5.234375 C 17.390625 -5.765625 17.929688 -6.226562 18.578125 -6.625 C 19.222656 -7.03125 19.851562 -7.570312 20.46875 -8.25 C 21.09375 -8.925781 21.617188 -9.894531 22.046875 -11.15625 C 22.484375 -12.425781 22.703125 -14.207031 22.703125 -16.5 L 22.703125 -53.84375 C 22.703125 -56.375 21.4375 -57.640625 18.90625 -57.640625 C 17.050781 -57.640625 15.519531 -57.269531 14.3125 -56.53125 C 13.113281 -55.789062 12.050781 -54.660156 11.125 -53.140625 C 10.195312 -51.628906 9.144531 -49.765625 7.96875 -47.546875 C 7.476562 -46.492188 6.953125 -45.671875 6.390625 -45.078125 C 5.835938 -44.492188 5.191406 -44.203125 4.453125 -44.203125 C 3.460938 -44.203125 2.78125 -44.601562 2.40625 -45.40625 C 2.039062 -46.207031 1.890625 -47.320312 1.953125 -48.75 C 2.066406 -51.46875 2.25 -53.796875 2.5 -55.734375 C 2.75 -57.679688 3.054688 -59.335938 3.421875 -60.703125 C 3.859375 -62.179688 4.601562 -63.242188 5.65625 -63.890625 C 6.707031 -64.546875 8.59375 -64.875 11.3125 -64.875 L 49.296875 -64.875 C 52.078125 -64.875 53.992188 -64.546875 55.046875 -63.890625 C 56.097656 -63.242188 56.804688 -62.179688 57.171875 -60.703125 C 57.546875 -59.335938 57.867188 -57.679688 58.140625 -55.734375 C 58.421875 -53.796875 58.59375 -51.46875 58.65625 -48.75 C 58.71875 -47.382812 58.578125 -46.285156 58.234375 -45.453125 C 57.898438 -44.617188 57.207031 -44.203125 56.15625 -44.203125 C 55.414062 -44.203125 54.78125 -44.492188 54.25 -45.078125 C 53.726562 -45.671875 53.191406 -46.492188 52.640625 -47.546875 C 50.972656 -50.878906 49.425781 -53.410156 48 -55.140625 C 46.582031 -56.867188 44.484375 -57.734375 41.703125 -57.734375 C 39.234375 -57.734375 38 -56.4375 38 -53.84375 Z M 38 -53.84375 "/></g></g></g><g fill="#fffbeb" fill-opacity="1"><g transform="translate(60.617654, 86.544677)"><g><path d="M 66.8125 -48.375 L 66.8125 -16.5 C 66.8125 -13.65625 67.117188 -11.566406 67.734375 -10.234375 C 68.359375 -8.910156 69.070312 -7.953125 69.875 -7.359375 C 70.675781 -6.773438 71.382812 -6.203125 72 -5.640625 C 72.625 -5.085938 72.9375 -4.195312 72.9375 -2.96875 C 72.9375 -1.851562 72.546875 -1.078125 71.765625 -0.640625 C 70.992188 -0.210938 69.59375 0 67.5625 0 L 50.5 0 C 48.59375 0 47.21875 -0.210938 46.375 -0.640625 C 45.539062 -1.078125 45.125 -1.851562 45.125 -2.96875 C 45.125 -3.957031 45.335938 -4.710938 45.765625 -5.234375 C 46.203125 -5.765625 46.726562 -6.226562 47.34375 -6.625 C 47.96875 -7.03125 48.585938 -7.570312 49.203125 -8.25 C 49.828125 -8.925781 50.351562 -9.894531 50.78125 -11.15625 C 51.21875 -12.425781 51.4375 -14.207031 51.4375 -16.5 L 51.4375 -27.25 C 51.4375 -28.175781 51.359375 -28.882812 51.203125 -29.375 C 51.046875 -29.875 50.550781 -30.242188 49.71875 -30.484375 C 48.882812 -30.734375 47.539062 -30.875 45.6875 -30.90625 C 43.832031 -30.9375 41.175781 -30.953125 37.71875 -30.953125 C 34.257812 -30.953125 31.585938 -30.9375 29.703125 -30.90625 C 27.816406 -30.875 26.457031 -30.734375 25.625 -30.484375 C 24.789062 -30.242188 24.296875 -29.875 24.140625 -29.375 C 23.984375 -28.882812 23.90625 -28.175781 23.90625 -27.25 L 23.90625 -16.5 C 23.90625 -13.65625 24.210938 -11.566406 24.828125 -10.234375 C 25.453125 -8.910156 26.179688 -7.953125 27.015625 -7.359375 C 27.847656 -6.773438 28.570312 -6.203125 29.1875 -5.640625 C 29.8125 -5.085938 30.125 -4.195312 30.125 -2.96875 C 30.125 -1.851562 29.734375 -1.078125 28.953125 -0.640625 C 28.179688 -0.210938 26.75 0 24.65625 0 L 7.6875 0 C 5.707031 0 4.300781 -0.210938 3.46875 -0.640625 C 2.632812 -1.078125 2.21875 -1.851562 2.21875 -2.96875 C 2.21875 -3.957031 2.429688 -4.710938 2.859375 -5.234375 C 3.296875 -5.765625 3.820312 -6.226562 4.4375 -6.625 C 5.0625 -7.03125 5.695312 -7.570312 6.34375 -8.25 C 7 -8.925781 7.539062 -9.894531 7.96875 -11.15625 C 8.40625 -12.425781 8.625 -14.207031 8.625 -16.5 L 8.625 -48.375 C 8.625 -51.21875 8.3125 -53.300781 7.6875 -54.625 C 7.070312 -55.957031 6.347656 -56.914062 5.515625 -57.5 C 4.679688 -58.09375 3.953125 -58.664062 3.328125 -59.21875 C 2.710938 -59.769531 2.40625 -60.664062 2.40625 -61.90625 C 2.40625 -63.019531 2.789062 -63.789062 3.5625 -64.21875 C 4.332031 -64.65625 5.769531 -64.875 7.875 -64.875 L 24.84375 -64.875 C 26.8125 -64.875 28.210938 -64.65625 29.046875 -64.21875 C 29.878906 -63.789062 30.296875 -63.019531 30.296875 -61.90625 C 30.296875 -60.914062 30.078125 -60.15625 29.640625 -59.625 C 29.210938 -59.101562 28.691406 -58.640625 28.078125 -58.234375 C 27.460938 -57.835938 26.828125 -57.300781 26.171875 -56.625 C 25.523438 -55.945312 24.984375 -54.972656 24.546875 -53.703125 C 24.117188 -52.429688 23.90625 -50.65625 23.90625 -48.375 L 23.90625 -41.515625 C 23.90625 -40.585938 23.984375 -39.875 24.140625 -39.375 C 24.296875 -38.882812 24.789062 -38.515625 25.625 -38.265625 C 26.457031 -38.023438 27.832031 -37.890625 29.75 -37.859375 C 31.664062 -37.828125 34.351562 -37.8125 37.8125 -37.8125 C 41.207031 -37.8125 43.847656 -37.828125 45.734375 -37.859375 C 47.617188 -37.890625 48.960938 -38.023438 49.765625 -38.265625 C 50.566406 -38.515625 51.046875 -38.882812 51.203125 -39.375 C 51.359375 -39.875 51.4375 -40.585938 51.4375 -41.515625 L 51.4375 -48.375 C 51.4375 -51.21875 51.125 -53.300781 50.5 -54.625 C 49.882812 -55.957031 49.175781 -56.914062 48.375 -57.5 C 47.570312 -58.09375 46.859375 -58.664062 46.234375 -59.21875 C 45.617188 -59.769531 45.3125 -60.664062 45.3125 -61.90625 C 45.3125 -63.019531 45.695312 -63.789062 46.46875 -64.21875 C 47.25 -64.65625 48.65625 -64.875 50.6875 -64.875 L 67.75 -64.875 C 69.71875 -64.875 71.101562 -64.65625 71.90625 -64.21875 C 72.71875 -63.789062 73.125 -63.019531 73.125 -61.90625 C 73.125 -60.914062 72.90625 -60.15625 72.46875 -59.625 C 72.039062 -59.101562 71.515625 -58.640625 70.890625 -58.234375 C 70.273438 -57.835938 69.65625 -57.300781 69.03125 -56.625 C 68.414062 -55.945312 67.890625 -54.972656 67.453125 -53.703125 C 67.023438 -52.429688 66.8125 -50.65625 66.8125 -48.375 Z M 66.8125 -48.375 "/></g></g></g><g fill="#fffbeb" fill-opacity="1"><g transform="translate(135.964512, 86.544677)"><g><path d="M 53.015625 -20.9375 C 54.117188 -20.695312 54.796875 -20.1875 55.046875 -19.40625 C 55.296875 -18.632812 55.390625 -17.539062 55.328125 -16.125 C 55.265625 -13.40625 55.09375 -11.070312 54.8125 -9.125 C 54.53125 -7.175781 54.207031 -5.523438 53.84375 -4.171875 C 53.40625 -2.691406 52.660156 -1.625 51.609375 -0.96875 C 50.566406 -0.320312 48.6875 0 45.96875 0 L 7.6875 0 C 5.707031 0 4.300781 -0.210938 3.46875 -0.640625 C 2.632812 -1.078125 2.21875 -1.851562 2.21875 -2.96875 C 2.21875 -4.082031 2.476562 -4.914062 3 -5.46875 C 3.53125 -6.019531 4.164062 -6.539062 4.90625 -7.03125 C 5.65625 -7.53125 6.351562 -8.195312 7 -9.03125 C 7.644531 -9.863281 8.09375 -11.054688 8.34375 -12.609375 C 8.46875 -13.285156 8.546875 -13.945312 8.578125 -14.59375 C 8.609375 -15.238281 8.625 -16.117188 8.625 -17.234375 L 8.625 -47.640625 C 8.625 -48.742188 8.609375 -49.632812 8.578125 -50.3125 C 8.546875 -51 8.46875 -51.648438 8.34375 -52.265625 C 8.09375 -53.867188 7.644531 -55.070312 7 -55.875 C 6.351562 -56.675781 5.65625 -57.320312 4.90625 -57.8125 C 4.164062 -58.3125 3.53125 -58.835938 3 -59.390625 C 2.476562 -59.953125 2.21875 -60.789062 2.21875 -61.90625 C 2.21875 -63.019531 2.632812 -63.789062 3.46875 -64.21875 C 4.300781 -64.65625 5.707031 -64.875 7.6875 -64.875 L 43.734375 -64.875 C 46.453125 -64.875 48.382812 -64.5625 49.53125 -63.9375 C 50.675781 -63.320312 51.460938 -62.488281 51.890625 -61.4375 C 53.128906 -58.84375 54.117188 -55.691406 54.859375 -51.984375 C 55.171875 -50.628906 55.21875 -49.519531 55 -48.65625 C 54.78125 -47.789062 54.238281 -47.203125 53.375 -46.890625 C 51.707031 -46.335938 50.132812 -47.171875 48.65625 -49.390625 C 46.738281 -52.296875 44.710938 -54.488281 42.578125 -55.96875 C 40.453125 -57.457031 37.9375 -58.203125 35.03125 -58.203125 L 31.046875 -58.203125 C 28.140625 -58.203125 26.222656 -57.859375 25.296875 -57.171875 C 24.367188 -56.492188 23.90625 -55.414062 23.90625 -53.9375 L 23.90625 -42.34375 C 23.90625 -40.5 24.414062 -39.28125 25.4375 -38.6875 C 26.457031 -38.101562 27.957031 -37.8125 29.9375 -37.8125 L 31.78125 -37.8125 C 33.269531 -37.8125 34.367188 -38.179688 35.078125 -38.921875 C 35.785156 -39.660156 36.320312 -40.492188 36.6875 -41.421875 C 37.0625 -42.347656 37.476562 -43.179688 37.9375 -43.921875 C 38.40625 -44.660156 39.132812 -45.03125 40.125 -45.03125 C 41.175781 -45.03125 41.929688 -44.675781 42.390625 -43.96875 C 42.859375 -43.257812 43.09375 -42.039062 43.09375 -40.3125 L 43.09375 -28.359375 C 43.09375 -25.328125 42.101562 -23.8125 40.125 -23.8125 C 39.132812 -23.8125 38.40625 -24.179688 37.9375 -24.921875 C 37.476562 -25.671875 37.0625 -26.519531 36.6875 -27.46875 C 36.320312 -28.425781 35.785156 -29.273438 35.078125 -30.015625 C 34.367188 -30.765625 33.269531 -31.140625 31.78125 -31.140625 L 29.9375 -31.140625 C 27.957031 -31.140625 26.457031 -30.859375 25.4375 -30.296875 C 24.414062 -29.742188 23.90625 -28.507812 23.90625 -26.59375 L 23.90625 -10.9375 C 23.90625 -9.457031 24.398438 -8.375 25.390625 -7.6875 C 26.378906 -7.007812 28.507812 -6.671875 31.78125 -6.671875 L 37.53125 -6.765625 C 39.445312 -6.765625 41.003906 -7.179688 42.203125 -8.015625 C 43.410156 -8.847656 44.492188 -10.066406 45.453125 -11.671875 C 46.410156 -13.285156 47.445312 -15.203125 48.5625 -17.421875 C 49.363281 -19.023438 50.101562 -20.054688 50.78125 -20.515625 C 51.457031 -20.984375 52.203125 -21.125 53.015625 -20.9375 Z M 53.015625 -20.9375 "/></g></g></g><g fill="#fffbeb" fill-opacity="1"><g transform="translate(194.444036, 86.544677)"><g/></g></g><g fill="#fffbeb" fill-opacity="1"><g transform="translate(212.979546, 86.544677)"><g><path d="M 44.953125 -39.015625 C 49.890625 -37.773438 53.625 -35.59375 56.15625 -32.46875 C 58.6875 -29.351562 59.953125 -25.695312 59.953125 -21.5 C 59.953125 -17.539062 58.882812 -13.925781 56.75 -10.65625 C 54.625 -7.382812 51.472656 -4.789062 47.296875 -2.875 C 43.128906 -0.957031 37.957031 0 31.78125 0 L 7.6875 0 C 5.707031 0 4.300781 -0.210938 3.46875 -0.640625 C 2.632812 -1.078125 2.21875 -1.851562 2.21875 -2.96875 C 2.21875 -4.082031 2.476562 -4.914062 3 -5.46875 C 3.53125 -6.019531 4.164062 -6.539062 4.90625 -7.03125 C 5.65625 -7.53125 6.351562 -8.195312 7 -9.03125 C 7.644531 -9.863281 8.09375 -11.054688 8.34375 -12.609375 C 8.46875 -13.285156 8.546875 -13.945312 8.578125 -14.59375 C 8.609375 -15.238281 8.625 -16.117188 8.625 -17.234375 L 8.625 -47.640625 C 8.625 -48.742188 8.609375 -49.632812 8.578125 -50.3125 C 8.546875 -51 8.46875 -51.648438 8.34375 -52.265625 C 8.09375 -53.867188 7.644531 -55.070312 7 -55.875 C 6.351562 -56.675781 5.65625 -57.320312 4.90625 -57.8125 C 4.164062 -58.3125 3.53125 -58.835938 3 -59.390625 C 2.476562 -59.953125 2.21875 -60.789062 2.21875 -61.90625 C 2.21875 -63.019531 2.632812 -63.789062 3.46875 -64.21875 C 4.300781 -64.65625 5.707031 -64.875 7.6875 -64.875 L 28.546875 -64.875 C 33.117188 -64.875 37.222656 -64.457031 40.859375 -63.625 C 44.503906 -62.789062 47.425781 -61.351562 49.625 -59.3125 C 51.820312 -57.269531 52.953125 -54.457031 53.015625 -50.875 C 53.066406 -48.15625 52.382812 -45.773438 50.96875 -43.734375 C 49.550781 -41.703125 47.546875 -40.128906 44.953125 -39.015625 Z M 23.90625 -55.609375 L 23.90625 -43.5625 C 23.90625 -42.382812 24.429688 -41.734375 25.484375 -41.609375 C 26.535156 -41.484375 27.523438 -41.421875 28.453125 -41.421875 C 31.535156 -41.421875 33.910156 -42.019531 35.578125 -43.21875 C 37.253906 -44.425781 38.09375 -46.269531 38.09375 -48.75 C 38.09375 -51.28125 37.117188 -53.488281 35.171875 -55.375 C 33.222656 -57.257812 30.519531 -58.203125 27.0625 -58.203125 C 26.195312 -58.203125 25.453125 -58 24.828125 -57.59375 C 24.210938 -57.195312 23.90625 -56.535156 23.90625 -55.609375 Z M 31.59375 -6.671875 C 35.613281 -6.671875 38.582031 -7.660156 40.5 -9.640625 C 42.414062 -11.617188 43.375 -14.582031 43.375 -18.53125 C 43.375 -21.375 42.753906 -24 41.515625 -26.40625 C 40.273438 -28.820312 38.453125 -30.753906 36.046875 -32.203125 C 33.640625 -33.648438 30.675781 -34.375 27.15625 -34.375 C 25.976562 -34.375 25.140625 -34.1875 24.640625 -33.8125 C 24.148438 -33.445312 23.90625 -32.738281 23.90625 -31.6875 L 23.90625 -13.15625 C 23.90625 -10.875 24.382812 -9.222656 25.34375 -8.203125 C 26.300781 -7.179688 28.382812 -6.671875 31.59375 -6.671875 Z M 31.59375 -6.671875 "/></g></g></g><g fill="#fffbeb" fill-opacity="1"><g transform="translate(274.980845, 86.544677)"><g><path d="M 17.796875 -15.390625 L 16.5 -12.234375 C 15.757812 -10.503906 15.460938 -9.191406 15.609375 -8.296875 C 15.765625 -7.398438 16.101562 -6.71875 16.625 -6.25 C 17.15625 -5.789062 17.664062 -5.328125 18.15625 -4.859375 C 18.65625 -4.398438 18.90625 -3.707031 18.90625 -2.78125 C 18.90625 -1.664062 18.457031 -0.9375 17.5625 -0.59375 C 16.664062 -0.257812 15.566406 -0.09375 14.265625 -0.09375 L 5.5625 -0.09375 C 3.957031 -0.09375 2.675781 -0.273438 1.71875 -0.640625 C 0.757812 -1.015625 0.28125 -1.726562 0.28125 -2.78125 C 0.28125 -3.707031 0.554688 -4.414062 1.109375 -4.90625 C 1.671875 -5.40625 2.382812 -5.914062 3.25 -6.4375 C 4.113281 -6.96875 4.992188 -7.664062 5.890625 -8.53125 C 6.785156 -9.394531 7.539062 -10.628906 8.15625 -12.234375 L 24.375 -52.265625 C 24.988281 -53.867188 25.1875 -55.101562 24.96875 -55.96875 C 24.757812 -56.832031 24.359375 -57.539062 23.765625 -58.09375 C 23.179688 -58.65625 22.625 -59.226562 22.09375 -59.8125 C 21.570312 -60.40625 21.3125 -61.164062 21.3125 -62.09375 C 21.3125 -63.082031 21.601562 -63.789062 22.1875 -64.21875 C 22.78125 -64.65625 23.539062 -64.875 24.46875 -64.875 L 35.953125 -64.875 C 37.804688 -64.875 39.132812 -63.976562 39.9375 -62.1875 L 59.5 -12.78125 C 60.300781 -10.875 61.101562 -9.457031 61.90625 -8.53125 C 62.707031 -7.601562 63.445312 -6.90625 64.125 -6.4375 C 64.800781 -5.976562 65.34375 -5.515625 65.75 -5.046875 C 66.15625 -4.585938 66.359375 -3.894531 66.359375 -2.96875 C 66.359375 -1.851562 65.984375 -1.078125 65.234375 -0.640625 C 64.492188 -0.210938 63.164062 0 61.25 0 L 44.296875 0 C 42.628906 0 41.410156 -0.210938 40.640625 -0.640625 C 39.867188 -1.078125 39.484375 -1.851562 39.484375 -2.96875 C 39.484375 -3.957031 39.789062 -4.679688 40.40625 -5.140625 C 41.019531 -5.609375 41.664062 -6.085938 42.34375 -6.578125 C 43.03125 -7.078125 43.492188 -7.773438 43.734375 -8.671875 C 43.984375 -9.566406 43.738281 -10.9375 43 -12.78125 L 42.171875 -14.921875 C 41.859375 -15.660156 41.546875 -16.226562 41.234375 -16.625 C 40.929688 -17.03125 40.421875 -17.328125 39.703125 -17.515625 C 38.992188 -17.703125 37.867188 -17.8125 36.328125 -17.84375 C 34.785156 -17.875 32.625 -17.890625 29.84375 -17.890625 C 27.0625 -17.890625 24.910156 -17.875 23.390625 -17.84375 C 21.878906 -17.8125 20.769531 -17.71875 20.0625 -17.5625 C 19.351562 -17.40625 18.859375 -17.15625 18.578125 -16.8125 C 18.296875 -16.476562 18.035156 -16.003906 17.796875 -15.390625 Z M 29.9375 -24.65625 C 32.71875 -24.65625 34.675781 -24.6875 35.8125 -24.75 C 36.957031 -24.8125 37.578125 -25.023438 37.671875 -25.390625 C 37.765625 -25.765625 37.65625 -26.351562 37.34375 -27.15625 L 30.03125 -46.0625 L 22.703125 -27.703125 C 22.335938 -26.710938 22.179688 -26 22.234375 -25.5625 C 22.296875 -25.132812 22.898438 -24.875 24.046875 -24.78125 C 25.191406 -24.695312 27.15625 -24.65625 29.9375 -24.65625 Z M 29.9375 -24.65625 "/></g></g></g><g fill="#fffbeb" fill-opacity="1"><g transform="translate(339.577078, 86.544677)"><g><path d="M 36.234375 0.921875 C 29.992188 0.921875 24.414062 -0.375 19.5 -2.96875 C 14.59375 -5.5625 10.734375 -9.25 7.921875 -14.03125 C 5.109375 -18.820312 3.703125 -24.554688 3.703125 -31.234375 C 3.703125 -35.984375 4.566406 -40.441406 6.296875 -44.609375 C 8.023438 -48.785156 10.445312 -52.460938 13.5625 -55.640625 C 16.6875 -58.828125 20.332031 -61.316406 24.5 -63.109375 C 28.675781 -64.898438 33.175781 -65.796875 38 -65.796875 C 41.019531 -65.796875 43.425781 -65.5 45.21875 -64.90625 C 47.007812 -64.320312 48.398438 -64.03125 49.390625 -64.03125 C 50.253906 -64.03125 50.914062 -64.171875 51.375 -64.453125 C 51.84375 -64.734375 52.320312 -65.007812 52.8125 -65.28125 C 53.3125 -65.5625 53.960938 -65.703125 54.765625 -65.703125 C 55.628906 -65.703125 56.351562 -65.390625 56.9375 -64.765625 C 57.53125 -64.148438 58.132812 -62.859375 58.75 -60.890625 C 59.3125 -59.035156 59.851562 -57.039062 60.375 -54.90625 C 60.894531 -52.769531 61.34375 -50.347656 61.71875 -47.640625 C 61.90625 -46.148438 61.84375 -45.019531 61.53125 -44.25 C 61.226562 -43.476562 60.457031 -43.03125 59.21875 -42.90625 C 58.164062 -42.84375 57.328125 -43.179688 56.703125 -43.921875 C 56.085938 -44.660156 55.226562 -45.804688 54.125 -47.359375 C 51.832031 -50.628906 49.296875 -53.40625 46.515625 -55.6875 C 43.734375 -57.976562 40.523438 -59.125 36.890625 -59.125 C 33.304688 -59.125 30.195312 -58.226562 27.5625 -56.4375 C 24.9375 -54.644531 22.914062 -52.171875 21.5 -49.015625 C 20.082031 -45.867188 19.375 -42.195312 19.375 -38 C 19.375 -34.101562 19.847656 -30.394531 20.796875 -26.875 C 21.753906 -23.351562 23.175781 -20.21875 25.0625 -17.46875 C 26.945312 -14.71875 29.25 -12.554688 31.96875 -10.984375 C 34.6875 -9.410156 37.835938 -8.625 41.421875 -8.625 C 44.753906 -8.625 47.84375 -9.316406 50.6875 -10.703125 C 53.53125 -12.085938 56.28125 -14.203125 58.9375 -17.046875 C 59.738281 -17.910156 60.507812 -18.25 61.25 -18.0625 C 62 -17.882812 62.539062 -17.394531 62.875 -16.59375 C 63.21875 -15.789062 63.140625 -14.863281 62.640625 -13.8125 C 61.285156 -10.84375 59.265625 -8.242188 56.578125 -6.015625 C 53.890625 -3.796875 50.800781 -2.082031 47.3125 -0.875 C 43.820312 0.320312 40.128906 0.921875 36.234375 0.921875 Z M 36.234375 0.921875 "/></g></g></g><g fill="#fffbeb" fill-opacity="1"><g transform="translate(405.100126, 86.544677)"><g><path d="M 53.375 -53.015625 L 47.453125 -47.546875 L 62.828125 -14.171875 C 63.816406 -12.078125 64.804688 -10.519531 65.796875 -9.5 C 66.785156 -8.476562 67.679688 -7.703125 68.484375 -7.171875 C 69.285156 -6.648438 69.929688 -6.109375 70.421875 -5.546875 C 70.921875 -4.992188 71.171875 -4.132812 71.171875 -2.96875 C 71.171875 -1.851562 70.785156 -1.078125 70.015625 -0.640625 C 69.242188 -0.210938 67.867188 0 65.890625 0 L 49.671875 0 C 47.691406 0 46.285156 -0.210938 45.453125 -0.640625 C 44.617188 -1.078125 44.203125 -1.851562 44.203125 -2.96875 C 44.203125 -3.894531 44.460938 -4.664062 44.984375 -5.28125 C 45.515625 -5.894531 46.054688 -6.523438 46.609375 -7.171875 C 47.171875 -7.828125 47.539062 -8.617188 47.71875 -9.546875 C 47.90625 -10.472656 47.660156 -11.675781 46.984375 -13.15625 L 36.140625 -37.0625 L 23.90625 -25.671875 L 23.90625 -16.5 C 23.90625 -13.65625 24.210938 -11.566406 24.828125 -10.234375 C 25.453125 -8.910156 26.179688 -7.953125 27.015625 -7.359375 C 27.847656 -6.773438 28.570312 -6.203125 29.1875 -5.640625 C 29.8125 -5.085938 30.125 -4.195312 30.125 -2.96875 C 30.125 -1.851562 29.734375 -1.078125 28.953125 -0.640625 C 28.179688 -0.210938 26.75 0 24.65625 0 L 7.6875 0 C 5.707031 0 4.300781 -0.210938 3.46875 -0.640625 C 2.632812 -1.078125 2.21875 -1.851562 2.21875 -2.96875 C 2.21875 -3.957031 2.429688 -4.710938 2.859375 -5.234375 C 3.296875 -5.765625 3.820312 -6.226562 4.4375 -6.625 C 5.0625 -7.03125 5.695312 -7.570312 6.34375 -8.25 C 7 -8.925781 7.539062 -9.894531 7.96875 -11.15625 C 8.40625 -12.425781 8.625 -14.207031 8.625 -16.5 L 8.625 -48.375 C 8.625 -51.21875 8.3125 -53.300781 7.6875 -54.625 C 7.070312 -55.957031 6.347656 -56.914062 5.515625 -57.5 C 4.679688 -58.09375 3.953125 -58.664062 3.328125 -59.21875 C 2.710938 -59.769531 2.40625 -60.664062 2.40625 -61.90625 C 2.40625 -63.019531 2.789062 -63.789062 3.5625 -64.21875 C 4.332031 -64.65625 5.769531 -64.875 7.875 -64.875 L 24.84375 -64.875 C 26.8125 -64.875 28.210938 -64.65625 29.046875 -64.21875 C 29.878906 -63.789062 30.296875 -63.019531 30.296875 -61.90625 C 30.296875 -60.914062 30.078125 -60.15625 29.640625 -59.625 C 29.210938 -59.101562 28.691406 -58.640625 28.078125 -58.234375 C 27.460938 -57.835938 26.828125 -57.300781 26.171875 -56.625 C 25.523438 -55.945312 24.984375 -54.972656 24.546875 -53.703125 C 24.117188 -52.429688 23.90625 -50.65625 23.90625 -48.375 L 23.90625 -35.21875 L 42.265625 -53.015625 C 43.617188 -54.304688 44.3125 -55.335938 44.34375 -56.109375 C 44.375 -56.878906 44.078125 -57.523438 43.453125 -58.046875 C 42.835938 -58.578125 42.207031 -59.132812 41.5625 -59.71875 C 40.914062 -60.3125 40.59375 -61.039062 40.59375 -61.90625 C 40.59375 -63.019531 40.929688 -63.789062 41.609375 -64.21875 C 42.285156 -64.65625 43.335938 -64.875 44.765625 -64.875 L 58.75 -64.875 C 60.601562 -64.875 61.992188 -64.65625 62.921875 -64.21875 C 63.847656 -63.789062 64.3125 -63.019531 64.3125 -61.90625 C 64.3125 -60.789062 64.078125 -60 63.609375 -59.53125 C 63.148438 -59.070312 62.441406 -58.65625 61.484375 -58.28125 C 60.523438 -57.914062 59.378906 -57.363281 58.046875 -56.625 C 56.722656 -55.882812 55.164062 -54.679688 53.375 -53.015625 Z M 53.375 -53.015625 "/></g></g></g><g fill="#fffbeb" fill-opacity="1"><g transform="translate(475.905773, 86.544677)"><g><path d="M 29.28125 0.828125 C 25.882812 0.828125 23.039062 0.503906 20.75 -0.140625 C 18.46875 -0.785156 16.738281 -1.109375 15.5625 -1.109375 C 14.582031 -1.109375 13.8125 -0.9375 13.25 -0.59375 C 12.695312 -0.257812 12.21875 0.0703125 11.8125 0.40625 C 11.414062 0.75 10.875 0.921875 10.1875 0.921875 C 9.382812 0.921875 8.660156 0.582031 8.015625 -0.09375 C 7.367188 -0.769531 6.890625 -2.097656 6.578125 -4.078125 C 6.148438 -6.671875 5.796875 -9.09375 5.515625 -11.34375 C 5.234375 -13.601562 5.03125 -15.785156 4.90625 -17.890625 C 4.84375 -19.304688 4.984375 -20.414062 5.328125 -21.21875 C 5.671875 -22.019531 6.304688 -22.421875 7.234375 -22.421875 C 8.160156 -22.421875 8.882812 -22.097656 9.40625 -21.453125 C 9.925781 -20.804688 10.679688 -19.679688 11.671875 -18.078125 C 12.597656 -16.523438 13.847656 -14.804688 15.421875 -12.921875 C 17.003906 -11.035156 19.03125 -9.414062 21.5 -8.0625 C 23.96875 -6.707031 26.929688 -6.03125 30.390625 -6.03125 C 33.296875 -5.96875 35.363281 -6.707031 36.59375 -8.25 C 37.832031 -9.789062 38.484375 -11.457031 38.546875 -13.25 C 38.546875 -15.164062 37.820312 -16.878906 36.375 -18.390625 C 34.925781 -19.910156 33.054688 -21.332031 30.765625 -22.65625 C 28.484375 -23.988281 26.070312 -25.300781 23.53125 -26.59375 C 20.007812 -28.445312 16.921875 -30.191406 14.265625 -31.828125 C 11.609375 -33.460938 9.523438 -35.40625 8.015625 -37.65625 C 6.503906 -39.914062 5.75 -42.835938 5.75 -46.421875 C 5.75 -50.066406 6.796875 -53.34375 8.890625 -56.25 C 10.992188 -59.15625 13.851562 -61.457031 17.46875 -63.15625 C 21.082031 -64.851562 25.113281 -65.703125 29.5625 -65.703125 C 31.90625 -65.703125 34.035156 -65.46875 35.953125 -65 C 37.867188 -64.539062 39.320312 -64.3125 40.3125 -64.3125 C 41.550781 -64.3125 42.429688 -64.539062 42.953125 -65 C 43.472656 -65.46875 44.226562 -65.703125 45.21875 -65.703125 C 46.082031 -65.703125 46.820312 -65.390625 47.4375 -64.765625 C 48.0625 -64.148438 48.585938 -62.859375 49.015625 -60.890625 C 49.390625 -59.097656 49.726562 -57.226562 50.03125 -55.28125 C 50.34375 -53.332031 50.53125 -51.367188 50.59375 -49.390625 C 50.71875 -47.972656 50.5625 -46.847656 50.125 -46.015625 C 49.695312 -45.179688 48.957031 -44.765625 47.90625 -44.765625 C 47.101562 -44.765625 46.378906 -45.117188 45.734375 -45.828125 C 45.085938 -46.535156 44.238281 -47.628906 43.1875 -49.109375 C 42.132812 -50.597656 40.894531 -52.128906 39.46875 -53.703125 C 38.050781 -55.273438 36.429688 -56.585938 34.609375 -57.640625 C 32.785156 -58.691406 30.765625 -59.21875 28.546875 -59.21875 C 25.953125 -59.21875 23.957031 -58.550781 22.5625 -57.21875 C 21.175781 -55.894531 20.484375 -54.179688 20.484375 -52.078125 C 20.484375 -49.421875 21.671875 -47.148438 24.046875 -45.265625 C 26.421875 -43.378906 30.113281 -41.140625 35.125 -38.546875 C 38.832031 -36.691406 42.117188 -34.914062 44.984375 -33.21875 C 47.859375 -31.519531 50.113281 -29.585938 51.75 -27.421875 C 53.394531 -25.265625 54.21875 -22.488281 54.21875 -19.09375 C 54.21875 -15.9375 53.535156 -13.125 52.171875 -10.65625 C 50.816406 -8.1875 48.945312 -6.101562 46.5625 -4.40625 C 44.1875 -2.707031 41.5 -1.410156 38.5 -0.515625 C 35.507812 0.378906 32.4375 0.828125 29.28125 0.828125 Z M 29.28125 0.828125 "/></g></g></g><g fill="#fffbeb" fill-opacity="1"><g transform="translate(534.570656, 86.544677)"><g><path d="M 38 -53.84375 L 38 -16.5 C 38 -13.65625 38.304688 -11.566406 38.921875 -10.234375 C 39.535156 -8.910156 40.257812 -7.953125 41.09375 -7.359375 C 41.925781 -6.773438 42.648438 -6.203125 43.265625 -5.640625 C 43.890625 -5.085938 44.203125 -4.195312 44.203125 -2.96875 C 44.203125 -1.851562 43.816406 -1.078125 43.046875 -0.640625 C 42.273438 -0.210938 40.835938 0 38.734375 0 L 21.78125 0 C 19.800781 0 18.394531 -0.210938 17.5625 -0.640625 C 16.726562 -1.078125 16.3125 -1.851562 16.3125 -2.96875 C 16.3125 -3.957031 16.523438 -4.710938 16.953125 -5.234375 C 17.390625 -5.765625 17.929688 -6.226562 18.578125 -6.625 C 19.222656 -7.03125 19.851562 -7.570312 20.46875 -8.25 C 21.09375 -8.925781 21.617188 -9.894531 22.046875 -11.15625 C 22.484375 -12.425781 22.703125 -14.207031 22.703125 -16.5 L 22.703125 -53.84375 C 22.703125 -56.375 21.4375 -57.640625 18.90625 -57.640625 C 17.050781 -57.640625 15.519531 -57.269531 14.3125 -56.53125 C 13.113281 -55.789062 12.050781 -54.660156 11.125 -53.140625 C 10.195312 -51.628906 9.144531 -49.765625 7.96875 -47.546875 C 7.476562 -46.492188 6.953125 -45.671875 6.390625 -45.078125 C 5.835938 -44.492188 5.191406 -44.203125 4.453125 -44.203125 C 3.460938 -44.203125 2.78125 -44.601562 2.40625 -45.40625 C 2.039062 -46.207031 1.890625 -47.320312 1.953125 -48.75 C 2.066406 -51.46875 2.25 -53.796875 2.5 -55.734375 C 2.75 -57.679688 3.054688 -59.335938 3.421875 -60.703125 C 3.859375 -62.179688 4.601562 -63.242188 5.65625 -63.890625 C 6.707031 -64.546875 8.59375 -64.875 11.3125 -64.875 L 49.296875 -64.875 C 52.078125 -64.875 53.992188 -64.546875 55.046875 -63.890625 C 56.097656 -63.242188 56.804688 -62.179688 57.171875 -60.703125 C 57.546875 -59.335938 57.867188 -57.679688 58.140625 -55.734375 C 58.421875 -53.796875 58.59375 -51.46875 58.65625 -48.75 C 58.71875 -47.382812 58.578125 -46.285156 58.234375 -45.453125 C 57.898438 -44.617188 57.207031 -44.203125 56.15625 -44.203125 C 55.414062 -44.203125 54.78125 -44.492188 54.25 -45.078125 C 53.726562 -45.671875 53.191406 -46.492188 52.640625 -47.546875 C 50.972656 -50.878906 49.425781 -53.410156 48 -55.140625 C 46.582031 -56.867188 44.484375 -57.734375 41.703125 -57.734375 C 39.234375 -57.734375 38 -56.4375 38 -53.84375 Z M 38 -53.84375 "/></g></g></g><g fill="#fffbeb" fill-opacity="1"><g transform="translate(589.621136, 86.544677)"><g><path d="M 17.796875 -15.390625 L 16.5 -12.234375 C 15.757812 -10.503906 15.460938 -9.191406 15.609375 -8.296875 C 15.765625 -7.398438 16.101562 -6.71875 16.625 -6.25 C 17.15625 -5.789062 17.664062 -5.328125 18.15625 -4.859375 C 18.65625 -4.398438 18.90625 -3.707031 18.90625 -2.78125 C 18.90625 -1.664062 18.457031 -0.9375 17.5625 -0.59375 C 16.664062 -0.257812 15.566406 -0.09375 14.265625 -0.09375 L 5.5625 -0.09375 C 3.957031 -0.09375 2.675781 -0.273438 1.71875 -0.640625 C 0.757812 -1.015625 0.28125 -1.726562 0.28125 -2.78125 C 0.28125 -3.707031 0.554688 -4.414062 1.109375 -4.90625 C 1.671875 -5.40625 2.382812 -5.914062 3.25 -6.4375 C 4.113281 -6.96875 4.992188 -7.664062 5.890625 -8.53125 C 6.785156 -9.394531 7.539062 -10.628906 8.15625 -12.234375 L 24.375 -52.265625 C 24.988281 -53.867188 25.1875 -55.101562 24.96875 -55.96875 C 24.757812 -56.832031 24.359375 -57.539062 23.765625 -58.09375 C 23.179688 -58.65625 22.625 -59.226562 22.09375 -59.8125 C 21.570312 -60.40625 21.3125 -61.164062 21.3125 -62.09375 C 21.3125 -63.082031 21.601562 -63.789062 22.1875 -64.21875 C 22.78125 -64.65625 23.539062 -64.875 24.46875 -64.875 L 35.953125 -64.875 C 37.804688 -64.875 39.132812 -63.976562 39.9375 -62.1875 L 59.5 -12.78125 C 60.300781 -10.875 61.101562 -9.457031 61.90625 -8.53125 C 62.707031 -7.601562 63.445312 -6.90625 64.125 -6.4375 C 64.800781 -5.976562 65.34375 -5.515625 65.75 -5.046875 C 66.15625 -4.585938 66.359375 -3.894531 66.359375 -2.96875 C 66.359375 -1.851562 65.984375 -1.078125 65.234375 -0.640625 C 64.492188 -0.210938 63.164062 0 61.25 0 L 44.296875 0 C 42.628906 0 41.410156 -0.210938 40.640625 -0.640625 C 39.867188 -1.078125 39.484375 -1.851562 39.484375 -2.96875 C 39.484375 -3.957031 39.789062 -4.679688 40.40625 -5.140625 C 41.019531 -5.609375 41.664062 -6.085938 42.34375 -6.578125 C 43.03125 -7.078125 43.492188 -7.773438 43.734375 -8.671875 C 43.984375 -9.566406 43.738281 -10.9375 43 -12.78125 L 42.171875 -14.921875 C 41.859375 -15.660156 41.546875 -16.226562 41.234375 -16.625 C 40.929688 -17.03125 40.421875 -17.328125 39.703125 -17.515625 C 38.992188 -17.703125 37.867188 -17.8125 36.328125 -17.84375 C 34.785156 -17.875 32.625 -17.890625 29.84375 -17.890625 C 27.0625 -17.890625 24.910156 -17.875 23.390625 -17.84375 C 21.878906 -17.8125 20.769531 -17.71875 20.0625 -17.5625 C 19.351562 -17.40625 18.859375 -17.15625 18.578125 -16.8125 C 18.296875 -16.476562 18.035156 -16.003906 17.796875 -15.390625 Z M 29.9375 -24.65625 C 32.71875 -24.65625 34.675781 -24.6875 35.8125 -24.75 C 36.957031 -24.8125 37.578125 -25.023438 37.671875 -25.390625 C 37.765625 -25.765625 37.65625 -26.351562 37.34375 -27.15625 L 30.03125 -46.0625 L 22.703125 -27.703125 C 22.335938 -26.710938 22.179688 -26 22.234375 -25.5625 C 22.296875 -25.132812 22.898438 -24.875 24.046875 -24.78125 C 25.191406 -24.695312 27.15625 -24.65625 29.9375 -24.65625 Z M 29.9375 -24.65625 "/></g></g></g><g fill="#fffbeb" fill-opacity="1"><g transform="translate(657.368402, 86.544677)"><g><path d="M 36.515625 0.921875 C 30.085938 0.921875 24.398438 -0.40625 19.453125 -3.0625 C 14.515625 -5.71875 10.65625 -9.453125 7.875 -14.265625 C 5.09375 -19.085938 3.703125 -24.742188 3.703125 -31.234375 C 3.703125 -35.984375 4.535156 -40.441406 6.203125 -44.609375 C 7.878906 -48.785156 10.195312 -52.460938 13.15625 -55.640625 C 16.125 -58.828125 19.613281 -61.316406 23.625 -63.109375 C 27.644531 -64.898438 32.003906 -65.796875 36.703125 -65.796875 C 40.460938 -65.796875 43.394531 -65.515625 45.5 -64.953125 C 47.601562 -64.398438 49.148438 -64.125 50.140625 -64.125 C 50.941406 -64.125 51.585938 -64.265625 52.078125 -64.546875 C 52.578125 -64.828125 53.070312 -65.085938 53.5625 -65.328125 C 54.0625 -65.578125 54.710938 -65.703125 55.515625 -65.703125 C 56.378906 -65.703125 57.148438 -65.390625 57.828125 -64.765625 C 58.503906 -64.148438 59.0625 -62.859375 59.5 -60.890625 C 59.863281 -59.097656 60.226562 -57.132812 60.59375 -55 C 60.96875 -52.863281 61.34375 -50.378906 61.71875 -47.546875 C 61.90625 -46.117188 61.796875 -45.019531 61.390625 -44.25 C 60.992188 -43.476562 60.175781 -43.03125 58.9375 -42.90625 C 57.882812 -42.84375 57.003906 -43.179688 56.296875 -43.921875 C 55.585938 -44.660156 54.707031 -45.804688 53.65625 -47.359375 C 52.238281 -49.390625 50.738281 -51.300781 49.15625 -53.09375 C 47.582031 -54.882812 45.757812 -56.335938 43.6875 -57.453125 C 41.625 -58.566406 39.078125 -59.125 36.046875 -59.125 C 32.398438 -59.125 29.34375 -58.179688 26.875 -56.296875 C 24.40625 -54.410156 22.535156 -51.875 21.265625 -48.6875 C 20.003906 -45.507812 19.375 -41.914062 19.375 -37.90625 C 19.375 -31.90625 20.175781 -26.539062 21.78125 -21.8125 C 23.382812 -17.09375 25.726562 -13.390625 28.8125 -10.703125 C 31.90625 -8.015625 35.644531 -6.671875 40.03125 -6.671875 C 41.269531 -6.671875 42.613281 -6.867188 44.0625 -7.265625 C 45.519531 -7.671875 46.753906 -8.320312 47.765625 -9.21875 C 48.785156 -10.113281 49.296875 -11.273438 49.296875 -12.703125 L 49.296875 -18.625 C 49.296875 -20.476562 48.988281 -21.898438 48.375 -22.890625 C 47.757812 -23.878906 46.988281 -24.617188 46.0625 -25.109375 C 45.132812 -25.609375 44.222656 -26.007812 43.328125 -26.3125 C 42.429688 -26.625 41.65625 -27.007812 41 -27.46875 C 40.351562 -27.9375 40.03125 -28.632812 40.03125 -29.5625 C 40.03125 -30.675781 40.414062 -31.445312 41.1875 -31.875 C 41.957031 -32.3125 43.363281 -32.5625 45.40625 -32.625 L 63.578125 -32.8125 C 65.179688 -32.8125 66.367188 -32.59375 67.140625 -32.15625 C 67.910156 -31.726562 68.296875 -30.957031 68.296875 -29.84375 C 68.296875 -28.914062 68.125 -28.1875 67.78125 -27.65625 C 67.445312 -27.132812 67.03125 -26.59375 66.53125 -26.03125 C 66.039062 -25.476562 65.609375 -24.660156 65.234375 -23.578125 C 64.867188 -22.503906 64.6875 -20.914062 64.6875 -18.8125 L 64.6875 -13.4375 C 64.6875 -11.15625 63.476562 -8.914062 61.0625 -6.71875 C 58.65625 -4.519531 55.335938 -2.695312 51.109375 -1.25 C 46.878906 0.195312 42.015625 0.921875 36.515625 0.921875 Z M 36.515625 0.921875 "/></g></g></g><g fill="#fffbeb" fill-opacity="1"><g transform="translate(730.120282, 86.544677)"><g><path d="M 53.015625 -20.9375 C 54.117188 -20.695312 54.796875 -20.1875 55.046875 -19.40625 C 55.296875 -18.632812 55.390625 -17.539062 55.328125 -16.125 C 55.265625 -13.40625 55.09375 -11.070312 54.8125 -9.125 C 54.53125 -7.175781 54.207031 -5.523438 53.84375 -4.171875 C 53.40625 -2.691406 52.660156 -1.625 51.609375 -0.96875 C 50.566406 -0.320312 48.6875 0 45.96875 0 L 7.6875 0 C 5.707031 0 4.300781 -0.210938 3.46875 -0.640625 C 2.632812 -1.078125 2.21875 -1.851562 2.21875 -2.96875 C 2.21875 -4.082031 2.476562 -4.914062 3 -5.46875 C 3.53125 -6.019531 4.164062 -6.539062 4.90625 -7.03125 C 5.65625 -7.53125 6.351562 -8.195312 7 -9.03125 C 7.644531 -9.863281 8.09375 -11.054688 8.34375 -12.609375 C 8.46875 -13.285156 8.546875 -13.945312 8.578125 -14.59375 C 8.609375 -15.238281 8.625 -16.117188 8.625 -17.234375 L 8.625 -47.640625 C 8.625 -48.742188 8.609375 -49.632812 8.578125 -50.3125 C 8.546875 -51 8.46875 -51.648438 8.34375 -52.265625 C 8.09375 -53.867188 7.644531 -55.070312 7 -55.875 C 6.351562 -56.675781 5.65625 -57.320312 4.90625 -57.8125 C 4.164062 -58.3125 3.53125 -58.835938 3 -59.390625 C 2.476562 -59.953125 2.21875 -60.789062 2.21875 -61.90625 C 2.21875 -63.019531 2.632812 -63.789062 3.46875 -64.21875 C 4.300781 -64.65625 5.707031 -64.875 7.6875 -64.875 L 43.734375 -64.875 C 46.453125 -64.875 48.382812 -64.5625 49.53125 -63.9375 C 50.675781 -63.320312 51.460938 -62.488281 51.890625 -61.4375 C 53.128906 -58.84375 54.117188 -55.691406 54.859375 -51.984375 C 55.171875 -50.628906 55.21875 -49.519531 55 -48.65625 C 54.78125 -47.789062 54.238281 -47.203125 53.375 -46.890625 C 51.707031 -46.335938 50.132812 -47.171875 48.65625 -49.390625 C 46.738281 -52.296875 44.710938 -54.488281 42.578125 -55.96875 C 40.453125 -57.457031 37.9375 -58.203125 35.03125 -58.203125 L 31.046875 -58.203125 C 28.140625 -58.203125 26.222656 -57.859375 25.296875 -57.171875 C 24.367188 -56.492188 23.90625 -55.414062 23.90625 -53.9375 L 23.90625 -42.34375 C 23.90625 -40.5 24.414062 -39.28125 25.4375 -38.6875 C 26.457031 -38.101562 27.957031 -37.8125 29.9375 -37.8125 L 31.78125 -37.8125 C 33.269531 -37.8125 34.367188 -38.179688 35.078125 -38.921875 C 35.785156 -39.660156 36.320312 -40.492188 36.6875 -41.421875 C 37.0625 -42.347656 37.476562 -43.179688 37.9375 -43.921875 C 38.40625 -44.660156 39.132812 -45.03125 40.125 -45.03125 C 41.175781 -45.03125 41.929688 -44.675781 42.390625 -43.96875 C 42.859375 -43.257812 43.09375 -42.039062 43.09375 -40.3125 L 43.09375 -28.359375 C 43.09375 -25.328125 42.101562 -23.8125 40.125 -23.8125 C 39.132812 -23.8125 38.40625 -24.179688 37.9375 -24.921875 C 37.476562 -25.671875 37.0625 -26.519531 36.6875 -27.46875 C 36.320312 -28.425781 35.785156 -29.273438 35.078125 -30.015625 C 34.367188 -30.765625 33.269531 -31.140625 31.78125 -31.140625 L 29.9375 -31.140625 C 27.957031 -31.140625 26.457031 -30.859375 25.4375 -30.296875 C 24.414062 -29.742188 23.90625 -28.507812 23.90625 -26.59375 L 23.90625 -10.9375 C 23.90625 -9.457031 24.398438 -8.375 25.390625 -7.6875 C 26.378906 -7.007812 28.507812 -6.671875 31.78125 -6.671875 L 37.53125 -6.765625 C 39.445312 -6.765625 41.003906 -7.179688 42.203125 -8.015625 C 43.410156 -8.847656 44.492188 -10.066406 45.453125 -11.671875 C 46.410156 -13.285156 47.445312 -15.203125 48.5625 -17.421875 C 49.363281 -19.023438 50.101562 -20.054688 50.78125 -20.515625 C 51.457031 -20.984375 52.203125 -21.125 53.015625 -20.9375 Z M 53.015625 -20.9375 "/></g></g></g><g fill="#fffbeb" fill-opacity="1"><g transform="translate(788.599807, 86.544677)"><g/></g></g><g fill="#fffbeb" fill-opacity="1"><g transform="translate(807.135342, 86.544677)"><g><path d="M 7.6875 -64.875 L 29.1875 -64.875 C 35.738281 -64.875 41.332031 -63.851562 45.96875 -61.8125 C 50.601562 -59.769531 54.171875 -56.894531 56.671875 -53.1875 C 59.171875 -49.488281 60.421875 -45.101562 60.421875 -40.03125 C 60.421875 -32.988281 57.976562 -27.769531 53.09375 -24.375 C 48.21875 -20.976562 41.144531 -19.28125 31.875 -19.28125 L 25.765625 -19.28125 C 25.148438 -19.28125 24.6875 -19.1875 24.375 -19 C 24.0625 -18.8125 23.90625 -18.285156 23.90625 -17.421875 L 23.90625 -16.5 C 23.90625 -13.65625 24.210938 -11.566406 24.828125 -10.234375 C 25.453125 -8.910156 26.179688 -7.953125 27.015625 -7.359375 C 27.847656 -6.773438 28.570312 -6.203125 29.1875 -5.640625 C 29.8125 -5.085938 30.125 -4.195312 30.125 -2.96875 C 30.125 -1.851562 29.734375 -1.078125 28.953125 -0.640625 C 28.179688 -0.210938 26.75 0 24.65625 0 L 7.6875 0 C 5.707031 0 4.300781 -0.210938 3.46875 -0.640625 C 2.632812 -1.078125 2.21875 -1.851562 2.21875 -2.96875 C 2.21875 -3.957031 2.429688 -4.710938 2.859375 -5.234375 C 3.296875 -5.765625 3.820312 -6.226562 4.4375 -6.625 C 5.0625 -7.03125 5.695312 -7.570312 6.34375 -8.25 C 7 -8.925781 7.539062 -9.894531 7.96875 -11.15625 C 8.40625 -12.425781 8.625 -14.207031 8.625 -16.5 L 8.625 -47.640625 C 8.625 -48.742188 8.609375 -49.632812 8.578125 -50.3125 C 8.546875 -51 8.46875 -51.648438 8.34375 -52.265625 C 8.09375 -53.867188 7.644531 -55.070312 7 -55.875 C 6.351562 -56.675781 5.65625 -57.320312 4.90625 -57.8125 C 4.164062 -58.3125 3.53125 -58.835938 3 -59.390625 C 2.476562 -59.953125 2.21875 -60.789062 2.21875 -61.90625 C 2.21875 -63.019531 2.632812 -63.789062 3.46875 -64.21875 C 4.300781 -64.65625 5.707031 -64.875 7.6875 -64.875 Z M 31.046875 -25.671875 C 35.492188 -25.671875 38.9375 -26.84375 41.375 -29.1875 C 43.8125 -31.539062 45.03125 -34.722656 45.03125 -38.734375 C 45.03125 -43.117188 44.242188 -46.78125 42.671875 -49.71875 C 41.097656 -52.65625 39.085938 -54.878906 36.640625 -56.390625 C 34.203125 -57.898438 31.65625 -58.65625 29 -58.65625 C 26.65625 -58.65625 25.21875 -58.484375 24.6875 -58.140625 C 24.164062 -57.804688 23.90625 -57.144531 23.90625 -56.15625 L 23.90625 -28.828125 C 23.90625 -27.648438 24.429688 -26.828125 25.484375 -26.359375 C 26.535156 -25.898438 28.390625 -25.671875 31.046875 -25.671875 Z M 31.046875 -25.671875 "/></g></g></g><g fill="#fffbeb" fill-opacity="1"><g transform="translate(861.536992, 86.544677)"><g><path d="M 17.796875 -15.390625 L 16.5 -12.234375 C 15.757812 -10.503906 15.460938 -9.191406 15.609375 -8.296875 C 15.765625 -7.398438 16.101562 -6.71875 16.625 -6.25 C 17.15625 -5.789062 17.664062 -5.328125 18.15625 -4.859375 C 18.65625 -4.398438 18.90625 -3.707031 18.90625 -2.78125 C 18.90625 -1.664062 18.457031 -0.9375 17.5625 -0.59375 C 16.664062 -0.257812 15.566406 -0.09375 14.265625 -0.09375 L 5.5625 -0.09375 C 3.957031 -0.09375 2.675781 -0.273438 1.71875 -0.640625 C 0.757812 -1.015625 0.28125 -1.726562 0.28125 -2.78125 C 0.28125 -3.707031 0.554688 -4.414062 1.109375 -4.90625 C 1.671875 -5.40625 2.382812 -5.914062 3.25 -6.4375 C 4.113281 -6.96875 4.992188 -7.664062 5.890625 -8.53125 C 6.785156 -9.394531 7.539062 -10.628906 8.15625 -12.234375 L 24.375 -52.265625 C 24.988281 -53.867188 25.1875 -55.101562 24.96875 -55.96875 C 24.757812 -56.832031 24.359375 -57.539062 23.765625 -58.09375 C 23.179688 -58.65625 22.625 -59.226562 22.09375 -59.8125 C 21.570312 -60.40625 21.3125 -61.164062 21.3125 -62.09375 C 21.3125 -63.082031 21.601562 -63.789062 22.1875 -64.21875 C 22.78125 -64.65625 23.539062 -64.875 24.46875 -64.875 L 35.953125 -64.875 C 37.804688 -64.875 39.132812 -63.976562 39.9375 -62.1875 L 59.5 -12.78125 C 60.300781 -10.875 61.101562 -9.457031 61.90625 -8.53125 C 62.707031 -7.601562 63.445312 -6.90625 64.125 -6.4375 C 64.800781 -5.976562 65.34375 -5.515625 65.75 -5.046875 C 66.15625 -4.585938 66.359375 -3.894531 66.359375 -2.96875 C 66.359375 -1.851562 65.984375 -1.078125 65.234375 -0.640625 C 64.492188 -0.210938 63.164062 0 61.25 0 L 44.296875 0 C 42.628906 0 41.410156 -0.210938 40.640625 -0.640625 C 39.867188 -1.078125 39.484375 -1.851562 39.484375 -2.96875 C 39.484375 -3.957031 39.789062 -4.679688 40.40625 -5.140625 C 41.019531 -5.609375 41.664062 -6.085938 42.34375 -6.578125 C 43.03125 -7.078125 43.492188 -7.773438 43.734375 -8.671875 C 43.984375 -9.566406 43.738281 -10.9375 43 -12.78125 L 42.171875 -14.921875 C 41.859375 -15.660156 41.546875 -16.226562 41.234375 -16.625 C 40.929688 -17.03125 40.421875 -17.328125 39.703125 -17.515625 C 38.992188 -17.703125 37.867188 -17.8125 36.328125 -17.84375 C 34.785156 -17.875 32.625 -17.890625 29.84375 -17.890625 C 27.0625 -17.890625 24.910156 -17.875 23.390625 -17.84375 C 21.878906 -17.8125 20.769531 -17.71875 20.0625 -17.5625 C 19.351562 -17.40625 18.859375 -17.15625 18.578125 -16.8125 C 18.296875 -16.476562 18.035156 -16.003906 17.796875 -15.390625 Z M 29.9375 -24.65625 C 32.71875 -24.65625 34.675781 -24.6875 35.8125 -24.75 C 36.957031 -24.8125 37.578125 -25.023438 37.671875 -25.390625 C 37.765625 -25.765625 37.65625 -26.351562 37.34375 -27.15625 L 30.03125 -46.0625 L 22.703125 -27.703125 C 22.335938 -26.710938 22.179688 -26 22.234375 -25.5625 C 22.296875 -25.132812 22.898438 -24.875 24.046875 -24.78125 C 25.191406 -24.695312 27.15625 -24.65625 29.9375 -24.65625 Z M 29.9375 -24.65625 "/></g></g></g><g fill="#fffbeb" fill-opacity="1"><g transform="translate(929.284361, 86.544677)"><g><path d="M 29.28125 0.828125 C 25.882812 0.828125 23.039062 0.503906 20.75 -0.140625 C 18.46875 -0.785156 16.738281 -1.109375 15.5625 -1.109375 C 14.582031 -1.109375 13.8125 -0.9375 13.25 -0.59375 C 12.695312 -0.257812 12.21875 0.0703125 11.8125 0.40625 C 11.414062 0.75 10.875 0.921875 10.1875 0.921875 C 9.382812 0.921875 8.660156 0.582031 8.015625 -0.09375 C 7.367188 -0.769531 6.890625 -2.097656 6.578125 -4.078125 C 6.148438 -6.671875 5.796875 -9.09375 5.515625 -11.34375 C 5.234375 -13.601562 5.03125 -15.785156 4.90625 -17.890625 C 4.84375 -19.304688 4.984375 -20.414062 5.328125 -21.21875 C 5.671875 -22.019531 6.304688 -22.421875 7.234375 -22.421875 C 8.160156 -22.421875 8.882812 -22.097656 9.40625 -21.453125 C 9.925781 -20.804688 10.679688 -19.679688 11.671875 -18.078125 C 12.597656 -16.523438 13.847656 -14.804688 15.421875 -12.921875 C 17.003906 -11.035156 19.03125 -9.414062 21.5 -8.0625 C 23.96875 -6.707031 26.929688 -6.03125 30.390625 -6.03125 C 33.296875 -5.96875 35.363281 -6.707031 36.59375 -8.25 C 37.832031 -9.789062 38.484375 -11.457031 38.546875 -13.25 C 38.546875 -15.164062 37.820312 -16.878906 36.375 -18.390625 C 34.925781 -19.910156 33.054688 -21.332031 30.765625 -22.65625 C 28.484375 -23.988281 26.070312 -25.300781 23.53125 -26.59375 C 20.007812 -28.445312 16.921875 -30.191406 14.265625 -31.828125 C 11.609375 -33.460938 9.523438 -35.40625 8.015625 -37.65625 C 6.503906 -39.914062 5.75 -42.835938 5.75 -46.421875 C 5.75 -50.066406 6.796875 -53.34375 8.890625 -56.25 C 10.992188 -59.15625 13.851562 -61.457031 17.46875 -63.15625 C 21.082031 -64.851562 25.113281 -65.703125 29.5625 -65.703125 C 31.90625 -65.703125 34.035156 -65.46875 35.953125 -65 C 37.867188 -64.539062 39.320312 -64.3125 40.3125 -64.3125 C 41.550781 -64.3125 42.429688 -64.539062 42.953125 -65 C 43.472656 -65.46875 44.226562 -65.703125 45.21875 -65.703125 C 46.082031 -65.703125 46.820312 -65.390625 47.4375 -64.765625 C 48.0625 -64.148438 48.585938 -62.859375 49.015625 -60.890625 C 49.390625 -59.097656 49.726562 -57.226562 50.03125 -55.28125 C 50.34375 -53.332031 50.53125 -51.367188 50.59375 -49.390625 C 50.71875 -47.972656 50.5625 -46.847656 50.125 -46.015625 C 49.695312 -45.179688 48.957031 -44.765625 47.90625 -44.765625 C 47.101562 -44.765625 46.378906 -45.117188 45.734375 -45.828125 C 45.085938 -46.535156 44.238281 -47.628906 43.1875 -49.109375 C 42.132812 -50.597656 40.894531 -52.128906 39.46875 -53.703125 C 38.050781 -55.273438 36.429688 -56.585938 34.609375 -57.640625 C 32.785156 -58.691406 30.765625 -59.21875 28.546875 -59.21875 C 25.953125 -59.21875 23.957031 -58.550781 22.5625 -57.21875 C 21.175781 -55.894531 20.484375 -54.179688 20.484375 -52.078125 C 20.484375 -49.421875 21.671875 -47.148438 24.046875 -45.265625 C 26.421875 -43.378906 30.113281 -41.140625 35.125 -38.546875 C 38.832031 -36.691406 42.117188 -34.914062 44.984375 -33.21875 C 47.859375 -31.519531 50.113281 -29.585938 51.75 -27.421875 C 53.394531 -25.265625 54.21875 -22.488281 54.21875 -19.09375 C 54.21875 -15.9375 53.535156 -13.125 52.171875 -10.65625 C 50.816406 -8.1875 48.945312 -6.101562 46.5625 -4.40625 C 44.1875 -2.707031 41.5 -1.410156 38.5 -0.515625 C 35.507812 0.378906 32.4375 0.828125 29.28125 0.828125 Z M 29.28125 0.828125 "/></g></g></g><g fill="#fffbeb" fill-opacity="1"><g transform="translate(987.949244, 86.544677)"><g><path d="M 29.28125 0.828125 C 25.882812 0.828125 23.039062 0.503906 20.75 -0.140625 C 18.46875 -0.785156 16.738281 -1.109375 15.5625 -1.109375 C 14.582031 -1.109375 13.8125 -0.9375 13.25 -0.59375 C 12.695312 -0.257812 12.21875 0.0703125 11.8125 0.40625 C 11.414062 0.75 10.875 0.921875 10.1875 0.921875 C 9.382812 0.921875 8.660156 0.582031 8.015625 -0.09375 C 7.367188 -0.769531 6.890625 -2.097656 6.578125 -4.078125 C 6.148438 -6.671875 5.796875 -9.09375 5.515625 -11.34375 C 5.234375 -13.601562 5.03125 -15.785156 4.90625 -17.890625 C 4.84375 -19.304688 4.984375 -20.414062 5.328125 -21.21875 C 5.671875 -22.019531 6.304688 -22.421875 7.234375 -22.421875 C 8.160156 -22.421875 8.882812 -22.097656 9.40625 -21.453125 C 9.925781 -20.804688 10.679688 -19.679688 11.671875 -18.078125 C 12.597656 -16.523438 13.847656 -14.804688 15.421875 -12.921875 C 17.003906 -11.035156 19.03125 -9.414062 21.5 -8.0625 C 23.96875 -6.707031 26.929688 -6.03125 30.390625 -6.03125 C 33.296875 -5.96875 35.363281 -6.707031 36.59375 -8.25 C 37.832031 -9.789062 38.484375 -11.457031 38.546875 -13.25 C 38.546875 -15.164062 37.820312 -16.878906 36.375 -18.390625 C 34.925781 -19.910156 33.054688 -21.332031 30.765625 -22.65625 C 28.484375 -23.988281 26.070312 -25.300781 23.53125 -26.59375 C 20.007812 -28.445312 16.921875 -30.191406 14.265625 -31.828125 C 11.609375 -33.460938 9.523438 -35.40625 8.015625 -37.65625 C 6.503906 -39.914062 5.75 -42.835938 5.75 -46.421875 C 5.75 -50.066406 6.796875 -53.34375 8.890625 -56.25 C 10.992188 -59.15625 13.851562 -61.457031 17.46875 -63.15625 C 21.082031 -64.851562 25.113281 -65.703125 29.5625 -65.703125 C 31.90625 -65.703125 34.035156 -65.46875 35.953125 -65 C 37.867188 -64.539062 39.320312 -64.3125 40.3125 -64.3125 C 41.550781 -64.3125 42.429688 -64.539062 42.953125 -65 C 43.472656 -65.46875 44.226562 -65.703125 45.21875 -65.703125 C 46.082031 -65.703125 46.820312 -65.390625 47.4375 -64.765625 C 48.0625 -64.148438 48.585938 -62.859375 49.015625 -60.890625 C 49.390625 -59.097656 49.726562 -57.226562 50.03125 -55.28125 C 50.34375 -53.332031 50.53125 -51.367188 50.59375 -49.390625 C 50.71875 -47.972656 50.5625 -46.847656 50.125 -46.015625 C 49.695312 -45.179688 48.957031 -44.765625 47.90625 -44.765625 C 47.101562 -44.765625 46.378906 -45.117188 45.734375 -45.828125 C 45.085938 -46.535156 44.238281 -47.628906 43.1875 -49.109375 C 42.132812 -50.597656 40.894531 -52.128906 39.46875 -53.703125 C 38.050781 -55.273438 36.429688 -56.585938 34.609375 -57.640625 C 32.785156 -58.691406 30.765625 -59.21875 28.546875 -59.21875 C 25.953125 -59.21875 23.957031 -58.550781 22.5625 -57.21875 C 21.175781 -55.894531 20.484375 -54.179688 20.484375 -52.078125 C 20.484375 -49.421875 21.671875 -47.148438 24.046875 -45.265625 C 26.421875 -43.378906 30.113281 -41.140625 35.125 -38.546875 C 38.832031 -36.691406 42.117188 -34.914062 44.984375 -33.21875 C 47.859375 -31.519531 50.113281 -29.585938 51.75 -27.421875 C 53.394531 -25.265625 54.21875 -22.488281 54.21875 -19.09375 C 54.21875 -15.9375 53.535156 -13.125 52.171875 -10.65625 C 50.816406 -8.1875 48.945312 -6.101562 46.5625 -4.40625 C 44.1875 -2.707031 41.5 -1.410156 38.5 -0.515625 C 35.507812 0.378906 32.4375 0.828125 29.28125 0.828125 Z M 29.28125 0.828125 "/></g></g></g><g fill="#fffbeb" fill-opacity="1"><g transform="translate(1046.614126, 86.544677)"><g/></g></g><g fill="#fffbeb" fill-opacity="1"><g transform="translate(1065.14961, 86.544677)"><g><path d="M 7.6875 -64.875 L 29.1875 -64.875 C 35.738281 -64.875 41.332031 -63.851562 45.96875 -61.8125 C 50.601562 -59.769531 54.171875 -56.894531 56.671875 -53.1875 C 59.171875 -49.488281 60.421875 -45.101562 60.421875 -40.03125 C 60.421875 -32.988281 57.976562 -27.769531 53.09375 -24.375 C 48.21875 -20.976562 41.144531 -19.28125 31.875 -19.28125 L 25.765625 -19.28125 C 25.148438 -19.28125 24.6875 -19.1875 24.375 -19 C 24.0625 -18.8125 23.90625 -18.285156 23.90625 -17.421875 L 23.90625 -16.5 C 23.90625 -13.65625 24.210938 -11.566406 24.828125 -10.234375 C 25.453125 -8.910156 26.179688 -7.953125 27.015625 -7.359375 C 27.847656 -6.773438 28.570312 -6.203125 29.1875 -5.640625 C 29.8125 -5.085938 30.125 -4.195312 30.125 -2.96875 C 30.125 -1.851562 29.734375 -1.078125 28.953125 -0.640625 C 28.179688 -0.210938 26.75 0 24.65625 0 L 7.6875 0 C 5.707031 0 4.300781 -0.210938 3.46875 -0.640625 C 2.632812 -1.078125 2.21875 -1.851562 2.21875 -2.96875 C 2.21875 -3.957031 2.429688 -4.710938 2.859375 -5.234375 C 3.296875 -5.765625 3.820312 -6.226562 4.4375 -6.625 C 5.0625 -7.03125 5.695312 -7.570312 6.34375 -8.25 C 7 -8.925781 7.539062 -9.894531 7.96875 -11.15625 C 8.40625 -12.425781 8.625 -14.207031 8.625 -16.5 L 8.625 -47.640625 C 8.625 -48.742188 8.609375 -49.632812 8.578125 -50.3125 C 8.546875 -51 8.46875 -51.648438 8.34375 -52.265625 C 8.09375 -53.867188 7.644531 -55.070312 7 -55.875 C 6.351562 -56.675781 5.65625 -57.320312 4.90625 -57.8125 C 4.164062 -58.3125 3.53125 -58.835938 3 -59.390625 C 2.476562 -59.953125 2.21875 -60.789062 2.21875 -61.90625 C 2.21875 -63.019531 2.632812 -63.789062 3.46875 -64.21875 C 4.300781 -64.65625 5.707031 -64.875 7.6875 -64.875 Z M 31.046875 -25.671875 C 35.492188 -25.671875 38.9375 -26.84375 41.375 -29.1875 C 43.8125 -31.539062 45.03125 -34.722656 45.03125 -38.734375 C 45.03125 -43.117188 44.242188 -46.78125 42.671875 -49.71875 C 41.097656 -52.65625 39.085938 -54.878906 36.640625 -56.390625 C 34.203125 -57.898438 31.65625 -58.65625 29 -58.65625 C 26.65625 -58.65625 25.21875 -58.484375 24.6875 -58.140625 C 24.164062 -57.804688 23.90625 -57.144531 23.90625 -56.15625 L 23.90625 -28.828125 C 23.90625 -27.648438 24.429688 -26.828125 25.484375 -26.359375 C 26.535156 -25.898438 28.390625 -25.671875 31.046875 -25.671875 Z M 31.046875 -25.671875 "/></g></g></g><g fill="#fffbeb" fill-opacity="1"><g transform="translate(1126.965526, 86.544677)"><g><path d="M 49.578125 -23.625 L 55.96875 -12.703125 C 56.894531 -11.023438 57.835938 -9.785156 58.796875 -8.984375 C 59.753906 -8.179688 60.601562 -7.546875 61.34375 -7.078125 C 62.082031 -6.617188 62.679688 -6.097656 63.140625 -5.515625 C 63.609375 -4.929688 63.84375 -4.082031 63.84375 -2.96875 C 63.84375 -1.851562 63.457031 -1.078125 62.6875 -0.640625 C 61.914062 -0.210938 60.539062 0 58.5625 0 L 43.09375 0 C 41.613281 0 40.5 -0.210938 39.75 -0.640625 C 39.007812 -1.078125 38.640625 -1.851562 38.640625 -2.96875 C 38.640625 -3.894531 38.867188 -4.679688 39.328125 -5.328125 C 39.796875 -5.972656 40.257812 -6.632812 40.71875 -7.3125 C 41.1875 -8 41.453125 -8.789062 41.515625 -9.6875 C 41.578125 -10.582031 41.207031 -11.738281 40.40625 -13.15625 L 36.046875 -20.671875 C 35.429688 -20.609375 34.8125 -20.578125 34.1875 -20.578125 C 33.570312 -20.578125 32.925781 -20.578125 32.25 -20.578125 L 25.765625 -20.578125 C 24.523438 -20.578125 23.90625 -19.957031 23.90625 -18.71875 L 23.90625 -16.5 C 23.90625 -13.65625 24.210938 -11.566406 24.828125 -10.234375 C 25.453125 -8.910156 26.179688 -7.953125 27.015625 -7.359375 C 27.847656 -6.773438 28.570312 -6.203125 29.1875 -5.640625 C 29.8125 -5.085938 30.125 -4.195312 30.125 -2.96875 C 30.125 -1.851562 29.734375 -1.078125 28.953125 -0.640625 C 28.179688 -0.210938 26.75 0 24.65625 0 L 7.6875 0 C 5.707031 0 4.300781 -0.210938 3.46875 -0.640625 C 2.632812 -1.078125 2.21875 -1.851562 2.21875 -2.96875 C 2.21875 -3.957031 2.429688 -4.710938 2.859375 -5.234375 C 3.296875 -5.765625 3.820312 -6.226562 4.4375 -6.625 C 5.0625 -7.03125 5.695312 -7.570312 6.34375 -8.25 C 7 -8.925781 7.539062 -9.894531 7.96875 -11.15625 C 8.40625 -12.425781 8.625 -14.207031 8.625 -16.5 L 8.625 -47.640625 C 8.625 -48.742188 8.609375 -49.632812 8.578125 -50.3125 C 8.546875 -51 8.46875 -51.648438 8.34375 -52.265625 C 8.09375 -53.867188 7.644531 -55.070312 7 -55.875 C 6.351562 -56.675781 5.65625 -57.320312 4.90625 -57.8125 C 4.164062 -58.3125 3.53125 -58.835938 3 -59.390625 C 2.476562 -59.953125 2.21875 -60.789062 2.21875 -61.90625 C 2.21875 -63.019531 2.632812 -63.789062 3.46875 -64.21875 C 4.300781 -64.65625 5.707031 -64.875 7.6875 -64.875 L 29.46875 -64.875 C 36.019531 -64.875 41.566406 -63.867188 46.109375 -61.859375 C 50.648438 -59.847656 54.09375 -57.082031 56.4375 -53.5625 C 58.78125 -50.039062 59.953125 -45.929688 59.953125 -41.234375 C 59.953125 -32.710938 56.492188 -26.84375 49.578125 -23.625 Z M 31.421875 -26.96875 C 35.804688 -26.96875 39.078125 -28.140625 41.234375 -30.484375 C 43.398438 -32.835938 44.484375 -35.988281 44.484375 -39.9375 C 44.484375 -43.894531 43.769531 -47.265625 42.34375 -50.046875 C 40.925781 -52.828125 39.039062 -54.957031 36.6875 -56.4375 C 34.34375 -57.914062 31.75 -58.65625 28.90625 -58.65625 C 26.75 -58.65625 25.375 -58.484375 24.78125 -58.140625 C 24.195312 -57.804688 23.90625 -57.144531 23.90625 -56.15625 L 23.90625 -30.125 C 23.90625 -28.945312 24.492188 -28.125 25.671875 -27.65625 C 26.847656 -27.195312 28.765625 -26.96875 31.421875 -26.96875 Z M 31.421875 -26.96875 "/></g></g></g><g fill="#fffbeb" fill-opacity="1"><g transform="translate(1192.581305, 86.544677)"><g><path d="M 34.5625 0.921875 C 30.238281 0.921875 26.207031 0.164062 22.46875 -1.34375 C 18.726562 -2.851562 15.453125 -4.984375 12.640625 -7.734375 C 9.835938 -10.484375 7.644531 -13.742188 6.0625 -17.515625 C 4.488281 -21.285156 3.703125 -25.457031 3.703125 -30.03125 C 3.703125 -34.96875 4.566406 -39.597656 6.296875 -43.921875 C 8.023438 -48.242188 10.460938 -52.039062 13.609375 -55.3125 C 16.765625 -58.59375 20.457031 -61.160156 24.6875 -63.015625 C 28.925781 -64.867188 33.515625 -65.796875 38.453125 -65.796875 C 44.691406 -65.796875 50.113281 -64.390625 54.71875 -61.578125 C 59.320312 -58.765625 62.890625 -54.960938 65.421875 -50.171875 C 67.953125 -45.390625 69.21875 -40.003906 69.21875 -34.015625 C 69.21875 -29.066406 68.351562 -24.460938 66.625 -20.203125 C 64.894531 -15.941406 62.484375 -12.234375 59.390625 -9.078125 C 56.304688 -5.929688 52.648438 -3.476562 48.421875 -1.71875 C 44.191406 0.0390625 39.570312 0.921875 34.5625 0.921875 Z M 39.75 -7.328125 C 43.269531 -7.328125 46.097656 -8.160156 48.234375 -9.828125 C 50.367188 -11.492188 51.925781 -13.742188 52.90625 -16.578125 C 53.894531 -19.421875 54.390625 -22.609375 54.390625 -26.140625 C 54.390625 -29.898438 53.910156 -33.679688 52.953125 -37.484375 C 52.003906 -41.285156 50.632812 -44.757812 48.84375 -47.90625 C 47.050781 -51.0625 44.867188 -53.597656 42.296875 -55.515625 C 39.734375 -57.429688 36.847656 -58.390625 33.640625 -58.390625 C 30.242188 -58.390625 27.445312 -57.519531 25.25 -55.78125 C 23.0625 -54.050781 21.425781 -51.734375 20.34375 -48.828125 C 19.257812 -45.929688 18.71875 -42.722656 18.71875 -39.203125 C 18.71875 -35.492188 19.195312 -31.753906 20.15625 -27.984375 C 21.113281 -24.210938 22.503906 -20.765625 24.328125 -17.640625 C 26.148438 -14.523438 28.359375 -12.023438 30.953125 -10.140625 C 33.546875 -8.265625 36.476562 -7.328125 39.75 -7.328125 Z M 39.75 -7.328125 "/></g></g></g><g fill="#fffbeb" fill-opacity="1"><g transform="translate(1265.796502, 86.544677)"><g><path d="M 26.5 -20.765625 L 26.5 -48.375 C 26.5 -51.21875 26.191406 -53.300781 25.578125 -54.625 C 24.960938 -55.957031 24.238281 -56.914062 23.40625 -57.5 C 22.570312 -58.09375 21.84375 -58.664062 21.21875 -59.21875 C 20.601562 -59.769531 20.296875 -60.664062 20.296875 -61.90625 C 20.296875 -63.019531 20.679688 -63.789062 21.453125 -64.21875 C 22.222656 -64.65625 23.660156 -64.875 25.765625 -64.875 L 42.8125 -64.875 C 44.789062 -64.875 46.179688 -64.65625 46.984375 -64.21875 C 47.785156 -63.789062 48.1875 -63.019531 48.1875 -61.90625 C 48.1875 -60.914062 47.96875 -60.15625 47.53125 -59.625 C 47.101562 -59.101562 46.578125 -58.640625 45.953125 -58.234375 C 45.335938 -57.835938 44.722656 -57.300781 44.109375 -56.625 C 43.492188 -55.945312 42.96875 -54.972656 42.53125 -53.703125 C 42.101562 -52.429688 41.890625 -50.65625 41.890625 -48.375 L 41.984375 -27.890625 C 41.984375 -23.878906 41.71875 -20.128906 41.1875 -16.640625 C 40.664062 -13.148438 39.644531 -10.085938 38.125 -7.453125 C 36.613281 -4.828125 34.359375 -2.773438 31.359375 -1.296875 C 28.367188 0.179688 24.375 0.921875 19.375 0.921875 C 15.226562 0.921875 11.765625 0.164062 8.984375 -1.34375 C 6.203125 -2.851562 4.117188 -4.828125 2.734375 -7.265625 C 1.347656 -9.710938 0.65625 -12.296875 0.65625 -15.015625 C 0.65625 -17.484375 1.332031 -19.289062 2.6875 -20.4375 C 4.039062 -21.582031 5.585938 -22.15625 7.328125 -22.15625 C 9.484375 -22.15625 11.117188 -21.519531 12.234375 -20.25 C 13.347656 -18.976562 14.023438 -17.445312 14.265625 -15.65625 C 14.765625 -12.820312 15.429688 -10.597656 16.265625 -8.984375 C 17.097656 -7.378906 18.441406 -6.578125 20.296875 -6.578125 C 24.429688 -6.578125 26.5 -11.304688 26.5 -20.765625 Z M 26.5 -20.765625 "/></g></g></g><g fill="#fffbeb" fill-opacity="1"><g transform="translate(1315.379001, 86.544677)"><g><path d="M 53.015625 -20.9375 C 54.117188 -20.695312 54.796875 -20.1875 55.046875 -19.40625 C 55.296875 -18.632812 55.390625 -17.539062 55.328125 -16.125 C 55.265625 -13.40625 55.09375 -11.070312 54.8125 -9.125 C 54.53125 -7.175781 54.207031 -5.523438 53.84375 -4.171875 C 53.40625 -2.691406 52.660156 -1.625 51.609375 -0.96875 C 50.566406 -0.320312 48.6875 0 45.96875 0 L 7.6875 0 C 5.707031 0 4.300781 -0.210938 3.46875 -0.640625 C 2.632812 -1.078125 2.21875 -1.851562 2.21875 -2.96875 C 2.21875 -4.082031 2.476562 -4.914062 3 -5.46875 C 3.53125 -6.019531 4.164062 -6.539062 4.90625 -7.03125 C 5.65625 -7.53125 6.351562 -8.195312 7 -9.03125 C 7.644531 -9.863281 8.09375 -11.054688 8.34375 -12.609375 C 8.46875 -13.285156 8.546875 -13.945312 8.578125 -14.59375 C 8.609375 -15.238281 8.625 -16.117188 8.625 -17.234375 L 8.625 -47.640625 C 8.625 -48.742188 8.609375 -49.632812 8.578125 -50.3125 C 8.546875 -51 8.46875 -51.648438 8.34375 -52.265625 C 8.09375 -53.867188 7.644531 -55.070312 7 -55.875 C 6.351562 -56.675781 5.65625 -57.320312 4.90625 -57.8125 C 4.164062 -58.3125 3.53125 -58.835938 3 -59.390625 C 2.476562 -59.953125 2.21875 -60.789062 2.21875 -61.90625 C 2.21875 -63.019531 2.632812 -63.789062 3.46875 -64.21875 C 4.300781 -64.65625 5.707031 -64.875 7.6875 -64.875 L 43.734375 -64.875 C 46.453125 -64.875 48.382812 -64.5625 49.53125 -63.9375 C 50.675781 -63.320312 51.460938 -62.488281 51.890625 -61.4375 C 53.128906 -58.84375 54.117188 -55.691406 54.859375 -51.984375 C 55.171875 -50.628906 55.21875 -49.519531 55 -48.65625 C 54.78125 -47.789062 54.238281 -47.203125 53.375 -46.890625 C 51.707031 -46.335938 50.132812 -47.171875 48.65625 -49.390625 C 46.738281 -52.296875 44.710938 -54.488281 42.578125 -55.96875 C 40.453125 -57.457031 37.9375 -58.203125 35.03125 -58.203125 L 31.046875 -58.203125 C 28.140625 -58.203125 26.222656 -57.859375 25.296875 -57.171875 C 24.367188 -56.492188 23.90625 -55.414062 23.90625 -53.9375 L 23.90625 -42.34375 C 23.90625 -40.5 24.414062 -39.28125 25.4375 -38.6875 C 26.457031 -38.101562 27.957031 -37.8125 29.9375 -37.8125 L 31.78125 -37.8125 C 33.269531 -37.8125 34.367188 -38.179688 35.078125 -38.921875 C 35.785156 -39.660156 36.320312 -40.492188 36.6875 -41.421875 C 37.0625 -42.347656 37.476562 -43.179688 37.9375 -43.921875 C 38.40625 -44.660156 39.132812 -45.03125 40.125 -45.03125 C 41.175781 -45.03125 41.929688 -44.675781 42.390625 -43.96875 C 42.859375 -43.257812 43.09375 -42.039062 43.09375 -40.3125 L 43.09375 -28.359375 C 43.09375 -25.328125 42.101562 -23.8125 40.125 -23.8125 C 39.132812 -23.8125 38.40625 -24.179688 37.9375 -24.921875 C 37.476562 -25.671875 37.0625 -26.519531 36.6875 -27.46875 C 36.320312 -28.425781 35.785156 -29.273438 35.078125 -30.015625 C 34.367188 -30.765625 33.269531 -31.140625 31.78125 -31.140625 L 29.9375 -31.140625 C 27.957031 -31.140625 26.457031 -30.859375 25.4375 -30.296875 C 24.414062 -29.742188 23.90625 -28.507812 23.90625 -26.59375 L 23.90625 -10.9375 C 23.90625 -9.457031 24.398438 -8.375 25.390625 -7.6875 C 26.378906 -7.007812 28.507812 -6.671875 31.78125 -6.671875 L 37.53125 -6.765625 C 39.445312 -6.765625 41.003906 -7.179688 42.203125 -8.015625 C 43.410156 -8.847656 44.492188 -10.066406 45.453125 -11.671875 C 46.410156 -13.285156 47.445312 -15.203125 48.5625 -17.421875 C 49.363281 -19.023438 50.101562 -20.054688 50.78125 -20.515625 C 51.457031 -20.984375 52.203125 -21.125 53.015625 -20.9375 Z M 53.015625 -20.9375 "/></g></g></g><g fill="#fffbeb" fill-opacity="1"><g transform="translate(1373.858576, 86.544677)"><g><path d="M 36.234375 0.921875 C 29.992188 0.921875 24.414062 -0.375 19.5 -2.96875 C 14.59375 -5.5625 10.734375 -9.25 7.921875 -14.03125 C 5.109375 -18.820312 3.703125 -24.554688 3.703125 -31.234375 C 3.703125 -35.984375 4.566406 -40.441406 6.296875 -44.609375 C 8.023438 -48.785156 10.445312 -52.460938 13.5625 -55.640625 C 16.6875 -58.828125 20.332031 -61.316406 24.5 -63.109375 C 28.675781 -64.898438 33.175781 -65.796875 38 -65.796875 C 41.019531 -65.796875 43.425781 -65.5 45.21875 -64.90625 C 47.007812 -64.320312 48.398438 -64.03125 49.390625 -64.03125 C 50.253906 -64.03125 50.914062 -64.171875 51.375 -64.453125 C 51.84375 -64.734375 52.320312 -65.007812 52.8125 -65.28125 C 53.3125 -65.5625 53.960938 -65.703125 54.765625 -65.703125 C 55.628906 -65.703125 56.351562 -65.390625 56.9375 -64.765625 C 57.53125 -64.148438 58.132812 -62.859375 58.75 -60.890625 C 59.3125 -59.035156 59.851562 -57.039062 60.375 -54.90625 C 60.894531 -52.769531 61.34375 -50.347656 61.71875 -47.640625 C 61.90625 -46.148438 61.84375 -45.019531 61.53125 -44.25 C 61.226562 -43.476562 60.457031 -43.03125 59.21875 -42.90625 C 58.164062 -42.84375 57.328125 -43.179688 56.703125 -43.921875 C 56.085938 -44.660156 55.226562 -45.804688 54.125 -47.359375 C 51.832031 -50.628906 49.296875 -53.40625 46.515625 -55.6875 C 43.734375 -57.976562 40.523438 -59.125 36.890625 -59.125 C 33.304688 -59.125 30.195312 -58.226562 27.5625 -56.4375 C 24.9375 -54.644531 22.914062 -52.171875 21.5 -49.015625 C 20.082031 -45.867188 19.375 -42.195312 19.375 -38 C 19.375 -34.101562 19.847656 -30.394531 20.796875 -26.875 C 21.753906 -23.351562 23.175781 -20.21875 25.0625 -17.46875 C 26.945312 -14.71875 29.25 -12.554688 31.96875 -10.984375 C 34.6875 -9.410156 37.835938 -8.625 41.421875 -8.625 C 44.753906 -8.625 47.84375 -9.316406 50.6875 -10.703125 C 53.53125 -12.085938 56.28125 -14.203125 58.9375 -17.046875 C 59.738281 -17.910156 60.507812 -18.25 61.25 -18.0625 C 62 -17.882812 62.539062 -17.394531 62.875 -16.59375 C 63.21875 -15.789062 63.140625 -14.863281 62.640625 -13.8125 C 61.285156 -10.84375 59.265625 -8.242188 56.578125 -6.015625 C 53.890625 -3.796875 50.800781 -2.082031 47.3125 -0.875 C 43.820312 0.320312 40.128906 0.921875 36.234375 0.921875 Z M 36.234375 0.921875 "/></g></g></g><g fill="#fffbeb" fill-opacity="1"><g transform="translate(1439.38165, 86.544677)"><g><path d="M 38 -53.84375 L 38 -16.5 C 38 -13.65625 38.304688 -11.566406 38.921875 -10.234375 C 39.535156 -8.910156 40.257812 -7.953125 41.09375 -7.359375 C 41.925781 -6.773438 42.648438 -6.203125 43.265625 -5.640625 C 43.890625 -5.085938 44.203125 -4.195312 44.203125 -2.96875 C 44.203125 -1.851562 43.816406 -1.078125 43.046875 -0.640625 C 42.273438 -0.210938 40.835938 0 38.734375 0 L 21.78125 0 C 19.800781 0 18.394531 -0.210938 17.5625 -0.640625 C 16.726562 -1.078125 16.3125 -1.851562 16.3125 -2.96875 C 16.3125 -3.957031 16.523438 -4.710938 16.953125 -5.234375 C 17.390625 -5.765625 17.929688 -6.226562 18.578125 -6.625 C 19.222656 -7.03125 19.851562 -7.570312 20.46875 -8.25 C 21.09375 -8.925781 21.617188 -9.894531 22.046875 -11.15625 C 22.484375 -12.425781 22.703125 -14.207031 22.703125 -16.5 L 22.703125 -53.84375 C 22.703125 -56.375 21.4375 -57.640625 18.90625 -57.640625 C 17.050781 -57.640625 15.519531 -57.269531 14.3125 -56.53125 C 13.113281 -55.789062 12.050781 -54.660156 11.125 -53.140625 C 10.195312 -51.628906 9.144531 -49.765625 7.96875 -47.546875 C 7.476562 -46.492188 6.953125 -45.671875 6.390625 -45.078125 C 5.835938 -44.492188 5.191406 -44.203125 4.453125 -44.203125 C 3.460938 -44.203125 2.78125 -44.601562 2.40625 -45.40625 C 2.039062 -46.207031 1.890625 -47.320312 1.953125 -48.75 C 2.066406 -51.46875 2.25 -53.796875 2.5 -55.734375 C 2.75 -57.679688 3.054688 -59.335938 3.421875 -60.703125 C 3.859375 -62.179688 4.601562 -63.242188 5.65625 -63.890625 C 6.707031 -64.546875 8.59375 -64.875 11.3125 -64.875 L 49.296875 -64.875 C 52.078125 -64.875 53.992188 -64.546875 55.046875 -63.890625 C 56.097656 -63.242188 56.804688 -62.179688 57.171875 -60.703125 C 57.546875 -59.335938 57.867188 -57.679688 58.140625 -55.734375 C 58.421875 -53.796875 58.59375 -51.46875 58.65625 -48.75 C 58.71875 -47.382812 58.578125 -46.285156 58.234375 -45.453125 C 57.898438 -44.617188 57.207031 -44.203125 56.15625 -44.203125 C 55.414062 -44.203125 54.78125 -44.492188 54.25 -45.078125 C 53.726562 -45.671875 53.191406 -46.492188 52.640625 -47.546875 C 50.972656 -50.878906 49.425781 -53.410156 48 -55.140625 C 46.582031 -56.867188 44.484375 -57.734375 41.703125 -57.734375 C 39.234375 -57.734375 38 -56.4375 38 -53.84375 Z M 38 -53.84375 "/></g></g></g></g></g></svg>