<?xml version="1.0" encoding="UTF-8"?>
<svg id="Layer_1" data-name="Layer 1" xmlns="http://www.w3.org/2000/svg" xmlns:xlink="http://www.w3.org/1999/xlink" viewBox="0 0 720 720">
  <defs>
    <style>
      .cls-1, .cls-2 {
        fill: none;
      }

      .cls-3 {
        clip-path: url(#clippath-1);
      }

      .cls-4 {
        clip-path: url(#clippath-3);
      }

      .cls-5 {
        clip-path: url(#clippath-4);
      }

      .cls-6 {
        clip-path: url(#clippath-2);
      }

      .cls-7 {
        clip-path: url(#clippath-6);
      }

      .cls-8 {
        clip-path: url(#clippath-5);
      }

      .cls-9 {
        fill: #fff7d3;
      }

      .cls-10 {
        fill: #ffcff9;
      }

      .cls-2 {
        stroke: #ffcff9;
        stroke-width: 6px;
      }

      .cls-11 {
        fill: #3d2315;
      }

      .cls-12 {
        clip-path: url(#clippath);
      }
    </style>
    <clipPath id="clippath">
      <rect class="cls-1" x="183.33" y="196.99" width="353.12" height="344.76"/>
    </clipPath>
    <clipPath id="clippath-1">
      <path class="cls-1" d="M384.43,216.02l.92,3.64c14.06,55.56,65.73,93.2,122.93,89.56l.4-.02c11.74-.75,22.51,6.52,26.2,17.68,3.69,11.17-.61,23.42-10.48,29.82l-1.71,1.11c-48.29,31.31-67.89,92.27-46.91,145.86l1.3,3.32c4.2,10.73.59,22.95-8.77,29.67-9.36,6.72-22.09,6.24-30.91-1.17l-1.49-1.25c-43.79-36.76-107.66-36.76-151.45,0l-1.49,1.25c-8.83,7.41-21.55,7.89-30.92,1.17-9.36-6.72-12.97-18.93-8.77-29.67l1.3-3.32c20.98-53.59,1.38-114.55-46.91-145.86l-1.71-1.11c-9.87-6.4-14.18-18.65-10.48-29.82,3.69-11.17,14.46-18.43,26.19-17.68l.4.02c57.2,3.65,108.86-33.99,122.93-89.56l.92-3.64c2.81-11.1,12.8-18.89,24.26-18.89s21.45,7.78,24.26,18.89Z"/>
    </clipPath>
    <clipPath id="clippath-2">
      <rect class="cls-1" x="183.33" y="196.67" width="353.33" height="345.33"/>
    </clipPath>
    <clipPath id="clippath-3">
      <rect class="cls-1" x="183.33" y="197.04" width="353.12" height="344.71"/>
    </clipPath>
    <clipPath id="clippath-4">
      <path class="cls-1" d="M384.43,216.02l.92,3.64c14.06,55.56,65.73,93.2,122.93,89.56l.4-.02c11.74-.75,22.51,6.52,26.2,17.68,3.69,11.17-.61,23.42-10.48,29.82l-1.71,1.11c-48.29,31.31-67.89,92.27-46.91,145.86l1.3,3.32c4.2,10.73.59,22.95-8.77,29.67-9.36,6.72-22.09,6.24-30.91-1.17l-1.49-1.25c-43.79-36.76-107.66-36.76-151.45,0l-1.49,1.25c-8.83,7.41-21.55,7.89-30.92,1.17-9.36-6.72-12.97-18.93-8.77-29.67l1.3-3.32c20.98-53.59,1.38-114.55-46.91-145.86l-1.71-1.11c-9.87-6.4-14.18-18.65-10.48-29.82,3.69-11.17,14.46-18.43,26.19-17.68l.4.02c57.2,3.65,108.86-33.99,122.93-89.56l.92-3.64c2.81-11.1,12.8-18.89,24.26-18.89s21.45,7.78,24.26,18.89Z"/>
    </clipPath>
    <clipPath id="clippath-5">
      <rect class="cls-1" x="183.33" y="196.67" width="353.33" height="345.33"/>
    </clipPath>
    <clipPath id="clippath-6">
      <path class="cls-1" d="M384.26,216.01l.92,3.64c14.06,55.56,65.73,93.2,122.92,89.56l.4-.03c11.74-.75,22.5,6.52,26.2,17.68,3.69,11.17-.61,23.42-10.48,29.82l-1.7,1.1c-48.29,31.31-67.9,92.27-46.92,145.85l1.3,3.32c4.2,10.73.59,22.95-8.77,29.67-9.36,6.72-22.09,6.24-30.91-1.17l-1.49-1.25c-43.79-36.76-107.66-36.76-151.45,0l-1.49,1.25c-8.82,7.41-21.55,7.89-30.91,1.17-9.36-6.72-12.97-18.93-8.77-29.67l1.3-3.32c20.98-53.59,1.37-114.54-46.92-145.85l-1.7-1.1c-9.87-6.4-14.18-18.66-10.48-29.82,3.7-11.17,14.46-18.43,26.2-17.68l.4.03c57.19,3.65,108.86-34,122.92-89.56l.92-3.64c2.81-11.1,12.8-18.88,24.26-18.88s21.45,7.78,24.26,18.88Z"/>
    </clipPath>
  </defs>
  <g class="cls-12">
    <g class="cls-3">
      <g class="cls-6">
        <g class="cls-4">
          <g class="cls-5">
            <rect class="cls-11" width="720" height="720"/>
          </g>
        </g>
      </g>
    </g>
  </g>
  <g class="cls-8">
    <g class="cls-7">
      <path class="cls-2" d="M384.26,216.01l.92,3.64c14.06,55.56,65.73,93.2,122.92,89.56l.4-.03c11.74-.75,22.5,6.52,26.2,17.68,3.69,11.17-.61,23.42-10.48,29.82l-1.7,1.1c-48.29,31.31-67.9,92.27-46.92,145.85l1.3,3.32c4.2,10.73.59,22.95-8.77,29.67-9.36,6.72-22.09,6.24-30.91-1.17l-1.49-1.25c-43.79-36.76-107.66-36.76-151.45,0l-1.49,1.25c-8.82,7.41-21.55,7.89-30.91,1.17-9.36-6.72-12.97-18.93-8.77-29.67l1.3-3.32c20.98-53.59,1.37-114.54-46.92-145.85l-1.7-1.1c-9.87-6.4-14.18-18.66-10.48-29.82,3.7-11.17,14.46-18.43,26.2-17.68l.4.03c57.19,3.65,108.86-34,122.92-89.56l.92-3.64c2.81-11.1,12.8-18.88,24.26-18.88s21.45,7.78,24.26,18.88Z"/>
    </g>
  </g>
  <rect class="cls-1" x="263.33" y="312.67" width="193.33" height="128"/>
  <g>
    <path class="cls-10" d="M286.02,341.19c3.01-.77,4.97-3.13,4.97-6.35,0-4.29-3.52-7.72-11.24-7.72h-11.89c-.6,0-1.03.3-1.03.82v.17c0,1.2,1.71,1.71,1.71,3.69v21.11c0,1.97-1.71,2.49-1.71,3.69v.17c0,.52.43.82,1.03.82h11.76c9.91,0,14.37-3.52,14.37-8.58,0-4.12-3.05-7.12-7.98-7.81ZM276.28,332.35c0-1.71.9-2.23,2.02-2.23h1.2c2.92,0,4.85,2.15,4.85,5.83,0,2.45-1.42,4.04-3.6,4.04h-2.15c-1.38,0-2.32-.82-2.32-2.23v-5.41ZM281.56,354.57h-2.06c-1.97,0-3.22-1.58-3.22-3.65v-7.94h1.8c5.15,0,7.77,3.95,7.77,7.13,0,2.66-1.55,4.46-4.29,4.46Z"/>
    <path class="cls-10" d="M314.29,352.9l-.94-7.68c-.69-5.32-4.68-8.67-10.43-8.67-4.38,0-8.58,1.5-8.58,5.02,0,1.68,1.2,2.79,3.01,2.79,3.82,0,2.61-5.75,5.58-5.75,2.23,0,2.53,2.19,3.05,7.25v.13c-1.07-.65-2.53-1.07-4.33-1.07-4.08,0-7.72,2.23-7.72,6.56s3.52,6.52,8.11,6.52c2.83,0,4.55-.98,5.45-2.23.34,1.55,1.59,2.06,4.16,2.06,2.36,0,4.85-.3,4.85-1.41,0-1.2-1.8-.47-2.19-3.52ZM304.38,355.82c-1.76,0-2.79-2.66-2.79-5.7,0-1.76.9-2.92,2.19-2.92s2.36.98,2.66,3.56l.17,1.97c0,1.46-.81,3.09-2.23,3.09Z"/>
    <path class="cls-10" d="M325.96,358c5.88,0,8.84-3.56,8.97-7.29,0-.94-1.07-1.16-1.63-.47-.9,1.2-2.36,2.49-4.76,2.49-4.25,0-6.99-3.69-6.99-9.27,0-2.62,1.2-4.76,3-4.81,3.18-.04,2.79,6.48,7.17,6.74,2.32.08,3.13-1.2,3.13-2.49,0-3.82-4.11-6.4-9.14-6.35-5.83.04-10.9,3.99-10.9,10.68,0,5.62,4.42,10.77,11.15,10.77Z"/>
    <path class="cls-10" d="M357.58,353.97l-6.91-9.87,2.74-2.53c1.72-1.58,4.03-2.4,4.03-3.6v-.17c0-.52-.39-.82-.98-.82h-6.78c-.6,0-.98.34-.98.86v.17c0,1.16,2.4,2.48,1.07,3.6l-5.79,4.97v-20.38c0-.77-.73-1.46-1.93-.9l-6.86,3.18c-.56.3-.94.52-.94.98v.17c0,1.07,2.06,1.63,2.06,3.65v19.6c0,1.97-1.71,2.45-1.71,3.69v.17c0,.52.43.82,1.03.82h9.27c.6,0,1.03-.3,1.03-.82v-.17c0-1.24-1.93-1.72-1.93-3.69v-2.57l2.15-1.97,3.78,5.62c.68,1.07-.9,1.42-.9,2.62v.13c0,.52.39.86.98.86h9.01c.6,0,.98-.3.98-.82v-.17c0-1.2-1.76-1.68-2.4-2.62Z"/>
    <path class="cls-10" d="M367.1,357.96c5.96,0,9.35-2.74,9.35-6.31,0-7.89-10.98-4.8-10.98-10.68,0-1.24.68-2.44,2.02-2.44,2.96,0,1.59,5.79,5.75,5.79,1.58,0,2.88-1.12,2.88-2.62,0-2.79-3.56-5.15-9.01-5.15s-9.05,2.7-9.05,6.52c0,8.32,11.37,5.02,11.37,10.64,0,1.71-1.03,2.36-2.32,2.36-3.56,0-2.1-5.88-6.4-5.88-1.71,0-3.05.82-3.05,2.74,0,3.01,4.04,5.02,9.44,5.02Z"/>
    <path class="cls-10" d="M385.33,358c4.68,0,7.12-3.47,7.12-6.78,0-.82-1.03-1.07-1.63-.3-.47.77-1.16,1.59-2.83,1.59-1.07,0-1.93-.86-1.93-2.32v-10.3h4.42c.56,0,.98-.43.98-.98v-.95c0-.56-.43-.98-.98-.98h-4.42v-4.33c0-.69-.47-1.11-1.16-1.11h-.99c-.56,0-1.03.43-1.16,1.11-.56,2.62-2.61,4.33-5.23,4.33h-.81c-.6,0-.99.39-.99.98v.95c0,.56.43.98.99.98h1.63v10.17c0,5.19,2.74,7.94,6.99,7.94Z"/>
    <path class="cls-10" d="M412.02,352.9l-.94-7.68c-.69-5.32-4.68-8.67-10.43-8.67-4.38,0-8.58,1.5-8.58,5.02,0,1.68,1.2,2.79,3.01,2.79,3.82,0,2.61-5.75,5.58-5.75,2.23,0,2.53,2.19,3.05,7.25v.13c-1.07-.65-2.53-1.07-4.33-1.07-4.08,0-7.72,2.23-7.72,6.56s3.52,6.52,8.11,6.52c2.83,0,4.55-.98,5.45-2.23.34,1.55,1.59,2.06,4.16,2.06,2.36,0,4.85-.3,4.85-1.41,0-1.2-1.8-.47-2.19-3.52ZM402.1,355.82c-1.76,0-2.79-2.66-2.79-5.7,0-1.76.9-2.92,2.19-2.92s2.36.98,2.66,3.56l.17,1.97c0,1.46-.81,3.09-2.23,3.09Z"/>
    <path class="cls-10" d="M432.05,336.98c-3.86,0-5.7-.43-8.41-.43-6.18,0-10.52,3.69-10.52,9.14,0,5.1,4.42,8.62,10.43,8.62.52,0,1.07-.04,1.55-.09,1.2.34,1.8,1.64,1.8,3.48,0,2.15-1.29,3.65-3.56,3.6-3.95-.05-3.3-6.4-7.21-6.4-2.02,0-2.96,1.51-2.96,2.83,0,3.65,3.99,5.62,10.13,5.62s11.2-2.32,11.2-5.75c0-2.15-1.2-3.78-5.06-4.59,2.88-1.46,4.63-4.08,4.63-7.38,0-2.02-.85-3.91-2.1-5.32,1.37-.43,3.05-.26,3.22-1.93.13-.99-.34-1.42-3.14-1.42ZM420.29,342.26c0-2.27.86-3.6,2.23-3.6,2.58,0,4.42,6.35,4.42,9.91,0,2.23-.86,3.6-2.32,3.6-2.32,0-4.33-5.62-4.33-9.91Z"/>
    <path class="cls-10" d="M452.55,350.8c-.77,1.03-2.44,1.89-4.29,1.89-2.1,0-3.78-1.03-4.9-2.79l8.54-4.8c.98-.52,1.67-1.38,1.67-2.66,0-2.7-2.57-5.88-8.19-5.88s-10.56,4.24-10.56,10.59,4.38,10.85,10.6,10.85c5.62,0,8.63-4.24,8.71-6.6.04-.94-.98-1.2-1.59-.6ZM444.61,338.66c2.19,0,2.88,3.05,2.88,4.42,0,.9-.43,1.71-1.11,2.19l-3.99,2.4c-.43-1.29-.65-2.83-.65-4.51,0-2.49,1.12-4.51,2.87-4.51Z"/>
    <path class="cls-10" d="M319.6,390.97h9.44c.6,0,1.03-.3,1.03-.82v-.17c0-1.2-1.93-1.72-1.93-3.69v-4.97h3.56c7.42,0,12.27-4.21,12.27-10.64,0-7.25-5.92-10.17-13.68-10.17h-10.69c-.64,0-1.03.3-1.03.82v.17c0,1.2,1.71,1.76,1.71,3.69v21.11c0,1.97-1.71,2.49-1.71,3.69v.17c0,.52.39.82,1.03.82ZM330.11,378.31c-1.42,0-1.97-.73-1.97-2.06v-10.73c0-1.29.56-2.06,1.54-2.06h.6c2.66,0,5.62,3.39,5.62,9.01,0,3.09-1.38,5.83-4.21,5.83h-1.58Z"/>
    <path class="cls-10" d="M363.57,386.29l-.94-7.68c-.69-5.32-4.68-8.67-10.43-8.67-4.38,0-8.58,1.5-8.58,5.02,0,1.68,1.2,2.79,3.01,2.79,3.82,0,2.61-5.75,5.58-5.75,2.23,0,2.53,2.19,3.05,7.25v.13c-1.07-.65-2.53-1.07-4.33-1.07-4.08,0-7.72,2.23-7.72,6.56s3.52,6.52,8.11,6.52c2.83,0,4.55-.98,5.45-2.23.34,1.55,1.59,2.06,4.16,2.06,2.36,0,4.85-.3,4.85-1.41,0-1.2-1.8-.47-2.19-3.52ZM353.66,389.21c-1.76,0-2.79-2.66-2.79-5.7,0-1.76.9-2.92,2.19-2.92s2.36.98,2.66,3.56l.17,1.97c0,1.46-.81,3.09-2.23,3.09Z"/>
    <path class="cls-10" d="M374.12,391.36c5.96,0,9.35-2.74,9.35-6.31,0-7.89-10.98-4.8-10.98-10.68,0-1.24.68-2.44,2.02-2.44,2.96,0,1.59,5.79,5.75,5.79,1.58,0,2.88-1.12,2.88-2.62,0-2.79-3.56-5.15-9.01-5.15s-9.05,2.7-9.05,6.52c0,8.32,11.37,5.02,11.37,10.64,0,1.71-1.03,2.36-2.32,2.36-3.56,0-2.1-5.88-6.4-5.88-1.71,0-3.05.82-3.05,2.74,0,3.01,4.04,5.02,9.44,5.02Z"/>
    <path class="cls-10" d="M392.83,391.36c5.96,0,9.35-2.74,9.35-6.31,0-7.89-10.98-4.8-10.98-10.68,0-1.24.68-2.44,2.02-2.44,2.96,0,1.59,5.79,5.75,5.79,1.58,0,2.88-1.12,2.88-2.62,0-2.79-3.56-5.15-9.01-5.15s-9.05,2.7-9.05,6.52c0,8.32,11.37,5.02,11.37,10.64,0,1.71-1.03,2.36-2.32,2.36-3.56,0-2.1-5.88-6.4-5.88-1.71,0-3.05.82-3.05,2.74,0,3.01,4.04,5.02,9.44,5.02Z"/>
    <path class="cls-10" d="M296.55,424.36h9.44c.6,0,1.03-.3,1.03-.82v-.17c0-1.2-1.93-1.72-1.93-3.69v-4.97h3.56c7.42,0,12.27-4.21,12.27-10.64,0-7.25-5.92-10.17-13.68-10.17h-10.69c-.64,0-1.03.3-1.03.82v.17c0,1.2,1.71,1.76,1.71,3.69v21.11c0,1.97-1.71,2.49-1.71,3.69v.17c0,.52.39.82,1.03.82ZM307.06,411.71c-1.42,0-1.97-.73-1.97-2.06v-10.73c0-1.29.56-2.06,1.54-2.06h.6c2.66,0,5.62,3.39,5.62,9.01,0,3.09-1.38,5.83-4.21,5.83h-1.58Z"/>
    <path class="cls-10" d="M334.86,403.34c-2.96,0-4.97,1.5-5.92,4.24v-3.13c0-.86-.43-1.46-1.55-.94l-6.05,2.83c-.65.34-.99.73-.99,1.24v.13c0,1.24,2.06,1.42,2.06,3.43v8.54c0,1.97-1.72,2.49-1.72,3.69v.17c0,.52.43.82,1.03.82h9.22c.6,0,1.03-.3,1.03-.82v-.17c0-1.2-2.28-1.72-2.28-3.69v-7.98c0-1.89.21-4.12,1.59-4.12,2.15,0,.39,4.03,4.29,4.03,2.48,0,3.3-1.89,3.3-4.03,0-2.4-1.5-4.24-4.04-4.24Z"/>
    <path class="cls-10" d="M349.36,424.79c6.26,0,11.45-4.42,11.45-10.68s-5.32-10.77-11.76-10.77-11.58,4.33-11.58,10.68,5.32,10.77,11.89,10.77ZM350.26,422.69c-3.47,0-5.19-8.41-5.19-11.89s.73-5.36,2.79-5.36c3.39,0,5.15,8.63,5.15,11.97s-.73,5.28-2.74,5.28Z"/>
    <path class="cls-10" d="M366,401.24c2.96,0,4.89-1.89,4.89-4.29s-1.93-4.29-4.89-4.29-4.89,1.84-4.89,4.29,1.97,4.29,4.89,4.29ZM362.36,432.9c3.09,0,4.85-1.03,6.35-2.79,1.07-1.29,1.67-3.3,1.67-5.45v-20.21c0-.82-.77-1.51-1.97-.9l-6.52,3.17c-.56.3-.94.52-.94.99v.17c0,1.07,1.71,1.59,1.71,3.6v10.72c0,2.66,2.83,3.22,2.83,6.48,0,1.03-.65,1.8-1.59,1.8-2.66,0-.81-5.28-5.23-5.28-1.8,0-3.17,1.24-3.17,3.09,0,3.17,2.83,4.59,6.86,4.59Z"/>
    <path class="cls-10" d="M388.91,417.58c-.77,1.03-2.44,1.89-4.29,1.89-2.1,0-3.78-1.03-4.9-2.79l8.54-4.8c.98-.52,1.67-1.38,1.67-2.66,0-2.7-2.57-5.88-8.19-5.88s-10.56,4.24-10.56,10.59,4.38,10.85,10.6,10.85c5.62,0,8.63-4.24,8.71-6.6.04-.94-.98-1.2-1.59-.6ZM380.97,405.44c2.19,0,2.88,3.05,2.88,4.42,0,.9-.43,1.71-1.11,2.19l-3.99,2.4c-.43-1.29-.65-2.83-.65-4.51,0-2.49,1.12-4.51,2.87-4.51Z"/>
    <path class="cls-10" d="M401.13,424.79c5.88,0,8.84-3.56,8.97-7.29,0-.94-1.07-1.16-1.63-.47-.9,1.2-2.36,2.49-4.76,2.49-4.25,0-6.99-3.69-6.99-9.27,0-2.62,1.2-4.76,3-4.81,3.18-.04,2.79,6.48,7.17,6.74,2.32.08,3.13-1.2,3.13-2.49,0-3.82-4.11-6.4-9.14-6.35-5.83.04-10.9,3.99-10.9,10.68,0,5.62,4.42,10.77,11.15,10.77Z"/>
    <path class="cls-10" d="M418.89,424.79c4.68,0,7.12-3.47,7.12-6.78,0-.82-1.03-1.07-1.63-.3-.47.77-1.16,1.59-2.83,1.59-1.07,0-1.93-.86-1.93-2.32v-10.3h4.42c.56,0,.98-.43.98-.98v-.95c0-.56-.43-.98-.98-.98h-4.42v-4.33c0-.69-.47-1.11-1.16-1.11h-.99c-.56,0-1.03.43-1.16,1.11-.56,2.62-2.61,4.33-5.23,4.33h-.81c-.6,0-.99.39-.99.98v.95c0,.56.43.98.99.98h1.63v10.17c0,5.19,2.74,7.94,6.99,7.94Z"/>
  </g>
  <path class="cls-9" d="M351,333.72h1.5c.16,0,.26-.05.26-.15v-.02c0-.23-.47-.24-.47-.67v-7.17h1.66c.6,0,.76,1.3,1.1,1.3h.12c.11,0,.18-.07.14-.23l-.26-1.32c-.04-.17-.12-.27-.31-.27h-5.96c-.19,0-.28.1-.3.27l-.19,1.31c-.02.17.04.24.16.24h.11c.35,0,.42-1.3,1.03-1.3h1.64v7.17c0,.43-.45.44-.45.67v.02c0,.1.1.15.24.15Z"/>
  <path class="cls-9" d="M356.4,333.72h1.5c.15,0,.24-.05.24-.15v-.02c0-.23-.45-.24-.45-.67v-3.24h4.7v3.24c-.01.43-.44.44-.44.67v.02c0,.1.09.15.24.15h1.5c.16,0,.25-.05.25-.15v-.02c0-.23-.47-.24-.47-.67v-6.84c0-.43.47-.44.47-.67v-.02c0-.1-.09-.15-.25-.15h-1.5c-.15,0-.24.05-.24.15v.02c0,.23.43.24.43.67v3.07s-4.7,0-4.7,0v-3.07c.01-.43.46-.44.46-.67v-.02c0-.1-.09-.15-.24-.15h-1.5c-.14,0-.24.05-.24.15v.02c0,.23.43.24.43.67v6.84c0,.43-.43.44-.43.67v.02c0,.1.1.15.24.15Z"/>
  <path class="cls-9" d="M365.61,333.72h5.4c.19,0,.28-.09.31-.28l.29-1.21c.03-.13-.04-.24-.14-.24h-.07c-.42,0-.63,1.24-1.26,1.24h-2.82c-.3,0-.44-.24-.44-.52l.02-3.1h2.18c.45,0,.44.68.7.68h.05c.09,0,.16-.08.16-.2v-1.48c0-.13-.06-.2-.16-.2h-.05c-.26,0-.24.71-.7.71h-2.18v-3.01c0-.29.12-.41.33-.41h2.55c.62,0,.91,1.2,1.28,1.2h.06c.12,0,.18-.07.14-.24l-.29-1.19c-.04-.17-.11-.27-.3-.27h-5.09c-.13,0-.21.05-.21.14v.03c0,.22.44.23.44.69v6.81c0,.46-.44.46-.44.69v.02c0,.1.11.15.25.15Z"/>
  <path class="cls-9" d="M327.84,456.27h-1.33c-.19,0-.31.07-.31.19v.03c0,.26.6.28.6.8v7.67l-6.07-8.4c-.14-.19-.29-.29-.53-.29h-1.11c-.19,0-.29.07-.29.19v.06c0,.28.56.28.56.79v8.28c0,.54-.56.58-.56.86v.03c0,.12.1.18.29.18h1.33c.17,0,.31-.06.31-.18v-.03c0-.28-.63-.32-.63-.86v-7.83l6.24,8.52c.19.29.32.38.47.38h.36c.23,0,.37-.15.37-.4v-8.97c0-.53.58-.54.58-.8v-.03c0-.11-.11-.19-.29-.19Z"/>
  <path class="cls-9" d="M333.96,466.8c2.82,0,4.97-2.4,4.97-5.28s-2.08-5.4-5.08-5.4-5.1,2.28-5.1,5.31c0,2.82,2.12,5.37,5.21,5.37ZM334.28,466.17c-2.51,0-4.21-2.61-4.21-5.63,0-2.15,1.36-3.79,3.33-3.79,2.5,0,4.21,2.55,4.21,5.65,0,1.97-1.38,3.77-3.33,3.77Z"/>
  <path class="cls-9" d="M348.64,456.27h-1.33c-.19,0-.31.07-.31.19v.03c0,.26.6.28.6.8v7.67l-6.07-8.4c-.14-.19-.29-.29-.53-.29h-1.11c-.19,0-.29.07-.29.19v.06c0,.28.56.28.56.79v8.28c0,.54-.56.58-.56.86v.03c0,.12.1.18.29.18h1.33c.17,0,.31-.06.31-.18v-.03c0-.28-.63-.32-.63-.86v-7.83l6.24,8.52c.19.29.32.38.47.38h.36c.23,0,.37-.15.37-.4v-8.97c0-.53.58-.54.58-.8v-.03c0-.11-.11-.19-.29-.19Z"/>
  <path class="cls-9" d="M349.95,462.35h4.65c.13,0,.2-.09.2-.22v-.31c0-.11-.07-.19-.2-.19h-4.65c-.14,0-.21.07-.21.19v.31c0,.13.07.22.21.22Z"/>
  <path class="cls-9" d="M355.99,466.65h1.83c.18,0,.29-.07.29-.19v-.03c0-.25-.57-.28-.57-.81v-2.5h1.51c2.68,0,4.27-1.24,4.27-3.48,0-2.43-2.17-3.38-4.61-3.38h-2.72c-.19,0-.31.06-.31.17v.05c0,.26.54.32.54.8v8.34c0,.53-.54.56-.54.81v.03c0,.12.11.19.31.19ZM358.07,462.53c-.35,0-.53-.19-.53-.53v-4.67c0-.31.12-.47.38-.47h.79c1.68,0,3.25.96,3.25,3.1,0,1.61-1.13,2.56-2.91,2.56h-.98Z"/>
  <path class="cls-9" d="M371.4,465.63l-2.34-3.23c1.61-.45,2.47-1.58,2.47-2.91-.02-2.21-1.92-3.22-4.42-3.22h-3c-.18,0-.29.06-.29.17v.03c0,.28.53.29.53.82v8.34c0,.53-.53.54-.53.82v.03c0,.12.11.18.29.18h1.84c.17,0,.29-.06.29-.18v-.03c0-.28-.57-.3-.57-.82v-2.98l1.76-.03c.14,0,.25,0,.37-.02l2.19,3.03c.34.54-.29.54-.29.82v.03c0,.12.11.18.29.18h2.03c.18,0,.3-.06.3-.18v-.03c0-.28-.53-.27-.92-.82ZM367.3,462.03h-1.01c-.4,0-.61-.2-.61-.69v-3.98c0-.31.12-.49.38-.49h.98c1.64,0,3.13.88,3.13,2.81,0,1.48-1.17,2.35-2.87,2.35Z"/>
  <path class="cls-9" d="M377.36,466.8c2.82,0,4.97-2.4,4.97-5.28s-2.08-5.4-5.08-5.4-5.1,2.28-5.1,5.31c0,2.82,2.12,5.37,5.21,5.37ZM377.68,466.17c-2.51,0-4.21-2.61-4.21-5.63,0-2.15,1.36-3.79,3.33-3.79,2.5,0,4.21,2.55,4.21,5.65,0,1.97-1.38,3.77-3.33,3.77Z"/>
  <path class="cls-9" d="M383.33,466.65h1.84c.17,0,.29-.06.29-.18v-.03c0-.28-.57-.3-.57-.82v-3.53h2.71c.49,0,.54.82.83.82h.09c.11,0,.19-.1.19-.25v-1.8c0-.16-.07-.24-.19-.24h-.09c-.29,0-.34.86-.83.86h-2.71v-4.15c0-.32.16-.47.43-.47h3.01c.78,0,1.11,1.48,1.58,1.48h.06c.15,0,.23-.1.19-.3l-.35-1.45c-.04-.22-.13-.33-.36-.33h-6.16c-.16,0-.26.06-.26.17v.03c0,.28.54.28.54.82v8.34c0,.53-.54.54-.54.82v.03c0,.12.13.18.31.18Z"/>
  <path class="cls-9" d="M390.58,466.48c0,.12.11.18.29.18h1.83c.18,0,.29-.06.29-.18v-.03c0-.27-.56-.28-.56-.81v-8.35c0-.53.56-.54.56-.82v-.03c0-.11-.11-.17-.29-.17h-1.83c-.18,0-.29.06-.29.17v.03c0,.28.53.29.53.82v8.35c0,.53-.53.54-.53.81v.03Z"/>
  <path class="cls-9" d="M396.64,466.65h1.83c.19,0,.31-.06.31-.18v-.03c0-.28-.57-.3-.57-.82v-8.73h2.02c.73,0,.92,1.58,1.34,1.58h.15c.14,0,.22-.09.18-.28l-.32-1.61c-.04-.2-.15-.32-.38-.32h-7.27c-.23,0-.34.11-.36.32l-.23,1.6c-.03.2.04.29.19.29h.14c.42,0,.51-1.58,1.26-1.58h1.99v8.73c0,.53-.54.54-.54.82v.03c0,.12.12.18.3.18Z"/>
</svg>