<svg xmlns="http://www.w3.org/2000/svg" xmlns:xlink="http://www.w3.org/1999/xlink" width="2000" zoomAndPan="magnify" viewBox="0 0 1500 1499.999933" height="2000" preserveAspectRatio="xMidYMid meet" version="1.0"><defs><g/><clipPath id="f7836eb37a"><path d="M 0.726562 0.726562 L 1397.273438 0.726562 L 1397.273438 1397.273438 L 0.726562 1397.273438 Z M 0.726562 0.726562 " clip-rule="nonzero"/></clipPath><clipPath id="2ec16e53ec"><rect x="0" width="1398" y="0" height="1398"/></clipPath></defs><g transform="matrix(1, 0, 0, 1, 51, 51)"><g clip-path="url(#2ec16e53ec)"><g clip-path="url(#f7836eb37a)"><path fill="#ffffff" d="M 0.726562 0.726562 L 1397.273438 0.726562 L 1397.273438 1397.273438 L 0.726562 1397.273438 Z M 0.726562 0.726562 " fill-opacity="1" fill-rule="nonzero"/></g><path stroke-linecap="butt" transform="matrix(34.062144, 0, 0, 34.062144, 0.726009, 0.726069)" fill-opacity="1" fill="#ffffff" fill-rule="nonzero" stroke-linejoin="miter" d="M 2.000037 2.500041 L 8.999996 2.500041 M 13.000037 2.500041 L 14.000048 2.500041 M 18.999985 2.500041 L 21.000006 2.500041 M 24.000038 2.500041 L 25.999944 2.500041 M 27.999965 2.500041 L 28.999975 2.500041 M 29.999986 2.500041 L 30.999996 2.500041 M 32.000006 2.500041 L 38.999965 2.500041 M 2.000037 3.500051 L 3.000048 3.500051 M 7.999985 3.500051 L 8.999996 3.500051 M 12.000027 3.500051 L 13.000037 3.500051 M 17.999975 3.500051 L 18.999985 3.500051 M 19.999996 3.500051 L 21.000006 3.500051 M 22.000017 3.500051 L 25.000048 3.500051 M 26.999954 3.500051 L 30.999996 3.500051 M 32.000006 3.500051 L 33.000017 3.500051 M 37.999954 3.500051 L 38.999965 3.500051 M 2.000037 4.499947 L 3.000048 4.499947 M 3.999943 4.499947 L 6.999975 4.499947 M 7.999985 4.499947 L 8.999996 4.499947 M 10.000006 4.499947 L 11.000016 4.499947 M 12.000027 4.499947 L 14.000048 4.499947 M 14.999944 4.499947 L 15.999954 4.499947 M 16.999964 4.499947 L 18.999985 4.499947 M 21.000006 4.499947 L 22.000017 4.499947 M 23.000027 4.499947 L 26.999954 4.499947 M 28.999975 4.499947 L 30.999996 4.499947 M 32.000006 4.499947 L 33.000017 4.499947 M 34.000027 4.499947 L 36.999944 4.499947 M 37.999954 4.499947 L 38.999965 4.499947 M 2.000037 5.499957 L 3.000048 5.499957 M 3.999943 5.499957 L 6.999975 5.499957 M 7.999985 5.499957 L 8.999996 5.499957 M 10.000006 5.499957 L 11.000016 5.499957 M 12.000027 5.499957 L 15.999954 5.499957 M 16.999964 5.499957 L 19.999996 5.499957 M 23.000027 5.499957 L 25.000048 5.499957 M 25.999944 5.499957 L 29.999986 5.499957 M 32.000006 5.499957 L 33.000017 5.499957 M 34.000027 5.499957 L 36.999944 5.499957 M 37.999954 5.499957 L 38.999965 5.499957 M 2.000037 6.499968 L 3.000048 6.499968 M 3.999943 6.499968 L 6.999975 6.499968 M 7.999985 6.499968 L 8.999996 6.499968 M 10.000006 6.499968 L 12.000027 6.499968 M 13.000037 6.499968 L 16.999964 6.499968 M 18.999985 6.499968 L 26.999954 6.499968 M 27.999965 6.499968 L 28.999975 6.499968 M 29.999986 6.499968 L 30.999996 6.499968 M 32.000006 6.499968 L 33.000017 6.499968 M 34.000027 6.499968 L 36.999944 6.499968 M 37.999954 6.499968 L 38.999965 6.499968 M 2.000037 7.499978 L 3.000048 7.499978 M 7.999985 7.499978 L 8.999996 7.499978 M 10.000006 7.499978 L 11.000016 7.499978 M 12.000027 7.499978 L 13.000037 7.499978 M 14.000048 7.499978 L 14.999944 7.499978 M 15.999954 7.499978 L 19.999996 7.499978 M 23.000027 7.499978 L 25.000048 7.499978 M 25.999944 7.499978 L 27.999965 7.499978 M 28.999975 7.499978 L 29.999986 7.499978 M 32.000006 7.499978 L 33.000017 7.499978 M 37.999954 7.499978 L 38.999965 7.499978 M 2.000037 8.499989 L 8.999996 8.499989 M 10.000006 8.499989 L 11.000016 8.499989 M 12.000027 8.499989 L 13.000037 8.499989 M 14.000048 8.499989 L 14.999944 8.499989 M 15.999954 8.499989 L 16.999964 8.499989 M 17.999975 8.499989 L 18.999985 8.499989 M 19.999996 8.499989 L 21.000006 8.499989 M 22.000017 8.499989 L 23.000027 8.499989 M 24.000038 8.499989 L 25.000048 8.499989 M 25.999944 8.499989 L 26.999954 8.499989 M 27.999965 8.499989 L 28.999975 8.499989 M 29.999986 8.499989 L 30.999996 8.499989 M 32.000006 8.499989 L 38.999965 8.499989 M 10.000006 9.499999 L 11.000016 9.499999 M 12.000027 9.499999 L 13.000037 9.499999 M 14.000048 9.499999 L 14.999944 9.499999 M 15.999954 9.499999 L 17.999975 9.499999 M 18.999985 9.499999 L 21.000006 9.499999 M 22.000017 9.499999 L 24.000038 9.499999 M 25.000048 9.499999 L 25.999944 9.499999 M 27.999965 9.499999 L 28.999975 9.499999 M 29.999986 9.499999 L 30.999996 9.499999 M 2.000037 10.500009 L 3.000048 10.500009 M 3.999943 10.500009 L 8.999996 10.500009 M 13.000037 10.500009 L 14.000048 10.500009 M 16.999964 10.500009 L 18.999985 10.500009 M 22.000017 10.500009 L 23.000027 10.500009 M 24.000038 10.500009 L 25.999944 10.500009 M 26.999954 10.500009 L 27.999965 10.500009 M 28.999975 10.500009 L 29.999986 10.500009 M 32.000006 10.500009 L 36.999944 10.500009 M 2.000037 11.50002 L 4.999954 11.50002 M 5.999964 11.50002 L 6.999975 11.50002 M 8.999996 11.50002 L 10.000006 11.50002 M 11.000016 11.50002 L 13.000037 11.50002 M 14.000048 11.50002 L 15.999954 11.50002 M 16.999964 11.50002 L 17.999975 11.50002 M 18.999985 11.50002 L 24.000038 11.50002 M 25.000048 11.50002 L 25.999944 11.50002 M 26.999954 11.50002 L 27.999965 11.50002 M 29.999986 11.50002 L 30.999996 11.50002 M 33.000017 11.50002 L 34.000027 11.50002 M 36.999944 11.50002 L 37.999954 11.50002 M 2.000037 12.50003 L 3.999943 12.50003 M 5.999964 12.50003 L 8.999996 12.50003 M 10.000006 12.50003 L 11.000016 12.50003 M 14.999944 12.50003 L 15.999954 12.50003 M 16.999964 12.50003 L 19.999996 12.50003 M 22.000017 12.50003 L 25.000048 12.50003 M 28.999975 12.50003 L 29.999986 12.50003 M 30.999996 12.50003 L 34.000027 12.50003 M 36.999944 12.50003 L 38.999965 12.50003 M 2.000037 13.500041 L 4.999954 13.500041 M 5.999964 13.500041 L 7.999985 13.500041 M 8.999996 13.500041 L 10.000006 13.500041 M 12.000027 13.500041 L 14.999944 13.500041 M 15.999954 13.500041 L 17.999975 13.500041 M 21.000006 13.500041 L 22.000017 13.500041 M 23.000027 13.500041 L 26.999954 13.500041 M 27.999965 13.500041 L 28.999975 13.500041 M 29.999986 13.500041 L 32.000006 13.500041 M 33.000017 13.500041 L 35.000038 13.500041 M 37.999954 13.500041 L 38.999965 13.500041 M 2.000037 14.500051 L 6.999975 14.500051 M 7.999985 14.500051 L 11.000016 14.500051 M 12.000027 14.500051 L 14.999944 14.500051 M 15.999954 14.500051 L 17.999975 14.500051 M 18.999985 14.500051 L 19.999996 14.500051 M 22.000017 14.500051 L 27.999965 14.500051 M 28.999975 14.500051 L 29.999986 14.500051 M 30.999996 14.500051 L 35.000038 14.500051 M 36.000048 14.500051 L 38.999965 14.500051 M 2.000037 15.499947 L 6.999975 15.499947 M 10.000006 15.499947 L 11.000016 15.499947 M 12.000027 15.499947 L 14.999944 15.499947 M 15.999954 15.499947 L 16.999964 15.499947 M 19.999996 15.499947 L 25.999944 15.499947 M 26.999954 15.499947 L 27.999965 15.499947 M 29.999986 15.499947 L 32.000006 15.499947 M 33.000017 15.499947 L 34.000027 15.499947 M 3.000048 16.499957 L 4.999954 16.499957 M 5.999964 16.499957 L 10.000006 16.499957 M 11.000016 16.499957 L 14.999944 16.499957 M 15.999954 16.499957 L 18.999985 16.499957 M 19.999996 16.499957 L 21.000006 16.499957 M 22.000017 16.499957 L 24.000038 16.499957 M 27.999965 16.499957 L 36.000048 16.499957 M 36.999944 16.499957 L 38.999965 16.499957 M 2.000037 17.499968 L 3.999943 17.499968 M 6.999975 17.499968 L 7.999985 17.499968 M 11.000016 17.499968 L 13.000037 17.499968 M 14.000048 17.499968 L 14.999944 17.499968 M 15.999954 17.499968 L 18.999985 17.499968 M 23.000027 17.499968 L 25.000048 17.499968 M 27.999965 17.499968 L 30.999996 17.499968 M 32.000006 17.499968 L 35.000038 17.499968 M 3.000048 18.499978 L 3.999943 18.499978 M 4.999954 18.499978 L 6.999975 18.499978 M 7.999985 18.499978 L 14.000048 18.499978 M 15.999954 18.499978 L 16.999964 18.499978 M 19.999996 18.499978 L 21.000006 18.499978 M 22.000017 18.499978 L 23.000027 18.499978 M 24.000038 18.499978 L 25.000048 18.499978 M 25.999944 18.499978 L 33.000017 18.499978 M 34.000027 18.499978 L 35.000038 18.499978 M 36.000048 18.499978 L 38.999965 18.499978 M 3.000048 19.499989 L 7.999985 19.499989 M 8.999996 19.499989 L 11.000016 19.499989 M 14.000048 19.499989 L 19.999996 19.499989 M 21.000006 19.499989 L 24.000038 19.499989 M 25.000048 19.499989 L 25.999944 19.499989 M 26.999954 19.499989 L 27.999965 19.499989 M 29.999986 19.499989 L 30.999996 19.499989 M 35.000038 19.499989 L 36.000048 19.499989 M 36.999944 19.499989 L 37.999954 19.499989 M 3.000048 20.499999 L 8.999996 20.499999 M 10.000006 20.499999 L 11.000016 20.499999 M 13.000037 20.499999 L 14.000048 20.499999 M 15.999954 20.499999 L 16.999964 20.499999 M 18.999985 20.499999 L 19.999996 20.499999 M 22.000017 20.499999 L 23.000027 20.499999 M 26.999954 20.499999 L 29.999986 20.499999 M 30.999996 20.499999 L 34.000027 20.499999 M 35.000038 20.499999 L 38.999965 20.499999 M 3.000048 21.50001 L 5.999964 21.50001 M 6.999975 21.50001 L 7.999985 21.50001 M 13.000037 21.50001 L 14.000048 21.50001 M 15.999954 21.50001 L 16.999964 21.50001 M 17.999975 21.50001 L 18.999985 21.50001 M 19.999996 21.50001 L 21.000006 21.50001 M 23.000027 21.50001 L 26.999954 21.50001 M 30.999996 21.50001 L 32.000006 21.50001 M 33.000017 21.50001 L 34.000027 21.50001 M 37.999954 21.50001 L 38.999965 21.50001 M 2.000037 22.50002 L 3.000048 22.50002 M 6.999975 22.50002 L 12.000027 22.50002 M 13.000037 22.50002 L 14.000048 22.50002 M 18.999985 22.50002 L 21.000006 22.50002 M 25.999944 22.50002 L 29.999986 22.50002 M 30.999996 22.50002 L 33.000017 22.50002 M 34.000027 22.50002 L 35.000038 22.50002 M 36.000048 22.50002 L 36.999944 22.50002 M 3.000048 23.500031 L 4.999954 23.500031 M 10.000006 23.500031 L 13.000037 23.500031 M 14.000048 23.500031 L 15.999954 23.500031 M 17.999975 23.500031 L 24.000038 23.500031 M 25.000048 23.500031 L 25.999944 23.500031 M 29.999986 23.500031 L 32.000006 23.500031 M 35.000038 23.500031 L 36.000048 23.500031 M 36.999944 23.500031 L 37.999954 23.500031 M 2.000037 24.500041 L 6.999975 24.500041 M 7.999985 24.500041 L 10.000006 24.500041 M 11.000016 24.500041 L 13.000037 24.500041 M 14.000048 24.500041 L 14.999944 24.500041 M 16.999964 24.500041 L 17.999975 24.500041 M 18.999985 24.500041 L 19.999996 24.500041 M 24.000038 24.500041 L 25.000048 24.500041 M 28.999975 24.500041 L 29.999986 24.500041 M 30.999996 24.500041 L 36.000048 24.500041 M 36.999944 24.500041 L 38.999965 24.500041 M 3.000048 25.500051 L 6.999975 25.500051 M 11.000016 25.500051 L 12.000027 25.500051 M 13.000037 25.500051 L 14.000048 25.500051 M 14.999944 25.500051 L 15.999954 25.500051 M 18.999985 25.500051 L 25.999944 25.500051 M 27.999965 25.500051 L 28.999975 25.500051 M 30.999996 25.500051 L 35.000038 25.500051 M 36.999944 25.500051 L 38.999965 25.500051 M 3.999943 26.499947 L 4.999954 26.499947 M 6.999975 26.499947 L 8.999996 26.499947 M 11.000016 26.499947 L 14.000048 26.499947 M 14.999944 26.499947 L 18.999985 26.499947 M 21.000006 26.499947 L 22.000017 26.499947 M 24.000038 26.499947 L 27.999965 26.499947 M 29.999986 26.499947 L 33.000017 26.499947 M 34.000027 26.499947 L 35.000038 26.499947 M 36.000048 26.499947 L 38.999965 26.499947 M 2.000037 27.499958 L 3.999943 27.499958 M 4.999954 27.499958 L 6.999975 27.499958 M 8.999996 27.499958 L 11.000016 27.499958 M 13.000037 27.499958 L 14.999944 27.499958 M 15.999954 27.499958 L 17.999975 27.499958 M 18.999985 27.499958 L 23.000027 27.499958 M 25.000048 27.499958 L 25.999944 27.499958 M 29.999986 27.499958 L 32.000006 27.499958 M 33.000017 27.499958 L 34.000027 27.499958 M 35.000038 27.499958 L 36.999944 27.499958 M 2.000037 28.499968 L 3.000048 28.499968 M 3.999943 28.499968 L 5.999964 28.499968 M 7.999985 28.499968 L 8.999996 28.499968 M 10.000006 28.499968 L 13.000037 28.499968 M 14.999944 28.499968 L 15.999954 28.499968 M 16.999964 28.499968 L 18.999985 28.499968 M 24.000038 28.499968 L 25.000048 28.499968 M 26.999954 28.499968 L 27.999965 28.499968 M 28.999975 28.499968 L 33.000017 28.499968 M 34.000027 28.499968 L 35.000038 28.499968 M 36.999944 28.499968 L 38.999965 28.499968 M 2.000037 29.499979 L 3.000048 29.499979 M 6.999975 29.499979 L 7.999985 29.499979 M 14.999944 29.499979 L 17.999975 29.499979 M 23.000027 29.499979 L 25.000048 29.499979 M 25.999944 29.499979 L 26.999954 29.499979 M 27.999965 29.499979 L 32.000006 29.499979 M 33.000017 29.499979 L 35.000038 29.499979 M 37.999954 29.499979 L 38.999965 29.499979 M 2.000037 30.499989 L 3.000048 30.499989 M 5.999964 30.499989 L 6.999975 30.499989 M 7.999985 30.499989 L 8.999996 30.499989 M 11.000016 30.499989 L 12.000027 30.499989 M 14.000048 30.499989 L 19.999996 30.499989 M 24.000038 30.499989 L 25.000048 30.499989 M 25.999944 30.499989 L 37.999954 30.499989 M 10.000006 31.499999 L 11.000016 31.499999 M 14.000048 31.499999 L 14.999944 31.499999 M 15.999954 31.499999 L 16.999964 31.499999 M 17.999975 31.499999 L 18.999985 31.499999 M 19.999996 31.499999 L 24.000038 31.499999 M 25.000048 31.499999 L 27.999965 31.499999 M 29.999986 31.499999 L 30.999996 31.499999 M 34.000027 31.499999 L 36.000048 31.499999 M 2.000037 32.50001 L 8.999996 32.50001 M 16.999964 32.50001 L 18.999985 32.50001 M 19.999996 32.50001 L 21.000006 32.50001 M 22.000017 32.50001 L 25.000048 32.50001 M 27.999965 32.50001 L 28.999975 32.50001 M 29.999986 32.50001 L 30.999996 32.50001 M 32.000006 32.50001 L 33.000017 32.50001 M 34.000027 32.50001 L 35.000038 32.50001 M 36.000048 32.50001 L 38.999965 32.50001 M 2.000037 33.50002 L 3.000048 33.50002 M 7.999985 33.50002 L 8.999996 33.50002 M 10.000006 33.50002 L 11.000016 33.50002 M 14.000048 33.50002 L 16.999964 33.50002 M 17.999975 33.50002 L 18.999985 33.50002 M 21.000006 33.50002 L 25.000048 33.50002 M 27.999965 33.50002 L 28.999975 33.50002 M 29.999986 33.50002 L 30.999996 33.50002 M 34.000027 33.50002 L 36.000048 33.50002 M 36.999944 33.50002 L 37.999954 33.50002 M 2.000037 34.500031 L 3.000048 34.500031 M 3.999943 34.500031 L 6.999975 34.500031 M 7.999985 34.500031 L 8.999996 34.500031 M 10.000006 34.500031 L 11.000016 34.500031 M 12.000027 34.500031 L 13.000037 34.500031 M 14.000048 34.500031 L 14.999944 34.500031 M 19.999996 34.500031 L 23.000027 34.500031 M 25.000048 34.500031 L 35.000038 34.500031 M 36.000048 34.500031 L 37.999954 34.500031 M 2.000037 35.500041 L 3.000048 35.500041 M 3.999943 35.500041 L 6.999975 35.500041 M 7.999985 35.500041 L 8.999996 35.500041 M 10.000006 35.500041 L 13.000037 35.500041 M 14.999944 35.500041 L 18.999985 35.500041 M 21.000006 35.500041 L 24.000038 35.500041 M 25.000048 35.500041 L 25.999944 35.500041 M 26.999954 35.500041 L 27.999965 35.500041 M 28.999975 35.500041 L 30.999996 35.500041 M 32.000006 35.500041 L 33.000017 35.500041 M 34.000027 35.500041 L 35.000038 35.500041 M 36.000048 35.500041 L 36.999944 35.500041 M 37.999954 35.500041 L 38.999965 35.500041 M 2.000037 36.500052 L 3.000048 36.500052 M 3.999943 36.500052 L 6.999975 36.500052 M 7.999985 36.500052 L 8.999996 36.500052 M 10.000006 36.500052 L 11.000016 36.500052 M 15.999954 36.500052 L 16.999964 36.500052 M 18.999985 36.500052 L 19.999996 36.500052 M 22.000017 36.500052 L 25.000048 36.500052 M 25.999944 36.500052 L 28.999975 36.500052 M 29.999986 36.500052 L 30.999996 36.500052 M 36.000048 36.500052 L 38.999965 36.500052 M 2.000037 37.499947 L 3.000048 37.499947 M 7.999985 37.499947 L 8.999996 37.499947 M 11.000016 37.499947 L 14.000048 37.499947 M 14.999944 37.499947 L 15.999954 37.499947 M 17.999975 37.499947 L 18.999985 37.499947 M 19.999996 37.499947 L 21.000006 37.499947 M 22.000017 37.499947 L 24.000038 37.499947 M 25.000048 37.499947 L 26.999954 37.499947 M 27.999965 37.499947 L 30.999996 37.499947 M 32.000006 37.499947 L 33.000017 37.499947 M 34.000027 37.499947 L 35.000038 37.499947 M 37.999954 37.499947 L 38.999965 37.499947 M 2.000037 38.499958 L 8.999996 38.499958 M 10.000006 38.499958 L 14.000048 38.499958 M 14.999944 38.499958 L 16.999964 38.499958 M 18.999985 38.499958 L 19.999996 38.499958 M 21.000006 38.499958 L 22.000017 38.499958 M 24.000038 38.499958 L 25.000048 38.499958 M 25.999944 38.499958 L 28.999975 38.499958 M 30.999996 38.499958 L 32.000006 38.499958 M 34.000027 38.499958 L 38.999965 38.499958 " stroke="#000000" stroke-width="1" stroke-opacity="1" stroke-miterlimit="4"/></g></g><g fill="#000000" fill-opacity="1"><g transform="translate(657.744121, 1445.37876)"><g><path d="M 3.78125 -29.40625 L 13.8125 -29.40625 C 16.726562 -29.40625 19.226562 -29 21.3125 -28.1875 C 23.394531 -27.375 25.09375 -26.285156 26.40625 -24.921875 C 27.726562 -23.566406 28.703125 -22.039062 29.328125 -20.34375 C 29.960938 -18.65625 30.28125 -16.941406 30.28125 -15.203125 C 30.28125 -13.128906 29.953125 -11.175781 29.296875 -9.34375 C 28.640625 -7.507812 27.660156 -5.890625 26.359375 -4.484375 C 25.054688 -3.085938 23.441406 -1.988281 21.515625 -1.1875 C 19.597656 -0.394531 17.382812 0 14.875 0 L 3.78125 0 C 2.96875 0 2.378906 -0.0820312 2.015625 -0.25 C 1.648438 -0.414062 1.46875 -0.722656 1.46875 -1.171875 C 1.46875 -1.617188 1.578125 -1.953125 1.796875 -2.171875 C 2.023438 -2.398438 2.300781 -2.613281 2.625 -2.8125 C 2.945312 -3.007812 3.25 -3.28125 3.53125 -3.625 C 3.8125 -3.976562 3.992188 -4.492188 4.078125 -5.171875 C 4.128906 -5.421875 4.160156 -5.691406 4.171875 -5.984375 C 4.191406 -6.273438 4.203125 -6.660156 4.203125 -7.140625 L 4.203125 -22.265625 C 4.203125 -22.734375 4.191406 -23.113281 4.171875 -23.40625 C 4.160156 -23.707031 4.128906 -23.984375 4.078125 -24.234375 C 3.992188 -24.898438 3.8125 -25.410156 3.53125 -25.765625 C 3.25 -26.117188 2.945312 -26.390625 2.625 -26.578125 C 2.300781 -26.773438 2.023438 -26.984375 1.796875 -27.203125 C 1.578125 -27.429688 1.46875 -27.769531 1.46875 -28.21875 C 1.46875 -28.664062 1.648438 -28.972656 2.015625 -29.140625 C 2.378906 -29.316406 2.96875 -29.40625 3.78125 -29.40625 Z M 14.359375 -2.484375 C 16.710938 -2.484375 18.601562 -2.929688 20.03125 -3.828125 C 21.457031 -4.722656 22.484375 -5.953125 23.109375 -7.515625 C 23.742188 -9.085938 24.0625 -10.851562 24.0625 -12.8125 C 24.0625 -15.5 23.578125 -17.90625 22.609375 -20.03125 C 21.648438 -22.15625 20.304688 -23.84375 18.578125 -25.09375 C 16.859375 -26.34375 14.851562 -26.96875 12.5625 -26.96875 C 11.664062 -26.96875 11.035156 -26.851562 10.671875 -26.625 C 10.304688 -26.40625 10.125 -25.898438 10.125 -25.109375 L 10.125 -5.046875 C 10.125 -4.503906 10.21875 -4.046875 10.40625 -3.671875 C 10.601562 -3.296875 11.007812 -3.003906 11.625 -2.796875 C 12.25 -2.585938 13.160156 -2.484375 14.359375 -2.484375 Z M 14.359375 -2.484375 "/></g></g></g><g fill="#000000" fill-opacity="1"><g transform="translate(689.412117, 1445.37876)"><g><path d="M 11.25 0.421875 C 9.40625 0.421875 7.734375 0.03125 6.234375 -0.75 C 4.734375 -1.539062 3.550781 -2.660156 2.6875 -4.109375 C 1.820312 -5.566406 1.390625 -7.289062 1.390625 -9.28125 C 1.390625 -11.382812 1.890625 -13.289062 2.890625 -15 C 3.898438 -16.707031 5.28125 -18.0625 7.03125 -19.0625 C 8.78125 -20.070312 10.765625 -20.578125 12.984375 -20.578125 C 14.910156 -20.578125 16.609375 -20.140625 18.078125 -19.265625 C 19.546875 -18.398438 20.691406 -17.226562 21.515625 -15.75 C 22.347656 -14.269531 22.765625 -12.585938 22.765625 -10.703125 C 22.765625 -8.609375 22.265625 -6.71875 21.265625 -5.03125 C 20.273438 -3.351562 18.914062 -2.023438 17.1875 -1.046875 C 15.46875 -0.0664062 13.488281 0.421875 11.25 0.421875 Z M 13.0625 -2.359375 C 14.488281 -2.359375 15.53125 -2.894531 16.1875 -3.96875 C 16.84375 -5.050781 17.171875 -6.316406 17.171875 -7.765625 C 17.171875 -9.003906 17.023438 -10.207031 16.734375 -11.375 C 16.441406 -12.550781 16.019531 -13.628906 15.46875 -14.609375 C 14.925781 -15.597656 14.285156 -16.378906 13.546875 -16.953125 C 12.804688 -17.523438 11.988281 -17.8125 11.09375 -17.8125 C 10.082031 -17.8125 9.269531 -17.53125 8.65625 -16.96875 C 8.039062 -16.40625 7.597656 -15.679688 7.328125 -14.796875 C 7.066406 -13.921875 6.9375 -12.976562 6.9375 -11.96875 C 6.9375 -10.34375 7.191406 -8.796875 7.703125 -7.328125 C 8.222656 -5.859375 8.941406 -4.660156 9.859375 -3.734375 C 10.785156 -2.816406 11.851562 -2.359375 13.0625 -2.359375 Z M 13.0625 -2.359375 "/></g></g></g><g fill="#000000" fill-opacity="1"><g transform="translate(713.604113, 1445.37876)"><g><path d="M 23.140625 -11.96875 L 23.1875 -5.84375 C 23.1875 -4.863281 23.289062 -4.140625 23.5 -3.671875 C 23.707031 -3.210938 23.941406 -2.878906 24.203125 -2.671875 C 24.472656 -2.460938 24.707031 -2.257812 24.90625 -2.0625 C 25.101562 -1.863281 25.203125 -1.523438 25.203125 -1.046875 C 25.203125 -0.628906 25.039062 -0.347656 24.71875 -0.203125 C 24.394531 -0.0664062 23.953125 0 23.390625 0 L 17.34375 0 C 16.757812 0 16.289062 -0.078125 15.9375 -0.234375 C 15.582031 -0.390625 15.40625 -0.675781 15.40625 -1.09375 C 15.40625 -1.539062 15.507812 -1.863281 15.71875 -2.0625 C 15.9375 -2.257812 16.1875 -2.460938 16.46875 -2.671875 C 16.75 -2.878906 16.992188 -3.210938 17.203125 -3.671875 C 17.410156 -4.140625 17.515625 -4.863281 17.515625 -5.84375 L 17.515625 -11.34375 C 17.515625 -12.9375 17.21875 -14.289062 16.625 -15.40625 C 16.039062 -16.53125 15.007812 -17.078125 13.53125 -17.046875 C 12.457031 -17.046875 11.5 -16.632812 10.65625 -15.8125 C 9.820312 -14.988281 9.335938 -13.765625 9.203125 -12.140625 L 9.203125 -5.84375 C 9.203125 -4.863281 9.304688 -4.140625 9.515625 -3.671875 C 9.722656 -3.210938 9.957031 -2.878906 10.21875 -2.671875 C 10.488281 -2.460938 10.722656 -2.257812 10.921875 -2.0625 C 11.117188 -1.863281 11.21875 -1.523438 11.21875 -1.046875 C 11.21875 -0.628906 11.054688 -0.347656 10.734375 -0.203125 C 10.410156 -0.0664062 9.96875 0 9.40625 0 L 3.359375 0 C 2.773438 0 2.3125 -0.078125 1.96875 -0.234375 C 1.632812 -0.390625 1.46875 -0.675781 1.46875 -1.09375 C 1.46875 -1.539062 1.570312 -1.863281 1.78125 -2.0625 C 1.988281 -2.257812 2.222656 -2.460938 2.484375 -2.671875 C 2.753906 -2.878906 2.992188 -3.210938 3.203125 -3.671875 C 3.421875 -4.140625 3.53125 -4.863281 3.53125 -5.84375 L 3.53125 -13.8125 C 3.53125 -14.40625 3.414062 -14.90625 3.1875 -15.3125 C 2.96875 -15.71875 2.644531 -16.070312 2.21875 -16.375 C 2.03125 -16.519531 1.859375 -16.679688 1.703125 -16.859375 C 1.546875 -17.046875 1.46875 -17.28125 1.46875 -17.5625 C 1.46875 -17.894531 1.554688 -18.15625 1.734375 -18.34375 C 1.921875 -18.539062 2.265625 -18.753906 2.765625 -18.984375 C 3.296875 -19.234375 3.898438 -19.476562 4.578125 -19.71875 C 5.253906 -19.957031 5.878906 -20.148438 6.453125 -20.296875 C 7.023438 -20.453125 7.421875 -20.53125 7.640625 -20.53125 C 8.285156 -20.53125 8.609375 -20.113281 8.609375 -19.28125 L 8.609375 -16.921875 C 9.472656 -18.179688 10.53125 -19.101562 11.78125 -19.6875 C 13.03125 -20.28125 14.296875 -20.578125 15.578125 -20.578125 C 18.128906 -20.578125 20.023438 -19.8125 21.265625 -18.28125 C 22.515625 -16.757812 23.140625 -14.65625 23.140625 -11.96875 Z M 23.140625 -11.96875 "/></g></g><g transform="translate(739.854111, 1445.37876)"><g><path d="M 19.90625 -12.4375 L 19.90625 -5.671875 C 19.90625 -4.828125 20.035156 -4.242188 20.296875 -3.921875 C 20.566406 -3.597656 20.867188 -3.398438 21.203125 -3.328125 C 21.546875 -3.265625 21.847656 -3.203125 22.109375 -3.140625 C 22.378906 -3.085938 22.515625 -2.910156 22.515625 -2.609375 C 22.515625 -2.128906 22.300781 -1.671875 21.875 -1.234375 C 21.457031 -0.804688 20.925781 -0.453125 20.28125 -0.171875 C 19.632812 0.109375 18.992188 0.25 18.359375 0.25 C 17.597656 0.25 16.878906 0.0664062 16.203125 -0.296875 C 15.535156 -0.660156 15.0625 -1.441406 14.78125 -2.640625 C 13.851562 -1.578125 12.785156 -0.804688 11.578125 -0.328125 C 10.378906 0.140625 9.164062 0.375 7.9375 0.375 C 6.675781 0.375 5.5 0.128906 4.40625 -0.359375 C 3.3125 -0.847656 2.425781 -1.566406 1.75 -2.515625 C 1.082031 -3.472656 0.75 -4.609375 0.75 -5.921875 C 0.75 -7.265625 1.140625 -8.445312 1.921875 -9.46875 C 2.710938 -10.488281 3.804688 -11.285156 5.203125 -11.859375 C 6.609375 -12.429688 8.234375 -12.71875 10.078125 -12.71875 C 10.722656 -12.71875 11.394531 -12.679688 12.09375 -12.609375 C 12.789062 -12.546875 13.5625 -12.375 14.40625 -12.09375 C 14.207031 -13.851562 13.679688 -15.097656 12.828125 -15.828125 C 11.972656 -16.554688 10.773438 -16.921875 9.234375 -16.921875 C 8.335938 -16.921875 7.503906 -16.785156 6.734375 -16.515625 C 5.972656 -16.253906 5.210938 -15.914062 4.453125 -15.5 C 4.054688 -15.25 3.695312 -15.25 3.375 -15.5 C 3.050781 -15.75 3.0625 -16.140625 3.40625 -16.671875 C 3.769531 -17.265625 4.359375 -17.859375 5.171875 -18.453125 C 5.984375 -19.054688 6.945312 -19.5625 8.0625 -19.96875 C 9.1875 -20.375 10.363281 -20.578125 11.59375 -20.578125 C 14.414062 -20.578125 16.503906 -19.820312 17.859375 -18.3125 C 19.222656 -16.800781 19.90625 -14.84375 19.90625 -12.4375 Z M 10 -2.640625 C 10.695312 -2.640625 11.390625 -2.800781 12.078125 -3.125 C 12.765625 -3.445312 13.335938 -3.867188 13.796875 -4.390625 C 14.253906 -4.910156 14.484375 -5.445312 14.484375 -6 C 14.484375 -6.476562 14.484375 -6.898438 14.484375 -7.265625 C 14.484375 -7.628906 14.472656 -8.160156 14.453125 -8.859375 C 14.421875 -9.390625 14.046875 -9.804688 13.328125 -10.109375 C 12.617188 -10.421875 11.734375 -10.578125 10.671875 -10.578125 C 9.242188 -10.578125 8.085938 -10.210938 7.203125 -9.484375 C 6.316406 -8.765625 5.890625 -7.773438 5.921875 -6.515625 C 5.921875 -5.304688 6.296875 -4.359375 7.046875 -3.671875 C 7.804688 -2.984375 8.789062 -2.640625 10 -2.640625 Z M 10 -2.640625 "/></g></g></g><g fill="#000000" fill-opacity="1"><g transform="translate(762.912111, 1445.37876)"><g><path d="M 14.203125 -4.75 C 14.585938 -5.050781 14.921875 -5.085938 15.203125 -4.859375 C 15.484375 -4.640625 15.550781 -4.304688 15.40625 -3.859375 C 15.21875 -3.242188 14.84375 -2.597656 14.28125 -1.921875 C 13.71875 -1.253906 13.003906 -0.695312 12.140625 -0.25 C 11.273438 0.195312 10.253906 0.421875 9.078125 0.421875 C 7.203125 0.421875 5.738281 -0.148438 4.6875 -1.296875 C 3.632812 -2.453125 3.109375 -4.09375 3.109375 -6.21875 L 3.109375 -8.40625 C 3.109375 -10.28125 3.117188 -11.992188 3.140625 -13.546875 C 3.171875 -15.097656 3.203125 -16.421875 3.234375 -17.515625 L 2.09375 -17.515625 C 1.539062 -17.515625 1.15625 -17.601562 0.9375 -17.78125 C 0.726562 -17.96875 0.625 -18.242188 0.625 -18.609375 C 0.625 -18.859375 0.671875 -19.109375 0.765625 -19.359375 C 0.867188 -19.609375 1.035156 -19.832031 1.265625 -20.03125 C 2.046875 -20.84375 2.90625 -21.625 3.84375 -22.375 C 4.78125 -23.132812 5.679688 -23.78125 6.546875 -24.3125 C 7.023438 -24.59375 7.375 -24.757812 7.59375 -24.8125 C 7.820312 -24.875 7.992188 -24.90625 8.109375 -24.90625 C 8.410156 -24.90625 8.644531 -24.785156 8.8125 -24.546875 C 8.988281 -24.304688 9.0625 -24.035156 9.03125 -23.734375 C 8.976562 -23.171875 8.9375 -22.59375 8.90625 -22 C 8.875 -21.414062 8.84375 -20.800781 8.8125 -20.15625 L 12.984375 -20.15625 C 13.367188 -20.15625 13.703125 -20.070312 13.984375 -19.90625 C 14.265625 -19.738281 14.335938 -19.332031 14.203125 -18.6875 C 14.085938 -18.070312 13.859375 -17.671875 13.515625 -17.484375 C 13.179688 -17.304688 12.804688 -17.234375 12.390625 -17.265625 L 8.78125 -17.390625 C 8.78125 -16.242188 8.78125 -14.929688 8.78125 -13.453125 C 8.78125 -11.984375 8.765625 -10.300781 8.734375 -8.40625 C 8.703125 -6.53125 8.863281 -5.25 9.21875 -4.5625 C 9.570312 -3.875 10.222656 -3.53125 11.171875 -3.53125 C 11.734375 -3.53125 12.265625 -3.644531 12.765625 -3.875 C 13.273438 -4.113281 13.753906 -4.40625 14.203125 -4.75 Z M 14.203125 -4.75 "/></g></g></g><g fill="#000000" fill-opacity="1"><g transform="translate(779.166107, 1445.37876)"><g><path d="M 5 -22.890625 C 4.21875 -22.921875 3.59375 -23.179688 3.125 -23.671875 C 2.664062 -24.160156 2.453125 -24.753906 2.484375 -25.453125 C 2.503906 -26.097656 2.734375 -26.734375 3.171875 -27.359375 C 3.609375 -27.992188 4.160156 -28.503906 4.828125 -28.890625 C 5.503906 -29.285156 6.191406 -29.46875 6.890625 -29.4375 C 7.640625 -29.414062 8.265625 -29.148438 8.765625 -28.640625 C 9.273438 -28.140625 9.53125 -27.523438 9.53125 -26.796875 C 9.5 -26.117188 9.257812 -25.476562 8.8125 -24.875 C 8.363281 -24.28125 7.796875 -23.800781 7.109375 -23.4375 C 6.429688 -23.070312 5.726562 -22.890625 5 -22.890625 Z M 3.5625 -5.84375 L 3.53125 -13.5625 C 3.53125 -14.289062 3.429688 -14.84375 3.234375 -15.21875 C 3.035156 -15.601562 2.800781 -15.898438 2.53125 -16.109375 C 2.269531 -16.316406 2.035156 -16.507812 1.828125 -16.6875 C 1.617188 -16.875 1.515625 -17.125 1.515625 -17.4375 C 1.515625 -17.738281 1.609375 -17.972656 1.796875 -18.140625 C 1.992188 -18.304688 2.347656 -18.503906 2.859375 -18.734375 C 3.441406 -19.015625 4.109375 -19.289062 4.859375 -19.5625 C 5.617188 -19.84375 6.320312 -20.082031 6.96875 -20.28125 C 7.613281 -20.476562 8.050781 -20.578125 8.28125 -20.578125 C 8.945312 -20.609375 9.28125 -20.1875 9.28125 -19.3125 L 9.234375 -13.5625 L 9.234375 -5.84375 C 9.234375 -4.863281 9.335938 -4.140625 9.546875 -3.671875 C 9.765625 -3.210938 10.003906 -2.878906 10.265625 -2.671875 C 10.535156 -2.460938 10.765625 -2.257812 10.953125 -2.0625 C 11.148438 -1.863281 11.25 -1.523438 11.25 -1.046875 C 11.25 -0.628906 11.085938 -0.347656 10.765625 -0.203125 C 10.453125 -0.0664062 10 0 9.40625 0 L 3.40625 0 C 2.8125 0 2.335938 -0.078125 1.984375 -0.234375 C 1.640625 -0.390625 1.46875 -0.675781 1.46875 -1.09375 C 1.46875 -1.539062 1.570312 -1.863281 1.78125 -2.0625 C 1.988281 -2.257812 2.234375 -2.460938 2.515625 -2.671875 C 2.796875 -2.878906 3.039062 -3.210938 3.25 -3.671875 C 3.457031 -4.140625 3.5625 -4.863281 3.5625 -5.84375 Z M 3.5625 -5.84375 "/></g></g></g><g fill="#000000" fill-opacity="1"><g transform="translate(791.808108, 1445.37876)"><g><path d="M 11.25 0.421875 C 9.40625 0.421875 7.734375 0.03125 6.234375 -0.75 C 4.734375 -1.539062 3.550781 -2.660156 2.6875 -4.109375 C 1.820312 -5.566406 1.390625 -7.289062 1.390625 -9.28125 C 1.390625 -11.382812 1.890625 -13.289062 2.890625 -15 C 3.898438 -16.707031 5.28125 -18.0625 7.03125 -19.0625 C 8.78125 -20.070312 10.765625 -20.578125 12.984375 -20.578125 C 14.910156 -20.578125 16.609375 -20.140625 18.078125 -19.265625 C 19.546875 -18.398438 20.691406 -17.226562 21.515625 -15.75 C 22.347656 -14.269531 22.765625 -12.585938 22.765625 -10.703125 C 22.765625 -8.609375 22.265625 -6.71875 21.265625 -5.03125 C 20.273438 -3.351562 18.914062 -2.023438 17.1875 -1.046875 C 15.46875 -0.0664062 13.488281 0.421875 11.25 0.421875 Z M 13.0625 -2.359375 C 14.488281 -2.359375 15.53125 -2.894531 16.1875 -3.96875 C 16.84375 -5.050781 17.171875 -6.316406 17.171875 -7.765625 C 17.171875 -9.003906 17.023438 -10.207031 16.734375 -11.375 C 16.441406 -12.550781 16.019531 -13.628906 15.46875 -14.609375 C 14.925781 -15.597656 14.285156 -16.378906 13.546875 -16.953125 C 12.804688 -17.523438 11.988281 -17.8125 11.09375 -17.8125 C 10.082031 -17.8125 9.269531 -17.53125 8.65625 -16.96875 C 8.039062 -16.40625 7.597656 -15.679688 7.328125 -14.796875 C 7.066406 -13.921875 6.9375 -12.976562 6.9375 -11.96875 C 6.9375 -10.34375 7.191406 -8.796875 7.703125 -7.328125 C 8.222656 -5.859375 8.941406 -4.660156 9.859375 -3.734375 C 10.785156 -2.816406 11.851562 -2.359375 13.0625 -2.359375 Z M 13.0625 -2.359375 "/></g></g></g><g fill="#000000" fill-opacity="1"><g transform="translate(816.000104, 1445.37876)"><g><path d="M 23.140625 -11.96875 L 23.1875 -5.84375 C 23.1875 -4.863281 23.289062 -4.140625 23.5 -3.671875 C 23.707031 -3.210938 23.941406 -2.878906 24.203125 -2.671875 C 24.472656 -2.460938 24.707031 -2.257812 24.90625 -2.0625 C 25.101562 -1.863281 25.203125 -1.523438 25.203125 -1.046875 C 25.203125 -0.628906 25.039062 -0.347656 24.71875 -0.203125 C 24.394531 -0.0664062 23.953125 0 23.390625 0 L 17.34375 0 C 16.757812 0 16.289062 -0.078125 15.9375 -0.234375 C 15.582031 -0.390625 15.40625 -0.675781 15.40625 -1.09375 C 15.40625 -1.539062 15.507812 -1.863281 15.71875 -2.0625 C 15.9375 -2.257812 16.1875 -2.460938 16.46875 -2.671875 C 16.75 -2.878906 16.992188 -3.210938 17.203125 -3.671875 C 17.410156 -4.140625 17.515625 -4.863281 17.515625 -5.84375 L 17.515625 -11.34375 C 17.515625 -12.9375 17.21875 -14.289062 16.625 -15.40625 C 16.039062 -16.53125 15.007812 -17.078125 13.53125 -17.046875 C 12.457031 -17.046875 11.5 -16.632812 10.65625 -15.8125 C 9.820312 -14.988281 9.335938 -13.765625 9.203125 -12.140625 L 9.203125 -5.84375 C 9.203125 -4.863281 9.304688 -4.140625 9.515625 -3.671875 C 9.722656 -3.210938 9.957031 -2.878906 10.21875 -2.671875 C 10.488281 -2.460938 10.722656 -2.257812 10.921875 -2.0625 C 11.117188 -1.863281 11.21875 -1.523438 11.21875 -1.046875 C 11.21875 -0.628906 11.054688 -0.347656 10.734375 -0.203125 C 10.410156 -0.0664062 9.96875 0 9.40625 0 L 3.359375 0 C 2.773438 0 2.3125 -0.078125 1.96875 -0.234375 C 1.632812 -0.390625 1.46875 -0.675781 1.46875 -1.09375 C 1.46875 -1.539062 1.570312 -1.863281 1.78125 -2.0625 C 1.988281 -2.257812 2.222656 -2.460938 2.484375 -2.671875 C 2.753906 -2.878906 2.992188 -3.210938 3.203125 -3.671875 C 3.421875 -4.140625 3.53125 -4.863281 3.53125 -5.84375 L 3.53125 -13.8125 C 3.53125 -14.40625 3.414062 -14.90625 3.1875 -15.3125 C 2.96875 -15.71875 2.644531 -16.070312 2.21875 -16.375 C 2.03125 -16.519531 1.859375 -16.679688 1.703125 -16.859375 C 1.546875 -17.046875 1.46875 -17.28125 1.46875 -17.5625 C 1.46875 -17.894531 1.554688 -18.15625 1.734375 -18.34375 C 1.921875 -18.539062 2.265625 -18.753906 2.765625 -18.984375 C 3.296875 -19.234375 3.898438 -19.476562 4.578125 -19.71875 C 5.253906 -19.957031 5.878906 -20.148438 6.453125 -20.296875 C 7.023438 -20.453125 7.421875 -20.53125 7.640625 -20.53125 C 8.285156 -20.53125 8.609375 -20.113281 8.609375 -19.28125 L 8.609375 -16.921875 C 9.472656 -18.179688 10.53125 -19.101562 11.78125 -19.6875 C 13.03125 -20.28125 14.296875 -20.578125 15.578125 -20.578125 C 18.128906 -20.578125 20.023438 -19.8125 21.265625 -18.28125 C 22.515625 -16.757812 23.140625 -14.65625 23.140625 -11.96875 Z M 23.140625 -11.96875 "/></g></g></g></svg>