<svg xmlns="http://www.w3.org/2000/svg" xmlns:xlink="http://www.w3.org/1999/xlink" width="2000" zoomAndPan="magnify" viewBox="0 0 1500 1499.999933" height="2000" preserveAspectRatio="xMidYMid meet" version="1.0"><defs><g/><clipPath id="39693b78f7"><path d="M 0.769531 0.769531 L 1323.230469 0.769531 L 1323.230469 1323.230469 L 0.769531 1323.230469 Z M 0.769531 0.769531 " clip-rule="nonzero"/></clipPath><clipPath id="b2f6d45186"><rect x="0" width="1324" y="0" height="1324"/></clipPath></defs><g transform="matrix(1, 0, 0, 1, 88, 88)"><g clip-path="url(#b2f6d45186)"><g clip-path="url(#39693b78f7)"><path fill="#ffffff" d="M 0.769531 0.769531 L 1323.230469 0.769531 L 1323.230469 1323.230469 L 0.769531 1323.230469 Z M 0.769531 0.769531 " fill-opacity="1" fill-rule="nonzero"/></g><path stroke-linecap="butt" transform="matrix(35.742239, 0, 0, 35.742239, 0.768554, 0.7685)" fill-opacity="1" fill="#ffffff" fill-rule="nonzero" stroke-linejoin="miter" d="M 2.000024 2.500025 L 9.000014 2.500025 M 13.000009 2.500025 L 14.000007 2.500025 M 15.000006 2.500025 L 16.000004 2.500025 M 18.000001 2.500025 L 21.999995 2.500025 M 24.999991 2.500025 L 25.99999 2.500025 M 27.999987 2.500025 L 34.999977 2.500025 M 2.000024 3.500024 L 3.000023 3.500024 M 8.000016 3.500024 L 9.000014 3.500024 M 14.000007 3.500024 L 19.999998 3.500024 M 21.999995 3.500024 L 22.999994 3.500024 M 23.999993 3.500024 L 24.999991 3.500024 M 27.999987 3.500024 L 28.999985 3.500024 M 33.999978 3.500024 L 34.999977 3.500024 M 2.000024 4.500022 L 3.000023 4.500022 M 4.000022 4.500022 L 7.000017 4.500022 M 8.000016 4.500022 L 9.000014 4.500022 M 10.000013 4.500022 L 16.000004 4.500022 M 17.000003 4.500022 L 20.999997 4.500022 M 21.999995 4.500022 L 24.999991 4.500022 M 25.99999 4.500022 L 26.999988 4.500022 M 27.999987 4.500022 L 28.999985 4.500022 M 29.999984 4.500022 L 32.99998 4.500022 M 33.999978 4.500022 L 34.999977 4.500022 M 2.000024 5.500021 L 3.000023 5.500021 M 4.000022 5.500021 L 7.000017 5.500021 M 8.000016 5.500021 L 9.000014 5.500021 M 10.000013 5.500021 L 13.000009 5.500021 M 14.000007 5.500021 L 15.000006 5.500021 M 16.000004 5.500021 L 19 5.500021 M 20.999997 5.500021 L 22.999994 5.500021 M 23.999993 5.500021 L 26.999988 5.500021 M 27.999987 5.500021 L 28.999985 5.500021 M 29.999984 5.500021 L 32.99998 5.500021 M 33.999978 5.500021 L 34.999977 5.500021 M 2.000024 6.500019 L 3.000023 6.500019 M 4.000022 6.500019 L 7.000017 6.500019 M 8.000016 6.500019 L 9.000014 6.500019 M 10.000013 6.500019 L 11.000011 6.500019 M 12.00001 6.500019 L 15.000006 6.500019 M 17.000003 6.500019 L 18.000001 6.500019 M 19 6.500019 L 20.999997 6.500019 M 24.999991 6.500019 L 25.99999 6.500019 M 27.999987 6.500019 L 28.999985 6.500019 M 29.999984 6.500019 L 32.99998 6.500019 M 33.999978 6.500019 L 34.999977 6.500019 M 2.000024 7.500018 L 3.000023 7.500018 M 8.000016 7.500018 L 9.000014 7.500018 M 10.000013 7.500018 L 11.000011 7.500018 M 12.00001 7.500018 L 13.000009 7.500018 M 15.000006 7.500018 L 16.000004 7.500018 M 17.000003 7.500018 L 19.999998 7.500018 M 21.999995 7.500018 L 22.999994 7.500018 M 23.999993 7.500018 L 24.999991 7.500018 M 25.99999 7.500018 L 26.999988 7.500018 M 27.999987 7.500018 L 28.999985 7.500018 M 33.999978 7.500018 L 34.999977 7.500018 M 2.000024 8.500017 L 9.000014 8.500017 M 10.000013 8.500017 L 11.000011 8.500017 M 12.00001 8.500017 L 13.000009 8.500017 M 14.000007 8.500017 L 15.000006 8.500017 M 16.000004 8.500017 L 17.000003 8.500017 M 18.000001 8.500017 L 19 8.500017 M 19.999998 8.500017 L 20.999997 8.500017 M 21.999995 8.500017 L 22.999994 8.500017 M 23.999993 8.500017 L 24.999991 8.500017 M 25.99999 8.500017 L 26.999988 8.500017 M 27.999987 8.500017 L 34.999977 8.500017 M 10.000013 9.500015 L 11.000011 9.500015 M 12.00001 9.500015 L 15.000006 9.500015 M 17.000003 9.500015 L 18.000001 9.500015 M 19.999998 9.500015 L 20.999997 9.500015 M 22.999994 9.500015 L 23.999993 9.500015 M 24.999991 9.500015 L 26.999988 9.500015 M 2.000024 10.500014 L 3.000023 10.500014 M 4.000022 10.500014 L 9.000014 10.500014 M 11.000011 10.500014 L 13.000009 10.500014 M 15.000006 10.500014 L 18.000001 10.500014 M 19 10.500014 L 19.999998 10.500014 M 23.999993 10.500014 L 24.999991 10.500014 M 25.99999 10.500014 L 26.999988 10.500014 M 27.999987 10.500014 L 32.99998 10.500014 M 5.00002 11.500012 L 6.000019 11.500012 M 7.000017 11.500012 L 8.000016 11.500012 M 9.000014 11.500012 L 10.000013 11.500012 M 13.000009 11.500012 L 15.000006 11.500012 M 18.000001 11.500012 L 19 11.500012 M 19.999998 11.500012 L 22.999994 11.500012 M 23.999993 11.500012 L 25.99999 11.500012 M 27.999987 11.500012 L 29.999984 11.500012 M 30.999982 11.500012 L 34.999977 11.500012 M 2.000024 12.500011 L 3.000023 12.500011 M 5.00002 12.500011 L 6.000019 12.500011 M 7.000017 12.500011 L 9.000014 12.500011 M 10.000013 12.500011 L 11.000011 12.500011 M 12.00001 12.500011 L 13.000009 12.500011 M 17.000003 12.500011 L 18.000001 12.500011 M 19.999998 12.500011 L 20.999997 12.500011 M 21.999995 12.500011 L 22.999994 12.500011 M 25.99999 12.500011 L 26.999988 12.500011 M 29.999984 12.500011 L 30.999982 12.500011 M 31.999981 12.500011 L 33.999978 12.500011 M 3.000023 13.500009 L 4.000022 13.500009 M 5.00002 13.500009 L 6.000019 13.500009 M 11.000011 13.500009 L 12.00001 13.500009 M 13.000009 13.500009 L 15.000006 13.500009 M 16.000004 13.500009 L 18.000001 13.500009 M 22.999994 13.500009 L 23.999993 13.500009 M 24.999991 13.500009 L 25.99999 13.500009 M 29.999984 13.500009 L 34.999977 13.500009 M 2.000024 14.500008 L 4.000022 14.500008 M 5.00002 14.500008 L 7.000017 14.500008 M 8.000016 14.500008 L 10.000013 14.500008 M 11.000011 14.500008 L 15.000006 14.500008 M 19.999998 14.500008 L 20.999997 14.500008 M 23.999993 14.500008 L 25.99999 14.500008 M 26.999988 14.500008 L 27.999987 14.500008 M 29.999984 14.500008 L 31.999981 14.500008 M 33.999978 14.500008 L 34.999977 14.500008 M 2.000024 15.500006 L 4.000022 15.500006 M 7.000017 15.500006 L 8.000016 15.500006 M 11.000011 15.500006 L 12.00001 15.500006 M 15.000006 15.500006 L 19 15.500006 M 21.999995 15.500006 L 23.999993 15.500006 M 24.999991 15.500006 L 25.99999 15.500006 M 27.999987 15.500006 L 28.999985 15.500006 M 31.999981 15.500006 L 34.999977 15.500006 M 2.000024 16.500005 L 4.000022 16.500005 M 6.000019 16.500005 L 7.000017 16.500005 M 8.000016 16.500005 L 9.000014 16.500005 M 11.000011 16.500005 L 12.00001 16.500005 M 14.000007 16.500005 L 16.000004 16.500005 M 19 16.500005 L 21.999995 16.500005 M 25.99999 16.500005 L 28.999985 16.500005 M 30.999982 16.500005 L 31.999981 16.500005 M 32.99998 16.500005 L 33.999978 16.500005 M 2.000024 17.500003 L 3.000023 17.500003 M 6.000019 17.500003 L 7.000017 17.500003 M 10.000013 17.500003 L 11.000011 17.500003 M 13.000009 17.500003 L 14.000007 17.500003 M 18.000001 17.500003 L 19 17.500003 M 20.999997 17.500003 L 24.999991 17.500003 M 25.99999 17.500003 L 28.999985 17.500003 M 30.999982 17.500003 L 32.99998 17.500003 M 2.000024 18.500002 L 7.000017 18.500002 M 8.000016 18.500002 L 9.000014 18.500002 M 10.000013 18.500002 L 11.000011 18.500002 M 15.000006 18.500002 L 16.000004 18.500002 M 19 18.500002 L 19.999998 18.500002 M 20.999997 18.500002 L 21.999995 18.500002 M 23.999993 18.500002 L 24.999991 18.500002 M 25.99999 18.500002 L 27.999987 18.500002 M 28.999985 18.500002 L 31.999981 18.500002 M 33.999978 18.500002 L 34.999977 18.500002 M 2.000024 19.500001 L 3.000023 19.500001 M 4.000022 19.500001 L 7.000017 19.500001 M 11.000011 19.500001 L 12.00001 19.500001 M 15.000006 19.500001 L 17.000003 19.500001 M 18.000001 19.500001 L 29.999984 19.500001 M 30.999982 19.500001 L 32.99998 19.500001 M 33.999978 19.500001 L 34.999977 19.500001 M 2.000024 20.499999 L 4.000022 20.499999 M 7.000017 20.499999 L 10.000013 20.499999 M 13.000009 20.499999 L 15.000006 20.499999 M 16.000004 20.499999 L 18.000001 20.499999 M 19 20.499999 L 19.999998 20.499999 M 22.999994 20.499999 L 24.999991 20.499999 M 28.999985 20.499999 L 30.999982 20.499999 M 31.999981 20.499999 L 33.999978 20.499999 M 2.000024 21.499998 L 4.000022 21.499998 M 5.00002 21.499998 L 8.000016 21.499998 M 9.000014 21.499998 L 10.000013 21.499998 M 12.00001 21.499998 L 15.000006 21.499998 M 17.000003 21.499998 L 21.999995 21.499998 M 22.999994 21.499998 L 25.99999 21.499998 M 26.999988 21.499998 L 27.999987 21.499998 M 28.999985 21.499998 L 34.999977 21.499998 M 2.000024 22.499996 L 9.000014 22.499996 M 11.000011 22.499996 L 12.00001 22.499996 M 15.000006 22.499996 L 16.000004 22.499996 M 17.000003 22.499996 L 19 22.499996 M 23.999993 22.499996 L 24.999991 22.499996 M 26.999988 22.499996 L 27.999987 22.499996 M 28.999985 22.499996 L 31.999981 22.499996 M 2.000024 23.499995 L 3.000023 23.499995 M 5.00002 23.499995 L 6.000019 23.499995 M 7.000017 23.499995 L 8.000016 23.499995 M 9.000014 23.499995 L 10.000013 23.499995 M 11.000011 23.499995 L 12.00001 23.499995 M 13.000009 23.499995 L 14.000007 23.499995 M 15.000006 23.499995 L 16.000004 23.499995 M 17.000003 23.499995 L 18.000001 23.499995 M 19 23.499995 L 20.999997 23.499995 M 22.999994 23.499995 L 23.999993 23.499995 M 24.999991 23.499995 L 25.99999 23.499995 M 26.999988 23.499995 L 28.999985 23.499995 M 30.999982 23.499995 L 32.99998 23.499995 M 33.999978 23.499995 L 34.999977 23.499995 M 2.000024 24.499993 L 3.000023 24.499993 M 4.000022 24.499993 L 5.00002 24.499993 M 6.000019 24.499993 L 9.000014 24.499993 M 10.000013 24.499993 L 13.000009 24.499993 M 14.000007 24.499993 L 16.000004 24.499993 M 17.000003 24.499993 L 19.999998 24.499993 M 21.999995 24.499993 L 24.999991 24.499993 M 26.999988 24.499993 L 27.999987 24.499993 M 29.999984 24.499993 L 30.999982 24.499993 M 31.999981 24.499993 L 33.999978 24.499993 M 2.000024 25.499992 L 3.000023 25.499992 M 6.000019 25.499992 L 8.000016 25.499992 M 9.000014 25.499992 L 13.000009 25.499992 M 17.000003 25.499992 L 18.000001 25.499992 M 20.999997 25.499992 L 23.999993 25.499992 M 24.999991 25.499992 L 28.999985 25.499992 M 30.999982 25.499992 L 32.99998 25.499992 M 33.999978 25.499992 L 34.999977 25.499992 M 2.000024 26.49999 L 3.000023 26.49999 M 4.000022 26.49999 L 7.000017 26.49999 M 8.000016 26.49999 L 9.000014 26.49999 M 10.000013 26.49999 L 11.000011 26.49999 M 12.00001 26.49999 L 13.000009 26.49999 M 14.000007 26.49999 L 15.000006 26.49999 M 16.000004 26.49999 L 19.999998 26.49999 M 20.999997 26.49999 L 22.999994 26.49999 M 23.999993 26.49999 L 24.999991 26.49999 M 25.99999 26.49999 L 30.999982 26.49999 M 10.000013 27.499989 L 13.000009 27.499989 M 16.000004 27.499989 L 17.000003 27.499989 M 18.000001 27.499989 L 19 27.499989 M 19.999998 27.499989 L 23.999993 27.499989 M 24.999991 27.499989 L 26.999988 27.499989 M 29.999984 27.499989 L 30.999982 27.499989 M 31.999981 27.499989 L 32.99998 27.499989 M 33.999978 27.499989 L 34.999977 27.499989 M 2.000024 28.499988 L 9.000014 28.499988 M 14.000007 28.499988 L 19 28.499988 M 19.999998 28.499988 L 20.999997 28.499988 M 21.999995 28.499988 L 22.999994 28.499988 M 24.999991 28.499988 L 26.999988 28.499988 M 27.999987 28.499988 L 28.999985 28.499988 M 29.999984 28.499988 L 30.999982 28.499988 M 31.999981 28.499988 L 33.999978 28.499988 M 2.000024 29.499986 L 3.000023 29.499986 M 8.000016 29.499986 L 9.000014 29.499986 M 10.000013 29.499986 L 11.000011 29.499986 M 14.000007 29.499986 L 15.000006 29.499986 M 16.000004 29.499986 L 17.000003 29.499986 M 18.000001 29.499986 L 19 29.499986 M 20.999997 29.499986 L 26.999988 29.499986 M 29.999984 29.499986 L 33.999978 29.499986 M 2.000024 30.499985 L 3.000023 30.499985 M 4.000022 30.499985 L 7.000017 30.499985 M 8.000016 30.499985 L 9.000014 30.499985 M 10.000013 30.499985 L 13.000009 30.499985 M 16.000004 30.499985 L 17.000003 30.499985 M 19.999998 30.499985 L 20.999997 30.499985 M 23.999993 30.499985 L 24.999991 30.499985 M 25.99999 30.499985 L 31.999981 30.499985 M 2.000024 31.499983 L 3.000023 31.499983 M 4.000022 31.499983 L 7.000017 31.499983 M 8.000016 31.499983 L 9.000014 31.499983 M 10.000013 31.499983 L 11.000011 31.499983 M 13.000009 31.499983 L 15.000006 31.499983 M 17.000003 31.499983 L 19.999998 31.499983 M 20.999997 31.499983 L 21.999995 31.499983 M 22.999994 31.499983 L 25.99999 31.499983 M 26.999988 31.499983 L 27.999987 31.499983 M 29.999984 31.499983 L 30.999982 31.499983 M 31.999981 31.499983 L 34.999977 31.499983 M 2.000024 32.499982 L 3.000023 32.499982 M 4.000022 32.499982 L 7.000017 32.499982 M 8.000016 32.499982 L 9.000014 32.499982 M 10.000013 32.499982 L 12.00001 32.499982 M 13.000009 32.499982 L 17.000003 32.499982 M 22.999994 32.499982 L 23.999993 32.499982 M 24.999991 32.499982 L 29.999984 32.499982 M 30.999982 32.499982 L 32.99998 32.499982 M 2.000024 33.49998 L 3.000023 33.49998 M 8.000016 33.49998 L 9.000014 33.49998 M 13.000009 33.49998 L 14.000007 33.49998 M 15.000006 33.49998 L 17.000003 33.49998 M 18.000001 33.49998 L 19 33.49998 M 21.999995 33.49998 L 25.99999 33.49998 M 29.999984 33.49998 L 32.99998 33.49998 M 2.000024 34.499979 L 9.000014 34.499979 M 10.000013 34.499979 L 14.000007 34.499979 M 15.000006 34.499979 L 17.000003 34.499979 M 19 34.499979 L 20.999997 34.499979 M 23.999993 34.499979 L 29.999984 34.499979 M 32.99998 34.499979 L 33.999978 34.499979 " stroke="#000000" stroke-width="1" stroke-opacity="1" stroke-miterlimit="4"/></g></g><g fill="#000000" fill-opacity="1"><g transform="translate(646.781234, 1418.73137)"><g><path d="M 4.03125 -7.015625 L 4.03125 -22.390625 C 4.03125 -23.648438 3.894531 -24.570312 3.625 -25.15625 C 3.363281 -25.75 3.050781 -26.171875 2.6875 -26.421875 C 2.320312 -26.671875 2.003906 -26.90625 1.734375 -27.125 C 1.472656 -27.351562 1.34375 -27.71875 1.34375 -28.21875 C 1.34375 -28.664062 1.515625 -28.972656 1.859375 -29.140625 C 2.210938 -29.316406 2.828125 -29.40625 3.703125 -29.40625 L 10.375 -29.40625 C 11.1875 -29.40625 11.773438 -29.316406 12.140625 -29.140625 C 12.503906 -28.972656 12.6875 -28.664062 12.6875 -28.21875 C 12.6875 -27.71875 12.546875 -27.351562 12.265625 -27.125 C 11.984375 -26.90625 11.664062 -26.671875 11.3125 -26.421875 C 10.96875 -26.171875 10.65625 -25.75 10.375 -25.15625 C 10.09375 -24.570312 9.953125 -23.648438 9.953125 -22.390625 L 9.953125 -7.015625 C 9.953125 -5.753906 10.082031 -4.828125 10.34375 -4.234375 C 10.613281 -3.648438 10.921875 -3.234375 11.265625 -2.984375 C 11.617188 -2.734375 11.925781 -2.492188 12.1875 -2.265625 C 12.457031 -2.046875 12.59375 -1.679688 12.59375 -1.171875 C 12.59375 -0.722656 12.425781 -0.414062 12.09375 -0.25 C 11.757812 -0.0820312 11.160156 0 10.296875 0 L 3.609375 0 C 2.773438 0 2.175781 -0.0820312 1.8125 -0.25 C 1.445312 -0.414062 1.265625 -0.722656 1.265625 -1.171875 C 1.265625 -1.679688 1.398438 -2.046875 1.671875 -2.265625 C 1.953125 -2.492188 2.273438 -2.734375 2.640625 -2.984375 C 3.003906 -3.234375 3.328125 -3.648438 3.609375 -4.234375 C 3.890625 -4.828125 4.03125 -5.753906 4.03125 -7.015625 Z M 4.03125 -7.015625 "/></g></g></g><g fill="#000000" fill-opacity="1"><g transform="translate(660.725229, 1418.73137)"><g><path d="M 23.140625 -11.96875 L 23.1875 -5.84375 C 23.1875 -4.863281 23.289062 -4.140625 23.5 -3.671875 C 23.707031 -3.210938 23.941406 -2.878906 24.203125 -2.671875 C 24.472656 -2.460938 24.707031 -2.257812 24.90625 -2.0625 C 25.101562 -1.863281 25.203125 -1.523438 25.203125 -1.046875 C 25.203125 -0.628906 25.039062 -0.347656 24.71875 -0.203125 C 24.394531 -0.0664062 23.953125 0 23.390625 0 L 17.34375 0 C 16.757812 0 16.289062 -0.078125 15.9375 -0.234375 C 15.582031 -0.390625 15.40625 -0.675781 15.40625 -1.09375 C 15.40625 -1.539062 15.507812 -1.863281 15.71875 -2.0625 C 15.9375 -2.257812 16.1875 -2.460938 16.46875 -2.671875 C 16.75 -2.878906 16.992188 -3.210938 17.203125 -3.671875 C 17.410156 -4.140625 17.515625 -4.863281 17.515625 -5.84375 L 17.515625 -11.34375 C 17.515625 -12.9375 17.21875 -14.289062 16.625 -15.40625 C 16.039062 -16.53125 15.007812 -17.078125 13.53125 -17.046875 C 12.457031 -17.046875 11.5 -16.632812 10.65625 -15.8125 C 9.820312 -14.988281 9.335938 -13.765625 9.203125 -12.140625 L 9.203125 -5.84375 C 9.203125 -4.863281 9.304688 -4.140625 9.515625 -3.671875 C 9.722656 -3.210938 9.957031 -2.878906 10.21875 -2.671875 C 10.488281 -2.460938 10.722656 -2.257812 10.921875 -2.0625 C 11.117188 -1.863281 11.21875 -1.523438 11.21875 -1.046875 C 11.21875 -0.628906 11.054688 -0.347656 10.734375 -0.203125 C 10.410156 -0.0664062 9.96875 0 9.40625 0 L 3.359375 0 C 2.773438 0 2.3125 -0.078125 1.96875 -0.234375 C 1.632812 -0.390625 1.46875 -0.675781 1.46875 -1.09375 C 1.46875 -1.539062 1.570312 -1.863281 1.78125 -2.0625 C 1.988281 -2.257812 2.222656 -2.460938 2.484375 -2.671875 C 2.753906 -2.878906 2.992188 -3.210938 3.203125 -3.671875 C 3.421875 -4.140625 3.53125 -4.863281 3.53125 -5.84375 L 3.53125 -13.8125 C 3.53125 -14.40625 3.414062 -14.90625 3.1875 -15.3125 C 2.96875 -15.71875 2.644531 -16.070312 2.21875 -16.375 C 2.03125 -16.519531 1.859375 -16.679688 1.703125 -16.859375 C 1.546875 -17.046875 1.46875 -17.28125 1.46875 -17.5625 C 1.46875 -17.894531 1.554688 -18.15625 1.734375 -18.34375 C 1.921875 -18.539062 2.265625 -18.753906 2.765625 -18.984375 C 3.296875 -19.234375 3.898438 -19.476562 4.578125 -19.71875 C 5.253906 -19.957031 5.878906 -20.148438 6.453125 -20.296875 C 7.023438 -20.453125 7.421875 -20.53125 7.640625 -20.53125 C 8.285156 -20.53125 8.609375 -20.113281 8.609375 -19.28125 L 8.609375 -16.921875 C 9.472656 -18.179688 10.53125 -19.101562 11.78125 -19.6875 C 13.03125 -20.28125 14.296875 -20.578125 15.578125 -20.578125 C 18.128906 -20.578125 20.023438 -19.8125 21.265625 -18.28125 C 22.515625 -16.757812 23.140625 -14.65625 23.140625 -11.96875 Z M 23.140625 -11.96875 "/></g></g><g transform="translate(686.975226, 1418.73137)"><g><path d="M 11.09375 0.421875 C 9.125 0.421875 7.445312 0.148438 6.0625 -0.390625 C 4.675781 -0.941406 3.613281 -1.644531 2.875 -2.5 C 2.132812 -3.351562 1.765625 -4.253906 1.765625 -5.203125 C 1.765625 -5.992188 1.992188 -6.597656 2.453125 -7.015625 C 2.921875 -7.429688 3.472656 -7.640625 4.109375 -7.640625 C 4.835938 -7.640625 5.378906 -7.429688 5.734375 -7.015625 C 6.085938 -6.597656 6.414062 -6.148438 6.71875 -5.671875 C 7.113281 -5.109375 7.503906 -4.546875 7.890625 -3.984375 C 8.285156 -3.429688 8.753906 -2.960938 9.296875 -2.578125 C 9.847656 -2.203125 10.53125 -2.015625 11.34375 -2.015625 C 12.15625 -2.015625 12.773438 -2.222656 13.203125 -2.640625 C 13.640625 -3.066406 13.859375 -3.597656 13.859375 -4.234375 C 13.859375 -4.992188 13.5 -5.722656 12.78125 -6.421875 C 12.070312 -7.117188 10.804688 -7.820312 8.984375 -8.53125 C 7.921875 -8.945312 6.882812 -9.40625 5.875 -9.90625 C 4.875 -10.414062 4.039062 -11.046875 3.375 -11.796875 C 2.71875 -12.554688 2.390625 -13.535156 2.390625 -14.734375 C 2.390625 -16.054688 2.785156 -17.148438 3.578125 -18.015625 C 4.378906 -18.878906 5.410156 -19.519531 6.671875 -19.9375 C 7.929688 -20.363281 9.265625 -20.578125 10.671875 -20.578125 C 12.234375 -20.578125 13.640625 -20.375 14.890625 -19.96875 C 16.140625 -19.5625 17.117188 -18.992188 17.828125 -18.265625 C 18.546875 -17.535156 18.90625 -16.671875 18.90625 -15.671875 C 18.90625 -14.878906 18.6875 -14.273438 18.25 -13.859375 C 17.8125 -13.441406 17.269531 -13.234375 16.625 -13.234375 C 15.90625 -13.234375 15.332031 -13.4375 14.90625 -13.84375 C 14.488281 -14.25 14.140625 -14.6875 13.859375 -15.15625 C 13.578125 -15.664062 13.300781 -16.148438 13.03125 -16.609375 C 12.769531 -17.066406 12.425781 -17.4375 12 -17.71875 C 11.582031 -18 11.023438 -18.140625 10.328125 -18.140625 C 9.628906 -18.140625 9.054688 -17.9375 8.609375 -17.53125 C 8.160156 -17.125 7.9375 -16.597656 7.9375 -15.953125 C 7.9375 -15.117188 8.28125 -14.382812 8.96875 -13.75 C 9.65625 -13.125 10.9375 -12.421875 12.8125 -11.640625 C 14.09375 -11.109375 15.242188 -10.582031 16.265625 -10.0625 C 17.296875 -9.539062 18.109375 -8.941406 18.703125 -8.265625 C 19.304688 -7.597656 19.609375 -6.734375 19.609375 -5.671875 C 19.609375 -3.910156 18.832031 -2.453125 17.28125 -1.296875 C 15.726562 -0.148438 13.664062 0.421875 11.09375 0.421875 Z M 11.09375 0.421875 "/></g></g><g transform="translate(708.017225, 1418.73137)"><g><path d="M 14.203125 -4.75 C 14.585938 -5.050781 14.921875 -5.085938 15.203125 -4.859375 C 15.484375 -4.640625 15.550781 -4.304688 15.40625 -3.859375 C 15.21875 -3.242188 14.84375 -2.597656 14.28125 -1.921875 C 13.71875 -1.253906 13.003906 -0.695312 12.140625 -0.25 C 11.273438 0.195312 10.253906 0.421875 9.078125 0.421875 C 7.203125 0.421875 5.738281 -0.148438 4.6875 -1.296875 C 3.632812 -2.453125 3.109375 -4.09375 3.109375 -6.21875 L 3.109375 -8.40625 C 3.109375 -10.28125 3.117188 -11.992188 3.140625 -13.546875 C 3.171875 -15.097656 3.203125 -16.421875 3.234375 -17.515625 L 2.09375 -17.515625 C 1.539062 -17.515625 1.15625 -17.601562 0.9375 -17.78125 C 0.726562 -17.96875 0.625 -18.242188 0.625 -18.609375 C 0.625 -18.859375 0.671875 -19.109375 0.765625 -19.359375 C 0.867188 -19.609375 1.035156 -19.832031 1.265625 -20.03125 C 2.046875 -20.84375 2.90625 -21.625 3.84375 -22.375 C 4.78125 -23.132812 5.679688 -23.78125 6.546875 -24.3125 C 7.023438 -24.59375 7.375 -24.757812 7.59375 -24.8125 C 7.820312 -24.875 7.992188 -24.90625 8.109375 -24.90625 C 8.410156 -24.90625 8.644531 -24.785156 8.8125 -24.546875 C 8.988281 -24.304688 9.0625 -24.035156 9.03125 -23.734375 C 8.976562 -23.171875 8.9375 -22.59375 8.90625 -22 C 8.875 -21.414062 8.84375 -20.800781 8.8125 -20.15625 L 12.984375 -20.15625 C 13.367188 -20.15625 13.703125 -20.070312 13.984375 -19.90625 C 14.265625 -19.738281 14.335938 -19.332031 14.203125 -18.6875 C 14.085938 -18.070312 13.859375 -17.671875 13.515625 -17.484375 C 13.179688 -17.304688 12.804688 -17.234375 12.390625 -17.265625 L 8.78125 -17.390625 C 8.78125 -16.242188 8.78125 -14.929688 8.78125 -13.453125 C 8.78125 -11.984375 8.765625 -10.300781 8.734375 -8.40625 C 8.703125 -6.53125 8.863281 -5.25 9.21875 -4.5625 C 9.570312 -3.875 10.222656 -3.53125 11.171875 -3.53125 C 11.734375 -3.53125 12.265625 -3.644531 12.765625 -3.875 C 13.273438 -4.113281 13.753906 -4.40625 14.203125 -4.75 Z M 14.203125 -4.75 "/></g></g><g transform="translate(724.271223, 1418.73137)"><g><path d="M 19.90625 -12.4375 L 19.90625 -5.671875 C 19.90625 -4.828125 20.035156 -4.242188 20.296875 -3.921875 C 20.566406 -3.597656 20.867188 -3.398438 21.203125 -3.328125 C 21.546875 -3.265625 21.847656 -3.203125 22.109375 -3.140625 C 22.378906 -3.085938 22.515625 -2.910156 22.515625 -2.609375 C 22.515625 -2.128906 22.300781 -1.671875 21.875 -1.234375 C 21.457031 -0.804688 20.925781 -0.453125 20.28125 -0.171875 C 19.632812 0.109375 18.992188 0.25 18.359375 0.25 C 17.597656 0.25 16.878906 0.0664062 16.203125 -0.296875 C 15.535156 -0.660156 15.0625 -1.441406 14.78125 -2.640625 C 13.851562 -1.578125 12.785156 -0.804688 11.578125 -0.328125 C 10.378906 0.140625 9.164062 0.375 7.9375 0.375 C 6.675781 0.375 5.5 0.128906 4.40625 -0.359375 C 3.3125 -0.847656 2.425781 -1.566406 1.75 -2.515625 C 1.082031 -3.472656 0.75 -4.609375 0.75 -5.921875 C 0.75 -7.265625 1.140625 -8.445312 1.921875 -9.46875 C 2.710938 -10.488281 3.804688 -11.285156 5.203125 -11.859375 C 6.609375 -12.429688 8.234375 -12.71875 10.078125 -12.71875 C 10.722656 -12.71875 11.394531 -12.679688 12.09375 -12.609375 C 12.789062 -12.546875 13.5625 -12.375 14.40625 -12.09375 C 14.207031 -13.851562 13.679688 -15.097656 12.828125 -15.828125 C 11.972656 -16.554688 10.773438 -16.921875 9.234375 -16.921875 C 8.335938 -16.921875 7.503906 -16.785156 6.734375 -16.515625 C 5.972656 -16.253906 5.210938 -15.914062 4.453125 -15.5 C 4.054688 -15.25 3.695312 -15.25 3.375 -15.5 C 3.050781 -15.75 3.0625 -16.140625 3.40625 -16.671875 C 3.769531 -17.265625 4.359375 -17.859375 5.171875 -18.453125 C 5.984375 -19.054688 6.945312 -19.5625 8.0625 -19.96875 C 9.1875 -20.375 10.363281 -20.578125 11.59375 -20.578125 C 14.414062 -20.578125 16.503906 -19.820312 17.859375 -18.3125 C 19.222656 -16.800781 19.90625 -14.84375 19.90625 -12.4375 Z M 10 -2.640625 C 10.695312 -2.640625 11.390625 -2.800781 12.078125 -3.125 C 12.765625 -3.445312 13.335938 -3.867188 13.796875 -4.390625 C 14.253906 -4.910156 14.484375 -5.445312 14.484375 -6 C 14.484375 -6.476562 14.484375 -6.898438 14.484375 -7.265625 C 14.484375 -7.628906 14.472656 -8.160156 14.453125 -8.859375 C 14.421875 -9.390625 14.046875 -9.804688 13.328125 -10.109375 C 12.617188 -10.421875 11.734375 -10.578125 10.671875 -10.578125 C 9.242188 -10.578125 8.085938 -10.210938 7.203125 -9.484375 C 6.316406 -8.765625 5.890625 -7.773438 5.921875 -6.515625 C 5.921875 -5.304688 6.296875 -4.359375 7.046875 -3.671875 C 7.804688 -2.984375 8.789062 -2.640625 10 -2.640625 Z M 10 -2.640625 "/></g></g><g transform="translate(747.665221, 1418.73137)"><g><path d="M 17.4375 -3.53125 C 19.394531 -3.53125 20.882812 -3.0625 21.90625 -2.125 C 22.925781 -1.1875 23.4375 -0.00390625 23.4375 1.421875 C 23.4375 2.910156 22.925781 4.210938 21.90625 5.328125 C 20.882812 6.453125 19.460938 7.320312 17.640625 7.9375 C 15.816406 8.550781 13.675781 8.859375 11.21875 8.859375 C 10.09375 8.859375 8.96875 8.757812 7.84375 8.5625 C 6.726562 8.375 5.703125 8.078125 4.765625 7.671875 C 3.828125 7.265625 3.078125 6.738281 2.515625 6.09375 C 1.960938 5.445312 1.6875 4.675781 1.6875 3.78125 C 1.6875 3.132812 1.910156 2.488281 2.359375 1.84375 C 2.804688 1.195312 3.460938 0.707031 4.328125 0.375 C 3.566406 -0.0078125 2.941406 -0.503906 2.453125 -1.109375 C 1.960938 -1.710938 1.71875 -2.445312 1.71875 -3.3125 C 1.71875 -4.101562 1.976562 -4.832031 2.5 -5.5 C 3.019531 -6.175781 3.851562 -6.765625 5 -7.265625 C 4.101562 -7.847656 3.394531 -8.570312 2.875 -9.4375 C 2.351562 -10.3125 2.09375 -11.3125 2.09375 -12.4375 C 2.09375 -13.914062 2.519531 -15.265625 3.375 -16.484375 C 4.226562 -17.703125 5.394531 -18.679688 6.875 -19.421875 C 8.363281 -20.160156 10.046875 -20.546875 11.921875 -20.578125 L 12.8125 -20.578125 C 13.3125 -20.546875 13.710938 -20.515625 14.015625 -20.484375 C 14.328125 -20.460938 14.695312 -20.453125 15.125 -20.453125 C 15.59375 -20.453125 16.15625 -20.601562 16.8125 -20.90625 C 17.476562 -21.21875 18.175781 -21.8125 18.90625 -22.6875 C 19.125 -22.988281 19.378906 -23.226562 19.671875 -23.40625 C 19.972656 -23.59375 20.300781 -23.6875 20.65625 -23.6875 C 21.132812 -23.6875 21.539062 -23.523438 21.875 -23.203125 C 22.21875 -22.878906 22.390625 -22.453125 22.390625 -21.921875 C 22.390625 -20.972656 21.96875 -20.222656 21.125 -19.671875 C 20.28125 -19.128906 19.367188 -18.785156 18.390625 -18.640625 C 19.929688 -17.359375 20.703125 -15.695312 20.703125 -13.65625 C 20.703125 -12.164062 20.300781 -10.835938 19.5 -9.671875 C 18.707031 -8.515625 17.597656 -7.59375 16.171875 -6.90625 C 14.742188 -6.21875 13.078125 -5.847656 11.171875 -5.796875 C 10.390625 -5.765625 9.644531 -5.796875 8.9375 -5.890625 C 8.238281 -5.992188 7.582031 -6.144531 6.96875 -6.34375 C 6.4375 -5.945312 6.171875 -5.484375 6.171875 -4.953125 C 6.171875 -4.253906 6.535156 -3.769531 7.265625 -3.5 C 7.992188 -3.238281 8.863281 -3.109375 9.875 -3.109375 C 10.6875 -3.109375 11.5625 -3.140625 12.5 -3.203125 C 13.4375 -3.273438 14.34375 -3.347656 15.21875 -3.421875 C 16.101562 -3.492188 16.84375 -3.53125 17.4375 -3.53125 Z M 11 -18.3125 C 9.988281 -18.3125 9.160156 -17.925781 8.515625 -17.15625 C 7.878906 -16.382812 7.5625 -15.382812 7.5625 -14.15625 C 7.5625 -13.09375 7.722656 -12.09375 8.046875 -11.15625 C 8.367188 -10.21875 8.847656 -9.457031 9.484375 -8.875 C 10.128906 -8.300781 10.929688 -8.015625 11.890625 -8.015625 C 12.867188 -8.015625 13.664062 -8.398438 14.28125 -9.171875 C 14.894531 -9.941406 15.203125 -10.972656 15.203125 -12.265625 C 15.203125 -13.210938 15.046875 -14.148438 14.734375 -15.078125 C 14.429688 -16.003906 13.972656 -16.773438 13.359375 -17.390625 C 12.742188 -18.003906 11.957031 -18.3125 11 -18.3125 Z M 12.34375 6.390625 C 14.363281 6.390625 15.867188 6.109375 16.859375 5.546875 C 17.859375 4.984375 18.359375 4.226562 18.359375 3.28125 C 18.359375 2.769531 18.164062 2.3125 17.78125 1.90625 C 17.40625 1.5 16.6875 1.328125 15.625 1.390625 C 14.5 1.390625 13.421875 1.429688 12.390625 1.515625 C 11.359375 1.597656 10.195312 1.625 8.90625 1.59375 C 8.289062 1.5625 7.707031 1.691406 7.15625 1.984375 C 6.613281 2.285156 6.34375 2.800781 6.34375 3.53125 C 6.34375 4.476562 6.890625 5.191406 7.984375 5.671875 C 9.078125 6.148438 10.53125 6.390625 12.34375 6.390625 Z M 12.34375 6.390625 "/></g></g><g transform="translate(771.605219, 1418.73137)"><g><path d="M 14.453125 -20.578125 C 15.679688 -20.578125 16.609375 -20.234375 17.234375 -19.546875 C 17.867188 -18.859375 18.1875 -18 18.1875 -16.96875 C 18.1875 -16.125 17.992188 -15.441406 17.609375 -14.921875 C 17.234375 -14.410156 16.726562 -14.15625 16.09375 -14.15625 C 15.582031 -14.15625 15.1875 -14.265625 14.90625 -14.484375 C 14.625 -14.710938 14.363281 -14.96875 14.125 -15.25 C 13.894531 -15.53125 13.628906 -15.78125 13.328125 -16 C 13.035156 -16.226562 12.640625 -16.34375 12.140625 -16.34375 C 11.378906 -16.34375 10.703125 -15.921875 10.109375 -15.078125 C 9.523438 -14.234375 9.234375 -13.046875 9.234375 -11.515625 L 9.234375 -5.84375 C 9.234375 -4.863281 9.335938 -4.140625 9.546875 -3.671875 C 9.765625 -3.210938 10.003906 -2.878906 10.265625 -2.671875 C 10.535156 -2.460938 10.765625 -2.257812 10.953125 -2.0625 C 11.148438 -1.863281 11.25 -1.523438 11.25 -1.046875 C 11.25 -0.628906 11.085938 -0.347656 10.765625 -0.203125 C 10.453125 -0.0664062 10 0 9.40625 0 L 3.40625 0 C 2.8125 0 2.335938 -0.078125 1.984375 -0.234375 C 1.640625 -0.390625 1.46875 -0.675781 1.46875 -1.09375 C 1.46875 -1.539062 1.570312 -1.863281 1.78125 -2.0625 C 1.988281 -2.257812 2.234375 -2.460938 2.515625 -2.671875 C 2.796875 -2.878906 3.039062 -3.210938 3.25 -3.671875 C 3.457031 -4.140625 3.5625 -4.863281 3.5625 -5.84375 L 3.5625 -13.8125 C 3.5625 -14.40625 3.445312 -14.90625 3.21875 -15.3125 C 3 -15.71875 2.679688 -16.070312 2.265625 -16.375 C 2.066406 -16.519531 1.882812 -16.679688 1.71875 -16.859375 C 1.550781 -17.046875 1.46875 -17.28125 1.46875 -17.5625 C 1.46875 -17.894531 1.566406 -18.15625 1.765625 -18.34375 C 1.960938 -18.539062 2.3125 -18.753906 2.8125 -18.984375 C 3.34375 -19.234375 3.9375 -19.476562 4.59375 -19.71875 C 5.257812 -19.957031 5.878906 -20.148438 6.453125 -20.296875 C 7.023438 -20.453125 7.421875 -20.53125 7.640625 -20.53125 C 8.316406 -20.53125 8.65625 -20.113281 8.65625 -19.28125 L 8.65625 -16.796875 C 9.4375 -18.085938 10.34375 -19.039062 11.375 -19.65625 C 12.414062 -20.269531 13.441406 -20.578125 14.453125 -20.578125 Z M 14.453125 -20.578125 "/></g></g></g><g fill="#000000" fill-opacity="1"><g transform="translate(789.749203, 1418.73137)"><g><path d="M 19.90625 -12.4375 L 19.90625 -5.671875 C 19.90625 -4.828125 20.035156 -4.242188 20.296875 -3.921875 C 20.566406 -3.597656 20.867188 -3.398438 21.203125 -3.328125 C 21.546875 -3.265625 21.847656 -3.203125 22.109375 -3.140625 C 22.378906 -3.085938 22.515625 -2.910156 22.515625 -2.609375 C 22.515625 -2.128906 22.300781 -1.671875 21.875 -1.234375 C 21.457031 -0.804688 20.925781 -0.453125 20.28125 -0.171875 C 19.632812 0.109375 18.992188 0.25 18.359375 0.25 C 17.597656 0.25 16.878906 0.0664062 16.203125 -0.296875 C 15.535156 -0.660156 15.0625 -1.441406 14.78125 -2.640625 C 13.851562 -1.578125 12.785156 -0.804688 11.578125 -0.328125 C 10.378906 0.140625 9.164062 0.375 7.9375 0.375 C 6.675781 0.375 5.5 0.128906 4.40625 -0.359375 C 3.3125 -0.847656 2.425781 -1.566406 1.75 -2.515625 C 1.082031 -3.472656 0.75 -4.609375 0.75 -5.921875 C 0.75 -7.265625 1.140625 -8.445312 1.921875 -9.46875 C 2.710938 -10.488281 3.804688 -11.285156 5.203125 -11.859375 C 6.609375 -12.429688 8.234375 -12.71875 10.078125 -12.71875 C 10.722656 -12.71875 11.394531 -12.679688 12.09375 -12.609375 C 12.789062 -12.546875 13.5625 -12.375 14.40625 -12.09375 C 14.207031 -13.851562 13.679688 -15.097656 12.828125 -15.828125 C 11.972656 -16.554688 10.773438 -16.921875 9.234375 -16.921875 C 8.335938 -16.921875 7.503906 -16.785156 6.734375 -16.515625 C 5.972656 -16.253906 5.210938 -15.914062 4.453125 -15.5 C 4.054688 -15.25 3.695312 -15.25 3.375 -15.5 C 3.050781 -15.75 3.0625 -16.140625 3.40625 -16.671875 C 3.769531 -17.265625 4.359375 -17.859375 5.171875 -18.453125 C 5.984375 -19.054688 6.945312 -19.5625 8.0625 -19.96875 C 9.1875 -20.375 10.363281 -20.578125 11.59375 -20.578125 C 14.414062 -20.578125 16.503906 -19.820312 17.859375 -18.3125 C 19.222656 -16.800781 19.90625 -14.84375 19.90625 -12.4375 Z M 10 -2.640625 C 10.695312 -2.640625 11.390625 -2.800781 12.078125 -3.125 C 12.765625 -3.445312 13.335938 -3.867188 13.796875 -4.390625 C 14.253906 -4.910156 14.484375 -5.445312 14.484375 -6 C 14.484375 -6.476562 14.484375 -6.898438 14.484375 -7.265625 C 14.484375 -7.628906 14.472656 -8.160156 14.453125 -8.859375 C 14.421875 -9.390625 14.046875 -9.804688 13.328125 -10.109375 C 12.617188 -10.421875 11.734375 -10.578125 10.671875 -10.578125 C 9.242188 -10.578125 8.085938 -10.210938 7.203125 -9.484375 C 6.316406 -8.765625 5.890625 -7.773438 5.921875 -6.515625 C 5.921875 -5.304688 6.296875 -4.359375 7.046875 -3.671875 C 7.804688 -2.984375 8.789062 -2.640625 10 -2.640625 Z M 10 -2.640625 "/></g></g><g transform="translate(813.143201, 1418.73137)"><g><path d="M 36.921875 -11.96875 L 36.953125 -5.84375 C 36.953125 -4.863281 37.054688 -4.140625 37.265625 -3.671875 C 37.484375 -3.210938 37.722656 -2.878906 37.984375 -2.671875 C 38.253906 -2.460938 38.484375 -2.257812 38.671875 -2.0625 C 38.867188 -1.863281 38.96875 -1.523438 38.96875 -1.046875 C 38.96875 -0.628906 38.804688 -0.347656 38.484375 -0.203125 C 38.171875 -0.0664062 37.734375 0 37.171875 0 L 31.125 0 C 30.53125 0 30.066406 -0.078125 29.734375 -0.234375 C 29.398438 -0.390625 29.234375 -0.675781 29.234375 -1.09375 C 29.234375 -1.539062 29.335938 -1.863281 29.546875 -2.0625 C 29.753906 -2.257812 29.988281 -2.460938 30.25 -2.671875 C 30.519531 -2.878906 30.757812 -3.210938 30.96875 -3.671875 C 31.1875 -4.140625 31.296875 -4.863281 31.296875 -5.84375 L 31.296875 -11.34375 C 31.296875 -12.9375 31 -14.289062 30.40625 -15.40625 C 29.820312 -16.53125 28.785156 -17.078125 27.296875 -17.046875 C 26.117188 -17.046875 25.101562 -16.546875 24.25 -15.546875 C 23.394531 -14.554688 22.96875 -13.113281 22.96875 -11.21875 L 22.96875 -5.84375 C 22.96875 -4.863281 23.070312 -4.140625 23.28125 -3.671875 C 23.5 -3.210938 23.738281 -2.878906 24 -2.671875 C 24.269531 -2.460938 24.507812 -2.257812 24.71875 -2.0625 C 24.925781 -1.863281 25.03125 -1.523438 25.03125 -1.046875 C 25.03125 -0.628906 24.863281 -0.347656 24.53125 -0.203125 C 24.195312 -0.0664062 23.75 0 23.1875 0 L 17.171875 0 C 16.554688 0 16.082031 -0.078125 15.75 -0.234375 C 15.414062 -0.390625 15.25 -0.675781 15.25 -1.09375 C 15.25 -1.539062 15.351562 -1.863281 15.5625 -2.0625 C 15.769531 -2.257812 16.003906 -2.460938 16.265625 -2.671875 C 16.535156 -2.878906 16.773438 -3.210938 16.984375 -3.671875 C 17.191406 -4.140625 17.296875 -4.863281 17.296875 -5.84375 L 17.296875 -11.34375 C 17.296875 -12.375 17.210938 -13.320312 17.046875 -14.1875 C 16.878906 -15.0625 16.535156 -15.765625 16.015625 -16.296875 C 15.503906 -16.828125 14.742188 -17.078125 13.734375 -17.046875 C 12.609375 -17.023438 11.578125 -16.507812 10.640625 -15.5 C 9.703125 -14.488281 9.234375 -13.0625 9.234375 -11.21875 L 9.234375 -5.84375 C 9.234375 -4.863281 9.335938 -4.140625 9.546875 -3.671875 C 9.765625 -3.210938 10.003906 -2.878906 10.265625 -2.671875 C 10.535156 -2.460938 10.765625 -2.257812 10.953125 -2.0625 C 11.148438 -1.863281 11.25 -1.523438 11.25 -1.046875 C 11.25 -0.628906 11.085938 -0.347656 10.765625 -0.203125 C 10.453125 -0.0664062 10 0 9.40625 0 L 3.40625 0 C 2.8125 0 2.335938 -0.078125 1.984375 -0.234375 C 1.640625 -0.390625 1.46875 -0.675781 1.46875 -1.09375 C 1.46875 -1.539062 1.570312 -1.863281 1.78125 -2.0625 C 1.988281 -2.257812 2.234375 -2.460938 2.515625 -2.671875 C 2.796875 -2.878906 3.039062 -3.210938 3.25 -3.671875 C 3.457031 -4.140625 3.5625 -4.863281 3.5625 -5.84375 L 3.5625 -13.8125 C 3.5625 -14.40625 3.445312 -14.90625 3.21875 -15.3125 C 3 -15.71875 2.679688 -16.070312 2.265625 -16.375 C 2.066406 -16.519531 1.882812 -16.679688 1.71875 -16.859375 C 1.550781 -17.046875 1.46875 -17.28125 1.46875 -17.5625 C 1.46875 -17.894531 1.566406 -18.15625 1.765625 -18.34375 C 1.960938 -18.539062 2.3125 -18.753906 2.8125 -18.984375 C 3.34375 -19.234375 3.9375 -19.476562 4.59375 -19.71875 C 5.257812 -19.957031 5.878906 -20.148438 6.453125 -20.296875 C 7.023438 -20.453125 7.421875 -20.53125 7.640625 -20.53125 C 8.316406 -20.53125 8.65625 -20.113281 8.65625 -19.28125 L 8.65625 -16.546875 C 9.46875 -17.890625 10.488281 -18.894531 11.71875 -19.5625 C 12.945312 -20.238281 14.25 -20.578125 15.625 -20.578125 C 17.300781 -20.578125 18.675781 -20.234375 19.75 -19.546875 C 20.832031 -18.859375 21.640625 -17.882812 22.171875 -16.625 C 23.066406 -18 24.160156 -19 25.453125 -19.625 C 26.742188 -20.257812 28.046875 -20.578125 29.359375 -20.578125 C 31.910156 -20.578125 33.804688 -19.8125 35.046875 -18.28125 C 36.296875 -16.757812 36.921875 -14.65625 36.921875 -11.96875 Z M 36.921875 -11.96875 "/></g></g></g></svg>