<svg xmlns="http://www.w3.org/2000/svg" xmlns:xlink="http://www.w3.org/1999/xlink" width="2000" zoomAndPan="magnify" viewBox="0 0 1500 1499.999933" height="2000" preserveAspectRatio="xMidYMid meet" version="1.0"><defs><g/><clipPath id="f7c12213fe"><path d="M 0.425781 0.425781 L 1379.574219 0.425781 L 1379.574219 1379.574219 L 0.425781 1379.574219 Z M 0.425781 0.425781 " clip-rule="nonzero"/></clipPath><clipPath id="0a93b5f9d9"><rect x="0" width="1380" y="0" height="1380"/></clipPath></defs><g transform="matrix(1, 0, 0, 1, 60, 60)"><g clip-path="url(#0a93b5f9d9)"><g clip-path="url(#f7c12213fe)"><path fill="#ffffff" d="M 0.425781 0.425781 L 1379.574219 0.425781 L 1379.574219 1379.574219 L 0.425781 1379.574219 Z M 0.425781 0.425781 " fill-opacity="1" fill-rule="nonzero"/></g><path stroke-linecap="butt" transform="matrix(37.274327, 0, 0, 37.274327, 0.424891, 0.424662)" fill-opacity="1" fill="#ffffff" fill-rule="nonzero" stroke-linejoin="miter" d="M 1.999976 2.49997 L 9.000019 2.49997 M 9.999995 2.49997 L 12.000052 2.49997 M 13.000028 2.49997 L 14.000004 2.49997 M 18.000014 2.49997 L 18.99999 2.49997 M 19.999966 2.49997 L 22.000023 2.49997 M 22.999999 2.49997 L 23.999975 2.49997 M 24.999951 2.49997 L 26.000032 2.49997 M 27.999985 2.49997 L 35.000027 2.49997 M 1.999976 3.500051 L 2.999952 3.500051 M 8.000043 3.500051 L 9.000019 3.500051 M 9.999995 3.500051 L 10.999971 3.500051 M 12.000052 3.500051 L 13.000028 3.500051 M 15.999957 3.500051 L 17.000038 3.500051 M 18.99999 3.500051 L 19.999966 3.500051 M 24.999951 3.500051 L 27.000009 3.500051 M 27.999985 3.500051 L 28.999961 3.500051 M 34.000051 3.500051 L 35.000027 3.500051 M 1.999976 4.500027 L 2.999952 4.500027 M 4.000033 4.500027 L 6.999962 4.500027 M 8.000043 4.500027 L 9.000019 4.500027 M 12.000052 4.500027 L 13.000028 4.500027 M 14.000004 4.500027 L 17.000038 4.500027 M 19.999966 4.500027 L 21.000047 4.500027 M 22.000023 4.500027 L 22.999999 4.500027 M 23.999975 4.500027 L 24.999951 4.500027 M 26.000032 4.500027 L 27.000009 4.500027 M 27.999985 4.500027 L 28.999961 4.500027 M 30.000042 4.500027 L 32.99997 4.500027 M 34.000051 4.500027 L 35.000027 4.500027 M 1.999976 5.500004 L 2.999952 5.500004 M 4.000033 5.500004 L 6.999962 5.500004 M 8.000043 5.500004 L 9.000019 5.500004 M 9.999995 5.500004 L 14.99998 5.500004 M 17.000038 5.500004 L 18.000014 5.500004 M 19.999966 5.500004 L 22.000023 5.500004 M 23.999975 5.500004 L 24.999951 5.500004 M 27.999985 5.500004 L 28.999961 5.500004 M 30.000042 5.500004 L 32.99997 5.500004 M 34.000051 5.500004 L 35.000027 5.500004 M 1.999976 6.49998 L 2.999952 6.49998 M 4.000033 6.49998 L 6.999962 6.49998 M 8.000043 6.49998 L 9.000019 6.49998 M 10.999971 6.49998 L 12.000052 6.49998 M 13.000028 6.49998 L 14.000004 6.49998 M 14.99998 6.49998 L 15.999957 6.49998 M 18.000014 6.49998 L 18.99999 6.49998 M 19.999966 6.49998 L 21.000047 6.49998 M 22.999999 6.49998 L 27.000009 6.49998 M 27.999985 6.49998 L 28.999961 6.49998 M 30.000042 6.49998 L 32.99997 6.49998 M 34.000051 6.49998 L 35.000027 6.49998 M 1.999976 7.499956 L 2.999952 7.499956 M 8.000043 7.499956 L 9.000019 7.499956 M 14.99998 7.499956 L 15.999957 7.499956 M 17.000038 7.499956 L 21.000047 7.499956 M 22.999999 7.499956 L 23.999975 7.499956 M 26.000032 7.499956 L 27.000009 7.499956 M 27.999985 7.499956 L 28.999961 7.499956 M 34.000051 7.499956 L 35.000027 7.499956 M 1.999976 8.500037 L 9.000019 8.500037 M 9.999995 8.500037 L 10.999971 8.500037 M 12.000052 8.500037 L 13.000028 8.500037 M 14.000004 8.500037 L 14.99998 8.500037 M 15.999957 8.500037 L 17.000038 8.500037 M 18.000014 8.500037 L 18.99999 8.500037 M 19.999966 8.500037 L 21.000047 8.500037 M 22.000023 8.500037 L 22.999999 8.500037 M 23.999975 8.500037 L 24.999951 8.500037 M 26.000032 8.500037 L 27.000009 8.500037 M 27.999985 8.500037 L 35.000027 8.500037 M 9.999995 9.500013 L 12.000052 9.500013 M 13.000028 9.500013 L 14.99998 9.500013 M 15.999957 9.500013 L 19.999966 9.500013 M 21.000047 9.500013 L 22.000023 9.500013 M 1.999976 10.499989 L 2.999952 10.499989 M 4.000033 10.499989 L 5.999986 10.499989 M 6.999962 10.499989 L 9.999995 10.499989 M 13.000028 10.499989 L 14.99998 10.499989 M 15.999957 10.499989 L 18.000014 10.499989 M 18.99999 10.499989 L 21.000047 10.499989 M 22.999999 10.499989 L 23.999975 10.499989 M 26.000032 10.499989 L 27.000009 10.499989 M 27.999985 10.499989 L 28.999961 10.499989 M 31.000018 10.499989 L 31.999994 10.499989 M 32.99997 10.499989 L 35.000027 10.499989 M 5.000009 11.499965 L 5.999986 11.499965 M 6.999962 11.499965 L 8.000043 11.499965 M 9.000019 11.499965 L 13.000028 11.499965 M 14.99998 11.499965 L 15.999957 11.499965 M 17.000038 11.499965 L 26.000032 11.499965 M 27.999985 11.499965 L 30.000042 11.499965 M 31.000018 11.499965 L 32.99997 11.499965 M 34.000051 11.499965 L 35.000027 11.499965 M 2.999952 12.500046 L 5.000009 12.500046 M 8.000043 12.500046 L 9.000019 12.500046 M 9.999995 12.500046 L 12.000052 12.500046 M 13.000028 12.500046 L 15.999957 12.500046 M 18.000014 12.500046 L 18.99999 12.500046 M 19.999966 12.500046 L 21.000047 12.500046 M 22.999999 12.500046 L 23.999975 12.500046 M 24.999951 12.500046 L 31.999994 12.500046 M 32.99997 12.500046 L 35.000027 12.500046 M 1.999976 13.500022 L 4.000033 13.500022 M 9.999995 13.500022 L 10.999971 13.500022 M 14.000004 13.500022 L 14.99998 13.500022 M 17.000038 13.500022 L 18.000014 13.500022 M 18.99999 13.500022 L 19.999966 13.500022 M 21.000047 13.500022 L 22.999999 13.500022 M 23.999975 13.500022 L 27.000009 13.500022 M 27.999985 13.500022 L 30.000042 13.500022 M 31.000018 13.500022 L 31.999994 13.500022 M 1.999976 14.499999 L 2.999952 14.499999 M 4.000033 14.499999 L 5.999986 14.499999 M 6.999962 14.499999 L 13.000028 14.499999 M 15.999957 14.499999 L 17.000038 14.499999 M 18.000014 14.499999 L 18.99999 14.499999 M 21.000047 14.499999 L 22.000023 14.499999 M 23.999975 14.499999 L 26.000032 14.499999 M 27.000009 14.499999 L 27.999985 14.499999 M 28.999961 14.499999 L 31.999994 14.499999 M 2.999952 15.499975 L 4.000033 15.499975 M 5.000009 15.499975 L 8.000043 15.499975 M 9.999995 15.499975 L 10.999971 15.499975 M 14.000004 15.499975 L 14.99998 15.499975 M 15.999957 15.499975 L 17.000038 15.499975 M 18.99999 15.499975 L 19.999966 15.499975 M 22.000023 15.499975 L 22.999999 15.499975 M 26.000032 15.499975 L 27.000009 15.499975 M 28.999961 15.499975 L 30.000042 15.499975 M 31.000018 15.499975 L 31.999994 15.499975 M 32.99997 15.499975 L 34.000051 15.499975 M 1.999976 16.499951 L 4.000033 16.499951 M 6.999962 16.499951 L 9.000019 16.499951 M 10.999971 16.499951 L 15.999957 16.499951 M 18.99999 16.499951 L 19.999966 16.499951 M 21.000047 16.499951 L 22.000023 16.499951 M 26.000032 16.499951 L 27.000009 16.499951 M 27.999985 16.499951 L 32.99997 16.499951 M 2.999952 17.500032 L 5.999986 17.500032 M 9.000019 17.500032 L 9.999995 17.500032 M 10.999971 17.500032 L 12.000052 17.500032 M 13.000028 17.500032 L 18.000014 17.500032 M 22.000023 17.500032 L 23.999975 17.500032 M 24.999951 17.500032 L 30.000042 17.500032 M 31.000018 17.500032 L 32.99997 17.500032 M 2.999952 18.500008 L 5.999986 18.500008 M 6.999962 18.500008 L 9.000019 18.500008 M 9.999995 18.500008 L 10.999971 18.500008 M 13.000028 18.500008 L 14.000004 18.500008 M 14.99998 18.500008 L 17.000038 18.500008 M 19.999966 18.500008 L 21.000047 18.500008 M 22.000023 18.500008 L 23.999975 18.500008 M 24.999951 18.500008 L 26.000032 18.500008 M 27.000009 18.500008 L 28.999961 18.500008 M 30.000042 18.500008 L 32.99997 18.500008 M 2.999952 19.499984 L 4.000033 19.499984 M 5.000009 19.499984 L 5.999986 19.499984 M 6.999962 19.499984 L 8.000043 19.499984 M 9.999995 19.499984 L 14.000004 19.499984 M 14.99998 19.499984 L 18.99999 19.499984 M 22.000023 19.499984 L 28.999961 19.499984 M 30.000042 19.499984 L 31.999994 19.499984 M 32.99997 19.499984 L 35.000027 19.499984 M 5.999986 20.49996 L 9.999995 20.49996 M 10.999971 20.49996 L 12.000052 20.49996 M 14.99998 20.49996 L 15.999957 20.49996 M 17.000038 20.49996 L 18.99999 20.49996 M 19.999966 20.49996 L 21.000047 20.49996 M 23.999975 20.49996 L 24.999951 20.49996 M 27.000009 20.49996 L 27.999985 20.49996 M 28.999961 20.49996 L 31.000018 20.49996 M 31.999994 20.49996 L 34.000051 20.49996 M 1.999976 21.500041 L 5.000009 21.500041 M 5.999986 21.500041 L 8.000043 21.500041 M 9.000019 21.500041 L 9.999995 21.500041 M 13.000028 21.500041 L 14.99998 21.500041 M 15.999957 21.500041 L 17.000038 21.500041 M 18.000014 21.500041 L 22.000023 21.500041 M 23.999975 21.500041 L 24.999951 21.500041 M 27.000009 21.500041 L 28.999961 21.500041 M 30.000042 21.500041 L 31.000018 21.500041 M 1.999976 22.500017 L 4.000033 22.500017 M 5.999986 22.500017 L 6.999962 22.500017 M 8.000043 22.500017 L 10.999971 22.500017 M 14.99998 22.500017 L 17.000038 22.500017 M 18.000014 22.500017 L 18.99999 22.500017 M 22.000023 22.500017 L 23.999975 22.500017 M 26.000032 22.500017 L 27.000009 22.500017 M 31.000018 22.500017 L 34.000051 22.500017 M 1.999976 23.499993 L 5.999986 23.499993 M 9.999995 23.499993 L 10.999971 23.499993 M 13.000028 23.499993 L 14.000004 23.499993 M 17.000038 23.499993 L 19.999966 23.499993 M 21.000047 23.499993 L 22.999999 23.499993 M 24.999951 23.499993 L 26.000032 23.499993 M 27.000009 23.499993 L 27.999985 23.499993 M 34.000051 23.499993 L 35.000027 23.499993 M 4.000033 24.49997 L 5.999986 24.49997 M 8.000043 24.49997 L 12.000052 24.49997 M 13.000028 24.49997 L 14.99998 24.49997 M 15.999957 24.49997 L 18.000014 24.49997 M 19.999966 24.49997 L 21.000047 24.49997 M 22.999999 24.49997 L 27.000009 24.49997 M 27.999985 24.49997 L 28.999961 24.49997 M 31.999994 24.49997 L 35.000027 24.49997 M 2.999952 25.50005 L 4.000033 25.50005 M 6.999962 25.50005 L 8.000043 25.50005 M 13.000028 25.50005 L 14.000004 25.50005 M 17.000038 25.50005 L 18.000014 25.50005 M 19.999966 25.50005 L 21.000047 25.50005 M 23.999975 25.50005 L 24.999951 25.50005 M 28.999961 25.50005 L 31.999994 25.50005 M 34.000051 25.50005 L 35.000027 25.50005 M 1.999976 26.500027 L 2.999952 26.500027 M 5.999986 26.500027 L 12.000052 26.500027 M 13.000028 26.500027 L 14.000004 26.500027 M 14.99998 26.500027 L 17.000038 26.500027 M 18.000014 26.500027 L 19.999966 26.500027 M 23.999975 26.500027 L 24.999951 26.500027 M 26.000032 26.500027 L 31.999994 26.500027 M 9.999995 27.500003 L 10.999971 27.500003 M 12.000052 27.500003 L 14.000004 27.500003 M 17.000038 27.500003 L 18.99999 27.500003 M 21.000047 27.500003 L 22.000023 27.500003 M 22.999999 27.500003 L 27.000009 27.500003 M 30.000042 27.500003 L 31.999994 27.500003 M 34.000051 27.500003 L 35.000027 27.500003 M 1.999976 28.499979 L 9.000019 28.499979 M 9.999995 28.499979 L 12.000052 28.499979 M 13.000028 28.499979 L 15.999957 28.499979 M 18.99999 28.499979 L 27.000009 28.499979 M 27.999985 28.499979 L 28.999961 28.499979 M 30.000042 28.499979 L 31.000018 28.499979 M 1.999976 29.499955 L 2.999952 29.499955 M 8.000043 29.499955 L 9.000019 29.499955 M 9.999995 29.499955 L 14.000004 29.499955 M 14.99998 29.499955 L 17.000038 29.499955 M 18.000014 29.499955 L 21.000047 29.499955 M 22.000023 29.499955 L 23.999975 29.499955 M 24.999951 29.499955 L 27.000009 29.499955 M 30.000042 29.499955 L 34.000051 29.499955 M 1.999976 30.500036 L 2.999952 30.500036 M 4.000033 30.500036 L 6.999962 30.500036 M 8.000043 30.500036 L 9.000019 30.500036 M 10.999971 30.500036 L 12.000052 30.500036 M 14.000004 30.500036 L 14.99998 30.500036 M 15.999957 30.500036 L 21.000047 30.500036 M 22.000023 30.500036 L 31.000018 30.500036 M 31.999994 30.500036 L 35.000027 30.500036 M 1.999976 31.500012 L 2.999952 31.500012 M 4.000033 31.500012 L 6.999962 31.500012 M 8.000043 31.500012 L 9.000019 31.500012 M 9.999995 31.500012 L 10.999971 31.500012 M 13.000028 31.500012 L 14.99998 31.500012 M 18.000014 31.500012 L 19.999966 31.500012 M 22.000023 31.500012 L 22.999999 31.500012 M 23.999975 31.500012 L 27.000009 31.500012 M 28.999961 31.500012 L 30.000042 31.500012 M 34.000051 31.500012 L 35.000027 31.500012 M 1.999976 32.499988 L 2.999952 32.499988 M 4.000033 32.499988 L 6.999962 32.499988 M 8.000043 32.499988 L 9.000019 32.499988 M 9.999995 32.499988 L 12.000052 32.499988 M 14.000004 32.499988 L 18.99999 32.499988 M 22.000023 32.499988 L 22.999999 32.499988 M 23.999975 32.499988 L 24.999951 32.499988 M 26.000032 32.499988 L 27.000009 32.499988 M 27.999985 32.499988 L 30.000042 32.499988 M 31.000018 32.499988 L 31.999994 32.499988 M 1.999976 33.499964 L 2.999952 33.499964 M 8.000043 33.499964 L 9.000019 33.499964 M 12.000052 33.499964 L 13.000028 33.499964 M 14.000004 33.499964 L 14.99998 33.499964 M 18.99999 33.499964 L 21.000047 33.499964 M 24.999951 33.499964 L 27.000009 33.499964 M 27.999985 33.499964 L 31.000018 33.499964 M 34.000051 33.499964 L 35.000027 33.499964 M 1.999976 34.500045 L 9.000019 34.500045 M 9.999995 34.500045 L 12.000052 34.500045 M 13.000028 34.500045 L 14.000004 34.500045 M 18.000014 34.500045 L 19.999966 34.500045 M 21.000047 34.500045 L 22.000023 34.500045 M 22.999999 34.500045 L 23.999975 34.500045 M 24.999951 34.500045 L 26.000032 34.500045 M 27.000009 34.500045 L 27.999985 34.500045 M 30.000042 34.500045 L 32.99997 34.500045 " stroke="#000000" stroke-width="1" stroke-opacity="1" stroke-miterlimit="4"/></g></g><g fill="#000000" fill-opacity="1"><g transform="translate(680.947247, 1434.549696)"><g><path d="M 24.15625 -29.359375 L 27.9375 -29.359375 C 28.570312 -29.359375 29.09375 -29.285156 29.5 -29.140625 C 29.90625 -29.003906 30.109375 -28.726562 30.109375 -28.3125 C 30.109375 -27.914062 29.984375 -27.613281 29.734375 -27.40625 C 29.484375 -27.195312 29.164062 -26.976562 28.78125 -26.75 C 28.40625 -26.53125 28.015625 -26.21875 27.609375 -25.8125 C 27.203125 -25.40625 26.847656 -24.8125 26.546875 -24.03125 L 17.71875 -1.34375 C 17.582031 -0.925781 17.390625 -0.609375 17.140625 -0.390625 C 16.890625 -0.179688 16.34375 -0.0234375 15.5 0.078125 C 14.539062 0.191406 13.882812 0.195312 13.53125 0.09375 C 13.1875 0 12.929688 -0.269531 12.765625 -0.71875 L 3.484375 -23.859375 C 3.148438 -24.722656 2.800781 -25.363281 2.4375 -25.78125 C 2.070312 -26.207031 1.742188 -26.523438 1.453125 -26.734375 C 1.160156 -26.941406 0.914062 -27.132812 0.71875 -27.3125 C 0.519531 -27.5 0.421875 -27.789062 0.421875 -28.1875 C 0.421875 -28.65625 0.585938 -28.972656 0.921875 -29.140625 C 1.253906 -29.316406 1.828125 -29.40625 2.640625 -29.40625 L 9.40625 -29.40625 C 10.082031 -29.40625 10.585938 -29.316406 10.921875 -29.140625 C 11.253906 -28.972656 11.421875 -28.664062 11.421875 -28.21875 C 11.421875 -27.800781 11.285156 -27.492188 11.015625 -27.296875 C 10.753906 -27.097656 10.476562 -26.882812 10.1875 -26.65625 C 9.894531 -26.4375 9.695312 -26.125 9.59375 -25.71875 C 9.5 -25.3125 9.601562 -24.691406 9.90625 -23.859375 L 16.71875 -6.515625 L 23.359375 -24.03125 C 23.660156 -24.832031 23.773438 -25.441406 23.703125 -25.859375 C 23.640625 -26.285156 23.492188 -26.601562 23.265625 -26.8125 C 23.046875 -27.019531 22.820312 -27.222656 22.59375 -27.421875 C 22.375 -27.617188 22.265625 -27.898438 22.265625 -28.265625 C 22.265625 -28.742188 22.445312 -29.046875 22.8125 -29.171875 C 23.175781 -29.296875 23.625 -29.359375 24.15625 -29.359375 Z M 24.15625 -29.359375 "/></g></g></g><g fill="#000000" fill-opacity="1"><g transform="translate(706.777235, 1434.549696)"><g><path d="M 21.125 -11.171875 C 21.070312 -10.441406 20.679688 -10.078125 19.953125 -10.078125 L 6.96875 -9.90625 C 7.195312 -8.03125 7.929688 -6.519531 9.171875 -5.375 C 10.421875 -4.226562 11.96875 -3.65625 13.8125 -3.65625 C 15.101562 -3.65625 16.195312 -3.890625 17.09375 -4.359375 C 17.988281 -4.835938 18.800781 -5.398438 19.53125 -6.046875 C 19.976562 -6.441406 20.367188 -6.519531 20.703125 -6.28125 C 21.035156 -6.039062 21.09375 -5.613281 20.875 -5 C 20.59375 -4.21875 20.066406 -3.40625 19.296875 -2.5625 C 18.523438 -1.71875 17.492188 -1.007812 16.203125 -0.4375 C 14.921875 0.132812 13.367188 0.421875 11.546875 0.421875 C 9.503906 0.421875 7.71875 -0.0078125 6.1875 -0.875 C 4.664062 -1.75 3.484375 -2.945312 2.640625 -4.46875 C 1.804688 -6 1.390625 -7.757812 1.390625 -9.75 C 1.390625 -11.820312 1.882812 -13.675781 2.875 -15.3125 C 3.875 -16.945312 5.195312 -18.234375 6.84375 -19.171875 C 8.5 -20.109375 10.304688 -20.578125 12.265625 -20.578125 C 14.109375 -20.578125 15.71875 -20.191406 17.09375 -19.421875 C 18.46875 -18.648438 19.519531 -17.554688 20.25 -16.140625 C 20.976562 -14.734375 21.269531 -13.078125 21.125 -11.171875 Z M 8.015625 -12.390625 L 14.953125 -12.4375 C 15.398438 -12.4375 15.671875 -12.5 15.765625 -12.625 C 15.867188 -12.75 15.921875 -13.0625 15.921875 -13.5625 C 15.859375 -14.789062 15.425781 -15.828125 14.625 -16.671875 C 13.832031 -17.515625 12.78125 -17.9375 11.46875 -17.9375 C 10.507812 -17.9375 9.691406 -17.691406 9.015625 -17.203125 C 8.347656 -16.710938 7.835938 -16.101562 7.484375 -15.375 C 7.140625 -14.644531 6.957031 -13.941406 6.9375 -13.265625 C 6.9375 -12.878906 7 -12.632812 7.125 -12.53125 C 7.25 -12.4375 7.546875 -12.390625 8.015625 -12.390625 Z M 8.015625 -12.390625 "/></g></g></g><g fill="#000000" fill-opacity="1"><g transform="translate(729.037228, 1434.549696)"><g><path d="M 23.140625 -11.96875 L 23.1875 -5.84375 C 23.1875 -4.863281 23.289062 -4.140625 23.5 -3.671875 C 23.707031 -3.210938 23.941406 -2.878906 24.203125 -2.671875 C 24.472656 -2.460938 24.707031 -2.257812 24.90625 -2.0625 C 25.101562 -1.863281 25.203125 -1.523438 25.203125 -1.046875 C 25.203125 -0.628906 25.039062 -0.347656 24.71875 -0.203125 C 24.394531 -0.0664062 23.953125 0 23.390625 0 L 17.34375 0 C 16.757812 0 16.289062 -0.078125 15.9375 -0.234375 C 15.582031 -0.390625 15.40625 -0.675781 15.40625 -1.09375 C 15.40625 -1.539062 15.507812 -1.863281 15.71875 -2.0625 C 15.9375 -2.257812 16.1875 -2.460938 16.46875 -2.671875 C 16.75 -2.878906 16.992188 -3.210938 17.203125 -3.671875 C 17.410156 -4.140625 17.515625 -4.863281 17.515625 -5.84375 L 17.515625 -11.34375 C 17.515625 -12.9375 17.21875 -14.289062 16.625 -15.40625 C 16.039062 -16.53125 15.007812 -17.078125 13.53125 -17.046875 C 12.457031 -17.046875 11.5 -16.632812 10.65625 -15.8125 C 9.820312 -14.988281 9.335938 -13.765625 9.203125 -12.140625 L 9.203125 -5.84375 C 9.203125 -4.863281 9.304688 -4.140625 9.515625 -3.671875 C 9.722656 -3.210938 9.957031 -2.878906 10.21875 -2.671875 C 10.488281 -2.460938 10.722656 -2.257812 10.921875 -2.0625 C 11.117188 -1.863281 11.21875 -1.523438 11.21875 -1.046875 C 11.21875 -0.628906 11.054688 -0.347656 10.734375 -0.203125 C 10.410156 -0.0664062 9.96875 0 9.40625 0 L 3.359375 0 C 2.773438 0 2.3125 -0.078125 1.96875 -0.234375 C 1.632812 -0.390625 1.46875 -0.675781 1.46875 -1.09375 C 1.46875 -1.539062 1.570312 -1.863281 1.78125 -2.0625 C 1.988281 -2.257812 2.222656 -2.460938 2.484375 -2.671875 C 2.753906 -2.878906 2.992188 -3.210938 3.203125 -3.671875 C 3.421875 -4.140625 3.53125 -4.863281 3.53125 -5.84375 L 3.53125 -13.8125 C 3.53125 -14.40625 3.414062 -14.90625 3.1875 -15.3125 C 2.96875 -15.71875 2.644531 -16.070312 2.21875 -16.375 C 2.03125 -16.519531 1.859375 -16.679688 1.703125 -16.859375 C 1.546875 -17.046875 1.46875 -17.28125 1.46875 -17.5625 C 1.46875 -17.894531 1.554688 -18.15625 1.734375 -18.34375 C 1.921875 -18.539062 2.265625 -18.753906 2.765625 -18.984375 C 3.296875 -19.234375 3.898438 -19.476562 4.578125 -19.71875 C 5.253906 -19.957031 5.878906 -20.148438 6.453125 -20.296875 C 7.023438 -20.453125 7.421875 -20.53125 7.640625 -20.53125 C 8.285156 -20.53125 8.609375 -20.113281 8.609375 -19.28125 L 8.609375 -16.921875 C 9.472656 -18.179688 10.53125 -19.101562 11.78125 -19.6875 C 13.03125 -20.28125 14.296875 -20.578125 15.578125 -20.578125 C 18.128906 -20.578125 20.023438 -19.8125 21.265625 -18.28125 C 22.515625 -16.757812 23.140625 -14.65625 23.140625 -11.96875 Z M 23.140625 -11.96875 "/></g></g><g transform="translate(755.287225, 1434.549696)"><g><path d="M 36.921875 -11.96875 L 36.953125 -5.84375 C 36.953125 -4.863281 37.054688 -4.140625 37.265625 -3.671875 C 37.484375 -3.210938 37.722656 -2.878906 37.984375 -2.671875 C 38.253906 -2.460938 38.484375 -2.257812 38.671875 -2.0625 C 38.867188 -1.863281 38.96875 -1.523438 38.96875 -1.046875 C 38.96875 -0.628906 38.804688 -0.347656 38.484375 -0.203125 C 38.171875 -0.0664062 37.734375 0 37.171875 0 L 31.125 0 C 30.53125 0 30.066406 -0.078125 29.734375 -0.234375 C 29.398438 -0.390625 29.234375 -0.675781 29.234375 -1.09375 C 29.234375 -1.539062 29.335938 -1.863281 29.546875 -2.0625 C 29.753906 -2.257812 29.988281 -2.460938 30.25 -2.671875 C 30.519531 -2.878906 30.757812 -3.210938 30.96875 -3.671875 C 31.1875 -4.140625 31.296875 -4.863281 31.296875 -5.84375 L 31.296875 -11.34375 C 31.296875 -12.9375 31 -14.289062 30.40625 -15.40625 C 29.820312 -16.53125 28.785156 -17.078125 27.296875 -17.046875 C 26.117188 -17.046875 25.101562 -16.546875 24.25 -15.546875 C 23.394531 -14.554688 22.96875 -13.113281 22.96875 -11.21875 L 22.96875 -5.84375 C 22.96875 -4.863281 23.070312 -4.140625 23.28125 -3.671875 C 23.5 -3.210938 23.738281 -2.878906 24 -2.671875 C 24.269531 -2.460938 24.507812 -2.257812 24.71875 -2.0625 C 24.925781 -1.863281 25.03125 -1.523438 25.03125 -1.046875 C 25.03125 -0.628906 24.863281 -0.347656 24.53125 -0.203125 C 24.195312 -0.0664062 23.75 0 23.1875 0 L 17.171875 0 C 16.554688 0 16.082031 -0.078125 15.75 -0.234375 C 15.414062 -0.390625 15.25 -0.675781 15.25 -1.09375 C 15.25 -1.539062 15.351562 -1.863281 15.5625 -2.0625 C 15.769531 -2.257812 16.003906 -2.460938 16.265625 -2.671875 C 16.535156 -2.878906 16.773438 -3.210938 16.984375 -3.671875 C 17.191406 -4.140625 17.296875 -4.863281 17.296875 -5.84375 L 17.296875 -11.34375 C 17.296875 -12.375 17.210938 -13.320312 17.046875 -14.1875 C 16.878906 -15.0625 16.535156 -15.765625 16.015625 -16.296875 C 15.503906 -16.828125 14.742188 -17.078125 13.734375 -17.046875 C 12.609375 -17.023438 11.578125 -16.507812 10.640625 -15.5 C 9.703125 -14.488281 9.234375 -13.0625 9.234375 -11.21875 L 9.234375 -5.84375 C 9.234375 -4.863281 9.335938 -4.140625 9.546875 -3.671875 C 9.765625 -3.210938 10.003906 -2.878906 10.265625 -2.671875 C 10.535156 -2.460938 10.765625 -2.257812 10.953125 -2.0625 C 11.148438 -1.863281 11.25 -1.523438 11.25 -1.046875 C 11.25 -0.628906 11.085938 -0.347656 10.765625 -0.203125 C 10.453125 -0.0664062 10 0 9.40625 0 L 3.40625 0 C 2.8125 0 2.335938 -0.078125 1.984375 -0.234375 C 1.640625 -0.390625 1.46875 -0.675781 1.46875 -1.09375 C 1.46875 -1.539062 1.570312 -1.863281 1.78125 -2.0625 C 1.988281 -2.257812 2.234375 -2.460938 2.515625 -2.671875 C 2.796875 -2.878906 3.039062 -3.210938 3.25 -3.671875 C 3.457031 -4.140625 3.5625 -4.863281 3.5625 -5.84375 L 3.5625 -13.8125 C 3.5625 -14.40625 3.445312 -14.90625 3.21875 -15.3125 C 3 -15.71875 2.679688 -16.070312 2.265625 -16.375 C 2.066406 -16.519531 1.882812 -16.679688 1.71875 -16.859375 C 1.550781 -17.046875 1.46875 -17.28125 1.46875 -17.5625 C 1.46875 -17.894531 1.566406 -18.15625 1.765625 -18.34375 C 1.960938 -18.539062 2.3125 -18.753906 2.8125 -18.984375 C 3.34375 -19.234375 3.9375 -19.476562 4.59375 -19.71875 C 5.257812 -19.957031 5.878906 -20.148438 6.453125 -20.296875 C 7.023438 -20.453125 7.421875 -20.53125 7.640625 -20.53125 C 8.316406 -20.53125 8.65625 -20.113281 8.65625 -19.28125 L 8.65625 -16.546875 C 9.46875 -17.890625 10.488281 -18.894531 11.71875 -19.5625 C 12.945312 -20.238281 14.25 -20.578125 15.625 -20.578125 C 17.300781 -20.578125 18.675781 -20.234375 19.75 -19.546875 C 20.832031 -18.859375 21.640625 -17.882812 22.171875 -16.625 C 23.066406 -18 24.160156 -19 25.453125 -19.625 C 26.742188 -20.257812 28.046875 -20.578125 29.359375 -20.578125 C 31.910156 -20.578125 33.804688 -19.8125 35.046875 -18.28125 C 36.296875 -16.757812 36.921875 -14.65625 36.921875 -11.96875 Z M 36.921875 -11.96875 "/></g></g></g><g fill="#000000" fill-opacity="1"><g transform="translate(794.851221, 1434.549696)"><g><path d="M 11.25 0.421875 C 9.40625 0.421875 7.734375 0.03125 6.234375 -0.75 C 4.734375 -1.539062 3.550781 -2.660156 2.6875 -4.109375 C 1.820312 -5.566406 1.390625 -7.289062 1.390625 -9.28125 C 1.390625 -11.382812 1.890625 -13.289062 2.890625 -15 C 3.898438 -16.707031 5.28125 -18.0625 7.03125 -19.0625 C 8.78125 -20.070312 10.765625 -20.578125 12.984375 -20.578125 C 14.910156 -20.578125 16.609375 -20.140625 18.078125 -19.265625 C 19.546875 -18.398438 20.691406 -17.226562 21.515625 -15.75 C 22.347656 -14.269531 22.765625 -12.585938 22.765625 -10.703125 C 22.765625 -8.609375 22.265625 -6.71875 21.265625 -5.03125 C 20.273438 -3.351562 18.914062 -2.023438 17.1875 -1.046875 C 15.46875 -0.0664062 13.488281 0.421875 11.25 0.421875 Z M 13.0625 -2.359375 C 14.488281 -2.359375 15.53125 -2.894531 16.1875 -3.96875 C 16.84375 -5.050781 17.171875 -6.316406 17.171875 -7.765625 C 17.171875 -9.003906 17.023438 -10.207031 16.734375 -11.375 C 16.441406 -12.550781 16.019531 -13.628906 15.46875 -14.609375 C 14.925781 -15.597656 14.285156 -16.378906 13.546875 -16.953125 C 12.804688 -17.523438 11.988281 -17.8125 11.09375 -17.8125 C 10.082031 -17.8125 9.269531 -17.53125 8.65625 -16.96875 C 8.039062 -16.40625 7.597656 -15.679688 7.328125 -14.796875 C 7.066406 -13.921875 6.9375 -12.976562 6.9375 -11.96875 C 6.9375 -10.34375 7.191406 -8.796875 7.703125 -7.328125 C 8.222656 -5.859375 8.941406 -4.660156 9.859375 -3.734375 C 10.785156 -2.816406 11.851562 -2.359375 13.0625 -2.359375 Z M 13.0625 -2.359375 "/></g></g></g></svg>