<svg xmlns="http://www.w3.org/2000/svg" xmlns:xlink="http://www.w3.org/1999/xlink" width="2000" zoomAndPan="magnify" viewBox="0 0 1500 1499.999933" height="2000" preserveAspectRatio="xMidYMid meet" version="1.0"><defs><g/><clipPath id="cb0a617aeb"><path d="M 0.300781 0.300781 L 1351.699219 0.300781 L 1351.699219 1351.699219 L 0.300781 1351.699219 Z M 0.300781 0.300781 " clip-rule="nonzero"/></clipPath><clipPath id="5c5f880912"><rect x="0" width="1352" y="0" height="1352"/></clipPath></defs><g transform="matrix(1, 0, 0, 1, 74, 74)"><g clip-path="url(#5c5f880912)"><g clip-path="url(#cb0a617aeb)"><path fill="#ffffff" d="M 0.300781 0.300781 L 1351.699219 0.300781 L 1351.699219 1351.699219 L 0.300781 1351.699219 Z M 0.300781 0.300781 " fill-opacity="1" fill-rule="nonzero"/></g><path stroke-linecap="butt" transform="matrix(40.95141, 0, 0, 40.95141, 0.301699, 0.301653)" fill-opacity="1" fill="#ffffff" fill-rule="nonzero" stroke-linejoin="miter" d="M 1.999966 2.499988 L 8.999973 2.499988 M 12.000003 2.499988 L 13.000045 2.499988 M 15.000033 2.499988 L 15.99998 2.499988 M 17.999968 2.499988 L 19.00001 2.499988 M 20.999999 2.499988 L 22.00004 2.499988 M 24.000029 2.499988 L 31.000036 2.499988 M 1.999966 3.50003 L 3.000008 3.50003 M 8.000026 3.50003 L 8.999973 3.50003 M 10.000015 3.50003 L 10.999961 3.50003 M 12.000003 3.50003 L 13.000045 3.50003 M 13.999992 3.50003 L 15.000033 3.50003 M 15.99998 3.50003 L 19.00001 3.50003 M 20.999999 3.50003 L 22.00004 3.50003 M 24.000029 3.50003 L 24.999975 3.50003 M 29.999994 3.50003 L 31.000036 3.50003 M 1.999966 4.499976 L 3.000008 4.499976 M 3.999954 4.499976 L 6.999985 4.499976 M 8.000026 4.499976 L 8.999973 4.499976 M 13.000045 4.499976 L 17.000022 4.499976 M 17.999968 4.499976 L 19.00001 4.499976 M 19.999957 4.499976 L 20.999999 4.499976 M 22.00004 4.499976 L 22.999987 4.499976 M 24.000029 4.499976 L 24.999975 4.499976 M 26.000017 4.499976 L 29.000047 4.499976 M 29.999994 4.499976 L 31.000036 4.499976 M 1.999966 5.500018 L 3.000008 5.500018 M 3.999954 5.500018 L 6.999985 5.500018 M 8.000026 5.500018 L 8.999973 5.500018 M 10.999961 5.500018 L 13.999992 5.500018 M 15.000033 5.500018 L 17.999968 5.500018 M 19.999957 5.500018 L 22.999987 5.500018 M 24.000029 5.500018 L 24.999975 5.500018 M 26.000017 5.500018 L 29.000047 5.500018 M 29.999994 5.500018 L 31.000036 5.500018 M 1.999966 6.499965 L 3.000008 6.499965 M 3.999954 6.499965 L 6.999985 6.499965 M 8.000026 6.499965 L 8.999973 6.499965 M 10.000015 6.499965 L 12.000003 6.499965 M 13.000045 6.499965 L 13.999992 6.499965 M 15.99998 6.499965 L 17.000022 6.499965 M 19.00001 6.499965 L 22.00004 6.499965 M 24.000029 6.499965 L 24.999975 6.499965 M 26.000017 6.499965 L 29.000047 6.499965 M 29.999994 6.499965 L 31.000036 6.499965 M 1.999966 7.500007 L 3.000008 7.500007 M 8.000026 7.500007 L 8.999973 7.500007 M 10.999961 7.500007 L 13.999992 7.500007 M 15.000033 7.500007 L 15.99998 7.500007 M 19.999957 7.500007 L 22.999987 7.500007 M 24.000029 7.500007 L 24.999975 7.500007 M 29.999994 7.500007 L 31.000036 7.500007 M 1.999966 8.499953 L 8.999973 8.499953 M 10.000015 8.499953 L 10.999961 8.499953 M 12.000003 8.499953 L 13.000045 8.499953 M 13.999992 8.499953 L 15.000033 8.499953 M 15.99998 8.499953 L 17.000022 8.499953 M 17.999968 8.499953 L 19.00001 8.499953 M 19.999957 8.499953 L 20.999999 8.499953 M 22.00004 8.499953 L 22.999987 8.499953 M 24.000029 8.499953 L 31.000036 8.499953 M 10.999961 9.499995 L 12.000003 9.499995 M 15.000033 9.499995 L 17.000022 9.499995 M 17.999968 9.499995 L 20.999999 9.499995 M 1.999966 10.500037 L 3.000008 10.500037 M 3.999954 10.500037 L 4.999996 10.500037 M 6.000038 10.500037 L 6.999985 10.500037 M 8.000026 10.500037 L 8.999973 10.500037 M 10.999961 10.500037 L 13.000045 10.500037 M 13.999992 10.500037 L 15.000033 10.500037 M 15.99998 10.500037 L 17.999968 10.500037 M 19.00001 10.500037 L 19.999957 10.500037 M 26.000017 10.500037 L 26.999964 10.500037 M 29.000047 10.500037 L 29.999994 10.500037 M 1.999966 11.499983 L 3.000008 11.499983 M 4.999996 11.499983 L 6.000038 11.499983 M 8.999973 11.499983 L 10.000015 11.499983 M 10.999961 11.499983 L 13.000045 11.499983 M 13.999992 11.499983 L 15.000033 11.499983 M 15.99998 11.499983 L 17.999968 11.499983 M 22.00004 11.499983 L 22.999987 11.499983 M 24.000029 11.499983 L 24.999975 11.499983 M 26.999964 11.499983 L 28.000005 11.499983 M 29.999994 11.499983 L 31.000036 11.499983 M 1.999966 12.500025 L 4.999996 12.500025 M 6.000038 12.500025 L 10.000015 12.500025 M 12.000003 12.500025 L 15.99998 12.500025 M 19.00001 12.500025 L 20.999999 12.500025 M 24.000029 12.500025 L 26.000017 12.500025 M 28.000005 12.500025 L 31.000036 12.500025 M 3.000008 13.499972 L 8.000026 13.499972 M 13.999992 13.499972 L 15.000033 13.499972 M 17.000022 13.499972 L 17.999968 13.499972 M 19.00001 13.499972 L 19.999957 13.499972 M 24.000029 13.499972 L 26.999964 13.499972 M 29.000047 13.499972 L 29.999994 13.499972 M 8.000026 14.500014 L 10.999961 14.500014 M 13.000045 14.500014 L 13.999992 14.500014 M 17.999968 14.500014 L 19.999957 14.500014 M 22.999987 14.500014 L 24.999975 14.500014 M 26.999964 14.500014 L 28.000005 14.500014 M 29.000047 14.500014 L 31.000036 14.500014 M 1.999966 15.49996 L 3.000008 15.49996 M 3.999954 15.49996 L 4.999996 15.49996 M 6.000038 15.49996 L 8.000026 15.49996 M 10.000015 15.49996 L 13.999992 15.49996 M 15.000033 15.49996 L 15.99998 15.49996 M 17.000022 15.49996 L 19.999957 15.49996 M 22.00004 15.49996 L 22.999987 15.49996 M 24.000029 15.49996 L 24.999975 15.49996 M 26.999964 15.49996 L 28.000005 15.49996 M 29.999994 15.49996 L 31.000036 15.49996 M 4.999996 16.500002 L 8.999973 16.500002 M 10.000015 16.500002 L 10.999961 16.500002 M 12.000003 16.500002 L 13.000045 16.500002 M 15.99998 16.500002 L 19.00001 16.500002 M 22.999987 16.500002 L 26.000017 16.500002 M 26.999964 16.500002 L 28.000005 16.500002 M 29.000047 16.500002 L 31.000036 16.500002 M 1.999966 17.500044 L 3.000008 17.500044 M 3.999954 17.500044 L 6.000038 17.500044 M 6.999985 17.500044 L 8.000026 17.500044 M 12.000003 17.500044 L 13.999992 17.500044 M 15.000033 17.500044 L 17.000022 17.500044 M 17.999968 17.500044 L 22.00004 17.500044 M 22.999987 17.500044 L 24.000029 17.500044 M 24.999975 17.500044 L 26.000017 17.500044 M 26.999964 17.500044 L 28.000005 17.500044 M 29.000047 17.500044 L 29.999994 17.500044 M 1.999966 18.49999 L 3.999954 18.49999 M 6.999985 18.49999 L 10.999961 18.49999 M 12.000003 18.49999 L 13.000045 18.49999 M 13.999992 18.49999 L 15.000033 18.49999 M 15.99998 18.49999 L 19.999957 18.49999 M 22.00004 18.49999 L 24.999975 18.49999 M 26.999964 18.49999 L 28.000005 18.49999 M 29.000047 18.49999 L 31.000036 18.49999 M 4.999996 19.500032 L 6.000038 19.500032 M 10.000015 19.500032 L 12.000003 19.500032 M 13.999992 19.500032 L 15.000033 19.500032 M 15.99998 19.500032 L 17.999968 19.500032 M 19.00001 19.500032 L 19.999957 19.500032 M 22.00004 19.500032 L 24.999975 19.500032 M 26.999964 19.500032 L 29.000047 19.500032 M 29.999994 19.500032 L 31.000036 19.500032 M 1.999966 20.499979 L 3.000008 20.499979 M 4.999996 20.499979 L 6.000038 20.499979 M 8.000026 20.499979 L 12.000003 20.499979 M 13.000045 20.499979 L 15.99998 20.499979 M 19.00001 20.499979 L 20.999999 20.499979 M 22.00004 20.499979 L 22.999987 20.499979 M 24.000029 20.499979 L 26.999964 20.499979 M 29.000047 20.499979 L 31.000036 20.499979 M 3.000008 21.500021 L 4.999996 21.500021 M 6.000038 21.500021 L 8.000026 21.500021 M 10.999961 21.500021 L 12.000003 21.500021 M 13.000045 21.500021 L 15.000033 21.500021 M 17.999968 21.500021 L 22.00004 21.500021 M 24.999975 21.500021 L 26.000017 21.500021 M 26.999964 21.500021 L 28.000005 21.500021 M 29.000047 21.500021 L 29.999994 21.500021 M 1.999966 22.499967 L 3.000008 22.499967 M 4.999996 22.499967 L 8.999973 22.499967 M 10.000015 22.499967 L 10.999961 22.499967 M 13.999992 22.499967 L 15.000033 22.499967 M 17.999968 22.499967 L 19.999957 22.499967 M 22.00004 22.499967 L 26.999964 22.499967 M 10.000015 23.500009 L 10.999961 23.500009 M 12.000003 23.500009 L 13.000045 23.500009 M 13.999992 23.500009 L 15.99998 23.500009 M 17.999968 23.500009 L 20.999999 23.500009 M 22.00004 23.500009 L 22.999987 23.500009 M 26.000017 23.500009 L 26.999964 23.500009 M 28.000005 23.500009 L 31.000036 23.500009 M 1.999966 24.499955 L 8.999973 24.499955 M 15.99998 24.499955 L 17.000022 24.499955 M 17.999968 24.499955 L 19.00001 24.499955 M 20.999999 24.499955 L 22.999987 24.499955 M 24.000029 24.499955 L 24.999975 24.499955 M 26.000017 24.499955 L 28.000005 24.499955 M 29.000047 24.499955 L 31.000036 24.499955 M 1.999966 25.499997 L 3.000008 25.499997 M 8.000026 25.499997 L 8.999973 25.499997 M 13.999992 25.499997 L 17.000022 25.499997 M 19.00001 25.499997 L 19.999957 25.499997 M 22.00004 25.499997 L 22.999987 25.499997 M 26.000017 25.499997 L 28.000005 25.499997 M 29.000047 25.499997 L 29.999994 25.499997 M 1.999966 26.500039 L 3.000008 26.500039 M 3.999954 26.500039 L 6.999985 26.500039 M 8.000026 26.500039 L 8.999973 26.500039 M 10.000015 26.500039 L 15.000033 26.500039 M 15.99998 26.500039 L 17.000022 26.500039 M 19.00001 26.500039 L 20.999999 26.500039 M 22.00004 26.500039 L 26.999964 26.500039 M 29.999994 26.500039 L 31.000036 26.500039 M 1.999966 27.499986 L 3.000008 27.499986 M 3.999954 27.499986 L 6.999985 27.499986 M 8.000026 27.499986 L 8.999973 27.499986 M 10.999961 27.499986 L 12.000003 27.499986 M 15.000033 27.499986 L 17.000022 27.499986 M 17.999968 27.499986 L 19.00001 27.499986 M 24.999975 27.499986 L 26.999964 27.499986 M 28.000005 27.499986 L 31.000036 27.499986 M 1.999966 28.500028 L 3.000008 28.500028 M 3.999954 28.500028 L 6.999985 28.500028 M 8.000026 28.500028 L 8.999973 28.500028 M 10.000015 28.500028 L 12.000003 28.500028 M 13.999992 28.500028 L 15.99998 28.500028 M 19.00001 28.500028 L 19.999957 28.500028 M 20.999999 28.500028 L 22.999987 28.500028 M 24.999975 28.500028 L 28.000005 28.500028 M 29.999994 28.500028 L 31.000036 28.500028 M 1.999966 29.499974 L 3.000008 29.499974 M 8.000026 29.499974 L 8.999973 29.499974 M 13.000045 29.499974 L 13.999992 29.499974 M 17.999968 29.499974 L 19.999957 29.499974 M 20.999999 29.499974 L 22.999987 29.499974 M 24.999975 29.499974 L 26.999964 29.499974 M 29.000047 29.499974 L 29.999994 29.499974 M 1.999966 30.500016 L 8.999973 30.500016 M 10.000015 30.500016 L 12.000003 30.500016 M 13.999992 30.500016 L 19.999957 30.500016 M 20.999999 30.500016 L 24.000029 30.500016 M 26.000017 30.500016 L 26.999964 30.500016 M 29.000047 30.500016 L 31.000036 30.500016 " stroke="#000000" stroke-width="1" stroke-opacity="1" stroke-miterlimit="4"/></g></g><g fill="#000000" fill-opacity="1"><g transform="translate(670.38864, 1408.148307)"><g><path d="M 38.765625 -29.40625 L 42.546875 -29.40625 C 43.191406 -29.40625 43.71875 -29.332031 44.125 -29.1875 C 44.53125 -29.050781 44.734375 -28.757812 44.734375 -28.3125 C 44.734375 -27.914062 44.601562 -27.613281 44.34375 -27.40625 C 44.09375 -27.195312 43.78125 -26.984375 43.40625 -26.765625 C 43.03125 -26.554688 42.648438 -26.25 42.265625 -25.84375 C 41.890625 -25.4375 41.5625 -24.832031 41.28125 -24.03125 L 33.515625 -1.296875 C 33.398438 -1.015625 33.195312 -0.75 32.90625 -0.5 C 32.613281 -0.25 32.046875 -0.0546875 31.203125 0.078125 C 30.273438 0.253906 29.609375 0.285156 29.203125 0.171875 C 28.804688 0.0546875 28.535156 -0.195312 28.390625 -0.59375 L 22.390625 -18.234375 L 16.671875 -1.265625 C 16.585938 -0.984375 16.390625 -0.722656 16.078125 -0.484375 C 15.773438 -0.242188 15.203125 -0.0546875 14.359375 0.078125 C 13.492188 0.222656 12.863281 0.242188 12.46875 0.140625 C 12.082031 0.046875 11.816406 -0.195312 11.671875 -0.59375 L 3.484375 -23.9375 C 3.203125 -24.75 2.882812 -25.363281 2.53125 -25.78125 C 2.1875 -26.207031 1.851562 -26.53125 1.53125 -26.75 C 1.207031 -26.976562 0.941406 -27.195312 0.734375 -27.40625 C 0.523438 -27.613281 0.421875 -27.898438 0.421875 -28.265625 C 0.421875 -28.742188 0.585938 -29.050781 0.921875 -29.1875 C 1.253906 -29.332031 1.742188 -29.40625 2.390625 -29.40625 L 9.109375 -29.40625 C 9.703125 -29.40625 10.171875 -29.328125 10.515625 -29.171875 C 10.867188 -29.015625 11.046875 -28.726562 11.046875 -28.3125 C 11.046875 -27.914062 10.941406 -27.601562 10.734375 -27.375 C 10.523438 -27.15625 10.289062 -26.925781 10.03125 -26.6875 C 9.78125 -26.445312 9.613281 -26.125 9.53125 -25.71875 C 9.445312 -25.3125 9.53125 -24.71875 9.78125 -23.9375 L 15.546875 -6.59375 L 21 -22.296875 L 20.5 -23.9375 C 20.25 -24.75 19.945312 -25.363281 19.59375 -25.78125 C 19.238281 -26.207031 18.90625 -26.53125 18.59375 -26.75 C 18.289062 -26.976562 18.035156 -27.195312 17.828125 -27.40625 C 17.617188 -27.613281 17.515625 -27.898438 17.515625 -28.265625 C 17.515625 -28.742188 17.679688 -29.050781 18.015625 -29.1875 C 18.347656 -29.332031 18.835938 -29.40625 19.484375 -29.40625 L 26.203125 -29.40625 C 26.796875 -29.40625 27.265625 -29.328125 27.609375 -29.171875 C 27.960938 -29.015625 28.140625 -28.726562 28.140625 -28.3125 C 28.140625 -27.914062 28.035156 -27.601562 27.828125 -27.375 C 27.617188 -27.15625 27.382812 -26.925781 27.125 -26.6875 C 26.875 -26.445312 26.695312 -26.125 26.59375 -25.71875 C 26.5 -25.3125 26.582031 -24.71875 26.84375 -23.9375 L 32.296875 -6.765625 L 38.046875 -24.03125 C 38.328125 -24.863281 38.429688 -25.488281 38.359375 -25.90625 C 38.296875 -26.332031 38.144531 -26.648438 37.90625 -26.859375 C 37.664062 -27.066406 37.429688 -27.269531 37.203125 -27.46875 C 36.984375 -27.664062 36.875 -27.945312 36.875 -28.3125 C 36.875 -28.757812 37.054688 -29.050781 37.421875 -29.1875 C 37.785156 -29.332031 38.234375 -29.40625 38.765625 -29.40625 Z M 38.765625 -29.40625 "/></g></g></g><g fill="#000000" fill-opacity="1"><g transform="translate(710.834632, 1408.148307)"><g><path d="M 21.125 -11.171875 C 21.070312 -10.441406 20.679688 -10.078125 19.953125 -10.078125 L 6.96875 -9.90625 C 7.195312 -8.03125 7.929688 -6.519531 9.171875 -5.375 C 10.421875 -4.226562 11.96875 -3.65625 13.8125 -3.65625 C 15.101562 -3.65625 16.195312 -3.890625 17.09375 -4.359375 C 17.988281 -4.835938 18.800781 -5.398438 19.53125 -6.046875 C 19.976562 -6.441406 20.367188 -6.519531 20.703125 -6.28125 C 21.035156 -6.039062 21.09375 -5.613281 20.875 -5 C 20.59375 -4.21875 20.066406 -3.40625 19.296875 -2.5625 C 18.523438 -1.71875 17.492188 -1.007812 16.203125 -0.4375 C 14.921875 0.132812 13.367188 0.421875 11.546875 0.421875 C 9.503906 0.421875 7.71875 -0.0078125 6.1875 -0.875 C 4.664062 -1.75 3.484375 -2.945312 2.640625 -4.46875 C 1.804688 -6 1.390625 -7.757812 1.390625 -9.75 C 1.390625 -11.820312 1.882812 -13.675781 2.875 -15.3125 C 3.875 -16.945312 5.195312 -18.234375 6.84375 -19.171875 C 8.5 -20.109375 10.304688 -20.578125 12.265625 -20.578125 C 14.109375 -20.578125 15.71875 -20.191406 17.09375 -19.421875 C 18.46875 -18.648438 19.519531 -17.554688 20.25 -16.140625 C 20.976562 -14.734375 21.269531 -13.078125 21.125 -11.171875 Z M 8.015625 -12.390625 L 14.953125 -12.4375 C 15.398438 -12.4375 15.671875 -12.5 15.765625 -12.625 C 15.867188 -12.75 15.921875 -13.0625 15.921875 -13.5625 C 15.859375 -14.789062 15.425781 -15.828125 14.625 -16.671875 C 13.832031 -17.515625 12.78125 -17.9375 11.46875 -17.9375 C 10.507812 -17.9375 9.691406 -17.691406 9.015625 -17.203125 C 8.347656 -16.710938 7.835938 -16.101562 7.484375 -15.375 C 7.140625 -14.644531 6.957031 -13.941406 6.9375 -13.265625 C 6.9375 -12.878906 7 -12.632812 7.125 -12.53125 C 7.25 -12.4375 7.546875 -12.390625 8.015625 -12.390625 Z M 8.015625 -12.390625 "/></g></g></g><g fill="#000000" fill-opacity="1"><g transform="translate(733.094624, 1408.148307)"><g><path d="M 14.953125 -20.578125 C 16.578125 -20.609375 18.046875 -20.226562 19.359375 -19.4375 C 20.679688 -18.65625 21.738281 -17.554688 22.53125 -16.140625 C 23.332031 -14.734375 23.734375 -13.050781 23.734375 -11.09375 C 23.734375 -9.1875 23.4375 -7.507812 22.84375 -6.0625 C 22.257812 -4.625 21.484375 -3.421875 20.515625 -2.453125 C 19.546875 -1.492188 18.492188 -0.773438 17.359375 -0.296875 C 16.234375 0.179688 15.125 0.421875 14.03125 0.421875 C 12.6875 0.421875 11.628906 0.273438 10.859375 -0.015625 C 10.085938 -0.316406 9.460938 -0.613281 8.984375 -0.90625 C 8.515625 -1.195312 8.023438 -1.328125 7.515625 -1.296875 C 7.066406 -1.296875 6.625 -1.175781 6.1875 -0.9375 C 5.757812 -0.707031 5.34375 -0.472656 4.9375 -0.234375 C 4.53125 0.00390625 4.117188 0.125 3.703125 0.125 C 2.859375 0.125 2.503906 -0.320312 2.640625 -1.21875 C 2.753906 -1.800781 2.835938 -2.441406 2.890625 -3.140625 C 2.953125 -3.847656 2.984375 -4.609375 2.984375 -5.421875 L 2.9375 -22.8125 C 2.9375 -23.53125 2.835938 -24.078125 2.640625 -24.453125 C 2.453125 -24.835938 2.222656 -25.132812 1.953125 -25.34375 C 1.679688 -25.550781 1.445312 -25.742188 1.25 -25.921875 C 1.0625 -26.109375 0.96875 -26.359375 0.96875 -26.671875 C 0.96875 -26.953125 1.054688 -27.179688 1.234375 -27.359375 C 1.421875 -27.546875 1.765625 -27.75 2.265625 -27.96875 C 2.859375 -28.25 3.535156 -28.53125 4.296875 -28.8125 C 5.066406 -29.09375 5.773438 -29.328125 6.421875 -29.515625 C 7.066406 -29.710938 7.503906 -29.8125 7.734375 -29.8125 C 8.367188 -29.8125 8.6875 -29.394531 8.6875 -28.5625 L 8.65625 -22.8125 L 8.65625 -17.515625 C 9.320312 -18.410156 10.179688 -19.132812 11.234375 -19.6875 C 12.285156 -20.25 13.523438 -20.546875 14.953125 -20.578125 Z M 13.9375 -2.1875 C 14.914062 -2.1875 15.726562 -2.476562 16.375 -3.0625 C 17.019531 -3.65625 17.503906 -4.429688 17.828125 -5.390625 C 18.148438 -6.359375 18.3125 -7.40625 18.3125 -8.53125 C 18.3125 -10.238281 18.070312 -11.742188 17.59375 -13.046875 C 17.125 -14.347656 16.488281 -15.375 15.6875 -16.125 C 14.882812 -16.882812 13.96875 -17.265625 12.9375 -17.265625 C 12.007812 -17.265625 11.21875 -16.988281 10.5625 -16.4375 C 9.90625 -15.894531 9.40625 -15.21875 9.0625 -14.40625 C 8.726562 -13.59375 8.5625 -12.753906 8.5625 -11.890625 L 8.609375 -8.8125 C 8.609375 -7.5625 8.84375 -6.4375 9.3125 -5.4375 C 9.789062 -4.445312 10.4375 -3.65625 11.25 -3.0625 C 12.0625 -2.476562 12.957031 -2.1875 13.9375 -2.1875 Z M 13.9375 -2.1875 "/></g></g></g><g fill="#000000" fill-opacity="1"><g transform="translate(758.252616, 1408.148307)"><g><path d="M 11.09375 0.421875 C 9.125 0.421875 7.445312 0.148438 6.0625 -0.390625 C 4.675781 -0.941406 3.613281 -1.644531 2.875 -2.5 C 2.132812 -3.351562 1.765625 -4.253906 1.765625 -5.203125 C 1.765625 -5.992188 1.992188 -6.597656 2.453125 -7.015625 C 2.921875 -7.429688 3.472656 -7.640625 4.109375 -7.640625 C 4.835938 -7.640625 5.378906 -7.429688 5.734375 -7.015625 C 6.085938 -6.597656 6.414062 -6.148438 6.71875 -5.671875 C 7.113281 -5.109375 7.503906 -4.546875 7.890625 -3.984375 C 8.285156 -3.429688 8.753906 -2.960938 9.296875 -2.578125 C 9.847656 -2.203125 10.53125 -2.015625 11.34375 -2.015625 C 12.15625 -2.015625 12.773438 -2.222656 13.203125 -2.640625 C 13.640625 -3.066406 13.859375 -3.597656 13.859375 -4.234375 C 13.859375 -4.992188 13.5 -5.722656 12.78125 -6.421875 C 12.070312 -7.117188 10.804688 -7.820312 8.984375 -8.53125 C 7.921875 -8.945312 6.882812 -9.40625 5.875 -9.90625 C 4.875 -10.414062 4.039062 -11.046875 3.375 -11.796875 C 2.71875 -12.554688 2.390625 -13.535156 2.390625 -14.734375 C 2.390625 -16.054688 2.785156 -17.148438 3.578125 -18.015625 C 4.378906 -18.878906 5.410156 -19.519531 6.671875 -19.9375 C 7.929688 -20.363281 9.265625 -20.578125 10.671875 -20.578125 C 12.234375 -20.578125 13.640625 -20.375 14.890625 -19.96875 C 16.140625 -19.5625 17.117188 -18.992188 17.828125 -18.265625 C 18.546875 -17.535156 18.90625 -16.671875 18.90625 -15.671875 C 18.90625 -14.878906 18.6875 -14.273438 18.25 -13.859375 C 17.8125 -13.441406 17.269531 -13.234375 16.625 -13.234375 C 15.90625 -13.234375 15.332031 -13.4375 14.90625 -13.84375 C 14.488281 -14.25 14.140625 -14.6875 13.859375 -15.15625 C 13.578125 -15.664062 13.300781 -16.148438 13.03125 -16.609375 C 12.769531 -17.066406 12.425781 -17.4375 12 -17.71875 C 11.582031 -18 11.023438 -18.140625 10.328125 -18.140625 C 9.628906 -18.140625 9.054688 -17.9375 8.609375 -17.53125 C 8.160156 -17.125 7.9375 -16.597656 7.9375 -15.953125 C 7.9375 -15.117188 8.28125 -14.382812 8.96875 -13.75 C 9.65625 -13.125 10.9375 -12.421875 12.8125 -11.640625 C 14.09375 -11.109375 15.242188 -10.582031 16.265625 -10.0625 C 17.296875 -9.539062 18.109375 -8.941406 18.703125 -8.265625 C 19.304688 -7.597656 19.609375 -6.734375 19.609375 -5.671875 C 19.609375 -3.910156 18.832031 -2.453125 17.28125 -1.296875 C 15.726562 -0.148438 13.664062 0.421875 11.09375 0.421875 Z M 11.09375 0.421875 "/></g></g></g><g fill="#000000" fill-opacity="1"><g transform="translate(779.294614, 1408.148307)"><g><path d="M 5 -22.890625 C 4.21875 -22.921875 3.59375 -23.179688 3.125 -23.671875 C 2.664062 -24.160156 2.453125 -24.753906 2.484375 -25.453125 C 2.503906 -26.097656 2.734375 -26.734375 3.171875 -27.359375 C 3.609375 -27.992188 4.160156 -28.503906 4.828125 -28.890625 C 5.503906 -29.285156 6.191406 -29.46875 6.890625 -29.4375 C 7.640625 -29.414062 8.265625 -29.148438 8.765625 -28.640625 C 9.273438 -28.140625 9.53125 -27.523438 9.53125 -26.796875 C 9.5 -26.117188 9.257812 -25.476562 8.8125 -24.875 C 8.363281 -24.28125 7.796875 -23.800781 7.109375 -23.4375 C 6.429688 -23.070312 5.726562 -22.890625 5 -22.890625 Z M 3.5625 -5.84375 L 3.53125 -13.5625 C 3.53125 -14.289062 3.429688 -14.84375 3.234375 -15.21875 C 3.035156 -15.601562 2.800781 -15.898438 2.53125 -16.109375 C 2.269531 -16.316406 2.035156 -16.507812 1.828125 -16.6875 C 1.617188 -16.875 1.515625 -17.125 1.515625 -17.4375 C 1.515625 -17.738281 1.609375 -17.972656 1.796875 -18.140625 C 1.992188 -18.304688 2.347656 -18.503906 2.859375 -18.734375 C 3.441406 -19.015625 4.109375 -19.289062 4.859375 -19.5625 C 5.617188 -19.84375 6.320312 -20.082031 6.96875 -20.28125 C 7.613281 -20.476562 8.050781 -20.578125 8.28125 -20.578125 C 8.945312 -20.609375 9.28125 -20.1875 9.28125 -19.3125 L 9.234375 -13.5625 L 9.234375 -5.84375 C 9.234375 -4.863281 9.335938 -4.140625 9.546875 -3.671875 C 9.765625 -3.210938 10.003906 -2.878906 10.265625 -2.671875 C 10.535156 -2.460938 10.765625 -2.257812 10.953125 -2.0625 C 11.148438 -1.863281 11.25 -1.523438 11.25 -1.046875 C 11.25 -0.628906 11.085938 -0.347656 10.765625 -0.203125 C 10.453125 -0.0664062 10 0 9.40625 0 L 3.40625 0 C 2.8125 0 2.335938 -0.078125 1.984375 -0.234375 C 1.640625 -0.390625 1.46875 -0.675781 1.46875 -1.09375 C 1.46875 -1.539062 1.570312 -1.863281 1.78125 -2.0625 C 1.988281 -2.257812 2.234375 -2.460938 2.515625 -2.671875 C 2.796875 -2.878906 3.039062 -3.210938 3.25 -3.671875 C 3.457031 -4.140625 3.5625 -4.863281 3.5625 -5.84375 Z M 3.5625 -5.84375 "/></g></g></g><g fill="#000000" fill-opacity="1"><g transform="translate(791.936615, 1408.148307)"><g><path d="M 14.203125 -4.75 C 14.585938 -5.050781 14.921875 -5.085938 15.203125 -4.859375 C 15.484375 -4.640625 15.550781 -4.304688 15.40625 -3.859375 C 15.21875 -3.242188 14.84375 -2.597656 14.28125 -1.921875 C 13.71875 -1.253906 13.003906 -0.695312 12.140625 -0.25 C 11.273438 0.195312 10.253906 0.421875 9.078125 0.421875 C 7.203125 0.421875 5.738281 -0.148438 4.6875 -1.296875 C 3.632812 -2.453125 3.109375 -4.09375 3.109375 -6.21875 L 3.109375 -8.40625 C 3.109375 -10.28125 3.117188 -11.992188 3.140625 -13.546875 C 3.171875 -15.097656 3.203125 -16.421875 3.234375 -17.515625 L 2.09375 -17.515625 C 1.539062 -17.515625 1.15625 -17.601562 0.9375 -17.78125 C 0.726562 -17.96875 0.625 -18.242188 0.625 -18.609375 C 0.625 -18.859375 0.671875 -19.109375 0.765625 -19.359375 C 0.867188 -19.609375 1.035156 -19.832031 1.265625 -20.03125 C 2.046875 -20.84375 2.90625 -21.625 3.84375 -22.375 C 4.78125 -23.132812 5.679688 -23.78125 6.546875 -24.3125 C 7.023438 -24.59375 7.375 -24.757812 7.59375 -24.8125 C 7.820312 -24.875 7.992188 -24.90625 8.109375 -24.90625 C 8.410156 -24.90625 8.644531 -24.785156 8.8125 -24.546875 C 8.988281 -24.304688 9.0625 -24.035156 9.03125 -23.734375 C 8.976562 -23.171875 8.9375 -22.59375 8.90625 -22 C 8.875 -21.414062 8.84375 -20.800781 8.8125 -20.15625 L 12.984375 -20.15625 C 13.367188 -20.15625 13.703125 -20.070312 13.984375 -19.90625 C 14.265625 -19.738281 14.335938 -19.332031 14.203125 -18.6875 C 14.085938 -18.070312 13.859375 -17.671875 13.515625 -17.484375 C 13.179688 -17.304688 12.804688 -17.234375 12.390625 -17.265625 L 8.78125 -17.390625 C 8.78125 -16.242188 8.78125 -14.929688 8.78125 -13.453125 C 8.78125 -11.984375 8.765625 -10.300781 8.734375 -8.40625 C 8.703125 -6.53125 8.863281 -5.25 9.21875 -4.5625 C 9.570312 -3.875 10.222656 -3.53125 11.171875 -3.53125 C 11.734375 -3.53125 12.265625 -3.644531 12.765625 -3.875 C 13.273438 -4.113281 13.753906 -4.40625 14.203125 -4.75 Z M 14.203125 -4.75 "/></g></g></g><g fill="#000000" fill-opacity="1"><g transform="translate(807.350615, 1408.148307)"><g><path d="M 21.125 -11.171875 C 21.070312 -10.441406 20.679688 -10.078125 19.953125 -10.078125 L 6.96875 -9.90625 C 7.195312 -8.03125 7.929688 -6.519531 9.171875 -5.375 C 10.421875 -4.226562 11.96875 -3.65625 13.8125 -3.65625 C 15.101562 -3.65625 16.195312 -3.890625 17.09375 -4.359375 C 17.988281 -4.835938 18.800781 -5.398438 19.53125 -6.046875 C 19.976562 -6.441406 20.367188 -6.519531 20.703125 -6.28125 C 21.035156 -6.039062 21.09375 -5.613281 20.875 -5 C 20.59375 -4.21875 20.066406 -3.40625 19.296875 -2.5625 C 18.523438 -1.71875 17.492188 -1.007812 16.203125 -0.4375 C 14.921875 0.132812 13.367188 0.421875 11.546875 0.421875 C 9.503906 0.421875 7.71875 -0.0078125 6.1875 -0.875 C 4.664062 -1.75 3.484375 -2.945312 2.640625 -4.46875 C 1.804688 -6 1.390625 -7.757812 1.390625 -9.75 C 1.390625 -11.820312 1.882812 -13.675781 2.875 -15.3125 C 3.875 -16.945312 5.195312 -18.234375 6.84375 -19.171875 C 8.5 -20.109375 10.304688 -20.578125 12.265625 -20.578125 C 14.109375 -20.578125 15.71875 -20.191406 17.09375 -19.421875 C 18.46875 -18.648438 19.519531 -17.554688 20.25 -16.140625 C 20.976562 -14.734375 21.269531 -13.078125 21.125 -11.171875 Z M 8.015625 -12.390625 L 14.953125 -12.4375 C 15.398438 -12.4375 15.671875 -12.5 15.765625 -12.625 C 15.867188 -12.75 15.921875 -13.0625 15.921875 -13.5625 C 15.859375 -14.789062 15.425781 -15.828125 14.625 -16.671875 C 13.832031 -17.515625 12.78125 -17.9375 11.46875 -17.9375 C 10.507812 -17.9375 9.691406 -17.691406 9.015625 -17.203125 C 8.347656 -16.710938 7.835938 -16.101562 7.484375 -15.375 C 7.140625 -14.644531 6.957031 -13.941406 6.9375 -13.265625 C 6.9375 -12.878906 7 -12.632812 7.125 -12.53125 C 7.25 -12.4375 7.546875 -12.390625 8.015625 -12.390625 Z M 8.015625 -12.390625 "/></g></g></g></svg>