<svg xmlns="http://www.w3.org/2000/svg" xmlns:xlink="http://www.w3.org/1999/xlink" width="2000" zoomAndPan="magnify" viewBox="0 0 1500 1499.999933" height="2000" preserveAspectRatio="xMidYMid meet" version="1.0"><defs><g/><clipPath id="4b9b6285c1"><path d="M 55.605469 471.601562 L 448.605469 471.601562 L 448.605469 1028.09375 L 55.605469 1028.09375 Z M 55.605469 471.601562 " clip-rule="nonzero"/></clipPath><clipPath id="77efbe6037"><path d="M 97.601562 471.601562 L 406.488281 471.601562 C 417.628906 471.601562 428.308594 476.023438 436.1875 483.902344 C 444.0625 491.777344 448.488281 502.460938 448.488281 513.597656 L 448.488281 986.394531 C 448.488281 997.535156 444.0625 1008.21875 436.1875 1016.09375 C 428.308594 1023.96875 417.628906 1028.394531 406.488281 1028.394531 L 97.601562 1028.394531 C 86.464844 1028.394531 75.78125 1023.96875 67.90625 1016.09375 C 60.03125 1008.21875 55.605469 997.535156 55.605469 986.394531 L 55.605469 513.597656 C 55.605469 502.460938 60.03125 491.777344 67.90625 483.902344 C 75.78125 476.023438 86.464844 471.601562 97.601562 471.601562 Z M 97.601562 471.601562 " clip-rule="nonzero"/></clipPath><clipPath id="c8f6e28d83"><path d="M 196.308594 512.507812 L 307.796875 512.507812 L 307.796875 531.199219 L 196.308594 531.199219 Z M 196.308594 512.507812 " clip-rule="nonzero"/></clipPath><clipPath id="f9fb74f8e8"><path d="M 205.652344 512.507812 L 298.449219 512.507812 C 300.929688 512.507812 303.304688 513.492188 305.058594 515.246094 C 306.808594 516.996094 307.796875 519.375 307.796875 521.851562 C 307.796875 524.332031 306.808594 526.707031 305.058594 528.460938 C 303.304688 530.214844 300.929688 531.199219 298.449219 531.199219 L 205.652344 531.199219 C 203.171875 531.199219 200.796875 530.214844 199.042969 528.460938 C 197.292969 526.707031 196.308594 524.332031 196.308594 521.851562 C 196.308594 519.375 197.292969 516.996094 199.042969 515.246094 C 200.796875 513.492188 203.171875 512.507812 205.652344 512.507812 Z M 205.652344 512.507812 " clip-rule="nonzero"/></clipPath><clipPath id="926f6f991d"><path d="M 0.308594 0.507812 L 111.796875 0.507812 L 111.796875 19.199219 L 0.308594 19.199219 Z M 0.308594 0.507812 " clip-rule="nonzero"/></clipPath><clipPath id="212e006023"><path d="M 9.652344 0.507812 L 102.449219 0.507812 C 104.929688 0.507812 107.304688 1.492188 109.058594 3.246094 C 110.808594 4.996094 111.796875 7.375 111.796875 9.851562 C 111.796875 12.332031 110.808594 14.707031 109.058594 16.460938 C 107.304688 18.214844 104.929688 19.199219 102.449219 19.199219 L 9.652344 19.199219 C 7.171875 19.199219 4.796875 18.214844 3.042969 16.460938 C 1.292969 14.707031 0.308594 12.332031 0.308594 9.851562 C 0.308594 7.375 1.292969 4.996094 3.042969 3.246094 C 4.796875 1.492188 7.171875 0.507812 9.652344 0.507812 Z M 9.652344 0.507812 " clip-rule="nonzero"/></clipPath><clipPath id="b427762ad3"><rect x="0" width="112" y="0" height="20"/></clipPath></defs><rect x="-150" width="1800" fill="#ffffff" y="-149.999993" height="1799.99992" fill-opacity="1"/><rect x="-150" width="1800" fill="#3d2315" y="-149.999993" height="1799.99992" fill-opacity="1"/><g fill="#f4c3e5" fill-opacity="1"><g transform="translate(480.753664, 581.977874)"><g><path d="M 63.703125 -90.28125 L 63.703125 -27.65625 C 63.703125 -22.894531 64.21875 -19.398438 65.25 -17.171875 C 66.289062 -14.941406 67.507812 -13.332031 68.90625 -12.34375 C 70.3125 -11.363281 71.53125 -10.40625 72.5625 -9.46875 C 73.601562 -8.539062 74.125 -7.039062 74.125 -4.96875 C 74.125 -3.101562 73.472656 -1.804688 72.171875 -1.078125 C 70.878906 -0.359375 68.472656 0 64.953125 0 L 36.515625 0 C 33.203125 0 30.84375 -0.359375 29.4375 -1.078125 C 28.039062 -1.804688 27.34375 -3.101562 27.34375 -4.96875 C 27.34375 -6.625 27.707031 -7.890625 28.4375 -8.765625 C 29.164062 -9.648438 30.070312 -10.429688 31.15625 -11.109375 C 32.238281 -11.785156 33.296875 -12.691406 34.328125 -13.828125 C 35.367188 -14.972656 36.253906 -16.601562 36.984375 -18.71875 C 37.710938 -20.84375 38.078125 -23.820312 38.078125 -27.65625 L 38.078125 -90.28125 C 38.078125 -94.53125 35.953125 -96.65625 31.703125 -96.65625 C 28.585938 -96.65625 26.019531 -96.03125 24 -94.78125 C 21.988281 -93.539062 20.203125 -91.648438 18.640625 -89.109375 C 17.085938 -86.578125 15.328125 -83.445312 13.359375 -79.71875 C 12.535156 -77.957031 11.65625 -76.582031 10.71875 -75.59375 C 9.789062 -74.613281 8.703125 -74.125 7.453125 -74.125 C 5.796875 -74.125 4.65625 -74.796875 4.03125 -76.140625 C 3.414062 -77.484375 3.160156 -79.347656 3.265625 -81.734375 C 3.472656 -86.296875 3.78125 -90.207031 4.1875 -93.46875 C 4.601562 -96.726562 5.125 -99.5 5.75 -101.78125 C 6.476562 -104.269531 7.722656 -106.054688 9.484375 -107.140625 C 11.242188 -108.234375 14.398438 -108.78125 18.953125 -108.78125 L 82.671875 -108.78125 C 87.328125 -108.78125 90.535156 -108.234375 92.296875 -107.140625 C 94.054688 -106.054688 95.25 -104.269531 95.875 -101.78125 C 96.5 -99.5 97.039062 -96.726562 97.5 -93.46875 C 97.96875 -90.207031 98.253906 -86.296875 98.359375 -81.734375 C 98.460938 -79.453125 98.226562 -77.613281 97.65625 -76.21875 C 97.09375 -74.820312 95.929688 -74.125 94.171875 -74.125 C 92.921875 -74.125 91.851562 -74.613281 90.96875 -75.59375 C 90.09375 -76.582031 89.191406 -77.957031 88.265625 -79.71875 C 85.460938 -85.3125 82.867188 -89.554688 80.484375 -92.453125 C 78.109375 -95.359375 74.585938 -96.8125 69.921875 -96.8125 C 65.773438 -96.8125 63.703125 -94.632812 63.703125 -90.28125 Z M 63.703125 -90.28125 "/></g></g></g><g fill="#f4c3e5" fill-opacity="1"><g transform="translate(582.379079, 581.977874)"><g><path d="M 112.03125 -81.109375 L 112.03125 -27.65625 C 112.03125 -22.894531 112.546875 -19.398438 113.578125 -17.171875 C 114.617188 -14.941406 115.8125 -13.332031 117.15625 -12.34375 C 118.507812 -11.363281 119.703125 -10.40625 120.734375 -9.46875 C 121.773438 -8.539062 122.296875 -7.039062 122.296875 -4.96875 C 122.296875 -3.101562 121.644531 -1.804688 120.34375 -1.078125 C 119.050781 -0.359375 116.695312 0 113.28125 0 L 84.6875 0 C 81.476562 0 79.171875 -0.359375 77.765625 -1.078125 C 76.367188 -1.804688 75.671875 -3.101562 75.671875 -4.96875 C 75.671875 -6.625 76.03125 -7.890625 76.75 -8.765625 C 77.476562 -9.648438 78.359375 -10.429688 79.390625 -11.109375 C 80.429688 -11.785156 81.46875 -12.691406 82.5 -13.828125 C 83.539062 -14.972656 84.421875 -16.601562 85.140625 -18.71875 C 85.867188 -20.84375 86.234375 -23.820312 86.234375 -27.65625 L 86.234375 -45.6875 C 86.234375 -47.238281 86.101562 -48.425781 85.84375 -49.25 C 85.59375 -50.082031 84.765625 -50.707031 83.359375 -51.125 C 81.960938 -51.539062 79.710938 -51.773438 76.609375 -51.828125 C 73.503906 -51.878906 69.050781 -51.90625 63.25 -51.90625 C 57.445312 -51.90625 52.960938 -51.878906 49.796875 -51.828125 C 46.640625 -51.773438 44.363281 -51.539062 42.96875 -51.125 C 41.570312 -50.707031 40.742188 -50.082031 40.484375 -49.25 C 40.222656 -48.425781 40.09375 -47.238281 40.09375 -45.6875 L 40.09375 -27.65625 C 40.09375 -22.894531 40.609375 -19.398438 41.640625 -17.171875 C 42.679688 -14.941406 43.898438 -13.332031 45.296875 -12.34375 C 46.691406 -11.363281 47.90625 -10.40625 48.9375 -9.46875 C 49.976562 -8.539062 50.5 -7.039062 50.5 -4.96875 C 50.5 -3.101562 49.851562 -1.804688 48.5625 -1.078125 C 47.269531 -0.359375 44.859375 0 41.328125 0 L 12.890625 0 C 9.578125 0 7.222656 -0.359375 5.828125 -1.078125 C 4.429688 -1.804688 3.734375 -3.101562 3.734375 -4.96875 C 3.734375 -6.625 4.09375 -7.890625 4.8125 -8.765625 C 5.539062 -9.648438 6.421875 -10.429688 7.453125 -11.109375 C 8.492188 -11.785156 9.554688 -12.691406 10.640625 -13.828125 C 11.734375 -14.972656 12.640625 -16.601562 13.359375 -18.71875 C 14.085938 -20.84375 14.453125 -23.820312 14.453125 -27.65625 L 14.453125 -81.109375 C 14.453125 -85.878906 13.929688 -89.375 12.890625 -91.59375 C 11.859375 -93.820312 10.640625 -95.425781 9.234375 -96.40625 C 7.835938 -97.394531 6.625 -98.351562 5.59375 -99.28125 C 4.5625 -100.21875 4.046875 -101.722656 4.046875 -103.796875 C 4.046875 -105.660156 4.691406 -106.957031 5.984375 -107.6875 C 7.273438 -108.414062 9.679688 -108.78125 13.203125 -108.78125 L 41.640625 -108.78125 C 44.960938 -108.78125 47.320312 -108.414062 48.71875 -107.6875 C 50.113281 -106.957031 50.8125 -105.660156 50.8125 -103.796875 C 50.8125 -102.140625 50.445312 -100.867188 49.71875 -99.984375 C 49 -99.109375 48.117188 -98.332031 47.078125 -97.65625 C 46.046875 -96.988281 44.984375 -96.082031 43.890625 -94.9375 C 42.804688 -93.800781 41.898438 -92.171875 41.171875 -90.046875 C 40.453125 -87.921875 40.09375 -84.941406 40.09375 -81.109375 L 40.09375 -69.609375 C 40.09375 -68.054688 40.222656 -66.863281 40.484375 -66.03125 C 40.742188 -65.207031 41.570312 -64.585938 42.96875 -64.171875 C 44.363281 -63.765625 46.664062 -63.535156 49.875 -63.484375 C 53.09375 -63.429688 57.601562 -63.40625 63.40625 -63.40625 C 69.101562 -63.40625 73.53125 -63.429688 76.6875 -63.484375 C 79.84375 -63.535156 82.09375 -63.765625 83.4375 -64.171875 C 84.789062 -64.585938 85.59375 -65.207031 85.84375 -66.03125 C 86.101562 -66.863281 86.234375 -68.054688 86.234375 -69.609375 L 86.234375 -81.109375 C 86.234375 -85.878906 85.71875 -89.375 84.6875 -91.59375 C 83.65625 -93.820312 82.460938 -95.425781 81.109375 -96.40625 C 79.765625 -97.394531 78.570312 -98.351562 77.53125 -99.28125 C 76.5 -100.21875 75.984375 -101.722656 75.984375 -103.796875 C 75.984375 -105.660156 76.628906 -106.957031 77.921875 -107.6875 C 79.222656 -108.414062 81.582031 -108.78125 85 -108.78125 L 113.59375 -108.78125 C 116.90625 -108.78125 119.234375 -108.414062 120.578125 -107.6875 C 121.929688 -106.957031 122.609375 -105.660156 122.609375 -103.796875 C 122.609375 -102.140625 122.242188 -100.867188 121.515625 -99.984375 C 120.785156 -99.109375 119.898438 -98.332031 118.859375 -97.65625 C 117.828125 -96.988281 116.796875 -96.082031 115.765625 -94.9375 C 114.734375 -93.800781 113.851562 -92.171875 113.125 -90.046875 C 112.394531 -87.921875 112.03125 -84.941406 112.03125 -81.109375 Z M 112.03125 -81.109375 "/></g></g></g><g fill="#f4c3e5" fill-opacity="1"><g transform="translate(708.711596, 581.977874)"><g><path d="M 88.890625 -35.125 C 90.753906 -34.707031 91.890625 -33.847656 92.296875 -32.546875 C 92.710938 -31.253906 92.867188 -29.414062 92.765625 -27.03125 C 92.660156 -22.476562 92.375 -18.566406 91.90625 -15.296875 C 91.445312 -12.035156 90.90625 -9.269531 90.28125 -7 C 89.550781 -4.507812 88.304688 -2.71875 86.546875 -1.625 C 84.785156 -0.539062 81.628906 0 77.078125 0 L 12.890625 0 C 9.578125 0 7.222656 -0.359375 5.828125 -1.078125 C 4.429688 -1.804688 3.734375 -3.101562 3.734375 -4.96875 C 3.734375 -6.832031 4.171875 -8.226562 5.046875 -9.15625 C 5.929688 -10.09375 6.992188 -10.972656 8.234375 -11.796875 C 9.472656 -12.628906 10.632812 -13.742188 11.71875 -15.140625 C 12.8125 -16.546875 13.566406 -18.546875 13.984375 -21.140625 C 14.191406 -22.273438 14.320312 -23.382812 14.375 -24.46875 C 14.425781 -25.5625 14.453125 -27.039062 14.453125 -28.90625 L 14.453125 -79.875 C 14.453125 -81.738281 14.425781 -83.238281 14.375 -84.375 C 14.320312 -85.519531 14.191406 -86.609375 13.984375 -87.640625 C 13.566406 -90.335938 12.8125 -92.359375 11.71875 -93.703125 C 10.632812 -95.046875 9.472656 -96.128906 8.234375 -96.953125 C 6.992188 -97.785156 5.929688 -98.664062 5.046875 -99.59375 C 4.171875 -100.53125 3.734375 -101.929688 3.734375 -103.796875 C 3.734375 -105.660156 4.429688 -106.957031 5.828125 -107.6875 C 7.222656 -108.414062 9.578125 -108.78125 12.890625 -108.78125 L 73.34375 -108.78125 C 77.90625 -108.78125 81.144531 -108.257812 83.0625 -107.21875 C 84.976562 -106.1875 86.296875 -104.789062 87.015625 -103.03125 C 89.085938 -98.675781 90.742188 -93.390625 91.984375 -87.171875 C 92.503906 -84.890625 92.582031 -83.023438 92.21875 -81.578125 C 91.863281 -80.128906 90.957031 -79.144531 89.5 -78.625 C 86.707031 -77.695312 84.066406 -79.097656 81.578125 -82.828125 C 78.367188 -87.691406 74.976562 -91.363281 71.40625 -93.84375 C 67.832031 -96.332031 63.609375 -97.578125 58.734375 -97.578125 L 52.0625 -97.578125 C 47.1875 -97.578125 43.972656 -97.007812 42.421875 -95.875 C 40.867188 -94.738281 40.09375 -92.925781 40.09375 -90.4375 L 40.09375 -71.015625 C 40.09375 -67.910156 40.945312 -65.863281 42.65625 -64.875 C 44.363281 -63.894531 46.875 -63.40625 50.1875 -63.40625 L 53.296875 -63.40625 C 55.785156 -63.40625 57.625 -64.023438 58.8125 -65.265625 C 60.007812 -66.503906 60.914062 -67.898438 61.53125 -69.453125 C 62.15625 -71.015625 62.851562 -72.414062 63.625 -73.65625 C 64.40625 -74.894531 65.625 -75.515625 67.28125 -75.515625 C 69.039062 -75.515625 70.304688 -74.921875 71.078125 -73.734375 C 71.859375 -72.546875 72.25 -70.5 72.25 -67.59375 L 72.25 -47.546875 C 72.25 -42.472656 70.59375 -39.9375 67.28125 -39.9375 C 65.625 -39.9375 64.40625 -40.554688 63.625 -41.796875 C 62.851562 -43.046875 62.15625 -44.472656 61.53125 -46.078125 C 60.914062 -47.679688 60.007812 -49.101562 58.8125 -50.34375 C 57.625 -51.59375 55.785156 -52.21875 53.296875 -52.21875 L 50.1875 -52.21875 C 46.875 -52.21875 44.363281 -51.75 42.65625 -50.8125 C 40.945312 -49.882812 40.09375 -47.8125 40.09375 -44.59375 L 40.09375 -18.34375 C 40.09375 -15.851562 40.921875 -14.035156 42.578125 -12.890625 C 44.234375 -11.753906 47.804688 -11.1875 53.296875 -11.1875 L 62.9375 -11.34375 C 66.144531 -11.34375 68.757812 -12.039062 70.78125 -13.4375 C 72.800781 -14.84375 74.613281 -16.890625 76.21875 -19.578125 C 77.820312 -22.273438 79.554688 -25.488281 81.421875 -29.21875 C 82.765625 -31.90625 84.003906 -33.632812 85.140625 -34.40625 C 86.285156 -35.1875 87.535156 -35.425781 88.890625 -35.125 Z M 88.890625 -35.125 "/></g></g></g><g fill="#f4c3e5" fill-opacity="1"><g transform="translate(806.769261, 581.977874)"><g/></g></g><g fill="#f4c3e5" fill-opacity="1"><g transform="translate(480.753664, 712.477863)"><g><path d="M 75.359375 -65.421875 C 83.648438 -63.347656 89.914062 -59.695312 94.15625 -54.46875 C 98.40625 -49.238281 100.53125 -43.097656 100.53125 -36.046875 C 100.53125 -29.421875 98.742188 -23.363281 95.171875 -17.875 C 91.597656 -12.382812 86.316406 -8.03125 79.328125 -4.8125 C 72.335938 -1.601562 63.660156 0 53.296875 0 L 12.890625 0 C 9.578125 0 7.222656 -0.359375 5.828125 -1.078125 C 4.429688 -1.804688 3.734375 -3.101562 3.734375 -4.96875 C 3.734375 -6.832031 4.171875 -8.226562 5.046875 -9.15625 C 5.929688 -10.09375 6.992188 -10.972656 8.234375 -11.796875 C 9.472656 -12.628906 10.632812 -13.742188 11.71875 -15.140625 C 12.8125 -16.546875 13.566406 -18.546875 13.984375 -21.140625 C 14.191406 -22.273438 14.320312 -23.382812 14.375 -24.46875 C 14.425781 -25.5625 14.453125 -27.039062 14.453125 -28.90625 L 14.453125 -79.875 C 14.453125 -81.738281 14.425781 -83.238281 14.375 -84.375 C 14.320312 -85.519531 14.191406 -86.609375 13.984375 -87.640625 C 13.566406 -90.335938 12.8125 -92.359375 11.71875 -93.703125 C 10.632812 -95.046875 9.472656 -96.128906 8.234375 -96.953125 C 6.992188 -97.785156 5.929688 -98.664062 5.046875 -99.59375 C 4.171875 -100.53125 3.734375 -101.929688 3.734375 -103.796875 C 3.734375 -105.660156 4.429688 -106.957031 5.828125 -107.6875 C 7.222656 -108.414062 9.578125 -108.78125 12.890625 -108.78125 L 47.859375 -108.78125 C 55.523438 -108.78125 62.414062 -108.078125 68.53125 -106.671875 C 74.644531 -105.273438 79.539062 -102.867188 83.21875 -99.453125 C 86.894531 -96.035156 88.785156 -91.320312 88.890625 -85.3125 C 88.984375 -80.75 87.835938 -76.757812 85.453125 -73.34375 C 83.078125 -69.925781 79.710938 -67.285156 75.359375 -65.421875 Z M 40.09375 -93.234375 L 40.09375 -73.03125 C 40.09375 -71.0625 40.972656 -69.972656 42.734375 -69.765625 C 44.492188 -69.554688 46.148438 -69.453125 47.703125 -69.453125 C 52.878906 -69.453125 56.863281 -70.460938 59.65625 -72.484375 C 62.457031 -74.503906 63.859375 -77.585938 63.859375 -81.734375 C 63.859375 -85.984375 62.226562 -89.6875 58.96875 -92.84375 C 55.707031 -96 51.175781 -97.578125 45.375 -97.578125 C 43.925781 -97.578125 42.679688 -97.238281 41.640625 -96.5625 C 40.609375 -95.894531 40.09375 -94.785156 40.09375 -93.234375 Z M 52.984375 -11.1875 C 59.722656 -11.1875 64.695312 -12.84375 67.90625 -16.15625 C 71.113281 -19.476562 72.71875 -24.453125 72.71875 -31.078125 C 72.71875 -35.835938 71.679688 -40.238281 69.609375 -44.28125 C 67.535156 -48.320312 64.476562 -51.5625 60.4375 -54 C 56.40625 -56.4375 51.4375 -57.65625 45.53125 -57.65625 C 43.5625 -57.65625 42.160156 -57.34375 41.328125 -56.71875 C 40.503906 -56.09375 40.09375 -54.898438 40.09375 -53.140625 L 40.09375 -22.0625 C 40.09375 -18.226562 40.894531 -15.457031 42.5 -13.75 C 44.101562 -12.039062 47.597656 -11.1875 52.984375 -11.1875 Z M 52.984375 -11.1875 "/></g></g></g><g fill="#f4c3e5" fill-opacity="1"><g transform="translate(584.709942, 712.477863)"><g><path d="M 29.828125 -25.796875 L 27.65625 -20.515625 C 26.414062 -17.609375 25.925781 -15.40625 26.1875 -13.90625 C 26.445312 -12.40625 27.015625 -11.265625 27.890625 -10.484375 C 28.773438 -9.710938 29.628906 -8.9375 30.453125 -8.15625 C 31.285156 -7.382812 31.703125 -6.21875 31.703125 -4.65625 C 31.703125 -2.789062 30.945312 -1.570312 29.4375 -1 C 27.9375 -0.4375 26.101562 -0.15625 23.9375 -0.15625 L 9.328125 -0.15625 C 6.628906 -0.15625 4.476562 -0.460938 2.875 -1.078125 C 1.269531 -1.703125 0.46875 -2.894531 0.46875 -4.65625 C 0.46875 -6.21875 0.929688 -7.410156 1.859375 -8.234375 C 2.796875 -9.066406 3.988281 -9.921875 5.4375 -10.796875 C 6.882812 -11.679688 8.359375 -12.847656 9.859375 -14.296875 C 11.367188 -15.742188 12.640625 -17.816406 13.671875 -20.515625 L 40.875 -87.640625 C 41.90625 -90.335938 42.238281 -92.410156 41.875 -93.859375 C 41.507812 -95.304688 40.832031 -96.492188 39.84375 -97.421875 C 38.863281 -98.359375 37.929688 -99.316406 37.046875 -100.296875 C 36.171875 -101.285156 35.734375 -102.554688 35.734375 -104.109375 C 35.734375 -105.765625 36.222656 -106.957031 37.203125 -107.6875 C 38.191406 -108.414062 39.460938 -108.78125 41.015625 -108.78125 L 60.296875 -108.78125 C 63.398438 -108.78125 65.625 -107.273438 66.96875 -104.265625 L 99.765625 -21.4375 C 101.109375 -18.226562 102.453125 -15.847656 103.796875 -14.296875 C 105.148438 -12.742188 106.394531 -11.578125 107.53125 -10.796875 C 108.664062 -10.023438 109.570312 -9.25 110.25 -8.46875 C 110.925781 -7.6875 111.265625 -6.519531 111.265625 -4.96875 C 111.265625 -3.101562 110.640625 -1.804688 109.390625 -1.078125 C 108.148438 -0.359375 105.925781 0 102.71875 0 L 74.28125 0 C 71.476562 0 69.429688 -0.359375 68.140625 -1.078125 C 66.847656 -1.804688 66.203125 -3.101562 66.203125 -4.96875 C 66.203125 -6.625 66.71875 -7.84375 67.75 -8.625 C 68.78125 -9.40625 69.863281 -10.207031 71 -11.03125 C 72.144531 -11.863281 72.925781 -13.03125 73.34375 -14.53125 C 73.757812 -16.03125 73.34375 -18.332031 72.09375 -21.4375 L 70.703125 -25.015625 C 70.179688 -26.253906 69.660156 -27.210938 69.140625 -27.890625 C 68.628906 -28.566406 67.773438 -29.054688 66.578125 -29.359375 C 65.390625 -29.671875 63.5 -29.851562 60.90625 -29.90625 C 58.320312 -29.957031 54.695312 -29.984375 50.03125 -29.984375 C 45.375 -29.984375 41.773438 -29.957031 39.234375 -29.90625 C 36.691406 -29.851562 34.828125 -29.695312 33.640625 -29.4375 C 32.453125 -29.1875 31.625 -28.773438 31.15625 -28.203125 C 30.6875 -27.628906 30.242188 -26.828125 29.828125 -25.796875 Z M 50.1875 -41.328125 C 54.851562 -41.328125 58.144531 -41.378906 60.0625 -41.484375 C 61.976562 -41.585938 63.015625 -41.953125 63.171875 -42.578125 C 63.328125 -43.203125 63.144531 -44.1875 62.625 -45.53125 L 50.34375 -77.234375 L 38.078125 -46.46875 C 37.453125 -44.800781 37.191406 -43.601562 37.296875 -42.875 C 37.398438 -42.15625 38.410156 -41.71875 40.328125 -41.5625 C 42.242188 -41.40625 45.53125 -41.328125 50.1875 -41.328125 Z M 50.1875 -41.328125 "/></g></g></g><g fill="#f4c3e5" fill-opacity="1"><g transform="translate(698.300429, 712.477863)"><g><path d="M 60.75 1.546875 C 50.289062 1.546875 40.941406 -0.625 32.703125 -4.96875 C 24.472656 -9.320312 18 -15.507812 13.28125 -23.53125 C 8.570312 -31.5625 6.21875 -41.171875 6.21875 -52.359375 C 6.21875 -60.335938 7.664062 -67.820312 10.5625 -74.8125 C 13.46875 -81.8125 17.535156 -87.976562 22.765625 -93.3125 C 27.992188 -98.644531 34.101562 -102.8125 41.09375 -105.8125 C 48.09375 -108.820312 55.628906 -110.328125 63.703125 -110.328125 C 68.785156 -110.328125 72.828125 -109.832031 75.828125 -108.84375 C 78.835938 -107.863281 81.171875 -107.375 82.828125 -107.375 C 84.273438 -107.375 85.382812 -107.609375 86.15625 -108.078125 C 86.9375 -108.546875 87.738281 -109.007812 88.5625 -109.46875 C 89.394531 -109.9375 90.484375 -110.171875 91.828125 -110.171875 C 93.285156 -110.171875 94.503906 -109.648438 95.484375 -108.609375 C 96.472656 -107.578125 97.484375 -105.40625 98.515625 -102.09375 C 99.453125 -98.988281 100.359375 -95.644531 101.234375 -92.0625 C 102.117188 -88.488281 102.867188 -84.425781 103.484375 -79.875 C 103.796875 -77.382812 103.691406 -75.488281 103.171875 -74.1875 C 102.660156 -72.894531 101.367188 -72.148438 99.296875 -71.953125 C 97.535156 -71.847656 96.132812 -72.414062 95.09375 -73.65625 C 94.0625 -74.894531 92.613281 -76.8125 90.75 -79.40625 C 86.914062 -84.894531 82.664062 -89.554688 78 -93.390625 C 73.34375 -97.222656 67.957031 -99.140625 61.84375 -99.140625 C 55.832031 -99.140625 50.625 -97.632812 46.21875 -94.625 C 41.820312 -91.625 38.429688 -87.484375 36.046875 -82.203125 C 33.671875 -76.921875 32.484375 -70.753906 32.484375 -63.703125 C 32.484375 -57.179688 33.285156 -50.96875 34.890625 -45.0625 C 36.492188 -39.15625 38.875 -33.894531 42.03125 -29.28125 C 45.1875 -24.675781 49.046875 -21.050781 53.609375 -18.40625 C 58.171875 -15.769531 63.453125 -14.453125 69.453125 -14.453125 C 75.046875 -14.453125 80.222656 -15.613281 84.984375 -17.9375 C 89.753906 -20.269531 94.367188 -23.820312 98.828125 -28.59375 C 100.171875 -30.039062 101.460938 -30.609375 102.703125 -30.296875 C 103.953125 -29.984375 104.859375 -29.15625 105.421875 -27.8125 C 105.992188 -26.46875 105.867188 -24.914062 105.046875 -23.15625 C 102.765625 -18.175781 99.367188 -13.820312 94.859375 -10.09375 C 90.359375 -6.363281 85.179688 -3.488281 79.328125 -1.46875 C 73.472656 0.539062 67.28125 1.546875 60.75 1.546875 Z M 60.75 1.546875 "/></g></g></g><g fill="#f4c3e5" fill-opacity="1"><g transform="translate(808.161549, 712.477863)"><g><path d="M 89.5 -88.890625 L 79.5625 -79.71875 L 105.359375 -23.78125 C 107.015625 -20.25 108.671875 -17.628906 110.328125 -15.921875 C 111.984375 -14.210938 113.484375 -12.914062 114.828125 -12.03125 C 116.179688 -11.15625 117.269531 -10.25 118.09375 -9.3125 C 118.925781 -8.382812 119.34375 -6.9375 119.34375 -4.96875 C 119.34375 -3.101562 118.691406 -1.804688 117.390625 -1.078125 C 116.097656 -0.359375 113.796875 0 110.484375 0 L 83.296875 0 C 79.972656 0 77.613281 -0.359375 76.21875 -1.078125 C 74.820312 -1.804688 74.125 -3.101562 74.125 -4.96875 C 74.125 -6.519531 74.5625 -7.8125 75.4375 -8.84375 C 76.320312 -9.882812 77.226562 -10.945312 78.15625 -12.03125 C 79.09375 -13.125 79.71875 -14.445312 80.03125 -16 C 80.34375 -17.5625 79.925781 -19.582031 78.78125 -22.0625 L 60.609375 -62.15625 L 40.09375 -43.046875 L 40.09375 -27.65625 C 40.09375 -22.894531 40.609375 -19.398438 41.640625 -17.171875 C 42.679688 -14.941406 43.898438 -13.332031 45.296875 -12.34375 C 46.691406 -11.363281 47.90625 -10.40625 48.9375 -9.46875 C 49.976562 -8.539062 50.5 -7.039062 50.5 -4.96875 C 50.5 -3.101562 49.851562 -1.804688 48.5625 -1.078125 C 47.269531 -0.359375 44.859375 0 41.328125 0 L 12.890625 0 C 9.578125 0 7.222656 -0.359375 5.828125 -1.078125 C 4.429688 -1.804688 3.734375 -3.101562 3.734375 -4.96875 C 3.734375 -6.625 4.09375 -7.890625 4.8125 -8.765625 C 5.539062 -9.648438 6.421875 -10.429688 7.453125 -11.109375 C 8.492188 -11.785156 9.554688 -12.691406 10.640625 -13.828125 C 11.734375 -14.972656 12.640625 -16.601562 13.359375 -18.71875 C 14.085938 -20.84375 14.453125 -23.820312 14.453125 -27.65625 L 14.453125 -81.109375 C 14.453125 -85.878906 13.929688 -89.375 12.890625 -91.59375 C 11.859375 -93.820312 10.640625 -95.425781 9.234375 -96.40625 C 7.835938 -97.394531 6.625 -98.351562 5.59375 -99.28125 C 4.5625 -100.21875 4.046875 -101.722656 4.046875 -103.796875 C 4.046875 -105.660156 4.691406 -106.957031 5.984375 -107.6875 C 7.273438 -108.414062 9.679688 -108.78125 13.203125 -108.78125 L 41.640625 -108.78125 C 44.960938 -108.78125 47.320312 -108.414062 48.71875 -107.6875 C 50.113281 -106.957031 50.8125 -105.660156 50.8125 -103.796875 C 50.8125 -102.140625 50.445312 -100.867188 49.71875 -99.984375 C 49 -99.109375 48.117188 -98.332031 47.078125 -97.65625 C 46.046875 -96.988281 44.984375 -96.082031 43.890625 -94.9375 C 42.804688 -93.800781 41.898438 -92.171875 41.171875 -90.046875 C 40.453125 -87.921875 40.09375 -84.941406 40.09375 -81.109375 L 40.09375 -59.046875 L 70.859375 -88.890625 C 73.140625 -91.054688 74.304688 -92.785156 74.359375 -94.078125 C 74.410156 -95.378906 73.914062 -96.46875 72.875 -97.34375 C 71.84375 -98.226562 70.78125 -99.160156 69.6875 -100.140625 C 68.601562 -101.128906 68.0625 -102.347656 68.0625 -103.796875 C 68.0625 -105.660156 68.628906 -106.957031 69.765625 -107.6875 C 70.910156 -108.414062 72.671875 -108.78125 75.046875 -108.78125 L 98.515625 -108.78125 C 101.617188 -108.78125 103.945312 -108.414062 105.5 -107.6875 C 107.0625 -106.957031 107.84375 -105.660156 107.84375 -103.796875 C 107.84375 -101.929688 107.453125 -100.609375 106.671875 -99.828125 C 105.898438 -99.054688 104.707031 -98.359375 103.09375 -97.734375 C 101.488281 -97.117188 99.570312 -96.1875 97.34375 -94.9375 C 95.125 -93.695312 92.507812 -91.679688 89.5 -88.890625 Z M 89.5 -88.890625 "/></g></g></g><g fill="#f4c3e5" fill-opacity="1"><g transform="translate(926.879938, 712.477863)"><g><path d="M 49.109375 1.40625 C 43.410156 1.40625 38.644531 0.863281 34.8125 -0.21875 C 30.976562 -1.3125 28.078125 -1.859375 26.109375 -1.859375 C 24.453125 -1.859375 23.15625 -1.570312 22.21875 -1 C 21.289062 -0.4375 20.488281 0.125 19.8125 0.6875 C 19.132812 1.257812 18.226562 1.546875 17.09375 1.546875 C 15.75 1.546875 14.53125 0.976562 13.4375 -0.15625 C 12.351562 -1.289062 11.550781 -3.519531 11.03125 -6.84375 C 10.300781 -11.1875 9.703125 -15.25 9.234375 -19.03125 C 8.773438 -22.8125 8.441406 -26.460938 8.234375 -29.984375 C 8.128906 -32.367188 8.363281 -34.234375 8.9375 -35.578125 C 9.507812 -36.929688 10.570312 -37.609375 12.125 -37.609375 C 13.675781 -37.609375 14.890625 -37.0625 15.765625 -35.96875 C 16.648438 -34.882812 17.921875 -32.992188 19.578125 -30.296875 C 21.128906 -27.710938 23.222656 -24.835938 25.859375 -21.671875 C 28.503906 -18.515625 31.898438 -15.796875 36.046875 -13.515625 C 40.191406 -11.234375 45.164062 -10.09375 50.96875 -10.09375 C 55.832031 -9.988281 59.300781 -11.234375 61.375 -13.828125 C 63.445312 -16.421875 64.535156 -19.21875 64.640625 -22.21875 C 64.640625 -25.425781 63.421875 -28.300781 60.984375 -30.84375 C 58.554688 -33.382812 55.425781 -35.765625 51.59375 -37.984375 C 47.757812 -40.210938 43.71875 -42.414062 39.46875 -44.59375 C 33.5625 -47.707031 28.378906 -50.632812 23.921875 -53.375 C 19.472656 -56.125 15.976562 -59.390625 13.4375 -63.171875 C 10.90625 -66.953125 9.640625 -71.84375 9.640625 -77.84375 C 9.640625 -83.957031 11.398438 -89.445312 14.921875 -94.3125 C 18.441406 -99.1875 23.226562 -103.046875 29.28125 -105.890625 C 35.34375 -108.742188 42.101562 -110.171875 49.5625 -110.171875 C 53.5 -110.171875 57.070312 -109.78125 60.28125 -109 C 63.5 -108.226562 65.9375 -107.84375 67.59375 -107.84375 C 69.664062 -107.84375 71.140625 -108.226562 72.015625 -109 C 72.898438 -109.78125 74.171875 -110.171875 75.828125 -110.171875 C 77.273438 -110.171875 78.515625 -109.648438 79.546875 -108.609375 C 80.585938 -107.578125 81.472656 -105.40625 82.203125 -102.09375 C 82.828125 -99.082031 83.394531 -95.945312 83.90625 -92.6875 C 84.425781 -89.425781 84.738281 -86.140625 84.84375 -82.828125 C 85.050781 -80.441406 84.789062 -78.546875 84.0625 -77.140625 C 83.34375 -75.742188 82.101562 -75.046875 80.34375 -75.046875 C 78.988281 -75.046875 77.765625 -75.640625 76.671875 -76.828125 C 75.585938 -78.023438 74.164062 -79.867188 72.40625 -82.359375 C 70.644531 -84.847656 68.570312 -87.410156 66.1875 -90.046875 C 63.8125 -92.691406 61.09375 -94.894531 58.03125 -96.65625 C 54.976562 -98.414062 51.585938 -99.296875 47.859375 -99.296875 C 43.503906 -99.296875 40.160156 -98.179688 37.828125 -95.953125 C 35.503906 -93.722656 34.34375 -90.847656 34.34375 -87.328125 C 34.34375 -82.867188 36.335938 -79.0625 40.328125 -75.90625 C 44.316406 -72.75 50.503906 -68.992188 58.890625 -64.640625 C 65.109375 -61.535156 70.625 -58.554688 75.4375 -55.703125 C 80.257812 -52.859375 84.039062 -49.625 86.78125 -46 C 89.53125 -42.375 90.90625 -37.710938 90.90625 -32.015625 C 90.90625 -26.722656 89.765625 -22.003906 87.484375 -17.859375 C 85.203125 -13.722656 82.066406 -10.226562 78.078125 -7.375 C 74.085938 -4.53125 69.582031 -2.351562 64.5625 -0.84375 C 59.539062 0.65625 54.390625 1.40625 49.109375 1.40625 Z M 49.109375 1.40625 "/></g></g></g><g fill="#f4c3e5" fill-opacity="1"><g transform="translate(1025.242127, 712.477863)"><g><path d="M 63.703125 -90.28125 L 63.703125 -27.65625 C 63.703125 -22.894531 64.21875 -19.398438 65.25 -17.171875 C 66.289062 -14.941406 67.507812 -13.332031 68.90625 -12.34375 C 70.3125 -11.363281 71.53125 -10.40625 72.5625 -9.46875 C 73.601562 -8.539062 74.125 -7.039062 74.125 -4.96875 C 74.125 -3.101562 73.472656 -1.804688 72.171875 -1.078125 C 70.878906 -0.359375 68.472656 0 64.953125 0 L 36.515625 0 C 33.203125 0 30.84375 -0.359375 29.4375 -1.078125 C 28.039062 -1.804688 27.34375 -3.101562 27.34375 -4.96875 C 27.34375 -6.625 27.707031 -7.890625 28.4375 -8.765625 C 29.164062 -9.648438 30.070312 -10.429688 31.15625 -11.109375 C 32.238281 -11.785156 33.296875 -12.691406 34.328125 -13.828125 C 35.367188 -14.972656 36.253906 -16.601562 36.984375 -18.71875 C 37.710938 -20.84375 38.078125 -23.820312 38.078125 -27.65625 L 38.078125 -90.28125 C 38.078125 -94.53125 35.953125 -96.65625 31.703125 -96.65625 C 28.585938 -96.65625 26.019531 -96.03125 24 -94.78125 C 21.988281 -93.539062 20.203125 -91.648438 18.640625 -89.109375 C 17.085938 -86.578125 15.328125 -83.445312 13.359375 -79.71875 C 12.535156 -77.957031 11.65625 -76.582031 10.71875 -75.59375 C 9.789062 -74.613281 8.703125 -74.125 7.453125 -74.125 C 5.796875 -74.125 4.65625 -74.796875 4.03125 -76.140625 C 3.414062 -77.484375 3.160156 -79.347656 3.265625 -81.734375 C 3.472656 -86.296875 3.78125 -90.207031 4.1875 -93.46875 C 4.601562 -96.726562 5.125 -99.5 5.75 -101.78125 C 6.476562 -104.269531 7.722656 -106.054688 9.484375 -107.140625 C 11.242188 -108.234375 14.398438 -108.78125 18.953125 -108.78125 L 82.671875 -108.78125 C 87.328125 -108.78125 90.535156 -108.234375 92.296875 -107.140625 C 94.054688 -106.054688 95.25 -104.269531 95.875 -101.78125 C 96.5 -99.5 97.039062 -96.726562 97.5 -93.46875 C 97.96875 -90.207031 98.253906 -86.296875 98.359375 -81.734375 C 98.460938 -79.453125 98.226562 -77.613281 97.65625 -76.21875 C 97.09375 -74.820312 95.929688 -74.125 94.171875 -74.125 C 92.921875 -74.125 91.851562 -74.613281 90.96875 -75.59375 C 90.09375 -76.582031 89.191406 -77.957031 88.265625 -79.71875 C 85.460938 -85.3125 82.867188 -89.554688 80.484375 -92.453125 C 78.109375 -95.359375 74.585938 -96.8125 69.921875 -96.8125 C 65.773438 -96.8125 63.703125 -94.632812 63.703125 -90.28125 Z M 63.703125 -90.28125 "/></g></g></g><g fill="#f4c3e5" fill-opacity="1"><g transform="translate(1126.86753, 712.477863)"><g><path d="M 29.828125 -25.796875 L 27.65625 -20.515625 C 26.414062 -17.609375 25.925781 -15.40625 26.1875 -13.90625 C 26.445312 -12.40625 27.015625 -11.265625 27.890625 -10.484375 C 28.773438 -9.710938 29.628906 -8.9375 30.453125 -8.15625 C 31.285156 -7.382812 31.703125 -6.21875 31.703125 -4.65625 C 31.703125 -2.789062 30.945312 -1.570312 29.4375 -1 C 27.9375 -0.4375 26.101562 -0.15625 23.9375 -0.15625 L 9.328125 -0.15625 C 6.628906 -0.15625 4.476562 -0.460938 2.875 -1.078125 C 1.269531 -1.703125 0.46875 -2.894531 0.46875 -4.65625 C 0.46875 -6.21875 0.929688 -7.410156 1.859375 -8.234375 C 2.796875 -9.066406 3.988281 -9.921875 5.4375 -10.796875 C 6.882812 -11.679688 8.359375 -12.847656 9.859375 -14.296875 C 11.367188 -15.742188 12.640625 -17.816406 13.671875 -20.515625 L 40.875 -87.640625 C 41.90625 -90.335938 42.238281 -92.410156 41.875 -93.859375 C 41.507812 -95.304688 40.832031 -96.492188 39.84375 -97.421875 C 38.863281 -98.359375 37.929688 -99.316406 37.046875 -100.296875 C 36.171875 -101.285156 35.734375 -102.554688 35.734375 -104.109375 C 35.734375 -105.765625 36.222656 -106.957031 37.203125 -107.6875 C 38.191406 -108.414062 39.460938 -108.78125 41.015625 -108.78125 L 60.296875 -108.78125 C 63.398438 -108.78125 65.625 -107.273438 66.96875 -104.265625 L 99.765625 -21.4375 C 101.109375 -18.226562 102.453125 -15.847656 103.796875 -14.296875 C 105.148438 -12.742188 106.394531 -11.578125 107.53125 -10.796875 C 108.664062 -10.023438 109.570312 -9.25 110.25 -8.46875 C 110.925781 -7.6875 111.265625 -6.519531 111.265625 -4.96875 C 111.265625 -3.101562 110.640625 -1.804688 109.390625 -1.078125 C 108.148438 -0.359375 105.925781 0 102.71875 0 L 74.28125 0 C 71.476562 0 69.429688 -0.359375 68.140625 -1.078125 C 66.847656 -1.804688 66.203125 -3.101562 66.203125 -4.96875 C 66.203125 -6.625 66.71875 -7.84375 67.75 -8.625 C 68.78125 -9.40625 69.863281 -10.207031 71 -11.03125 C 72.144531 -11.863281 72.925781 -13.03125 73.34375 -14.53125 C 73.757812 -16.03125 73.34375 -18.332031 72.09375 -21.4375 L 70.703125 -25.015625 C 70.179688 -26.253906 69.660156 -27.210938 69.140625 -27.890625 C 68.628906 -28.566406 67.773438 -29.054688 66.578125 -29.359375 C 65.390625 -29.671875 63.5 -29.851562 60.90625 -29.90625 C 58.320312 -29.957031 54.695312 -29.984375 50.03125 -29.984375 C 45.375 -29.984375 41.773438 -29.957031 39.234375 -29.90625 C 36.691406 -29.851562 34.828125 -29.695312 33.640625 -29.4375 C 32.453125 -29.1875 31.625 -28.773438 31.15625 -28.203125 C 30.6875 -27.628906 30.242188 -26.828125 29.828125 -25.796875 Z M 50.1875 -41.328125 C 54.851562 -41.328125 58.144531 -41.378906 60.0625 -41.484375 C 61.976562 -41.585938 63.015625 -41.953125 63.171875 -42.578125 C 63.328125 -43.203125 63.144531 -44.1875 62.625 -45.53125 L 50.34375 -77.234375 L 38.078125 -46.46875 C 37.453125 -44.800781 37.191406 -43.601562 37.296875 -42.875 C 37.398438 -42.15625 38.410156 -41.71875 40.328125 -41.5625 C 42.242188 -41.40625 45.53125 -41.328125 50.1875 -41.328125 Z M 50.1875 -41.328125 "/></g></g></g><g fill="#f4c3e5" fill-opacity="1"><g transform="translate(1240.458051, 712.477863)"><g><path d="M 61.21875 1.546875 C 50.445312 1.546875 40.914062 -0.675781 32.625 -5.125 C 24.34375 -9.582031 17.867188 -15.847656 13.203125 -23.921875 C 8.546875 -32.003906 6.21875 -41.484375 6.21875 -52.359375 C 6.21875 -60.335938 7.613281 -67.820312 10.40625 -74.8125 C 13.207031 -81.8125 17.09375 -87.976562 22.0625 -93.3125 C 27.039062 -98.644531 32.894531 -102.8125 39.625 -105.8125 C 46.351562 -108.820312 53.65625 -110.328125 61.53125 -110.328125 C 67.851562 -110.328125 72.773438 -109.859375 76.296875 -108.921875 C 79.816406 -107.992188 82.40625 -107.53125 84.0625 -107.53125 C 85.414062 -107.53125 86.503906 -107.757812 87.328125 -108.21875 C 88.160156 -108.6875 88.988281 -109.128906 89.8125 -109.546875 C 90.644531 -109.960938 91.734375 -110.171875 93.078125 -110.171875 C 94.523438 -110.171875 95.816406 -109.648438 96.953125 -108.609375 C 98.097656 -107.578125 99.035156 -105.40625 99.765625 -102.09375 C 100.378906 -99.082031 101 -95.789062 101.625 -92.21875 C 102.25 -88.644531 102.867188 -84.476562 103.484375 -79.71875 C 103.796875 -77.332031 103.613281 -75.488281 102.9375 -74.1875 C 102.269531 -72.894531 100.898438 -72.148438 98.828125 -71.953125 C 97.066406 -71.847656 95.585938 -72.414062 94.390625 -73.65625 C 93.203125 -74.894531 91.726562 -76.8125 89.96875 -79.40625 C 87.582031 -82.820312 85.066406 -86.03125 82.421875 -89.03125 C 79.785156 -92.039062 76.734375 -94.476562 73.265625 -96.34375 C 69.796875 -98.207031 65.523438 -99.140625 60.453125 -99.140625 C 54.335938 -99.140625 49.207031 -97.554688 45.0625 -94.390625 C 40.914062 -91.234375 37.78125 -86.988281 35.65625 -81.65625 C 33.539062 -76.320312 32.484375 -70.289062 32.484375 -63.5625 C 32.484375 -53.507812 33.828125 -44.519531 36.515625 -36.59375 C 39.210938 -28.664062 43.148438 -22.445312 48.328125 -17.9375 C 53.503906 -13.4375 59.769531 -11.1875 67.125 -11.1875 C 69.195312 -11.1875 71.453125 -11.519531 73.890625 -12.1875 C 76.328125 -12.863281 78.398438 -13.953125 80.109375 -15.453125 C 81.816406 -16.960938 82.671875 -18.90625 82.671875 -21.28125 L 82.671875 -31.234375 C 82.671875 -34.335938 82.148438 -36.71875 81.109375 -38.375 C 80.078125 -40.039062 78.78125 -41.285156 77.21875 -42.109375 C 75.664062 -42.941406 74.140625 -43.613281 72.640625 -44.125 C 71.140625 -44.644531 69.84375 -45.289062 68.75 -46.0625 C 67.664062 -46.84375 67.125 -48.007812 67.125 -49.5625 C 67.125 -51.425781 67.769531 -52.722656 69.0625 -53.453125 C 70.363281 -54.179688 72.722656 -54.597656 76.140625 -54.703125 L 106.59375 -55.015625 C 109.289062 -55.015625 111.285156 -54.648438 112.578125 -53.921875 C 113.867188 -53.191406 114.515625 -51.894531 114.515625 -50.03125 C 114.515625 -48.476562 114.226562 -47.257812 113.65625 -46.375 C 113.09375 -45.5 112.394531 -44.59375 111.5625 -43.65625 C 110.738281 -42.726562 110.015625 -41.359375 109.390625 -39.546875 C 108.773438 -37.734375 108.46875 -35.066406 108.46875 -31.546875 L 108.46875 -22.53125 C 108.46875 -18.695312 106.445312 -14.941406 102.40625 -11.265625 C 98.363281 -7.585938 92.789062 -4.53125 85.6875 -2.09375 C 78.59375 0.332031 70.4375 1.546875 61.21875 1.546875 Z M 61.21875 1.546875 "/></g></g></g><g fill="#f4c3e5" fill-opacity="1"><g transform="translate(1362.439654, 712.477863)"><g><path d="M 88.890625 -35.125 C 90.753906 -34.707031 91.890625 -33.847656 92.296875 -32.546875 C 92.710938 -31.253906 92.867188 -29.414062 92.765625 -27.03125 C 92.660156 -22.476562 92.375 -18.566406 91.90625 -15.296875 C 91.445312 -12.035156 90.90625 -9.269531 90.28125 -7 C 89.550781 -4.507812 88.304688 -2.71875 86.546875 -1.625 C 84.785156 -0.539062 81.628906 0 77.078125 0 L 12.890625 0 C 9.578125 0 7.222656 -0.359375 5.828125 -1.078125 C 4.429688 -1.804688 3.734375 -3.101562 3.734375 -4.96875 C 3.734375 -6.832031 4.171875 -8.226562 5.046875 -9.15625 C 5.929688 -10.09375 6.992188 -10.972656 8.234375 -11.796875 C 9.472656 -12.628906 10.632812 -13.742188 11.71875 -15.140625 C 12.8125 -16.546875 13.566406 -18.546875 13.984375 -21.140625 C 14.191406 -22.273438 14.320312 -23.382812 14.375 -24.46875 C 14.425781 -25.5625 14.453125 -27.039062 14.453125 -28.90625 L 14.453125 -79.875 C 14.453125 -81.738281 14.425781 -83.238281 14.375 -84.375 C 14.320312 -85.519531 14.191406 -86.609375 13.984375 -87.640625 C 13.566406 -90.335938 12.8125 -92.359375 11.71875 -93.703125 C 10.632812 -95.046875 9.472656 -96.128906 8.234375 -96.953125 C 6.992188 -97.785156 5.929688 -98.664062 5.046875 -99.59375 C 4.171875 -100.53125 3.734375 -101.929688 3.734375 -103.796875 C 3.734375 -105.660156 4.429688 -106.957031 5.828125 -107.6875 C 7.222656 -108.414062 9.578125 -108.78125 12.890625 -108.78125 L 73.34375 -108.78125 C 77.90625 -108.78125 81.144531 -108.257812 83.0625 -107.21875 C 84.976562 -106.1875 86.296875 -104.789062 87.015625 -103.03125 C 89.085938 -98.675781 90.742188 -93.390625 91.984375 -87.171875 C 92.503906 -84.890625 92.582031 -83.023438 92.21875 -81.578125 C 91.863281 -80.128906 90.957031 -79.144531 89.5 -78.625 C 86.707031 -77.695312 84.066406 -79.097656 81.578125 -82.828125 C 78.367188 -87.691406 74.976562 -91.363281 71.40625 -93.84375 C 67.832031 -96.332031 63.609375 -97.578125 58.734375 -97.578125 L 52.0625 -97.578125 C 47.1875 -97.578125 43.972656 -97.007812 42.421875 -95.875 C 40.867188 -94.738281 40.09375 -92.925781 40.09375 -90.4375 L 40.09375 -71.015625 C 40.09375 -67.910156 40.945312 -65.863281 42.65625 -64.875 C 44.363281 -63.894531 46.875 -63.40625 50.1875 -63.40625 L 53.296875 -63.40625 C 55.785156 -63.40625 57.625 -64.023438 58.8125 -65.265625 C 60.007812 -66.503906 60.914062 -67.898438 61.53125 -69.453125 C 62.15625 -71.015625 62.851562 -72.414062 63.625 -73.65625 C 64.40625 -74.894531 65.625 -75.515625 67.28125 -75.515625 C 69.039062 -75.515625 70.304688 -74.921875 71.078125 -73.734375 C 71.859375 -72.546875 72.25 -70.5 72.25 -67.59375 L 72.25 -47.546875 C 72.25 -42.472656 70.59375 -39.9375 67.28125 -39.9375 C 65.625 -39.9375 64.40625 -40.554688 63.625 -41.796875 C 62.851562 -43.046875 62.15625 -44.472656 61.53125 -46.078125 C 60.914062 -47.679688 60.007812 -49.101562 58.8125 -50.34375 C 57.625 -51.59375 55.785156 -52.21875 53.296875 -52.21875 L 50.1875 -52.21875 C 46.875 -52.21875 44.363281 -51.75 42.65625 -50.8125 C 40.945312 -49.882812 40.09375 -47.8125 40.09375 -44.59375 L 40.09375 -18.34375 C 40.09375 -15.851562 40.921875 -14.035156 42.578125 -12.890625 C 44.234375 -11.753906 47.804688 -11.1875 53.296875 -11.1875 L 62.9375 -11.34375 C 66.144531 -11.34375 68.757812 -12.039062 70.78125 -13.4375 C 72.800781 -14.84375 74.613281 -16.890625 76.21875 -19.578125 C 77.820312 -22.273438 79.554688 -25.488281 81.421875 -29.21875 C 82.765625 -31.90625 84.003906 -33.632812 85.140625 -34.40625 C 86.285156 -35.1875 87.535156 -35.425781 88.890625 -35.125 Z M 88.890625 -35.125 "/></g></g></g><g fill="#f4c3e5" fill-opacity="1"><g transform="translate(480.753664, 842.977851)"><g><path d="M 12.890625 -108.78125 L 48.953125 -108.78125 C 59.929688 -108.78125 69.304688 -107.066406 77.078125 -103.640625 C 84.847656 -100.222656 90.828125 -95.40625 95.015625 -89.1875 C 99.210938 -82.976562 101.3125 -75.625 101.3125 -67.125 C 101.3125 -55.320312 97.21875 -46.570312 89.03125 -40.875 C 80.851562 -35.175781 68.992188 -32.328125 53.453125 -32.328125 L 43.203125 -32.328125 C 42.160156 -32.328125 41.378906 -32.171875 40.859375 -31.859375 C 40.347656 -31.546875 40.09375 -30.664062 40.09375 -29.21875 L 40.09375 -27.65625 C 40.09375 -22.894531 40.609375 -19.398438 41.640625 -17.171875 C 42.679688 -14.941406 43.898438 -13.332031 45.296875 -12.34375 C 46.691406 -11.363281 47.90625 -10.40625 48.9375 -9.46875 C 49.976562 -8.539062 50.5 -7.039062 50.5 -4.96875 C 50.5 -3.101562 49.851562 -1.804688 48.5625 -1.078125 C 47.269531 -0.359375 44.859375 0 41.328125 0 L 12.890625 0 C 9.578125 0 7.222656 -0.359375 5.828125 -1.078125 C 4.429688 -1.804688 3.734375 -3.101562 3.734375 -4.96875 C 3.734375 -6.625 4.09375 -7.890625 4.8125 -8.765625 C 5.539062 -9.648438 6.421875 -10.429688 7.453125 -11.109375 C 8.492188 -11.785156 9.554688 -12.691406 10.640625 -13.828125 C 11.734375 -14.972656 12.640625 -16.601562 13.359375 -18.71875 C 14.085938 -20.84375 14.453125 -23.820312 14.453125 -27.65625 L 14.453125 -79.875 C 14.453125 -81.738281 14.425781 -83.238281 14.375 -84.375 C 14.320312 -85.519531 14.191406 -86.609375 13.984375 -87.640625 C 13.566406 -90.335938 12.8125 -92.359375 11.71875 -93.703125 C 10.632812 -95.046875 9.472656 -96.128906 8.234375 -96.953125 C 6.992188 -97.785156 5.929688 -98.664062 5.046875 -99.59375 C 4.171875 -100.53125 3.734375 -101.929688 3.734375 -103.796875 C 3.734375 -105.660156 4.429688 -106.957031 5.828125 -107.6875 C 7.222656 -108.414062 9.578125 -108.78125 12.890625 -108.78125 Z M 52.0625 -43.046875 C 59.519531 -43.046875 65.289062 -45.015625 69.375 -48.953125 C 73.46875 -52.890625 75.515625 -58.222656 75.515625 -64.953125 C 75.515625 -72.304688 74.191406 -78.441406 71.546875 -83.359375 C 68.910156 -88.285156 65.546875 -92.015625 61.453125 -94.546875 C 57.359375 -97.085938 53.085938 -98.359375 48.640625 -98.359375 C 44.703125 -98.359375 42.289062 -98.070312 41.40625 -97.5 C 40.53125 -96.9375 40.09375 -95.828125 40.09375 -94.171875 L 40.09375 -48.328125 C 40.09375 -46.359375 40.972656 -44.984375 42.734375 -44.203125 C 44.492188 -43.429688 47.601562 -43.046875 52.0625 -43.046875 Z M 52.0625 -43.046875 "/></g></g></g><g fill="#f4c3e5" fill-opacity="1"><g transform="translate(584.399155, 842.977851)"><g><path d="M 29.828125 -25.796875 L 27.65625 -20.515625 C 26.414062 -17.609375 25.925781 -15.40625 26.1875 -13.90625 C 26.445312 -12.40625 27.015625 -11.265625 27.890625 -10.484375 C 28.773438 -9.710938 29.628906 -8.9375 30.453125 -8.15625 C 31.285156 -7.382812 31.703125 -6.21875 31.703125 -4.65625 C 31.703125 -2.789062 30.945312 -1.570312 29.4375 -1 C 27.9375 -0.4375 26.101562 -0.15625 23.9375 -0.15625 L 9.328125 -0.15625 C 6.628906 -0.15625 4.476562 -0.460938 2.875 -1.078125 C 1.269531 -1.703125 0.46875 -2.894531 0.46875 -4.65625 C 0.46875 -6.21875 0.929688 -7.410156 1.859375 -8.234375 C 2.796875 -9.066406 3.988281 -9.921875 5.4375 -10.796875 C 6.882812 -11.679688 8.359375 -12.847656 9.859375 -14.296875 C 11.367188 -15.742188 12.640625 -17.816406 13.671875 -20.515625 L 40.875 -87.640625 C 41.90625 -90.335938 42.238281 -92.410156 41.875 -93.859375 C 41.507812 -95.304688 40.832031 -96.492188 39.84375 -97.421875 C 38.863281 -98.359375 37.929688 -99.316406 37.046875 -100.296875 C 36.171875 -101.285156 35.734375 -102.554688 35.734375 -104.109375 C 35.734375 -105.765625 36.222656 -106.957031 37.203125 -107.6875 C 38.191406 -108.414062 39.460938 -108.78125 41.015625 -108.78125 L 60.296875 -108.78125 C 63.398438 -108.78125 65.625 -107.273438 66.96875 -104.265625 L 99.765625 -21.4375 C 101.109375 -18.226562 102.453125 -15.847656 103.796875 -14.296875 C 105.148438 -12.742188 106.394531 -11.578125 107.53125 -10.796875 C 108.664062 -10.023438 109.570312 -9.25 110.25 -8.46875 C 110.925781 -7.6875 111.265625 -6.519531 111.265625 -4.96875 C 111.265625 -3.101562 110.640625 -1.804688 109.390625 -1.078125 C 108.148438 -0.359375 105.925781 0 102.71875 0 L 74.28125 0 C 71.476562 0 69.429688 -0.359375 68.140625 -1.078125 C 66.847656 -1.804688 66.203125 -3.101562 66.203125 -4.96875 C 66.203125 -6.625 66.71875 -7.84375 67.75 -8.625 C 68.78125 -9.40625 69.863281 -10.207031 71 -11.03125 C 72.144531 -11.863281 72.925781 -13.03125 73.34375 -14.53125 C 73.757812 -16.03125 73.34375 -18.332031 72.09375 -21.4375 L 70.703125 -25.015625 C 70.179688 -26.253906 69.660156 -27.210938 69.140625 -27.890625 C 68.628906 -28.566406 67.773438 -29.054688 66.578125 -29.359375 C 65.390625 -29.671875 63.5 -29.851562 60.90625 -29.90625 C 58.320312 -29.957031 54.695312 -29.984375 50.03125 -29.984375 C 45.375 -29.984375 41.773438 -29.957031 39.234375 -29.90625 C 36.691406 -29.851562 34.828125 -29.695312 33.640625 -29.4375 C 32.453125 -29.1875 31.625 -28.773438 31.15625 -28.203125 C 30.6875 -27.628906 30.242188 -26.828125 29.828125 -25.796875 Z M 50.1875 -41.328125 C 54.851562 -41.328125 58.144531 -41.378906 60.0625 -41.484375 C 61.976562 -41.585938 63.015625 -41.953125 63.171875 -42.578125 C 63.328125 -43.203125 63.144531 -44.1875 62.625 -45.53125 L 50.34375 -77.234375 L 38.078125 -46.46875 C 37.453125 -44.800781 37.191406 -43.601562 37.296875 -42.875 C 37.398438 -42.15625 38.410156 -41.71875 40.328125 -41.5625 C 42.242188 -41.40625 45.53125 -41.328125 50.1875 -41.328125 Z M 50.1875 -41.328125 "/></g></g></g><g fill="#f4c3e5" fill-opacity="1"><g transform="translate(697.989653, 842.977851)"><g><path d="M 49.109375 1.40625 C 43.410156 1.40625 38.644531 0.863281 34.8125 -0.21875 C 30.976562 -1.3125 28.078125 -1.859375 26.109375 -1.859375 C 24.453125 -1.859375 23.15625 -1.570312 22.21875 -1 C 21.289062 -0.4375 20.488281 0.125 19.8125 0.6875 C 19.132812 1.257812 18.226562 1.546875 17.09375 1.546875 C 15.75 1.546875 14.53125 0.976562 13.4375 -0.15625 C 12.351562 -1.289062 11.550781 -3.519531 11.03125 -6.84375 C 10.300781 -11.1875 9.703125 -15.25 9.234375 -19.03125 C 8.773438 -22.8125 8.441406 -26.460938 8.234375 -29.984375 C 8.128906 -32.367188 8.363281 -34.234375 8.9375 -35.578125 C 9.507812 -36.929688 10.570312 -37.609375 12.125 -37.609375 C 13.675781 -37.609375 14.890625 -37.0625 15.765625 -35.96875 C 16.648438 -34.882812 17.921875 -32.992188 19.578125 -30.296875 C 21.128906 -27.710938 23.222656 -24.835938 25.859375 -21.671875 C 28.503906 -18.515625 31.898438 -15.796875 36.046875 -13.515625 C 40.191406 -11.234375 45.164062 -10.09375 50.96875 -10.09375 C 55.832031 -9.988281 59.300781 -11.234375 61.375 -13.828125 C 63.445312 -16.421875 64.535156 -19.21875 64.640625 -22.21875 C 64.640625 -25.425781 63.421875 -28.300781 60.984375 -30.84375 C 58.554688 -33.382812 55.425781 -35.765625 51.59375 -37.984375 C 47.757812 -40.210938 43.71875 -42.414062 39.46875 -44.59375 C 33.5625 -47.707031 28.378906 -50.632812 23.921875 -53.375 C 19.472656 -56.125 15.976562 -59.390625 13.4375 -63.171875 C 10.90625 -66.953125 9.640625 -71.84375 9.640625 -77.84375 C 9.640625 -83.957031 11.398438 -89.445312 14.921875 -94.3125 C 18.441406 -99.1875 23.226562 -103.046875 29.28125 -105.890625 C 35.34375 -108.742188 42.101562 -110.171875 49.5625 -110.171875 C 53.5 -110.171875 57.070312 -109.78125 60.28125 -109 C 63.5 -108.226562 65.9375 -107.84375 67.59375 -107.84375 C 69.664062 -107.84375 71.140625 -108.226562 72.015625 -109 C 72.898438 -109.78125 74.171875 -110.171875 75.828125 -110.171875 C 77.273438 -110.171875 78.515625 -109.648438 79.546875 -108.609375 C 80.585938 -107.578125 81.472656 -105.40625 82.203125 -102.09375 C 82.828125 -99.082031 83.394531 -95.945312 83.90625 -92.6875 C 84.425781 -89.425781 84.738281 -86.140625 84.84375 -82.828125 C 85.050781 -80.441406 84.789062 -78.546875 84.0625 -77.140625 C 83.34375 -75.742188 82.101562 -75.046875 80.34375 -75.046875 C 78.988281 -75.046875 77.765625 -75.640625 76.671875 -76.828125 C 75.585938 -78.023438 74.164062 -79.867188 72.40625 -82.359375 C 70.644531 -84.847656 68.570312 -87.410156 66.1875 -90.046875 C 63.8125 -92.691406 61.09375 -94.894531 58.03125 -96.65625 C 54.976562 -98.414062 51.585938 -99.296875 47.859375 -99.296875 C 43.503906 -99.296875 40.160156 -98.179688 37.828125 -95.953125 C 35.503906 -93.722656 34.34375 -90.847656 34.34375 -87.328125 C 34.34375 -82.867188 36.335938 -79.0625 40.328125 -75.90625 C 44.316406 -72.75 50.503906 -68.992188 58.890625 -64.640625 C 65.109375 -61.535156 70.625 -58.554688 75.4375 -55.703125 C 80.257812 -52.859375 84.039062 -49.625 86.78125 -46 C 89.53125 -42.375 90.90625 -37.710938 90.90625 -32.015625 C 90.90625 -26.722656 89.765625 -22.003906 87.484375 -17.859375 C 85.203125 -13.722656 82.066406 -10.226562 78.078125 -7.375 C 74.085938 -4.53125 69.582031 -2.351562 64.5625 -0.84375 C 59.539062 0.65625 54.390625 1.40625 49.109375 1.40625 Z M 49.109375 1.40625 "/></g></g></g><g fill="#f4c3e5" fill-opacity="1"><g transform="translate(796.351842, 842.977851)"><g><path d="M 49.109375 1.40625 C 43.410156 1.40625 38.644531 0.863281 34.8125 -0.21875 C 30.976562 -1.3125 28.078125 -1.859375 26.109375 -1.859375 C 24.453125 -1.859375 23.15625 -1.570312 22.21875 -1 C 21.289062 -0.4375 20.488281 0.125 19.8125 0.6875 C 19.132812 1.257812 18.226562 1.546875 17.09375 1.546875 C 15.75 1.546875 14.53125 0.976562 13.4375 -0.15625 C 12.351562 -1.289062 11.550781 -3.519531 11.03125 -6.84375 C 10.300781 -11.1875 9.703125 -15.25 9.234375 -19.03125 C 8.773438 -22.8125 8.441406 -26.460938 8.234375 -29.984375 C 8.128906 -32.367188 8.363281 -34.234375 8.9375 -35.578125 C 9.507812 -36.929688 10.570312 -37.609375 12.125 -37.609375 C 13.675781 -37.609375 14.890625 -37.0625 15.765625 -35.96875 C 16.648438 -34.882812 17.921875 -32.992188 19.578125 -30.296875 C 21.128906 -27.710938 23.222656 -24.835938 25.859375 -21.671875 C 28.503906 -18.515625 31.898438 -15.796875 36.046875 -13.515625 C 40.191406 -11.234375 45.164062 -10.09375 50.96875 -10.09375 C 55.832031 -9.988281 59.300781 -11.234375 61.375 -13.828125 C 63.445312 -16.421875 64.535156 -19.21875 64.640625 -22.21875 C 64.640625 -25.425781 63.421875 -28.300781 60.984375 -30.84375 C 58.554688 -33.382812 55.425781 -35.765625 51.59375 -37.984375 C 47.757812 -40.210938 43.71875 -42.414062 39.46875 -44.59375 C 33.5625 -47.707031 28.378906 -50.632812 23.921875 -53.375 C 19.472656 -56.125 15.976562 -59.390625 13.4375 -63.171875 C 10.90625 -66.953125 9.640625 -71.84375 9.640625 -77.84375 C 9.640625 -83.957031 11.398438 -89.445312 14.921875 -94.3125 C 18.441406 -99.1875 23.226562 -103.046875 29.28125 -105.890625 C 35.34375 -108.742188 42.101562 -110.171875 49.5625 -110.171875 C 53.5 -110.171875 57.070312 -109.78125 60.28125 -109 C 63.5 -108.226562 65.9375 -107.84375 67.59375 -107.84375 C 69.664062 -107.84375 71.140625 -108.226562 72.015625 -109 C 72.898438 -109.78125 74.171875 -110.171875 75.828125 -110.171875 C 77.273438 -110.171875 78.515625 -109.648438 79.546875 -108.609375 C 80.585938 -107.578125 81.472656 -105.40625 82.203125 -102.09375 C 82.828125 -99.082031 83.394531 -95.945312 83.90625 -92.6875 C 84.425781 -89.425781 84.738281 -86.140625 84.84375 -82.828125 C 85.050781 -80.441406 84.789062 -78.546875 84.0625 -77.140625 C 83.34375 -75.742188 82.101562 -75.046875 80.34375 -75.046875 C 78.988281 -75.046875 77.765625 -75.640625 76.671875 -76.828125 C 75.585938 -78.023438 74.164062 -79.867188 72.40625 -82.359375 C 70.644531 -84.847656 68.570312 -87.410156 66.1875 -90.046875 C 63.8125 -92.691406 61.09375 -94.894531 58.03125 -96.65625 C 54.976562 -98.414062 51.585938 -99.296875 47.859375 -99.296875 C 43.503906 -99.296875 40.160156 -98.179688 37.828125 -95.953125 C 35.503906 -93.722656 34.34375 -90.847656 34.34375 -87.328125 C 34.34375 -82.867188 36.335938 -79.0625 40.328125 -75.90625 C 44.316406 -72.75 50.503906 -68.992188 58.890625 -64.640625 C 65.109375 -61.535156 70.625 -58.554688 75.4375 -55.703125 C 80.257812 -52.859375 84.039062 -49.625 86.78125 -46 C 89.53125 -42.375 90.90625 -37.710938 90.90625 -32.015625 C 90.90625 -26.722656 89.765625 -22.003906 87.484375 -17.859375 C 85.203125 -13.722656 82.066406 -10.226562 78.078125 -7.375 C 74.085938 -4.53125 69.582031 -2.351562 64.5625 -0.84375 C 59.539062 0.65625 54.390625 1.40625 49.109375 1.40625 Z M 49.109375 1.40625 "/></g></g></g><g fill="#f4c3e5" fill-opacity="1"><g transform="translate(894.718476, 842.977851)"><g/></g></g><g fill="#f4c3e5" fill-opacity="1"><g transform="translate(480.753664, 973.47784)"><g><path d="M 12.890625 -108.78125 L 48.953125 -108.78125 C 59.929688 -108.78125 69.304688 -107.066406 77.078125 -103.640625 C 84.847656 -100.222656 90.828125 -95.40625 95.015625 -89.1875 C 99.210938 -82.976562 101.3125 -75.625 101.3125 -67.125 C 101.3125 -55.320312 97.21875 -46.570312 89.03125 -40.875 C 80.851562 -35.175781 68.992188 -32.328125 53.453125 -32.328125 L 43.203125 -32.328125 C 42.160156 -32.328125 41.378906 -32.171875 40.859375 -31.859375 C 40.347656 -31.546875 40.09375 -30.664062 40.09375 -29.21875 L 40.09375 -27.65625 C 40.09375 -22.894531 40.609375 -19.398438 41.640625 -17.171875 C 42.679688 -14.941406 43.898438 -13.332031 45.296875 -12.34375 C 46.691406 -11.363281 47.90625 -10.40625 48.9375 -9.46875 C 49.976562 -8.539062 50.5 -7.039062 50.5 -4.96875 C 50.5 -3.101562 49.851562 -1.804688 48.5625 -1.078125 C 47.269531 -0.359375 44.859375 0 41.328125 0 L 12.890625 0 C 9.578125 0 7.222656 -0.359375 5.828125 -1.078125 C 4.429688 -1.804688 3.734375 -3.101562 3.734375 -4.96875 C 3.734375 -6.625 4.09375 -7.890625 4.8125 -8.765625 C 5.539062 -9.648438 6.421875 -10.429688 7.453125 -11.109375 C 8.492188 -11.785156 9.554688 -12.691406 10.640625 -13.828125 C 11.734375 -14.972656 12.640625 -16.601562 13.359375 -18.71875 C 14.085938 -20.84375 14.453125 -23.820312 14.453125 -27.65625 L 14.453125 -79.875 C 14.453125 -81.738281 14.425781 -83.238281 14.375 -84.375 C 14.320312 -85.519531 14.191406 -86.609375 13.984375 -87.640625 C 13.566406 -90.335938 12.8125 -92.359375 11.71875 -93.703125 C 10.632812 -95.046875 9.472656 -96.128906 8.234375 -96.953125 C 6.992188 -97.785156 5.929688 -98.664062 5.046875 -99.59375 C 4.171875 -100.53125 3.734375 -101.929688 3.734375 -103.796875 C 3.734375 -105.660156 4.429688 -106.957031 5.828125 -107.6875 C 7.222656 -108.414062 9.578125 -108.78125 12.890625 -108.78125 Z M 52.0625 -43.046875 C 59.519531 -43.046875 65.289062 -45.015625 69.375 -48.953125 C 73.46875 -52.890625 75.515625 -58.222656 75.515625 -64.953125 C 75.515625 -72.304688 74.191406 -78.441406 71.546875 -83.359375 C 68.910156 -88.285156 65.546875 -92.015625 61.453125 -94.546875 C 57.359375 -97.085938 53.085938 -98.359375 48.640625 -98.359375 C 44.703125 -98.359375 42.289062 -98.070312 41.40625 -97.5 C 40.53125 -96.9375 40.09375 -95.828125 40.09375 -94.171875 L 40.09375 -48.328125 C 40.09375 -46.359375 40.972656 -44.984375 42.734375 -44.203125 C 44.492188 -43.429688 47.601562 -43.046875 52.0625 -43.046875 Z M 52.0625 -43.046875 "/></g></g></g><g fill="#f4c3e5" fill-opacity="1"><g transform="translate(584.399155, 973.47784)"><g><path d="M 83.140625 -39.625 L 93.859375 -21.28125 C 95.410156 -18.488281 96.988281 -16.414062 98.59375 -15.0625 C 100.195312 -13.71875 101.617188 -12.65625 102.859375 -11.875 C 104.109375 -11.101562 105.117188 -10.222656 105.890625 -9.234375 C 106.671875 -8.253906 107.0625 -6.832031 107.0625 -4.96875 C 107.0625 -3.101562 106.410156 -1.804688 105.109375 -1.078125 C 103.816406 -0.359375 101.515625 0 98.203125 0 L 72.25 0 C 69.769531 0 67.90625 -0.359375 66.65625 -1.078125 C 65.414062 -1.804688 64.796875 -3.101562 64.796875 -4.96875 C 64.796875 -6.519531 65.179688 -7.835938 65.953125 -8.921875 C 66.734375 -10.015625 67.507812 -11.128906 68.28125 -12.265625 C 69.0625 -13.410156 69.503906 -14.734375 69.609375 -16.234375 C 69.710938 -17.734375 69.09375 -19.675781 67.75 -22.0625 L 60.453125 -34.65625 C 59.410156 -34.550781 58.367188 -34.5 57.328125 -34.5 C 56.296875 -34.5 55.210938 -34.5 54.078125 -34.5 L 43.203125 -34.5 C 41.128906 -34.5 40.09375 -33.460938 40.09375 -31.390625 L 40.09375 -27.65625 C 40.09375 -22.894531 40.609375 -19.398438 41.640625 -17.171875 C 42.679688 -14.941406 43.898438 -13.332031 45.296875 -12.34375 C 46.691406 -11.363281 47.90625 -10.40625 48.9375 -9.46875 C 49.976562 -8.539062 50.5 -7.039062 50.5 -4.96875 C 50.5 -3.101562 49.851562 -1.804688 48.5625 -1.078125 C 47.269531 -0.359375 44.859375 0 41.328125 0 L 12.890625 0 C 9.578125 0 7.222656 -0.359375 5.828125 -1.078125 C 4.429688 -1.804688 3.734375 -3.101562 3.734375 -4.96875 C 3.734375 -6.625 4.09375 -7.890625 4.8125 -8.765625 C 5.539062 -9.648438 6.421875 -10.429688 7.453125 -11.109375 C 8.492188 -11.785156 9.554688 -12.691406 10.640625 -13.828125 C 11.734375 -14.972656 12.640625 -16.601562 13.359375 -18.71875 C 14.085938 -20.84375 14.453125 -23.820312 14.453125 -27.65625 L 14.453125 -79.875 C 14.453125 -81.738281 14.425781 -83.238281 14.375 -84.375 C 14.320312 -85.519531 14.191406 -86.609375 13.984375 -87.640625 C 13.566406 -90.335938 12.8125 -92.359375 11.71875 -93.703125 C 10.632812 -95.046875 9.472656 -96.128906 8.234375 -96.953125 C 6.992188 -97.785156 5.929688 -98.664062 5.046875 -99.59375 C 4.171875 -100.53125 3.734375 -101.929688 3.734375 -103.796875 C 3.734375 -105.660156 4.429688 -106.957031 5.828125 -107.6875 C 7.222656 -108.414062 9.578125 -108.78125 12.890625 -108.78125 L 49.421875 -108.78125 C 60.398438 -108.78125 69.695312 -107.09375 77.3125 -103.71875 C 84.925781 -100.351562 90.695312 -95.71875 94.625 -89.8125 C 98.5625 -83.90625 100.53125 -77.019531 100.53125 -69.15625 C 100.53125 -54.851562 94.734375 -45.007812 83.140625 -39.625 Z M 52.671875 -45.21875 C 60.023438 -45.21875 65.515625 -47.1875 69.140625 -51.125 C 72.773438 -55.0625 74.59375 -60.34375 74.59375 -66.96875 C 74.59375 -73.601562 73.398438 -79.25 71.015625 -83.90625 C 68.628906 -88.570312 65.46875 -92.144531 61.53125 -94.625 C 57.59375 -97.113281 53.242188 -98.359375 48.484375 -98.359375 C 44.859375 -98.359375 42.550781 -98.070312 41.5625 -97.5 C 40.582031 -96.9375 40.09375 -95.828125 40.09375 -94.171875 L 40.09375 -50.5 C 40.09375 -48.53125 41.078125 -47.15625 43.046875 -46.375 C 45.015625 -45.601562 48.222656 -45.21875 52.671875 -45.21875 Z M 52.671875 -45.21875 "/></g></g></g><g fill="#f4c3e5" fill-opacity="1"><g transform="translate(694.415663, 973.47784)"><g><path d="M 57.953125 1.546875 C 50.703125 1.546875 43.941406 0.28125 37.671875 -2.25 C 31.410156 -4.789062 25.921875 -8.363281 21.203125 -12.96875 C 16.492188 -17.582031 12.816406 -23.046875 10.171875 -29.359375 C 7.535156 -35.679688 6.21875 -42.675781 6.21875 -50.34375 C 6.21875 -58.632812 7.664062 -66.40625 10.5625 -73.65625 C 13.46875 -80.90625 17.5625 -87.273438 22.84375 -92.765625 C 28.125 -98.253906 34.3125 -102.550781 41.40625 -105.65625 C 48.507812 -108.769531 56.203125 -110.328125 64.484375 -110.328125 C 74.953125 -110.328125 84.039062 -107.96875 91.75 -103.25 C 99.46875 -98.539062 105.453125 -92.171875 109.703125 -84.140625 C 113.953125 -76.109375 116.078125 -67.070312 116.078125 -57.03125 C 116.078125 -48.738281 114.625 -41.019531 111.71875 -33.875 C 108.820312 -26.726562 104.78125 -20.507812 99.59375 -15.21875 C 94.414062 -9.9375 88.28125 -5.820312 81.1875 -2.875 C 74.09375 0.0703125 66.347656 1.546875 57.953125 1.546875 Z M 66.65625 -12.28125 C 72.5625 -12.28125 77.300781 -13.675781 80.875 -16.46875 C 84.445312 -19.269531 87.0625 -23.050781 88.71875 -27.8125 C 90.382812 -32.582031 91.21875 -37.914062 91.21875 -43.8125 C 91.21875 -50.132812 90.410156 -56.476562 88.796875 -62.84375 C 87.191406 -69.21875 84.890625 -75.046875 81.890625 -80.328125 C 78.890625 -85.617188 75.238281 -89.867188 70.9375 -93.078125 C 66.632812 -96.285156 61.789062 -97.890625 56.40625 -97.890625 C 50.707031 -97.890625 46.019531 -96.4375 42.34375 -93.53125 C 38.664062 -90.632812 35.921875 -86.753906 34.109375 -81.890625 C 32.296875 -77.023438 31.390625 -71.640625 31.390625 -65.734375 C 31.390625 -59.515625 32.191406 -53.242188 33.796875 -46.921875 C 35.398438 -40.609375 37.726562 -34.832031 40.78125 -29.59375 C 43.84375 -24.363281 47.546875 -20.171875 51.890625 -17.015625 C 56.242188 -13.859375 61.164062 -12.28125 66.65625 -12.28125 Z M 66.65625 -12.28125 "/></g></g></g><g fill="#f4c3e5" fill-opacity="1"><g transform="translate(817.174182, 973.47784)"><g><path d="M 44.4375 -34.8125 L 44.4375 -81.109375 C 44.4375 -85.878906 43.914062 -89.375 42.875 -91.59375 C 41.84375 -93.820312 40.628906 -95.425781 39.234375 -96.40625 C 37.835938 -97.394531 36.617188 -98.351562 35.578125 -99.28125 C 34.546875 -100.21875 34.03125 -101.722656 34.03125 -103.796875 C 34.03125 -105.660156 34.675781 -106.957031 35.96875 -107.6875 C 37.269531 -108.414062 39.679688 -108.78125 43.203125 -108.78125 L 71.796875 -108.78125 C 75.109375 -108.78125 77.4375 -108.414062 78.78125 -107.6875 C 80.125 -106.957031 80.796875 -105.660156 80.796875 -103.796875 C 80.796875 -102.140625 80.429688 -100.867188 79.703125 -99.984375 C 78.984375 -99.109375 78.101562 -98.332031 77.0625 -97.65625 C 76.03125 -96.988281 74.992188 -96.082031 73.953125 -94.9375 C 72.921875 -93.800781 72.039062 -92.171875 71.3125 -90.046875 C 70.59375 -87.921875 70.234375 -84.941406 70.234375 -81.109375 L 70.390625 -46.765625 C 70.390625 -40.035156 69.945312 -33.742188 69.0625 -27.890625 C 68.1875 -22.035156 66.476562 -16.90625 63.9375 -12.5 C 61.40625 -8.101562 57.625 -4.660156 52.59375 -2.171875 C 47.570312 0.304688 40.867188 1.546875 32.484375 1.546875 C 25.535156 1.546875 19.726562 0.28125 15.0625 -2.25 C 10.40625 -4.789062 6.910156 -8.109375 4.578125 -12.203125 C 2.253906 -16.296875 1.09375 -20.617188 1.09375 -25.171875 C 1.09375 -29.316406 2.226562 -32.347656 4.5 -34.265625 C 6.78125 -36.179688 9.375 -37.140625 12.28125 -37.140625 C 15.90625 -37.140625 18.648438 -36.078125 20.515625 -33.953125 C 22.378906 -31.828125 23.519531 -29.265625 23.9375 -26.265625 C 24.757812 -21.492188 25.867188 -17.757812 27.265625 -15.0625 C 28.671875 -12.375 30.925781 -11.03125 34.03125 -11.03125 C 40.96875 -11.03125 44.4375 -18.957031 44.4375 -34.8125 Z M 44.4375 -34.8125 "/></g></g></g><g fill="#f4c3e5" fill-opacity="1"><g transform="translate(900.308132, 973.47784)"><g><path d="M 88.890625 -35.125 C 90.753906 -34.707031 91.890625 -33.847656 92.296875 -32.546875 C 92.710938 -31.253906 92.867188 -29.414062 92.765625 -27.03125 C 92.660156 -22.476562 92.375 -18.566406 91.90625 -15.296875 C 91.445312 -12.035156 90.90625 -9.269531 90.28125 -7 C 89.550781 -4.507812 88.304688 -2.71875 86.546875 -1.625 C 84.785156 -0.539062 81.628906 0 77.078125 0 L 12.890625 0 C 9.578125 0 7.222656 -0.359375 5.828125 -1.078125 C 4.429688 -1.804688 3.734375 -3.101562 3.734375 -4.96875 C 3.734375 -6.832031 4.171875 -8.226562 5.046875 -9.15625 C 5.929688 -10.09375 6.992188 -10.972656 8.234375 -11.796875 C 9.472656 -12.628906 10.632812 -13.742188 11.71875 -15.140625 C 12.8125 -16.546875 13.566406 -18.546875 13.984375 -21.140625 C 14.191406 -22.273438 14.320312 -23.382812 14.375 -24.46875 C 14.425781 -25.5625 14.453125 -27.039062 14.453125 -28.90625 L 14.453125 -79.875 C 14.453125 -81.738281 14.425781 -83.238281 14.375 -84.375 C 14.320312 -85.519531 14.191406 -86.609375 13.984375 -87.640625 C 13.566406 -90.335938 12.8125 -92.359375 11.71875 -93.703125 C 10.632812 -95.046875 9.472656 -96.128906 8.234375 -96.953125 C 6.992188 -97.785156 5.929688 -98.664062 5.046875 -99.59375 C 4.171875 -100.53125 3.734375 -101.929688 3.734375 -103.796875 C 3.734375 -105.660156 4.429688 -106.957031 5.828125 -107.6875 C 7.222656 -108.414062 9.578125 -108.78125 12.890625 -108.78125 L 73.34375 -108.78125 C 77.90625 -108.78125 81.144531 -108.257812 83.0625 -107.21875 C 84.976562 -106.1875 86.296875 -104.789062 87.015625 -103.03125 C 89.085938 -98.675781 90.742188 -93.390625 91.984375 -87.171875 C 92.503906 -84.890625 92.582031 -83.023438 92.21875 -81.578125 C 91.863281 -80.128906 90.957031 -79.144531 89.5 -78.625 C 86.707031 -77.695312 84.066406 -79.097656 81.578125 -82.828125 C 78.367188 -87.691406 74.976562 -91.363281 71.40625 -93.84375 C 67.832031 -96.332031 63.609375 -97.578125 58.734375 -97.578125 L 52.0625 -97.578125 C 47.1875 -97.578125 43.972656 -97.007812 42.421875 -95.875 C 40.867188 -94.738281 40.09375 -92.925781 40.09375 -90.4375 L 40.09375 -71.015625 C 40.09375 -67.910156 40.945312 -65.863281 42.65625 -64.875 C 44.363281 -63.894531 46.875 -63.40625 50.1875 -63.40625 L 53.296875 -63.40625 C 55.785156 -63.40625 57.625 -64.023438 58.8125 -65.265625 C 60.007812 -66.503906 60.914062 -67.898438 61.53125 -69.453125 C 62.15625 -71.015625 62.851562 -72.414062 63.625 -73.65625 C 64.40625 -74.894531 65.625 -75.515625 67.28125 -75.515625 C 69.039062 -75.515625 70.304688 -74.921875 71.078125 -73.734375 C 71.859375 -72.546875 72.25 -70.5 72.25 -67.59375 L 72.25 -47.546875 C 72.25 -42.472656 70.59375 -39.9375 67.28125 -39.9375 C 65.625 -39.9375 64.40625 -40.554688 63.625 -41.796875 C 62.851562 -43.046875 62.15625 -44.472656 61.53125 -46.078125 C 60.914062 -47.679688 60.007812 -49.101562 58.8125 -50.34375 C 57.625 -51.59375 55.785156 -52.21875 53.296875 -52.21875 L 50.1875 -52.21875 C 46.875 -52.21875 44.363281 -51.75 42.65625 -50.8125 C 40.945312 -49.882812 40.09375 -47.8125 40.09375 -44.59375 L 40.09375 -18.34375 C 40.09375 -15.851562 40.921875 -14.035156 42.578125 -12.890625 C 44.234375 -11.753906 47.804688 -11.1875 53.296875 -11.1875 L 62.9375 -11.34375 C 66.144531 -11.34375 68.757812 -12.039062 70.78125 -13.4375 C 72.800781 -14.84375 74.613281 -16.890625 76.21875 -19.578125 C 77.820312 -22.273438 79.554688 -25.488281 81.421875 -29.21875 C 82.765625 -31.90625 84.003906 -33.632812 85.140625 -34.40625 C 86.285156 -35.1875 87.535156 -35.425781 88.890625 -35.125 Z M 88.890625 -35.125 "/></g></g></g><g fill="#f4c3e5" fill-opacity="1"><g transform="translate(998.359546, 973.47784)"><g><path d="M 60.75 1.546875 C 50.289062 1.546875 40.941406 -0.625 32.703125 -4.96875 C 24.472656 -9.320312 18 -15.507812 13.28125 -23.53125 C 8.570312 -31.5625 6.21875 -41.171875 6.21875 -52.359375 C 6.21875 -60.335938 7.664062 -67.820312 10.5625 -74.8125 C 13.46875 -81.8125 17.535156 -87.976562 22.765625 -93.3125 C 27.992188 -98.644531 34.101562 -102.8125 41.09375 -105.8125 C 48.09375 -108.820312 55.628906 -110.328125 63.703125 -110.328125 C 68.785156 -110.328125 72.828125 -109.832031 75.828125 -108.84375 C 78.835938 -107.863281 81.171875 -107.375 82.828125 -107.375 C 84.273438 -107.375 85.382812 -107.609375 86.15625 -108.078125 C 86.9375 -108.546875 87.738281 -109.007812 88.5625 -109.46875 C 89.394531 -109.9375 90.484375 -110.171875 91.828125 -110.171875 C 93.285156 -110.171875 94.503906 -109.648438 95.484375 -108.609375 C 96.472656 -107.578125 97.484375 -105.40625 98.515625 -102.09375 C 99.453125 -98.988281 100.359375 -95.644531 101.234375 -92.0625 C 102.117188 -88.488281 102.867188 -84.425781 103.484375 -79.875 C 103.796875 -77.382812 103.691406 -75.488281 103.171875 -74.1875 C 102.660156 -72.894531 101.367188 -72.148438 99.296875 -71.953125 C 97.535156 -71.847656 96.132812 -72.414062 95.09375 -73.65625 C 94.0625 -74.894531 92.613281 -76.8125 90.75 -79.40625 C 86.914062 -84.894531 82.664062 -89.554688 78 -93.390625 C 73.34375 -97.222656 67.957031 -99.140625 61.84375 -99.140625 C 55.832031 -99.140625 50.625 -97.632812 46.21875 -94.625 C 41.820312 -91.625 38.429688 -87.484375 36.046875 -82.203125 C 33.671875 -76.921875 32.484375 -70.753906 32.484375 -63.703125 C 32.484375 -57.179688 33.285156 -50.96875 34.890625 -45.0625 C 36.492188 -39.15625 38.875 -33.894531 42.03125 -29.28125 C 45.1875 -24.675781 49.046875 -21.050781 53.609375 -18.40625 C 58.171875 -15.769531 63.453125 -14.453125 69.453125 -14.453125 C 75.046875 -14.453125 80.222656 -15.613281 84.984375 -17.9375 C 89.753906 -20.269531 94.367188 -23.820312 98.828125 -28.59375 C 100.171875 -30.039062 101.460938 -30.609375 102.703125 -30.296875 C 103.953125 -29.984375 104.859375 -29.15625 105.421875 -27.8125 C 105.992188 -26.46875 105.867188 -24.914062 105.046875 -23.15625 C 102.765625 -18.175781 99.367188 -13.820312 94.859375 -10.09375 C 90.359375 -6.363281 85.179688 -3.488281 79.328125 -1.46875 C 73.472656 0.539062 67.28125 1.546875 60.75 1.546875 Z M 60.75 1.546875 "/></g></g></g><g fill="#f4c3e5" fill-opacity="1"><g transform="translate(1108.220711, 973.47784)"><g><path d="M 63.703125 -90.28125 L 63.703125 -27.65625 C 63.703125 -22.894531 64.21875 -19.398438 65.25 -17.171875 C 66.289062 -14.941406 67.507812 -13.332031 68.90625 -12.34375 C 70.3125 -11.363281 71.53125 -10.40625 72.5625 -9.46875 C 73.601562 -8.539062 74.125 -7.039062 74.125 -4.96875 C 74.125 -3.101562 73.472656 -1.804688 72.171875 -1.078125 C 70.878906 -0.359375 68.472656 0 64.953125 0 L 36.515625 0 C 33.203125 0 30.84375 -0.359375 29.4375 -1.078125 C 28.039062 -1.804688 27.34375 -3.101562 27.34375 -4.96875 C 27.34375 -6.625 27.707031 -7.890625 28.4375 -8.765625 C 29.164062 -9.648438 30.070312 -10.429688 31.15625 -11.109375 C 32.238281 -11.785156 33.296875 -12.691406 34.328125 -13.828125 C 35.367188 -14.972656 36.253906 -16.601562 36.984375 -18.71875 C 37.710938 -20.84375 38.078125 -23.820312 38.078125 -27.65625 L 38.078125 -90.28125 C 38.078125 -94.53125 35.953125 -96.65625 31.703125 -96.65625 C 28.585938 -96.65625 26.019531 -96.03125 24 -94.78125 C 21.988281 -93.539062 20.203125 -91.648438 18.640625 -89.109375 C 17.085938 -86.578125 15.328125 -83.445312 13.359375 -79.71875 C 12.535156 -77.957031 11.65625 -76.582031 10.71875 -75.59375 C 9.789062 -74.613281 8.703125 -74.125 7.453125 -74.125 C 5.796875 -74.125 4.65625 -74.796875 4.03125 -76.140625 C 3.414062 -77.484375 3.160156 -79.347656 3.265625 -81.734375 C 3.472656 -86.296875 3.78125 -90.207031 4.1875 -93.46875 C 4.601562 -96.726562 5.125 -99.5 5.75 -101.78125 C 6.476562 -104.269531 7.722656 -106.054688 9.484375 -107.140625 C 11.242188 -108.234375 14.398438 -108.78125 18.953125 -108.78125 L 82.671875 -108.78125 C 87.328125 -108.78125 90.535156 -108.234375 92.296875 -107.140625 C 94.054688 -106.054688 95.25 -104.269531 95.875 -101.78125 C 96.5 -99.5 97.039062 -96.726562 97.5 -93.46875 C 97.96875 -90.207031 98.253906 -86.296875 98.359375 -81.734375 C 98.460938 -79.453125 98.226562 -77.613281 97.65625 -76.21875 C 97.09375 -74.820312 95.929688 -74.125 94.171875 -74.125 C 92.921875 -74.125 91.851562 -74.613281 90.96875 -75.59375 C 90.09375 -76.582031 89.191406 -77.957031 88.265625 -79.71875 C 85.460938 -85.3125 82.867188 -89.554688 80.484375 -92.453125 C 78.109375 -95.359375 74.585938 -96.8125 69.921875 -96.8125 C 65.773438 -96.8125 63.703125 -94.632812 63.703125 -90.28125 Z M 63.703125 -90.28125 "/></g></g></g><g fill="#ffd77e" fill-opacity="1"><g transform="translate(489.133551, 1023.815748)"><g><path d="M 24.640625 -28.3125 L 26.828125 -28.3125 C 27.335938 -28.3125 27.742188 -28.265625 28.046875 -28.171875 C 28.359375 -28.078125 28.515625 -27.882812 28.515625 -27.59375 C 28.515625 -27.269531 28.40625 -27.039062 28.1875 -26.90625 C 27.976562 -26.769531 27.726562 -26.613281 27.4375 -26.4375 C 27.15625 -26.257812 26.90625 -25.960938 26.6875 -25.546875 C 26.476562 -25.128906 26.375 -24.472656 26.375 -23.578125 L 26.375 -1.09375 C 26.375 -0.820312 26.316406 -0.570312 26.203125 -0.34375 C 26.097656 -0.113281 25.941406 0 25.734375 0 L 25.4375 0 C 25.3125 0 25.171875 -0.046875 25.015625 -0.140625 C 24.867188 -0.234375 24.648438 -0.46875 24.359375 -0.84375 L 5.375 -24.03125 L 5.46875 -4.734375 C 5.46875 -3.835938 5.582031 -3.179688 5.8125 -2.765625 C 6.039062 -2.347656 6.296875 -2.050781 6.578125 -1.875 C 6.859375 -1.707031 7.101562 -1.554688 7.3125 -1.421875 C 7.53125 -1.285156 7.640625 -1.054688 7.640625 -0.734375 C 7.640625 -0.242188 7.035156 0 5.828125 0 L 3.640625 0 C 3.128906 0 2.71875 -0.046875 2.40625 -0.140625 C 2.09375 -0.234375 1.9375 -0.429688 1.9375 -0.734375 C 1.9375 -1.054688 2.046875 -1.285156 2.265625 -1.421875 C 2.484375 -1.554688 2.734375 -1.707031 3.015625 -1.875 C 3.296875 -2.050781 3.539062 -2.347656 3.75 -2.765625 C 3.96875 -3.179688 4.078125 -3.835938 4.078125 -4.734375 L 4.078125 -23.578125 C 4.078125 -23.960938 4.070312 -24.269531 4.0625 -24.5 C 4.050781 -24.726562 4.019531 -24.9375 3.96875 -25.125 C 3.851562 -25.789062 3.617188 -26.242188 3.265625 -26.484375 C 2.921875 -26.734375 2.59375 -26.914062 2.28125 -27.03125 C 1.976562 -27.15625 1.828125 -27.378906 1.828125 -27.703125 C 1.828125 -28.109375 2.445312 -28.3125 3.6875 -28.3125 L 4.609375 -28.3125 C 4.929688 -28.3125 5.203125 -28.164062 5.421875 -27.875 L 25.078125 -4 L 25 -23.578125 C 25 -24.472656 24.890625 -25.128906 24.671875 -25.546875 C 24.460938 -25.960938 24.210938 -26.257812 23.921875 -26.4375 C 23.640625 -26.613281 23.390625 -26.769531 23.171875 -26.90625 C 22.960938 -27.039062 22.859375 -27.269531 22.859375 -27.59375 C 22.859375 -28.070312 23.453125 -28.3125 24.640625 -28.3125 Z M 24.640625 -28.3125 "/></g></g></g><g fill="#ffd77e" fill-opacity="1"><g transform="translate(538.730364, 1023.815748)"><g><path d="M 14.640625 0.40625 C 11.941406 0.40625 9.613281 -0.171875 7.65625 -1.328125 C 5.707031 -2.492188 4.207031 -4.085938 3.15625 -6.109375 C 2.101562 -8.128906 1.578125 -10.4375 1.578125 -13.03125 C 1.578125 -15.207031 1.929688 -17.238281 2.640625 -19.125 C 3.359375 -21.019531 4.378906 -22.6875 5.703125 -24.125 C 7.023438 -25.570312 8.582031 -26.695312 10.375 -27.5 C 12.164062 -28.3125 14.15625 -28.71875 16.34375 -28.71875 C 19.007812 -28.71875 21.3125 -28.128906 23.25 -26.953125 C 25.195312 -25.785156 26.703125 -24.191406 27.765625 -22.171875 C 28.835938 -20.148438 29.375 -17.859375 29.375 -15.296875 C 29.375 -12.296875 28.765625 -9.609375 27.546875 -7.234375 C 26.335938 -4.867188 24.625 -3.003906 22.40625 -1.640625 C 20.195312 -0.273438 17.609375 0.40625 14.640625 0.40625 Z M 16.140625 -1.421875 C 17.867188 -1.421875 19.382812 -1.753906 20.6875 -2.421875 C 22 -3.097656 23.101562 -4.007812 24 -5.15625 C 24.90625 -6.300781 25.585938 -7.59375 26.046875 -9.03125 C 26.503906 -10.476562 26.734375 -11.957031 26.734375 -13.46875 C 26.734375 -16.03125 26.257812 -18.328125 25.3125 -20.359375 C 24.375 -22.398438 23.035156 -24.019531 21.296875 -25.21875 C 19.554688 -26.414062 17.472656 -27.015625 15.046875 -27.015625 C 13.265625 -27.015625 11.691406 -26.675781 10.328125 -26 C 8.972656 -25.332031 7.828125 -24.429688 6.890625 -23.296875 C 5.960938 -22.171875 5.257812 -20.929688 4.78125 -19.578125 C 4.3125 -18.234375 4.078125 -16.882812 4.078125 -15.53125 C 4.078125 -12.726562 4.578125 -10.257812 5.578125 -8.125 C 6.578125 -6 7.976562 -4.347656 9.78125 -3.171875 C 11.59375 -2.003906 13.710938 -1.421875 16.140625 -1.421875 Z M 16.140625 -1.421875 "/></g></g></g><g fill="#ffd77e" fill-opacity="1"><g transform="translate(589.095784, 1023.815748)"><g><path d="M 24.640625 -28.3125 L 26.828125 -28.3125 C 27.335938 -28.3125 27.742188 -28.265625 28.046875 -28.171875 C 28.359375 -28.078125 28.515625 -27.882812 28.515625 -27.59375 C 28.515625 -27.269531 28.40625 -27.039062 28.1875 -26.90625 C 27.976562 -26.769531 27.726562 -26.613281 27.4375 -26.4375 C 27.15625 -26.257812 26.90625 -25.960938 26.6875 -25.546875 C 26.476562 -25.128906 26.375 -24.472656 26.375 -23.578125 L 26.375 -1.09375 C 26.375 -0.820312 26.316406 -0.570312 26.203125 -0.34375 C 26.097656 -0.113281 25.941406 0 25.734375 0 L 25.4375 0 C 25.3125 0 25.171875 -0.046875 25.015625 -0.140625 C 24.867188 -0.234375 24.648438 -0.46875 24.359375 -0.84375 L 5.375 -24.03125 L 5.46875 -4.734375 C 5.46875 -3.835938 5.582031 -3.179688 5.8125 -2.765625 C 6.039062 -2.347656 6.296875 -2.050781 6.578125 -1.875 C 6.859375 -1.707031 7.101562 -1.554688 7.3125 -1.421875 C 7.53125 -1.285156 7.640625 -1.054688 7.640625 -0.734375 C 7.640625 -0.242188 7.035156 0 5.828125 0 L 3.640625 0 C 3.128906 0 2.71875 -0.046875 2.40625 -0.140625 C 2.09375 -0.234375 1.9375 -0.429688 1.9375 -0.734375 C 1.9375 -1.054688 2.046875 -1.285156 2.265625 -1.421875 C 2.484375 -1.554688 2.734375 -1.707031 3.015625 -1.875 C 3.296875 -2.050781 3.539062 -2.347656 3.75 -2.765625 C 3.96875 -3.179688 4.078125 -3.835938 4.078125 -4.734375 L 4.078125 -23.578125 C 4.078125 -23.960938 4.070312 -24.269531 4.0625 -24.5 C 4.050781 -24.726562 4.019531 -24.9375 3.96875 -25.125 C 3.851562 -25.789062 3.617188 -26.242188 3.265625 -26.484375 C 2.921875 -26.734375 2.59375 -26.914062 2.28125 -27.03125 C 1.976562 -27.15625 1.828125 -27.378906 1.828125 -27.703125 C 1.828125 -28.109375 2.445312 -28.3125 3.6875 -28.3125 L 4.609375 -28.3125 C 4.929688 -28.3125 5.203125 -28.164062 5.421875 -27.875 L 25.078125 -4 L 25 -23.578125 C 25 -24.472656 24.890625 -25.128906 24.671875 -25.546875 C 24.460938 -25.960938 24.210938 -26.257812 23.921875 -26.4375 C 23.640625 -26.613281 23.390625 -26.769531 23.171875 -26.90625 C 22.960938 -27.039062 22.859375 -27.269531 22.859375 -27.59375 C 22.859375 -28.070312 23.453125 -28.3125 24.640625 -28.3125 Z M 24.640625 -28.3125 "/></g></g></g><g fill="#ffd77e" fill-opacity="1"><g transform="translate(638.692597, 1023.815748)"><g><path d="M 11.203125 -11.125 L 2.1875 -11.125 C 1.863281 -11.125 1.726562 -11.328125 1.78125 -11.734375 L 1.828125 -12.015625 C 1.878906 -12.285156 2.050781 -12.421875 2.34375 -12.421875 L 11.375 -12.421875 C 11.695312 -12.421875 11.828125 -12.234375 11.765625 -11.859375 L 11.734375 -11.53125 C 11.679688 -11.257812 11.503906 -11.125 11.203125 -11.125 Z M 11.203125 -11.125 "/></g></g></g><g fill="#ffd77e" fill-opacity="1"><g transform="translate(671.865468, 1023.815748)"><g><path d="M 3.84375 -28.3125 L 10.234375 -28.3125 C 13.171875 -28.3125 15.609375 -27.851562 17.546875 -26.9375 C 19.492188 -26.019531 20.957031 -24.828125 21.9375 -23.359375 C 22.925781 -21.890625 23.421875 -20.320312 23.421875 -18.65625 C 23.421875 -15.769531 22.421875 -13.484375 20.421875 -11.796875 C 18.429688 -10.109375 15.398438 -9.265625 11.328125 -9.265625 L 7.5625 -9.265625 C 7.132812 -9.265625 6.890625 -9.226562 6.828125 -9.15625 C 6.773438 -9.09375 6.75 -8.859375 6.75 -8.453125 L 6.75 -5.296875 C 6.75 -4.191406 6.859375 -3.375 7.078125 -2.84375 C 7.296875 -2.320312 7.550781 -1.953125 7.84375 -1.734375 C 8.144531 -1.523438 8.398438 -1.359375 8.609375 -1.234375 C 8.828125 -1.109375 8.9375 -0.898438 8.9375 -0.609375 C 8.9375 -0.203125 8.316406 0 7.078125 0 L 3.84375 0 C 2.625 0 2.015625 -0.203125 2.015625 -0.609375 C 2.015625 -0.898438 2.128906 -1.109375 2.359375 -1.234375 C 2.585938 -1.359375 2.84375 -1.523438 3.125 -1.734375 C 3.414062 -1.953125 3.675781 -2.320312 3.90625 -2.84375 C 4.132812 -3.375 4.25 -4.191406 4.25 -5.296875 L 4.25 -23.578125 C 4.25 -23.960938 4.238281 -24.269531 4.21875 -24.5 C 4.207031 -24.726562 4.175781 -24.9375 4.125 -25.125 C 4.039062 -25.789062 3.820312 -26.242188 3.46875 -26.484375 C 3.125 -26.734375 2.796875 -26.914062 2.484375 -27.03125 C 2.171875 -27.15625 2.015625 -27.378906 2.015625 -27.703125 C 2.015625 -28.109375 2.625 -28.3125 3.84375 -28.3125 Z M 11.328125 -10.59375 C 13.054688 -10.59375 14.613281 -10.796875 16 -11.203125 C 17.382812 -11.609375 18.484375 -12.328125 19.296875 -13.359375 C 20.109375 -14.398438 20.515625 -15.894531 20.515625 -17.84375 C 20.515625 -19.507812 20.101562 -21.03125 19.28125 -22.40625 C 18.457031 -23.78125 17.269531 -24.878906 15.71875 -25.703125 C 14.164062 -26.523438 12.3125 -26.9375 10.15625 -26.9375 C 9.15625 -26.9375 8.410156 -26.898438 7.921875 -26.828125 C 7.441406 -26.765625 7.125 -26.660156 6.96875 -26.515625 C 6.820312 -26.367188 6.75 -26.144531 6.75 -25.84375 L 6.75 -11.6875 C 6.75 -11.476562 6.828125 -11.289062 6.984375 -11.125 C 7.148438 -10.957031 7.554688 -10.828125 8.203125 -10.734375 C 8.859375 -10.640625 9.898438 -10.59375 11.328125 -10.59375 Z M 11.328125 -10.59375 "/></g></g></g><g fill="#ffd77e" fill-opacity="1"><g transform="translate(715.920228, 1023.815748)"><g><path d="M 17.59375 -10.796875 L 21.515625 -3.71875 C 21.972656 -2.914062 22.429688 -2.359375 22.890625 -2.046875 C 23.347656 -1.734375 23.722656 -1.5 24.015625 -1.34375 C 24.316406 -1.195312 24.46875 -0.953125 24.46875 -0.609375 C 24.46875 -0.367188 24.347656 -0.207031 24.109375 -0.125 C 23.867188 -0.0390625 23.570312 0 23.21875 0 L 19.859375 0 C 19.210938 0 18.710938 -0.046875 18.359375 -0.140625 C 18.015625 -0.234375 17.84375 -0.441406 17.84375 -0.765625 C 17.84375 -0.984375 17.941406 -1.148438 18.140625 -1.265625 C 18.347656 -1.390625 18.546875 -1.539062 18.734375 -1.71875 C 18.921875 -1.894531 19.023438 -2.148438 19.046875 -2.484375 C 19.078125 -2.828125 18.929688 -3.296875 18.609375 -3.890625 L 15.125 -10.109375 C 14.15625 -9.953125 13.101562 -9.875 11.96875 -9.875 L 7.5625 -9.875 C 7.019531 -9.875 6.75 -9.601562 6.75 -9.0625 L 6.75 -5.296875 C 6.75 -4.191406 6.859375 -3.375 7.078125 -2.84375 C 7.296875 -2.320312 7.550781 -1.953125 7.84375 -1.734375 C 8.144531 -1.523438 8.398438 -1.359375 8.609375 -1.234375 C 8.828125 -1.109375 8.9375 -0.898438 8.9375 -0.609375 C 8.9375 -0.203125 8.316406 0 7.078125 0 L 3.84375 0 C 2.625 0 2.015625 -0.203125 2.015625 -0.609375 C 2.015625 -0.898438 2.128906 -1.109375 2.359375 -1.234375 C 2.585938 -1.359375 2.84375 -1.523438 3.125 -1.734375 C 3.414062 -1.953125 3.675781 -2.320312 3.90625 -2.84375 C 4.132812 -3.375 4.25 -4.191406 4.25 -5.296875 L 4.25 -23.578125 C 4.25 -23.960938 4.238281 -24.269531 4.21875 -24.5 C 4.207031 -24.726562 4.175781 -24.9375 4.125 -25.125 C 4.039062 -25.789062 3.820312 -26.242188 3.46875 -26.484375 C 3.125 -26.734375 2.796875 -26.914062 2.484375 -27.03125 C 2.171875 -27.15625 2.015625 -27.378906 2.015625 -27.703125 C 2.015625 -28.109375 2.625 -28.3125 3.84375 -28.3125 L 10.390625 -28.3125 C 13.410156 -28.3125 15.890625 -27.882812 17.828125 -27.03125 C 19.773438 -26.1875 21.21875 -25.070312 22.15625 -23.6875 C 23.101562 -22.300781 23.578125 -20.785156 23.578125 -19.140625 C 23.578125 -17.222656 23.066406 -15.53125 22.046875 -14.0625 C 21.023438 -12.59375 19.539062 -11.503906 17.59375 -10.796875 Z M 6.75 -25.84375 L 6.75 -12.296875 C 6.75 -12.078125 6.847656 -11.882812 7.046875 -11.71875 C 7.253906 -11.5625 7.726562 -11.441406 8.46875 -11.359375 C 9.21875 -11.285156 10.398438 -11.25 12.015625 -11.25 C 13.492188 -11.25 14.882812 -11.457031 16.1875 -11.875 C 17.5 -12.289062 18.566406 -13.015625 19.390625 -14.046875 C 20.210938 -15.085938 20.625 -16.515625 20.625 -18.328125 C 20.625 -19.835938 20.234375 -21.234375 19.453125 -22.515625 C 18.671875 -23.796875 17.519531 -24.835938 16 -25.640625 C 14.476562 -26.453125 12.597656 -26.875 10.359375 -26.90625 C 8.847656 -26.925781 7.867188 -26.863281 7.421875 -26.71875 C 6.972656 -26.570312 6.75 -26.28125 6.75 -25.84375 Z M 6.75 -25.84375 "/></g></g></g><g fill="#ffd77e" fill-opacity="1"><g transform="translate(760.945836, 1023.815748)"><g><path d="M 14.640625 0.40625 C 11.941406 0.40625 9.613281 -0.171875 7.65625 -1.328125 C 5.707031 -2.492188 4.207031 -4.085938 3.15625 -6.109375 C 2.101562 -8.128906 1.578125 -10.4375 1.578125 -13.03125 C 1.578125 -15.207031 1.929688 -17.238281 2.640625 -19.125 C 3.359375 -21.019531 4.378906 -22.6875 5.703125 -24.125 C 7.023438 -25.570312 8.582031 -26.695312 10.375 -27.5 C 12.164062 -28.3125 14.15625 -28.71875 16.34375 -28.71875 C 19.007812 -28.71875 21.3125 -28.128906 23.25 -26.953125 C 25.195312 -25.785156 26.703125 -24.191406 27.765625 -22.171875 C 28.835938 -20.148438 29.375 -17.859375 29.375 -15.296875 C 29.375 -12.296875 28.765625 -9.609375 27.546875 -7.234375 C 26.335938 -4.867188 24.625 -3.003906 22.40625 -1.640625 C 20.195312 -0.273438 17.609375 0.40625 14.640625 0.40625 Z M 16.140625 -1.421875 C 17.867188 -1.421875 19.382812 -1.753906 20.6875 -2.421875 C 22 -3.097656 23.101562 -4.007812 24 -5.15625 C 24.90625 -6.300781 25.585938 -7.59375 26.046875 -9.03125 C 26.503906 -10.476562 26.734375 -11.957031 26.734375 -13.46875 C 26.734375 -16.03125 26.257812 -18.328125 25.3125 -20.359375 C 24.375 -22.398438 23.035156 -24.019531 21.296875 -25.21875 C 19.554688 -26.414062 17.472656 -27.015625 15.046875 -27.015625 C 13.265625 -27.015625 11.691406 -26.675781 10.328125 -26 C 8.972656 -25.332031 7.828125 -24.429688 6.890625 -23.296875 C 5.960938 -22.171875 5.257812 -20.929688 4.78125 -19.578125 C 4.3125 -18.234375 4.078125 -16.882812 4.078125 -15.53125 C 4.078125 -12.726562 4.578125 -10.257812 5.578125 -8.125 C 6.578125 -6 7.976562 -4.347656 9.78125 -3.171875 C 11.59375 -2.003906 13.710938 -1.421875 16.140625 -1.421875 Z M 16.140625 -1.421875 "/></g></g></g><g fill="#ffd77e" fill-opacity="1"><g transform="translate(811.311257, 1023.815748)"><g><path d="M 21.71875 -22.859375 C 21.769531 -22.535156 21.78125 -22.269531 21.75 -22.0625 C 21.726562 -21.863281 21.582031 -21.738281 21.3125 -21.6875 C 20.988281 -21.632812 20.734375 -21.726562 20.546875 -21.96875 C 20.359375 -22.207031 20.128906 -22.582031 19.859375 -23.09375 C 19.265625 -24.363281 18.507812 -25.328125 17.59375 -25.984375 C 16.675781 -26.648438 15.460938 -26.984375 13.953125 -26.984375 L 12.015625 -26.984375 C 10.453125 -26.984375 9.296875 -26.914062 8.546875 -26.78125 C 7.804688 -26.644531 7.320312 -26.414062 7.09375 -26.09375 C 6.863281 -25.769531 6.75 -25.335938 6.75 -24.796875 L 6.75 -17.3125 C 6.75 -16.632812 6.890625 -16.15625 7.171875 -15.875 C 7.460938 -15.59375 7.882812 -15.429688 8.4375 -15.390625 C 8.988281 -15.347656 9.671875 -15.328125 10.484375 -15.328125 L 13.515625 -15.328125 C 14.179688 -15.328125 14.675781 -15.484375 15 -15.796875 C 15.332031 -16.109375 15.570312 -16.460938 15.71875 -16.859375 C 15.863281 -17.265625 16.015625 -17.625 16.171875 -17.9375 C 16.335938 -18.25 16.582031 -18.40625 16.90625 -18.40625 C 17.15625 -18.40625 17.316406 -18.234375 17.390625 -17.890625 C 17.472656 -17.554688 17.515625 -16.921875 17.515625 -15.984375 L 17.515625 -12.78125 C 17.515625 -11.488281 17.3125 -10.84375 16.90625 -10.84375 C 16.582031 -10.84375 16.335938 -11.003906 16.171875 -11.328125 C 16.015625 -11.648438 15.863281 -12.015625 15.71875 -12.421875 C 15.570312 -12.828125 15.332031 -13.191406 15 -13.515625 C 14.675781 -13.835938 14.179688 -14 13.515625 -14 L 10.484375 -14 C 9.671875 -14 8.988281 -13.976562 8.4375 -13.9375 C 7.882812 -13.894531 7.460938 -13.738281 7.171875 -13.46875 C 6.890625 -13.195312 6.75 -12.710938 6.75 -12.015625 L 6.75 -5.34375 C 6.75 -4.238281 6.859375 -3.421875 7.078125 -2.890625 C 7.296875 -2.367188 7.550781 -2 7.84375 -1.78125 C 8.144531 -1.5625 8.398438 -1.390625 8.609375 -1.265625 C 8.828125 -1.148438 8.9375 -0.941406 8.9375 -0.640625 C 8.9375 -0.242188 8.316406 -0.046875 7.078125 -0.046875 L 3.84375 -0.046875 C 2.625 -0.046875 2.015625 -0.242188 2.015625 -0.640625 C 2.015625 -0.941406 2.128906 -1.148438 2.359375 -1.265625 C 2.585938 -1.390625 2.84375 -1.5625 3.125 -1.78125 C 3.414062 -2 3.675781 -2.367188 3.90625 -2.890625 C 4.132812 -3.421875 4.25 -4.238281 4.25 -5.34375 L 4.25 -23.578125 C 4.25 -23.960938 4.238281 -24.269531 4.21875 -24.5 C 4.207031 -24.726562 4.175781 -24.9375 4.125 -25.125 C 4.039062 -25.789062 3.820312 -26.242188 3.46875 -26.484375 C 3.125 -26.734375 2.796875 -26.914062 2.484375 -27.03125 C 2.171875 -27.15625 2.015625 -27.378906 2.015625 -27.703125 C 2.015625 -28.109375 2.625 -28.3125 3.84375 -28.3125 L 18.078125 -28.359375 C 18.835938 -28.359375 19.382812 -28.332031 19.71875 -28.28125 C 20.0625 -28.226562 20.296875 -28.125 20.421875 -27.96875 C 20.554688 -27.820312 20.664062 -27.570312 20.75 -27.21875 C 20.9375 -26.6875 21.117188 -26.0625 21.296875 -25.34375 C 21.472656 -24.625 21.613281 -23.796875 21.71875 -22.859375 Z M 21.71875 -22.859375 "/></g></g></g><g fill="#ffd77e" fill-opacity="1"><g transform="translate(852.89835, 1023.815748)"><g><path d="M 4.25 -5.296875 L 4.25 -23.015625 C 4.25 -24.117188 4.140625 -24.929688 3.921875 -25.453125 C 3.703125 -25.984375 3.453125 -26.359375 3.171875 -26.578125 C 2.890625 -26.796875 2.640625 -26.960938 2.421875 -27.078125 C 2.210938 -27.203125 2.109375 -27.410156 2.109375 -27.703125 C 2.109375 -28.109375 2.710938 -28.3125 3.921875 -28.3125 L 7.15625 -28.3125 C 8.394531 -28.3125 9.015625 -28.109375 9.015625 -27.703125 C 9.015625 -27.410156 8.898438 -27.203125 8.671875 -27.078125 C 8.441406 -26.960938 8.175781 -26.796875 7.875 -26.578125 C 7.582031 -26.359375 7.320312 -25.984375 7.09375 -25.453125 C 6.863281 -24.929688 6.75 -24.117188 6.75 -23.015625 L 6.75 -5.296875 C 6.75 -4.191406 6.859375 -3.375 7.078125 -2.84375 C 7.296875 -2.320312 7.550781 -1.953125 7.84375 -1.734375 C 8.144531 -1.523438 8.398438 -1.359375 8.609375 -1.234375 C 8.828125 -1.109375 8.9375 -0.898438 8.9375 -0.609375 C 8.9375 -0.203125 8.316406 0 7.078125 0 L 3.84375 0 C 2.625 0 2.015625 -0.203125 2.015625 -0.609375 C 2.015625 -0.898438 2.128906 -1.109375 2.359375 -1.234375 C 2.585938 -1.359375 2.84375 -1.523438 3.125 -1.734375 C 3.414062 -1.953125 3.675781 -2.320312 3.90625 -2.84375 C 4.132812 -3.375 4.25 -4.191406 4.25 -5.296875 Z M 4.25 -5.296875 "/></g></g></g><g fill="#ffd77e" fill-opacity="1"><g transform="translate(883.320406, 1023.815748)"><g><path d="M 14 -24.921875 L 14 -5.296875 C 14 -4.191406 14.101562 -3.375 14.3125 -2.84375 C 14.53125 -2.320312 14.78125 -1.953125 15.0625 -1.734375 C 15.351562 -1.523438 15.601562 -1.359375 15.8125 -1.234375 C 16.03125 -1.109375 16.140625 -0.898438 16.140625 -0.609375 C 16.140625 -0.203125 15.535156 0 14.328125 0 L 11.078125 0 C 9.835938 0 9.21875 -0.203125 9.21875 -0.609375 C 9.21875 -0.898438 9.332031 -1.109375 9.5625 -1.234375 C 9.789062 -1.359375 10.050781 -1.523438 10.34375 -1.734375 C 10.644531 -1.953125 10.910156 -2.320312 11.140625 -2.84375 C 11.367188 -3.375 11.484375 -4.191406 11.484375 -5.296875 L 11.484375 -24.875 C 11.484375 -25.65625 11.316406 -26.207031 10.984375 -26.53125 C 10.648438 -26.851562 10.023438 -27.015625 9.109375 -27.015625 C 7.941406 -27.015625 7.0625 -26.894531 6.46875 -26.65625 C 5.875 -26.414062 5.398438 -26.050781 5.046875 -25.5625 C 4.703125 -25.082031 4.316406 -24.453125 3.890625 -23.671875 C 3.535156 -23.015625 3.253906 -22.570312 3.046875 -22.34375 C 2.847656 -22.113281 2.628906 -22 2.390625 -22 C 2.035156 -22 1.820312 -22.113281 1.75 -22.34375 C 1.6875 -22.570312 1.671875 -22.820312 1.703125 -23.09375 C 1.703125 -23.988281 1.738281 -24.738281 1.8125 -25.34375 C 1.894531 -25.945312 2.019531 -26.535156 2.1875 -27.109375 C 2.269531 -27.378906 2.382812 -27.597656 2.53125 -27.765625 C 2.675781 -27.941406 2.960938 -28.078125 3.390625 -28.171875 C 3.828125 -28.265625 4.488281 -28.3125 5.375 -28.3125 L 20.109375 -28.359375 C 20.992188 -28.359375 21.648438 -28.3125 22.078125 -28.21875 C 22.515625 -28.125 22.804688 -27.988281 22.953125 -27.8125 C 23.097656 -27.632812 23.210938 -27.410156 23.296875 -27.140625 C 23.460938 -26.578125 23.578125 -26 23.640625 -25.40625 C 23.710938 -24.8125 23.757812 -24.054688 23.78125 -23.140625 C 23.8125 -22.867188 23.789062 -22.617188 23.71875 -22.390625 C 23.65625 -22.160156 23.445312 -22.046875 23.09375 -22.046875 C 22.820312 -22.046875 22.59375 -22.160156 22.40625 -22.390625 C 22.21875 -22.617188 21.953125 -23.054688 21.609375 -23.703125 C 21.203125 -24.484375 20.816406 -25.113281 20.453125 -25.59375 C 20.085938 -26.082031 19.609375 -26.445312 19.015625 -26.6875 C 18.421875 -26.9375 17.546875 -27.0625 16.390625 -27.0625 C 15.472656 -27.0625 14.84375 -26.898438 14.5 -26.578125 C 14.164062 -26.253906 14 -25.703125 14 -24.921875 Z M 14 -24.921875 "/></g></g></g><g clip-path="url(#4b9b6285c1)"><g clip-path="url(#77efbe6037)"><path stroke-linecap="butt" transform="matrix(0.75, 0, 0, 0.75, 55.604469, 471.600299)" fill="none" stroke-linejoin="miter" d="M 55.996129 0.00168416 L 467.845123 0.00168416 C 482.699291 0.00168416 496.938875 5.897518 507.444085 16.402727 C 517.944085 26.902728 523.845128 41.147521 523.845128 55.996481 L 523.845128 686.392368 C 523.845128 701.246536 517.944085 715.491329 507.444085 725.99133 C 496.938875 736.491331 482.699291 742.392373 467.845123 742.392373 L 55.996129 742.392373 C 41.147169 742.392373 26.902377 736.491331 16.402376 725.99133 C 5.902375 715.491329 0.00133252 701.246536 0.00133252 686.392368 L 0.00133252 55.996481 C 0.00133252 41.147521 5.902375 26.902728 16.402376 16.402727 C 26.902377 5.897518 41.147169 0.00168416 55.996129 0.00168416 Z M 55.996129 0.00168416 " stroke="#ffffff" stroke-width="20" stroke-opacity="1" stroke-miterlimit="4"/></g></g><g clip-path="url(#c8f6e28d83)"><g clip-path="url(#f9fb74f8e8)"><g transform="matrix(1, 0, 0, 1, 196, 512)"><g clip-path="url(#b427762ad3)"><g clip-path="url(#926f6f991d)"><g clip-path="url(#212e006023)"><path fill="#fffbeb" d="M 0.308594 0.507812 L 111.796875 0.507812 L 111.796875 19.199219 L 0.308594 19.199219 Z M 0.308594 0.507812 " fill-opacity="1" fill-rule="nonzero"/></g></g></g></g></g></g></svg>