<svg xmlns="http://www.w3.org/2000/svg" xmlns:xlink="http://www.w3.org/1999/xlink" width="2000" zoomAndPan="magnify" viewBox="0 0 1500 1499.999933" height="2000" preserveAspectRatio="xMidYMid meet" version="1.0"><defs><g/><clipPath id="ede8e11458"><path d="M 0.359375 0.441406 L 1049.878906 0.441406 L 1049.878906 665.238281 L 0.359375 665.238281 Z M 0.359375 0.441406 " clip-rule="nonzero"/></clipPath><clipPath id="42d42eeb08"><rect x="0" width="1050" y="0" height="666"/></clipPath><clipPath id="21b7d42e1f"><rect x="0" width="1050" y="0" height="666"/></clipPath></defs><rect x="-150" width="1800" fill="#ffffff" y="-149.999993" height="1799.99992" fill-opacity="1"/><rect x="-150" width="1800" fill="#ffffff" y="-149.999993" height="1799.99992" fill-opacity="1"/><g transform="matrix(1, 0, 0, 1, 159, 415)"><g clip-path="url(#21b7d42e1f)"><g clip-path="url(#ede8e11458)"><g transform="matrix(1, 0, 0, 1, 0, 0.000000000000113687)"><g clip-path="url(#42d42eeb08)"><g fill="#000000" fill-opacity="1"><g transform="translate(0.453433, 155.144276)"><g><path d="M 68.21875 -96.671875 L 68.21875 -29.625 C 68.21875 -24.519531 68.769531 -20.773438 69.875 -18.390625 C 70.988281 -16.003906 72.296875 -14.28125 73.796875 -13.21875 C 75.296875 -12.164062 76.597656 -11.140625 77.703125 -10.140625 C 78.816406 -9.148438 79.375 -7.546875 79.375 -5.328125 C 79.375 -3.328125 78.675781 -1.9375 77.28125 -1.15625 C 75.894531 -0.382812 73.316406 0 69.546875 0 L 39.109375 0 C 35.554688 0 33.03125 -0.382812 31.53125 -1.15625 C 30.03125 -1.9375 29.28125 -3.328125 29.28125 -5.328125 C 29.28125 -7.097656 29.664062 -8.453125 30.4375 -9.390625 C 31.21875 -10.335938 32.191406 -11.171875 33.359375 -11.890625 C 34.523438 -12.617188 35.660156 -13.59375 36.765625 -14.8125 C 37.878906 -16.03125 38.820312 -17.773438 39.59375 -20.046875 C 40.375 -22.328125 40.765625 -25.519531 40.765625 -29.625 L 40.765625 -96.671875 C 40.765625 -101.222656 38.488281 -103.5 33.9375 -103.5 C 30.613281 -103.5 27.867188 -102.832031 25.703125 -101.5 C 23.546875 -100.164062 21.632812 -98.140625 19.96875 -95.421875 C 18.300781 -92.703125 16.414062 -89.347656 14.3125 -85.359375 C 13.425781 -83.472656 12.484375 -82.003906 11.484375 -80.953125 C 10.484375 -79.898438 9.316406 -79.375 7.984375 -79.375 C 6.210938 -79.375 4.992188 -80.09375 4.328125 -81.53125 C 3.660156 -82.96875 3.382812 -84.960938 3.5 -87.515625 C 3.71875 -92.398438 4.046875 -96.585938 4.484375 -100.078125 C 4.929688 -103.578125 5.488281 -106.546875 6.15625 -108.984375 C 6.9375 -111.648438 8.269531 -113.5625 10.15625 -114.71875 C 12.039062 -115.882812 15.421875 -116.46875 20.296875 -116.46875 L 88.515625 -116.46875 C 93.503906 -116.46875 96.941406 -115.882812 98.828125 -114.71875 C 100.722656 -113.5625 102 -111.648438 102.65625 -108.984375 C 103.320312 -106.546875 103.90625 -103.578125 104.40625 -100.078125 C 104.90625 -96.585938 105.210938 -92.398438 105.328125 -87.515625 C 105.429688 -85.078125 105.175781 -83.109375 104.5625 -81.609375 C 103.957031 -80.117188 102.710938 -79.375 100.828125 -79.375 C 99.503906 -79.375 98.367188 -79.898438 97.421875 -80.953125 C 96.472656 -82.003906 95.503906 -83.472656 94.515625 -85.359375 C 91.515625 -91.347656 88.738281 -95.894531 86.1875 -99 C 83.632812 -102.101562 79.863281 -103.65625 74.875 -103.65625 C 70.4375 -103.65625 68.21875 -101.328125 68.21875 -96.671875 Z M 68.21875 -96.671875 "/></g></g></g><g fill="#000000" fill-opacity="1"><g transform="translate(109.275487, 155.144276)"><g><path d="M 119.96875 -86.859375 L 119.96875 -29.625 C 119.96875 -24.519531 120.519531 -20.773438 121.625 -18.390625 C 122.738281 -16.003906 124.015625 -14.28125 125.453125 -13.21875 C 126.898438 -12.164062 128.175781 -11.140625 129.28125 -10.140625 C 130.394531 -9.148438 130.953125 -7.546875 130.953125 -5.328125 C 130.953125 -3.328125 130.257812 -1.9375 128.875 -1.15625 C 127.488281 -0.382812 124.960938 0 121.296875 0 L 90.6875 0 C 87.25 0 84.78125 -0.382812 83.28125 -1.15625 C 81.78125 -1.9375 81.03125 -3.328125 81.03125 -5.328125 C 81.03125 -7.097656 81.414062 -8.453125 82.1875 -9.390625 C 82.96875 -10.335938 83.910156 -11.171875 85.015625 -11.890625 C 86.128906 -12.617188 87.238281 -13.59375 88.34375 -14.8125 C 89.457031 -16.03125 90.398438 -17.773438 91.171875 -20.046875 C 91.953125 -22.328125 92.34375 -25.519531 92.34375 -29.625 L 92.34375 -48.921875 C 92.34375 -50.585938 92.203125 -51.863281 91.921875 -52.75 C 91.648438 -53.632812 90.765625 -54.296875 89.265625 -54.734375 C 87.765625 -55.179688 85.347656 -55.429688 82.015625 -55.484375 C 78.691406 -55.546875 73.925781 -55.578125 67.71875 -55.578125 C 61.507812 -55.578125 56.710938 -55.546875 53.328125 -55.484375 C 49.941406 -55.429688 47.5 -55.179688 46 -54.734375 C 44.507812 -54.296875 43.625 -53.632812 43.34375 -52.75 C 43.0625 -51.863281 42.921875 -50.585938 42.921875 -48.921875 L 42.921875 -29.625 C 42.921875 -24.519531 43.472656 -20.773438 44.578125 -18.390625 C 45.691406 -16.003906 47 -14.28125 48.5 -13.21875 C 50 -12.164062 51.300781 -11.140625 52.40625 -10.140625 C 53.519531 -9.148438 54.078125 -7.546875 54.078125 -5.328125 C 54.078125 -3.328125 53.382812 -1.9375 52 -1.15625 C 50.613281 -0.382812 48.035156 0 44.265625 0 L 13.8125 0 C 10.257812 0 7.734375 -0.382812 6.234375 -1.15625 C 4.742188 -1.9375 4 -3.328125 4 -5.328125 C 4 -7.097656 4.382812 -8.453125 5.15625 -9.390625 C 5.9375 -10.335938 6.878906 -11.171875 7.984375 -11.890625 C 9.097656 -12.617188 10.234375 -13.59375 11.390625 -14.8125 C 12.554688 -16.03125 13.523438 -17.773438 14.296875 -20.046875 C 15.078125 -22.328125 15.46875 -25.519531 15.46875 -29.625 L 15.46875 -86.859375 C 15.46875 -91.960938 14.910156 -95.707031 13.796875 -98.09375 C 12.691406 -100.476562 11.390625 -102.195312 9.890625 -103.25 C 8.398438 -104.300781 7.097656 -105.328125 5.984375 -106.328125 C 4.878906 -107.328125 4.328125 -108.9375 4.328125 -111.15625 C 4.328125 -113.144531 5.019531 -114.523438 6.40625 -115.296875 C 7.789062 -116.078125 10.367188 -116.46875 14.140625 -116.46875 L 44.59375 -116.46875 C 48.144531 -116.46875 50.664062 -116.078125 52.15625 -115.296875 C 53.65625 -114.523438 54.40625 -113.144531 54.40625 -111.15625 C 54.40625 -109.375 54.015625 -108.007812 53.234375 -107.0625 C 52.460938 -106.125 51.519531 -105.296875 50.40625 -104.578125 C 49.300781 -103.859375 48.164062 -102.882812 47 -101.65625 C 45.84375 -100.4375 44.875 -98.691406 44.09375 -96.421875 C 43.3125 -94.148438 42.921875 -90.960938 42.921875 -86.859375 L 42.921875 -74.546875 C 42.921875 -72.878906 43.0625 -71.601562 43.34375 -70.71875 C 43.625 -69.832031 44.507812 -69.164062 46 -68.71875 C 47.5 -68.269531 49.96875 -68.019531 53.40625 -67.96875 C 56.84375 -67.914062 61.671875 -67.890625 67.890625 -67.890625 C 73.984375 -67.890625 78.722656 -67.914062 82.109375 -67.96875 C 85.492188 -68.019531 87.90625 -68.269531 89.34375 -68.71875 C 90.789062 -69.164062 91.648438 -69.832031 91.921875 -70.71875 C 92.203125 -71.601562 92.34375 -72.878906 92.34375 -74.546875 L 92.34375 -86.859375 C 92.34375 -91.960938 91.785156 -95.707031 90.671875 -98.09375 C 89.566406 -100.476562 88.289062 -102.195312 86.84375 -103.25 C 85.40625 -104.300781 84.128906 -105.328125 83.015625 -106.328125 C 81.910156 -107.328125 81.359375 -108.9375 81.359375 -111.15625 C 81.359375 -113.144531 82.050781 -114.523438 83.4375 -115.296875 C 84.832031 -116.078125 87.359375 -116.46875 91.015625 -116.46875 L 121.625 -116.46875 C 125.175781 -116.46875 127.671875 -116.078125 129.109375 -115.296875 C 130.554688 -114.523438 131.28125 -113.144531 131.28125 -111.15625 C 131.28125 -109.375 130.890625 -108.007812 130.109375 -107.0625 C 129.335938 -106.125 128.394531 -105.296875 127.28125 -104.578125 C 126.175781 -103.859375 125.066406 -102.882812 123.953125 -101.65625 C 122.847656 -100.4375 121.90625 -98.691406 121.125 -96.421875 C 120.351562 -94.148438 119.96875 -90.960938 119.96875 -86.859375 Z M 119.96875 -86.859375 "/></g></g></g><g fill="#000000" fill-opacity="1"><g transform="translate(244.554288, 155.144276)"><g><path d="M 95.171875 -37.609375 C 97.171875 -37.160156 98.390625 -36.242188 98.828125 -34.859375 C 99.273438 -33.472656 99.441406 -31.503906 99.328125 -28.953125 C 99.222656 -24.066406 98.921875 -19.875 98.421875 -16.375 C 97.921875 -12.882812 97.335938 -9.921875 96.671875 -7.484375 C 95.898438 -4.828125 94.566406 -2.914062 92.671875 -1.75 C 90.785156 -0.582031 87.40625 0 82.53125 0 L 13.8125 0 C 10.257812 0 7.734375 -0.382812 6.234375 -1.15625 C 4.742188 -1.9375 4 -3.328125 4 -5.328125 C 4 -7.316406 4.46875 -8.8125 5.40625 -9.8125 C 6.351562 -10.8125 7.488281 -11.753906 8.8125 -12.640625 C 10.144531 -13.535156 11.394531 -14.726562 12.5625 -16.21875 C 13.726562 -17.71875 14.53125 -19.851562 14.96875 -22.625 C 15.195312 -23.84375 15.335938 -25.035156 15.390625 -26.203125 C 15.441406 -27.367188 15.46875 -28.953125 15.46875 -30.953125 L 15.46875 -85.53125 C 15.46875 -87.519531 15.441406 -89.125 15.390625 -90.34375 C 15.335938 -91.570312 15.195312 -92.738281 14.96875 -93.84375 C 14.53125 -96.726562 13.726562 -98.890625 12.5625 -100.328125 C 11.394531 -101.773438 10.144531 -102.941406 8.8125 -103.828125 C 7.488281 -104.710938 6.351562 -105.65625 5.40625 -106.65625 C 4.46875 -107.65625 4 -109.15625 4 -111.15625 C 4 -113.144531 4.742188 -114.523438 6.234375 -115.296875 C 7.734375 -116.078125 10.257812 -116.46875 13.8125 -116.46875 L 78.53125 -116.46875 C 83.414062 -116.46875 86.882812 -115.910156 88.9375 -114.796875 C 90.988281 -113.691406 92.398438 -112.195312 93.171875 -110.3125 C 95.390625 -105.65625 97.164062 -100 98.5 -93.34375 C 99.050781 -90.90625 99.132812 -88.910156 98.75 -87.359375 C 98.363281 -85.804688 97.394531 -84.75 95.84375 -84.1875 C 92.84375 -83.195312 90.015625 -84.695312 87.359375 -88.6875 C 83.921875 -93.894531 80.285156 -97.832031 76.453125 -100.5 C 72.628906 -103.164062 68.109375 -104.5 62.890625 -104.5 L 55.734375 -104.5 C 50.523438 -104.5 47.085938 -103.882812 45.421875 -102.65625 C 43.753906 -101.4375 42.921875 -99.5 42.921875 -96.84375 L 42.921875 -76.046875 C 42.921875 -72.710938 43.835938 -70.519531 45.671875 -69.46875 C 47.503906 -68.414062 50.195312 -67.890625 53.75 -67.890625 L 57.078125 -67.890625 C 59.734375 -67.890625 61.695312 -68.550781 62.96875 -69.875 C 64.25 -71.207031 65.222656 -72.707031 65.890625 -74.375 C 66.554688 -76.039062 67.304688 -77.535156 68.140625 -78.859375 C 68.972656 -80.191406 70.273438 -80.859375 72.046875 -80.859375 C 73.929688 -80.859375 75.289062 -80.21875 76.125 -78.9375 C 76.957031 -77.664062 77.375 -75.476562 77.375 -72.375 L 77.375 -50.921875 C 77.375 -45.484375 75.597656 -42.765625 72.046875 -42.765625 C 70.273438 -42.765625 68.972656 -43.425781 68.140625 -44.75 C 67.304688 -46.082031 66.554688 -47.609375 65.890625 -49.328125 C 65.222656 -51.046875 64.25 -52.570312 62.96875 -53.90625 C 61.695312 -55.238281 59.734375 -55.90625 57.078125 -55.90625 L 53.75 -55.90625 C 50.195312 -55.90625 47.503906 -55.40625 45.671875 -54.40625 C 43.835938 -53.40625 42.921875 -51.1875 42.921875 -47.75 L 42.921875 -19.640625 C 42.921875 -16.972656 43.804688 -15.03125 45.578125 -13.8125 C 47.359375 -12.59375 51.191406 -11.984375 57.078125 -11.984375 L 67.390625 -12.140625 C 70.828125 -12.140625 73.625 -12.890625 75.78125 -14.390625 C 77.945312 -15.890625 79.890625 -18.082031 81.609375 -20.96875 C 83.328125 -23.851562 85.1875 -27.289062 87.1875 -31.28125 C 88.632812 -34.164062 89.96875 -36.023438 91.1875 -36.859375 C 92.40625 -37.691406 93.734375 -37.941406 95.171875 -37.609375 Z M 95.171875 -37.609375 "/></g></g></g><g fill="#000000" fill-opacity="1"><g transform="translate(349.554965, 155.144276)"><g/></g></g><g fill="#000000" fill-opacity="1"><g transform="translate(0.453433, 294.644264)"><g><path d="M 80.703125 -70.046875 C 89.578125 -67.828125 96.285156 -63.914062 100.828125 -58.3125 C 105.378906 -52.71875 107.65625 -46.148438 107.65625 -38.609375 C 107.65625 -31.503906 105.738281 -25.007812 101.90625 -19.125 C 98.082031 -13.25 92.425781 -8.59375 84.9375 -5.15625 C 77.457031 -1.71875 68.171875 0 57.078125 0 L 13.8125 0 C 10.257812 0 7.734375 -0.382812 6.234375 -1.15625 C 4.742188 -1.9375 4 -3.328125 4 -5.328125 C 4 -7.316406 4.46875 -8.8125 5.40625 -9.8125 C 6.351562 -10.8125 7.488281 -11.753906 8.8125 -12.640625 C 10.144531 -13.535156 11.394531 -14.726562 12.5625 -16.21875 C 13.726562 -17.71875 14.53125 -19.851562 14.96875 -22.625 C 15.195312 -23.84375 15.335938 -25.035156 15.390625 -26.203125 C 15.441406 -27.367188 15.46875 -28.953125 15.46875 -30.953125 L 15.46875 -85.53125 C 15.46875 -87.519531 15.441406 -89.125 15.390625 -90.34375 C 15.335938 -91.570312 15.195312 -92.738281 14.96875 -93.84375 C 14.53125 -96.726562 13.726562 -98.890625 12.5625 -100.328125 C 11.394531 -101.773438 10.144531 -102.941406 8.8125 -103.828125 C 7.488281 -104.710938 6.351562 -105.65625 5.40625 -106.65625 C 4.46875 -107.65625 4 -109.15625 4 -111.15625 C 4 -113.144531 4.742188 -114.523438 6.234375 -115.296875 C 7.734375 -116.078125 10.257812 -116.46875 13.8125 -116.46875 L 51.25 -116.46875 C 59.457031 -116.46875 66.832031 -115.71875 73.375 -114.21875 C 79.925781 -112.726562 85.171875 -110.148438 89.109375 -106.484375 C 93.046875 -102.828125 95.066406 -97.78125 95.171875 -91.34375 C 95.285156 -86.46875 94.066406 -82.195312 91.515625 -78.53125 C 88.960938 -74.875 85.359375 -72.046875 80.703125 -70.046875 Z M 42.921875 -99.828125 L 42.921875 -78.203125 C 42.921875 -76.097656 43.863281 -74.929688 45.75 -74.703125 C 47.644531 -74.484375 49.421875 -74.375 51.078125 -74.375 C 56.628906 -74.375 60.898438 -75.453125 63.890625 -77.609375 C 66.890625 -79.773438 68.390625 -83.078125 68.390625 -87.515625 C 68.390625 -92.066406 66.640625 -96.035156 63.140625 -99.421875 C 59.648438 -102.804688 54.800781 -104.5 48.59375 -104.5 C 47.03125 -104.5 45.691406 -104.132812 44.578125 -103.40625 C 43.472656 -102.6875 42.921875 -101.492188 42.921875 -99.828125 Z M 56.734375 -11.984375 C 63.941406 -11.984375 69.265625 -13.753906 72.703125 -17.296875 C 76.148438 -20.847656 77.875 -26.175781 77.875 -33.28125 C 77.875 -38.382812 76.765625 -43.097656 74.546875 -47.421875 C 72.328125 -51.742188 69.050781 -55.207031 64.71875 -57.8125 C 60.394531 -60.425781 55.070312 -61.734375 48.75 -61.734375 C 46.644531 -61.734375 45.144531 -61.398438 44.25 -60.734375 C 43.363281 -60.066406 42.921875 -58.789062 42.921875 -56.90625 L 42.921875 -23.625 C 42.921875 -19.519531 43.78125 -16.550781 45.5 -14.71875 C 47.226562 -12.894531 50.972656 -11.984375 56.734375 -11.984375 Z M 56.734375 -11.984375 "/></g></g></g><g fill="#000000" fill-opacity="1"><g transform="translate(111.771409, 294.644264)"><g><path d="M 31.953125 -27.625 L 29.625 -21.96875 C 28.289062 -18.851562 27.757812 -16.492188 28.03125 -14.890625 C 28.3125 -13.285156 28.921875 -12.066406 29.859375 -11.234375 C 30.804688 -10.398438 31.722656 -9.566406 32.609375 -8.734375 C 33.492188 -7.898438 33.9375 -6.648438 33.9375 -4.984375 C 33.9375 -2.992188 33.132812 -1.691406 31.53125 -1.078125 C 29.925781 -0.472656 27.957031 -0.171875 25.625 -0.171875 L 9.984375 -0.171875 C 7.097656 -0.171875 4.796875 -0.5 3.078125 -1.15625 C 1.359375 -1.820312 0.5 -3.097656 0.5 -4.984375 C 0.5 -6.648438 1 -7.925781 2 -8.8125 C 3 -9.707031 4.273438 -10.625 5.828125 -11.5625 C 7.378906 -12.507812 8.957031 -13.757812 10.5625 -15.3125 C 12.175781 -16.863281 13.535156 -19.082031 14.640625 -21.96875 L 43.765625 -93.84375 C 44.867188 -96.726562 45.226562 -98.945312 44.84375 -100.5 C 44.457031 -102.050781 43.734375 -103.328125 42.671875 -104.328125 C 41.617188 -105.328125 40.617188 -106.351562 39.671875 -107.40625 C 38.734375 -108.457031 38.265625 -109.816406 38.265625 -111.484375 C 38.265625 -113.253906 38.789062 -114.523438 39.84375 -115.296875 C 40.90625 -116.078125 42.265625 -116.46875 43.921875 -116.46875 L 64.5625 -116.46875 C 67.882812 -116.46875 70.269531 -114.859375 71.71875 -111.640625 L 106.828125 -22.96875 C 108.265625 -19.519531 109.703125 -16.960938 111.140625 -15.296875 C 112.585938 -13.640625 113.921875 -12.394531 115.140625 -11.5625 C 116.359375 -10.726562 117.328125 -9.894531 118.046875 -9.0625 C 118.773438 -8.238281 119.140625 -6.992188 119.140625 -5.328125 C 119.140625 -3.328125 118.472656 -1.9375 117.140625 -1.15625 C 115.804688 -0.382812 113.421875 0 109.984375 0 L 79.53125 0 C 76.539062 0 74.347656 -0.382812 72.953125 -1.15625 C 71.566406 -1.9375 70.875 -3.328125 70.875 -5.328125 C 70.875 -7.097656 71.425781 -8.398438 72.53125 -9.234375 C 73.644531 -10.066406 74.8125 -10.925781 76.03125 -11.8125 C 77.257812 -12.695312 78.09375 -13.941406 78.53125 -15.546875 C 78.976562 -17.160156 78.535156 -19.632812 77.203125 -22.96875 L 75.703125 -26.78125 C 75.148438 -28.113281 74.597656 -29.140625 74.046875 -29.859375 C 73.492188 -30.585938 72.578125 -31.117188 71.296875 -31.453125 C 70.023438 -31.785156 68 -31.976562 65.21875 -32.03125 C 62.445312 -32.082031 58.566406 -32.109375 53.578125 -32.109375 C 48.585938 -32.109375 44.734375 -32.082031 42.015625 -32.03125 C 39.296875 -31.976562 37.296875 -31.8125 36.015625 -31.53125 C 34.742188 -31.25 33.859375 -30.800781 33.359375 -30.1875 C 32.859375 -29.582031 32.390625 -28.726562 31.953125 -27.625 Z M 53.75 -44.265625 C 58.738281 -44.265625 62.257812 -44.316406 64.3125 -44.421875 C 66.363281 -44.535156 67.472656 -44.925781 67.640625 -45.59375 C 67.804688 -46.257812 67.613281 -47.3125 67.0625 -48.75 L 53.90625 -82.703125 L 40.765625 -49.75 C 40.097656 -47.976562 39.816406 -46.703125 39.921875 -45.921875 C 40.035156 -45.148438 41.117188 -44.679688 43.171875 -44.515625 C 45.222656 -44.347656 48.75 -44.265625 53.75 -44.265625 Z M 53.75 -44.265625 "/></g></g></g><g fill="#000000" fill-opacity="1"><g transform="translate(233.405843, 294.644264)"><g><path d="M 65.0625 1.65625 C 53.851562 1.65625 43.835938 -0.671875 35.015625 -5.328125 C 26.203125 -9.984375 19.269531 -16.609375 14.21875 -25.203125 C 9.175781 -33.804688 6.65625 -44.097656 6.65625 -56.078125 C 6.65625 -64.617188 8.207031 -72.628906 11.3125 -80.109375 C 14.414062 -87.597656 18.769531 -94.195312 24.375 -99.90625 C 29.976562 -105.625 36.519531 -110.09375 44 -113.3125 C 51.488281 -116.53125 59.5625 -118.140625 68.21875 -118.140625 C 73.65625 -118.140625 77.984375 -117.609375 81.203125 -116.546875 C 84.421875 -115.492188 86.914062 -114.96875 88.6875 -114.96875 C 90.238281 -114.96875 91.429688 -115.21875 92.265625 -115.71875 C 93.097656 -116.21875 93.957031 -116.71875 94.84375 -117.21875 C 95.726562 -117.71875 96.894531 -117.96875 98.34375 -117.96875 C 99.894531 -117.96875 101.195312 -117.410156 102.25 -116.296875 C 103.300781 -115.191406 104.378906 -112.863281 105.484375 -109.3125 C 106.484375 -105.988281 107.453125 -102.410156 108.390625 -98.578125 C 109.335938 -94.753906 110.144531 -90.40625 110.8125 -85.53125 C 111.144531 -82.863281 111.035156 -80.835938 110.484375 -79.453125 C 109.929688 -78.066406 108.546875 -77.257812 106.328125 -77.03125 C 104.441406 -76.925781 102.941406 -77.535156 101.828125 -78.859375 C 100.722656 -80.191406 99.171875 -82.25 97.171875 -85.03125 C 93.066406 -90.90625 88.519531 -95.894531 83.53125 -100 C 78.539062 -104.101562 72.769531 -106.15625 66.21875 -106.15625 C 59.789062 -106.15625 54.21875 -104.546875 49.5 -101.328125 C 44.78125 -98.109375 41.144531 -93.671875 38.59375 -88.015625 C 36.050781 -82.359375 34.78125 -75.757812 34.78125 -68.21875 C 34.78125 -61.226562 35.640625 -54.570312 37.359375 -48.25 C 39.078125 -41.925781 41.625 -36.296875 45 -31.359375 C 48.382812 -26.421875 52.515625 -22.535156 57.390625 -19.703125 C 62.273438 -16.878906 67.9375 -15.46875 74.375 -15.46875 C 80.363281 -15.46875 85.910156 -16.71875 91.015625 -19.21875 C 96.117188 -21.71875 101.054688 -25.515625 105.828125 -30.609375 C 107.265625 -32.171875 108.648438 -32.785156 109.984375 -32.453125 C 111.316406 -32.117188 112.285156 -31.226562 112.890625 -29.78125 C 113.503906 -28.34375 113.367188 -26.679688 112.484375 -24.796875 C 110.035156 -19.472656 106.398438 -14.8125 101.578125 -10.8125 C 96.753906 -6.820312 91.207031 -3.742188 84.9375 -1.578125 C 78.675781 0.578125 72.050781 1.65625 65.0625 1.65625 Z M 65.0625 1.65625 "/></g></g></g><g fill="#000000" fill-opacity="1"><g transform="translate(351.046817, 294.644264)"><g><path d="M 95.84375 -95.171875 L 85.1875 -85.359375 L 112.8125 -25.453125 C 114.582031 -21.679688 116.351562 -18.878906 118.125 -17.046875 C 119.90625 -15.222656 121.515625 -13.835938 122.953125 -12.890625 C 124.398438 -11.953125 125.566406 -10.984375 126.453125 -9.984375 C 127.335938 -8.984375 127.78125 -7.429688 127.78125 -5.328125 C 127.78125 -3.328125 127.085938 -1.9375 125.703125 -1.15625 C 124.316406 -0.382812 121.847656 0 118.296875 0 L 89.1875 0 C 85.632812 0 83.109375 -0.382812 81.609375 -1.15625 C 80.117188 -1.9375 79.375 -3.328125 79.375 -5.328125 C 79.375 -6.992188 79.84375 -8.378906 80.78125 -9.484375 C 81.726562 -10.585938 82.695312 -11.722656 83.6875 -12.890625 C 84.6875 -14.054688 85.351562 -15.472656 85.6875 -17.140625 C 86.019531 -18.804688 85.578125 -20.96875 84.359375 -23.625 L 64.890625 -66.5625 L 42.921875 -46.09375 L 42.921875 -29.625 C 42.921875 -24.519531 43.472656 -20.773438 44.578125 -18.390625 C 45.691406 -16.003906 47 -14.28125 48.5 -13.21875 C 50 -12.164062 51.300781 -11.140625 52.40625 -10.140625 C 53.519531 -9.148438 54.078125 -7.546875 54.078125 -5.328125 C 54.078125 -3.328125 53.382812 -1.9375 52 -1.15625 C 50.613281 -0.382812 48.035156 0 44.265625 0 L 13.8125 0 C 10.257812 0 7.734375 -0.382812 6.234375 -1.15625 C 4.742188 -1.9375 4 -3.328125 4 -5.328125 C 4 -7.097656 4.382812 -8.453125 5.15625 -9.390625 C 5.9375 -10.335938 6.878906 -11.171875 7.984375 -11.890625 C 9.097656 -12.617188 10.234375 -13.59375 11.390625 -14.8125 C 12.554688 -16.03125 13.523438 -17.773438 14.296875 -20.046875 C 15.078125 -22.328125 15.46875 -25.519531 15.46875 -29.625 L 15.46875 -86.859375 C 15.46875 -91.960938 14.910156 -95.707031 13.796875 -98.09375 C 12.691406 -100.476562 11.390625 -102.195312 9.890625 -103.25 C 8.398438 -104.300781 7.097656 -105.328125 5.984375 -106.328125 C 4.878906 -107.328125 4.328125 -108.9375 4.328125 -111.15625 C 4.328125 -113.144531 5.019531 -114.523438 6.40625 -115.296875 C 7.789062 -116.078125 10.367188 -116.46875 14.140625 -116.46875 L 44.59375 -116.46875 C 48.144531 -116.46875 50.664062 -116.078125 52.15625 -115.296875 C 53.65625 -114.523438 54.40625 -113.144531 54.40625 -111.15625 C 54.40625 -109.375 54.015625 -108.007812 53.234375 -107.0625 C 52.460938 -106.125 51.519531 -105.296875 50.40625 -104.578125 C 49.300781 -103.859375 48.164062 -102.882812 47 -101.65625 C 45.84375 -100.4375 44.875 -98.691406 44.09375 -96.421875 C 43.3125 -94.148438 42.921875 -90.960938 42.921875 -86.859375 L 42.921875 -63.234375 L 75.875 -95.171875 C 78.3125 -97.503906 79.554688 -99.363281 79.609375 -100.75 C 79.671875 -102.132812 79.144531 -103.296875 78.03125 -104.234375 C 76.925781 -105.179688 75.789062 -106.179688 74.625 -107.234375 C 73.457031 -108.285156 72.875 -109.59375 72.875 -111.15625 C 72.875 -113.144531 73.484375 -114.523438 74.703125 -115.296875 C 75.929688 -116.078125 77.816406 -116.46875 80.359375 -116.46875 L 105.484375 -116.46875 C 108.816406 -116.46875 111.3125 -116.078125 112.96875 -115.296875 C 114.632812 -114.523438 115.46875 -113.144531 115.46875 -111.15625 C 115.46875 -109.15625 115.050781 -107.738281 114.21875 -106.90625 C 113.394531 -106.070312 112.125 -105.320312 110.40625 -104.65625 C 108.6875 -103.988281 106.632812 -102.988281 104.25 -101.65625 C 101.863281 -100.332031 99.0625 -98.171875 95.84375 -95.171875 Z M 95.84375 -95.171875 "/></g></g></g><g fill="#000000" fill-opacity="1"><g transform="translate(478.172264, 294.644264)"><g><path d="M 52.578125 1.5 C 46.472656 1.5 41.367188 0.914062 37.265625 -0.25 C 33.160156 -1.414062 30.054688 -2 27.953125 -2 C 26.179688 -2 24.796875 -1.691406 23.796875 -1.078125 C 22.796875 -0.472656 21.9375 0.128906 21.21875 0.734375 C 20.5 1.347656 19.523438 1.65625 18.296875 1.65625 C 16.859375 1.65625 15.554688 1.046875 14.390625 -0.171875 C 13.222656 -1.390625 12.363281 -3.773438 11.8125 -7.328125 C 11.039062 -11.984375 10.40625 -16.332031 9.90625 -20.375 C 9.40625 -24.425781 9.039062 -28.335938 8.8125 -32.109375 C 8.707031 -34.660156 8.957031 -36.65625 9.5625 -38.09375 C 10.175781 -39.539062 11.316406 -40.265625 12.984375 -40.265625 C 14.640625 -40.265625 15.9375 -39.679688 16.875 -38.515625 C 17.820312 -37.347656 19.1875 -35.328125 20.96875 -32.453125 C 22.632812 -29.671875 24.878906 -26.585938 27.703125 -23.203125 C 30.535156 -19.828125 34.171875 -16.914062 38.609375 -14.46875 C 43.046875 -12.03125 48.367188 -10.8125 54.578125 -10.8125 C 59.785156 -10.707031 63.5 -12.039062 65.71875 -14.8125 C 67.9375 -17.582031 69.101562 -20.578125 69.21875 -23.796875 C 69.21875 -27.234375 67.910156 -30.3125 65.296875 -33.03125 C 62.691406 -35.75 59.335938 -38.300781 55.234375 -40.6875 C 51.128906 -43.070312 46.804688 -45.425781 42.265625 -47.75 C 35.941406 -51.082031 30.394531 -54.21875 25.625 -57.15625 C 20.851562 -60.09375 17.109375 -63.585938 14.390625 -67.640625 C 11.671875 -71.691406 10.3125 -76.929688 10.3125 -83.359375 C 10.3125 -89.898438 12.195312 -95.773438 15.96875 -100.984375 C 19.738281 -106.203125 24.867188 -110.335938 31.359375 -113.390625 C 37.847656 -116.441406 45.085938 -117.96875 53.078125 -117.96875 C 57.296875 -117.96875 61.125 -117.550781 64.5625 -116.71875 C 68 -115.882812 70.601562 -115.46875 72.375 -115.46875 C 74.59375 -115.46875 76.171875 -115.882812 77.109375 -116.71875 C 78.054688 -117.550781 79.421875 -117.96875 81.203125 -117.96875 C 82.753906 -117.96875 84.082031 -117.410156 85.1875 -116.296875 C 86.300781 -115.191406 87.242188 -112.863281 88.015625 -109.3125 C 88.679688 -106.101562 89.289062 -102.75 89.84375 -99.25 C 90.40625 -95.757812 90.738281 -92.238281 90.84375 -88.6875 C 91.070312 -86.132812 90.796875 -84.109375 90.015625 -82.609375 C 89.242188 -81.109375 87.914062 -80.359375 86.03125 -80.359375 C 84.582031 -80.359375 83.273438 -80.992188 82.109375 -82.265625 C 80.941406 -83.546875 79.414062 -85.519531 77.53125 -88.1875 C 75.644531 -90.851562 73.425781 -93.597656 70.875 -96.421875 C 68.332031 -99.253906 65.421875 -101.613281 62.140625 -103.5 C 58.867188 -105.382812 55.238281 -106.328125 51.25 -106.328125 C 46.59375 -106.328125 43.015625 -105.132812 40.515625 -102.75 C 38.015625 -100.363281 36.765625 -97.285156 36.765625 -93.515625 C 36.765625 -88.742188 38.898438 -84.664062 43.171875 -81.28125 C 47.441406 -77.894531 54.070312 -73.875 63.0625 -69.21875 C 69.71875 -65.894531 75.625 -62.707031 80.78125 -59.65625 C 85.9375 -56.601562 89.984375 -53.132812 92.921875 -49.25 C 95.867188 -45.363281 97.34375 -40.375 97.34375 -34.28125 C 97.34375 -28.625 96.117188 -23.578125 93.671875 -19.140625 C 91.234375 -14.703125 87.878906 -10.957031 83.609375 -7.90625 C 79.335938 -4.851562 74.507812 -2.519531 69.125 -0.90625 C 63.75 0.695312 58.234375 1.5 52.578125 1.5 Z M 52.578125 1.5 "/></g></g></g><g fill="#000000" fill-opacity="1"><g transform="translate(583.500013, 294.644264)"><g><path d="M 68.21875 -96.671875 L 68.21875 -29.625 C 68.21875 -24.519531 68.769531 -20.773438 69.875 -18.390625 C 70.988281 -16.003906 72.296875 -14.28125 73.796875 -13.21875 C 75.296875 -12.164062 76.597656 -11.140625 77.703125 -10.140625 C 78.816406 -9.148438 79.375 -7.546875 79.375 -5.328125 C 79.375 -3.328125 78.675781 -1.9375 77.28125 -1.15625 C 75.894531 -0.382812 73.316406 0 69.546875 0 L 39.109375 0 C 35.554688 0 33.03125 -0.382812 31.53125 -1.15625 C 30.03125 -1.9375 29.28125 -3.328125 29.28125 -5.328125 C 29.28125 -7.097656 29.664062 -8.453125 30.4375 -9.390625 C 31.21875 -10.335938 32.191406 -11.171875 33.359375 -11.890625 C 34.523438 -12.617188 35.660156 -13.59375 36.765625 -14.8125 C 37.878906 -16.03125 38.820312 -17.773438 39.59375 -20.046875 C 40.375 -22.328125 40.765625 -25.519531 40.765625 -29.625 L 40.765625 -96.671875 C 40.765625 -101.222656 38.488281 -103.5 33.9375 -103.5 C 30.613281 -103.5 27.867188 -102.832031 25.703125 -101.5 C 23.546875 -100.164062 21.632812 -98.140625 19.96875 -95.421875 C 18.300781 -92.703125 16.414062 -89.347656 14.3125 -85.359375 C 13.425781 -83.472656 12.484375 -82.003906 11.484375 -80.953125 C 10.484375 -79.898438 9.316406 -79.375 7.984375 -79.375 C 6.210938 -79.375 4.992188 -80.09375 4.328125 -81.53125 C 3.660156 -82.96875 3.382812 -84.960938 3.5 -87.515625 C 3.71875 -92.398438 4.046875 -96.585938 4.484375 -100.078125 C 4.929688 -103.578125 5.488281 -106.546875 6.15625 -108.984375 C 6.9375 -111.648438 8.269531 -113.5625 10.15625 -114.71875 C 12.039062 -115.882812 15.421875 -116.46875 20.296875 -116.46875 L 88.515625 -116.46875 C 93.503906 -116.46875 96.941406 -115.882812 98.828125 -114.71875 C 100.722656 -113.5625 102 -111.648438 102.65625 -108.984375 C 103.320312 -106.546875 103.90625 -103.578125 104.40625 -100.078125 C 104.90625 -96.585938 105.210938 -92.398438 105.328125 -87.515625 C 105.429688 -85.078125 105.175781 -83.109375 104.5625 -81.609375 C 103.957031 -80.117188 102.710938 -79.375 100.828125 -79.375 C 99.503906 -79.375 98.367188 -79.898438 97.421875 -80.953125 C 96.472656 -82.003906 95.503906 -83.472656 94.515625 -85.359375 C 91.515625 -91.347656 88.738281 -95.894531 86.1875 -99 C 83.632812 -102.101562 79.863281 -103.65625 74.875 -103.65625 C 70.4375 -103.65625 68.21875 -101.328125 68.21875 -96.671875 Z M 68.21875 -96.671875 "/></g></g></g><g fill="#000000" fill-opacity="1"><g transform="translate(692.322102, 294.644264)"><g><path d="M 31.953125 -27.625 L 29.625 -21.96875 C 28.289062 -18.851562 27.757812 -16.492188 28.03125 -14.890625 C 28.3125 -13.285156 28.921875 -12.066406 29.859375 -11.234375 C 30.804688 -10.398438 31.722656 -9.566406 32.609375 -8.734375 C 33.492188 -7.898438 33.9375 -6.648438 33.9375 -4.984375 C 33.9375 -2.992188 33.132812 -1.691406 31.53125 -1.078125 C 29.925781 -0.472656 27.957031 -0.171875 25.625 -0.171875 L 9.984375 -0.171875 C 7.097656 -0.171875 4.796875 -0.5 3.078125 -1.15625 C 1.359375 -1.820312 0.5 -3.097656 0.5 -4.984375 C 0.5 -6.648438 1 -7.925781 2 -8.8125 C 3 -9.707031 4.273438 -10.625 5.828125 -11.5625 C 7.378906 -12.507812 8.957031 -13.757812 10.5625 -15.3125 C 12.175781 -16.863281 13.535156 -19.082031 14.640625 -21.96875 L 43.765625 -93.84375 C 44.867188 -96.726562 45.226562 -98.945312 44.84375 -100.5 C 44.457031 -102.050781 43.734375 -103.328125 42.671875 -104.328125 C 41.617188 -105.328125 40.617188 -106.351562 39.671875 -107.40625 C 38.734375 -108.457031 38.265625 -109.816406 38.265625 -111.484375 C 38.265625 -113.253906 38.789062 -114.523438 39.84375 -115.296875 C 40.90625 -116.078125 42.265625 -116.46875 43.921875 -116.46875 L 64.5625 -116.46875 C 67.882812 -116.46875 70.269531 -114.859375 71.71875 -111.640625 L 106.828125 -22.96875 C 108.265625 -19.519531 109.703125 -16.960938 111.140625 -15.296875 C 112.585938 -13.640625 113.921875 -12.394531 115.140625 -11.5625 C 116.359375 -10.726562 117.328125 -9.894531 118.046875 -9.0625 C 118.773438 -8.238281 119.140625 -6.992188 119.140625 -5.328125 C 119.140625 -3.328125 118.472656 -1.9375 117.140625 -1.15625 C 115.804688 -0.382812 113.421875 0 109.984375 0 L 79.53125 0 C 76.539062 0 74.347656 -0.382812 72.953125 -1.15625 C 71.566406 -1.9375 70.875 -3.328125 70.875 -5.328125 C 70.875 -7.097656 71.425781 -8.398438 72.53125 -9.234375 C 73.644531 -10.066406 74.8125 -10.925781 76.03125 -11.8125 C 77.257812 -12.695312 78.09375 -13.941406 78.53125 -15.546875 C 78.976562 -17.160156 78.535156 -19.632812 77.203125 -22.96875 L 75.703125 -26.78125 C 75.148438 -28.113281 74.597656 -29.140625 74.046875 -29.859375 C 73.492188 -30.585938 72.578125 -31.117188 71.296875 -31.453125 C 70.023438 -31.785156 68 -31.976562 65.21875 -32.03125 C 62.445312 -32.082031 58.566406 -32.109375 53.578125 -32.109375 C 48.585938 -32.109375 44.734375 -32.082031 42.015625 -32.03125 C 39.296875 -31.976562 37.296875 -31.8125 36.015625 -31.53125 C 34.742188 -31.25 33.859375 -30.800781 33.359375 -30.1875 C 32.859375 -29.582031 32.390625 -28.726562 31.953125 -27.625 Z M 53.75 -44.265625 C 58.738281 -44.265625 62.257812 -44.316406 64.3125 -44.421875 C 66.363281 -44.535156 67.472656 -44.925781 67.640625 -45.59375 C 67.804688 -46.257812 67.613281 -47.3125 67.0625 -48.75 L 53.90625 -82.703125 L 40.765625 -49.75 C 40.097656 -47.976562 39.816406 -46.703125 39.921875 -45.921875 C 40.035156 -45.148438 41.117188 -44.679688 43.171875 -44.515625 C 45.222656 -44.347656 48.75 -44.265625 53.75 -44.265625 Z M 53.75 -44.265625 "/></g></g></g><g fill="#000000" fill-opacity="1"><g transform="translate(813.956536, 294.644264)"><g><path d="M 65.5625 1.65625 C 54.019531 1.65625 43.8125 -0.722656 34.9375 -5.484375 C 26.0625 -10.253906 19.128906 -16.96875 14.140625 -25.625 C 9.148438 -34.28125 6.65625 -44.429688 6.65625 -56.078125 C 6.65625 -64.617188 8.148438 -72.628906 11.140625 -80.109375 C 14.140625 -87.597656 18.300781 -94.195312 23.625 -99.90625 C 28.945312 -105.625 35.210938 -110.09375 42.421875 -113.3125 C 49.640625 -116.53125 57.460938 -118.140625 65.890625 -118.140625 C 72.660156 -118.140625 77.929688 -117.640625 81.703125 -116.640625 C 85.472656 -115.640625 88.242188 -115.140625 90.015625 -115.140625 C 91.460938 -115.140625 92.628906 -115.390625 93.515625 -115.890625 C 94.398438 -116.390625 95.285156 -116.859375 96.171875 -117.296875 C 97.054688 -117.742188 98.222656 -117.96875 99.671875 -117.96875 C 101.222656 -117.96875 102.609375 -117.410156 103.828125 -116.296875 C 105.046875 -115.191406 106.046875 -112.863281 106.828125 -109.3125 C 107.492188 -106.101562 108.15625 -102.582031 108.8125 -98.75 C 109.476562 -94.925781 110.144531 -90.460938 110.8125 -85.359375 C 111.144531 -82.804688 110.953125 -80.835938 110.234375 -79.453125 C 109.515625 -78.066406 108.046875 -77.257812 105.828125 -77.03125 C 103.941406 -76.925781 102.359375 -77.535156 101.078125 -78.859375 C 99.804688 -80.191406 98.226562 -82.25 96.34375 -85.03125 C 93.789062 -88.6875 91.097656 -92.125 88.265625 -95.34375 C 85.441406 -98.5625 82.171875 -101.164062 78.453125 -103.15625 C 74.734375 -105.15625 70.15625 -106.15625 64.71875 -106.15625 C 58.175781 -106.15625 52.6875 -104.460938 48.25 -101.078125 C 43.8125 -97.691406 40.457031 -93.144531 38.1875 -87.4375 C 35.914062 -81.726562 34.78125 -75.265625 34.78125 -68.046875 C 34.78125 -57.285156 36.21875 -47.660156 39.09375 -39.171875 C 41.976562 -30.691406 46.191406 -24.039062 51.734375 -19.21875 C 57.285156 -14.394531 64 -11.984375 71.875 -11.984375 C 74.09375 -11.984375 76.503906 -12.34375 79.109375 -13.0625 C 81.722656 -13.78125 83.941406 -14.941406 85.765625 -16.546875 C 87.597656 -18.160156 88.515625 -20.242188 88.515625 -22.796875 L 88.515625 -33.4375 C 88.515625 -36.769531 87.957031 -39.320312 86.84375 -41.09375 C 85.738281 -42.875 84.351562 -44.207031 82.6875 -45.09375 C 81.03125 -45.976562 79.394531 -46.695312 77.78125 -47.25 C 76.175781 -47.8125 74.789062 -48.503906 73.625 -49.328125 C 72.457031 -50.160156 71.875 -51.410156 71.875 -53.078125 C 71.875 -55.078125 72.566406 -56.460938 73.953125 -57.234375 C 75.347656 -58.015625 77.875 -58.457031 81.53125 -58.5625 L 114.140625 -58.90625 C 117.023438 -58.90625 119.160156 -58.515625 120.546875 -57.734375 C 121.929688 -56.960938 122.625 -55.578125 122.625 -53.578125 C 122.625 -51.910156 122.316406 -50.601562 121.703125 -49.65625 C 121.097656 -48.71875 120.351562 -47.75 119.46875 -46.75 C 118.582031 -45.757812 117.804688 -44.289062 117.140625 -42.34375 C 116.472656 -40.40625 116.140625 -37.550781 116.140625 -33.78125 L 116.140625 -24.125 C 116.140625 -20.019531 113.972656 -16 109.640625 -12.0625 C 105.316406 -8.125 99.351562 -4.851562 91.75 -2.25 C 84.15625 0.351562 75.425781 1.65625 65.5625 1.65625 Z M 65.5625 1.65625 "/></g></g></g><g fill="#000000" fill-opacity="1"><g transform="translate(944.576277, 294.644264)"><g><path d="M 95.171875 -37.609375 C 97.171875 -37.160156 98.390625 -36.242188 98.828125 -34.859375 C 99.273438 -33.472656 99.441406 -31.503906 99.328125 -28.953125 C 99.222656 -24.066406 98.921875 -19.875 98.421875 -16.375 C 97.921875 -12.882812 97.335938 -9.921875 96.671875 -7.484375 C 95.898438 -4.828125 94.566406 -2.914062 92.671875 -1.75 C 90.785156 -0.582031 87.40625 0 82.53125 0 L 13.8125 0 C 10.257812 0 7.734375 -0.382812 6.234375 -1.15625 C 4.742188 -1.9375 4 -3.328125 4 -5.328125 C 4 -7.316406 4.46875 -8.8125 5.40625 -9.8125 C 6.351562 -10.8125 7.488281 -11.753906 8.8125 -12.640625 C 10.144531 -13.535156 11.394531 -14.726562 12.5625 -16.21875 C 13.726562 -17.71875 14.53125 -19.851562 14.96875 -22.625 C 15.195312 -23.84375 15.335938 -25.035156 15.390625 -26.203125 C 15.441406 -27.367188 15.46875 -28.953125 15.46875 -30.953125 L 15.46875 -85.53125 C 15.46875 -87.519531 15.441406 -89.125 15.390625 -90.34375 C 15.335938 -91.570312 15.195312 -92.738281 14.96875 -93.84375 C 14.53125 -96.726562 13.726562 -98.890625 12.5625 -100.328125 C 11.394531 -101.773438 10.144531 -102.941406 8.8125 -103.828125 C 7.488281 -104.710938 6.351562 -105.65625 5.40625 -106.65625 C 4.46875 -107.65625 4 -109.15625 4 -111.15625 C 4 -113.144531 4.742188 -114.523438 6.234375 -115.296875 C 7.734375 -116.078125 10.257812 -116.46875 13.8125 -116.46875 L 78.53125 -116.46875 C 83.414062 -116.46875 86.882812 -115.910156 88.9375 -114.796875 C 90.988281 -113.691406 92.398438 -112.195312 93.171875 -110.3125 C 95.390625 -105.65625 97.164062 -100 98.5 -93.34375 C 99.050781 -90.90625 99.132812 -88.910156 98.75 -87.359375 C 98.363281 -85.804688 97.394531 -84.75 95.84375 -84.1875 C 92.84375 -83.195312 90.015625 -84.695312 87.359375 -88.6875 C 83.921875 -93.894531 80.285156 -97.832031 76.453125 -100.5 C 72.628906 -103.164062 68.109375 -104.5 62.890625 -104.5 L 55.734375 -104.5 C 50.523438 -104.5 47.085938 -103.882812 45.421875 -102.65625 C 43.753906 -101.4375 42.921875 -99.5 42.921875 -96.84375 L 42.921875 -76.046875 C 42.921875 -72.710938 43.835938 -70.519531 45.671875 -69.46875 C 47.503906 -68.414062 50.195312 -67.890625 53.75 -67.890625 L 57.078125 -67.890625 C 59.734375 -67.890625 61.695312 -68.550781 62.96875 -69.875 C 64.25 -71.207031 65.222656 -72.707031 65.890625 -74.375 C 66.554688 -76.039062 67.304688 -77.535156 68.140625 -78.859375 C 68.972656 -80.191406 70.273438 -80.859375 72.046875 -80.859375 C 73.929688 -80.859375 75.289062 -80.21875 76.125 -78.9375 C 76.957031 -77.664062 77.375 -75.476562 77.375 -72.375 L 77.375 -50.921875 C 77.375 -45.484375 75.597656 -42.765625 72.046875 -42.765625 C 70.273438 -42.765625 68.972656 -43.425781 68.140625 -44.75 C 67.304688 -46.082031 66.554688 -47.609375 65.890625 -49.328125 C 65.222656 -51.046875 64.25 -52.570312 62.96875 -53.90625 C 61.695312 -55.238281 59.734375 -55.90625 57.078125 -55.90625 L 53.75 -55.90625 C 50.195312 -55.90625 47.503906 -55.40625 45.671875 -54.40625 C 43.835938 -53.40625 42.921875 -51.1875 42.921875 -47.75 L 42.921875 -19.640625 C 42.921875 -16.972656 43.804688 -15.03125 45.578125 -13.8125 C 47.359375 -12.59375 51.191406 -11.984375 57.078125 -11.984375 L 67.390625 -12.140625 C 70.828125 -12.140625 73.625 -12.890625 75.78125 -14.390625 C 77.945312 -15.890625 79.890625 -18.082031 81.609375 -20.96875 C 83.328125 -23.851562 85.1875 -27.289062 87.1875 -31.28125 C 88.632812 -34.164062 89.96875 -36.023438 91.1875 -36.859375 C 92.40625 -37.691406 93.734375 -37.941406 95.171875 -37.609375 Z M 95.171875 -37.609375 "/></g></g></g><g fill="#000000" fill-opacity="1"><g transform="translate(0.453433, 434.144252)"><g><path d="M 13.8125 -116.46875 L 52.40625 -116.46875 C 64.164062 -116.46875 74.207031 -114.632812 82.53125 -110.96875 C 90.851562 -107.3125 97.257812 -102.15625 101.75 -95.5 C 106.238281 -88.851562 108.484375 -80.976562 108.484375 -71.875 C 108.484375 -59.226562 104.101562 -49.851562 95.34375 -43.75 C 86.582031 -37.65625 73.878906 -34.609375 57.234375 -34.609375 L 46.25 -34.609375 C 45.144531 -34.609375 44.3125 -34.441406 43.75 -34.109375 C 43.195312 -33.773438 42.921875 -32.832031 42.921875 -31.28125 L 42.921875 -29.625 C 42.921875 -24.519531 43.472656 -20.773438 44.578125 -18.390625 C 45.691406 -16.003906 47 -14.28125 48.5 -13.21875 C 50 -12.164062 51.300781 -11.140625 52.40625 -10.140625 C 53.519531 -9.148438 54.078125 -7.546875 54.078125 -5.328125 C 54.078125 -3.328125 53.382812 -1.9375 52 -1.15625 C 50.613281 -0.382812 48.035156 0 44.265625 0 L 13.8125 0 C 10.257812 0 7.734375 -0.382812 6.234375 -1.15625 C 4.742188 -1.9375 4 -3.328125 4 -5.328125 C 4 -7.097656 4.382812 -8.453125 5.15625 -9.390625 C 5.9375 -10.335938 6.878906 -11.171875 7.984375 -11.890625 C 9.097656 -12.617188 10.234375 -13.59375 11.390625 -14.8125 C 12.554688 -16.03125 13.523438 -17.773438 14.296875 -20.046875 C 15.078125 -22.328125 15.46875 -25.519531 15.46875 -29.625 L 15.46875 -85.53125 C 15.46875 -87.519531 15.441406 -89.125 15.390625 -90.34375 C 15.335938 -91.570312 15.195312 -92.738281 14.96875 -93.84375 C 14.53125 -96.726562 13.726562 -98.890625 12.5625 -100.328125 C 11.394531 -101.773438 10.144531 -102.941406 8.8125 -103.828125 C 7.488281 -104.710938 6.351562 -105.65625 5.40625 -106.65625 C 4.46875 -107.65625 4 -109.15625 4 -111.15625 C 4 -113.144531 4.742188 -114.523438 6.234375 -115.296875 C 7.734375 -116.078125 10.257812 -116.46875 13.8125 -116.46875 Z M 55.734375 -46.09375 C 63.722656 -46.09375 69.90625 -48.195312 74.28125 -52.40625 C 78.664062 -56.625 80.859375 -62.335938 80.859375 -69.546875 C 80.859375 -77.421875 79.441406 -83.992188 76.609375 -89.265625 C 73.785156 -94.535156 70.179688 -98.53125 65.796875 -101.25 C 61.421875 -103.96875 56.847656 -105.328125 52.078125 -105.328125 C 47.859375 -105.328125 45.273438 -105.019531 44.328125 -104.40625 C 43.390625 -103.800781 42.921875 -102.609375 42.921875 -100.828125 L 42.921875 -51.75 C 42.921875 -49.644531 43.863281 -48.175781 45.75 -47.34375 C 47.644531 -46.507812 50.972656 -46.09375 55.734375 -46.09375 Z M 55.734375 -46.09375 "/></g></g></g><g fill="#000000" fill-opacity="1"><g transform="translate(111.438614, 434.144252)"><g><path d="M 31.953125 -27.625 L 29.625 -21.96875 C 28.289062 -18.851562 27.757812 -16.492188 28.03125 -14.890625 C 28.3125 -13.285156 28.921875 -12.066406 29.859375 -11.234375 C 30.804688 -10.398438 31.722656 -9.566406 32.609375 -8.734375 C 33.492188 -7.898438 33.9375 -6.648438 33.9375 -4.984375 C 33.9375 -2.992188 33.132812 -1.691406 31.53125 -1.078125 C 29.925781 -0.472656 27.957031 -0.171875 25.625 -0.171875 L 9.984375 -0.171875 C 7.097656 -0.171875 4.796875 -0.5 3.078125 -1.15625 C 1.359375 -1.820312 0.5 -3.097656 0.5 -4.984375 C 0.5 -6.648438 1 -7.925781 2 -8.8125 C 3 -9.707031 4.273438 -10.625 5.828125 -11.5625 C 7.378906 -12.507812 8.957031 -13.757812 10.5625 -15.3125 C 12.175781 -16.863281 13.535156 -19.082031 14.640625 -21.96875 L 43.765625 -93.84375 C 44.867188 -96.726562 45.226562 -98.945312 44.84375 -100.5 C 44.457031 -102.050781 43.734375 -103.328125 42.671875 -104.328125 C 41.617188 -105.328125 40.617188 -106.351562 39.671875 -107.40625 C 38.734375 -108.457031 38.265625 -109.816406 38.265625 -111.484375 C 38.265625 -113.253906 38.789062 -114.523438 39.84375 -115.296875 C 40.90625 -116.078125 42.265625 -116.46875 43.921875 -116.46875 L 64.5625 -116.46875 C 67.882812 -116.46875 70.269531 -114.859375 71.71875 -111.640625 L 106.828125 -22.96875 C 108.265625 -19.519531 109.703125 -16.960938 111.140625 -15.296875 C 112.585938 -13.640625 113.921875 -12.394531 115.140625 -11.5625 C 116.359375 -10.726562 117.328125 -9.894531 118.046875 -9.0625 C 118.773438 -8.238281 119.140625 -6.992188 119.140625 -5.328125 C 119.140625 -3.328125 118.472656 -1.9375 117.140625 -1.15625 C 115.804688 -0.382812 113.421875 0 109.984375 0 L 79.53125 0 C 76.539062 0 74.347656 -0.382812 72.953125 -1.15625 C 71.566406 -1.9375 70.875 -3.328125 70.875 -5.328125 C 70.875 -7.097656 71.425781 -8.398438 72.53125 -9.234375 C 73.644531 -10.066406 74.8125 -10.925781 76.03125 -11.8125 C 77.257812 -12.695312 78.09375 -13.941406 78.53125 -15.546875 C 78.976562 -17.160156 78.535156 -19.632812 77.203125 -22.96875 L 75.703125 -26.78125 C 75.148438 -28.113281 74.597656 -29.140625 74.046875 -29.859375 C 73.492188 -30.585938 72.578125 -31.117188 71.296875 -31.453125 C 70.023438 -31.785156 68 -31.976562 65.21875 -32.03125 C 62.445312 -32.082031 58.566406 -32.109375 53.578125 -32.109375 C 48.585938 -32.109375 44.734375 -32.082031 42.015625 -32.03125 C 39.296875 -31.976562 37.296875 -31.8125 36.015625 -31.53125 C 34.742188 -31.25 33.859375 -30.800781 33.359375 -30.1875 C 32.859375 -29.582031 32.390625 -28.726562 31.953125 -27.625 Z M 53.75 -44.265625 C 58.738281 -44.265625 62.257812 -44.316406 64.3125 -44.421875 C 66.363281 -44.535156 67.472656 -44.925781 67.640625 -45.59375 C 67.804688 -46.257812 67.613281 -47.3125 67.0625 -48.75 L 53.90625 -82.703125 L 40.765625 -49.75 C 40.097656 -47.976562 39.816406 -46.703125 39.921875 -45.921875 C 40.035156 -45.148438 41.117188 -44.679688 43.171875 -44.515625 C 45.222656 -44.347656 48.75 -44.265625 53.75 -44.265625 Z M 53.75 -44.265625 "/></g></g></g><g fill="#000000" fill-opacity="1"><g transform="translate(233.073049, 434.144252)"><g><path d="M 52.578125 1.5 C 46.472656 1.5 41.367188 0.914062 37.265625 -0.25 C 33.160156 -1.414062 30.054688 -2 27.953125 -2 C 26.179688 -2 24.796875 -1.691406 23.796875 -1.078125 C 22.796875 -0.472656 21.9375 0.128906 21.21875 0.734375 C 20.5 1.347656 19.523438 1.65625 18.296875 1.65625 C 16.859375 1.65625 15.554688 1.046875 14.390625 -0.171875 C 13.222656 -1.390625 12.363281 -3.773438 11.8125 -7.328125 C 11.039062 -11.984375 10.40625 -16.332031 9.90625 -20.375 C 9.40625 -24.425781 9.039062 -28.335938 8.8125 -32.109375 C 8.707031 -34.660156 8.957031 -36.65625 9.5625 -38.09375 C 10.175781 -39.539062 11.316406 -40.265625 12.984375 -40.265625 C 14.640625 -40.265625 15.9375 -39.679688 16.875 -38.515625 C 17.820312 -37.347656 19.1875 -35.328125 20.96875 -32.453125 C 22.632812 -29.671875 24.878906 -26.585938 27.703125 -23.203125 C 30.535156 -19.828125 34.171875 -16.914062 38.609375 -14.46875 C 43.046875 -12.03125 48.367188 -10.8125 54.578125 -10.8125 C 59.785156 -10.707031 63.5 -12.039062 65.71875 -14.8125 C 67.9375 -17.582031 69.101562 -20.578125 69.21875 -23.796875 C 69.21875 -27.234375 67.910156 -30.3125 65.296875 -33.03125 C 62.691406 -35.75 59.335938 -38.300781 55.234375 -40.6875 C 51.128906 -43.070312 46.804688 -45.425781 42.265625 -47.75 C 35.941406 -51.082031 30.394531 -54.21875 25.625 -57.15625 C 20.851562 -60.09375 17.109375 -63.585938 14.390625 -67.640625 C 11.671875 -71.691406 10.3125 -76.929688 10.3125 -83.359375 C 10.3125 -89.898438 12.195312 -95.773438 15.96875 -100.984375 C 19.738281 -106.203125 24.867188 -110.335938 31.359375 -113.390625 C 37.847656 -116.441406 45.085938 -117.96875 53.078125 -117.96875 C 57.296875 -117.96875 61.125 -117.550781 64.5625 -116.71875 C 68 -115.882812 70.601562 -115.46875 72.375 -115.46875 C 74.59375 -115.46875 76.171875 -115.882812 77.109375 -116.71875 C 78.054688 -117.550781 79.421875 -117.96875 81.203125 -117.96875 C 82.753906 -117.96875 84.082031 -117.410156 85.1875 -116.296875 C 86.300781 -115.191406 87.242188 -112.863281 88.015625 -109.3125 C 88.679688 -106.101562 89.289062 -102.75 89.84375 -99.25 C 90.40625 -95.757812 90.738281 -92.238281 90.84375 -88.6875 C 91.070312 -86.132812 90.796875 -84.109375 90.015625 -82.609375 C 89.242188 -81.109375 87.914062 -80.359375 86.03125 -80.359375 C 84.582031 -80.359375 83.273438 -80.992188 82.109375 -82.265625 C 80.941406 -83.546875 79.414062 -85.519531 77.53125 -88.1875 C 75.644531 -90.851562 73.425781 -93.597656 70.875 -96.421875 C 68.332031 -99.253906 65.421875 -101.613281 62.140625 -103.5 C 58.867188 -105.382812 55.238281 -106.328125 51.25 -106.328125 C 46.59375 -106.328125 43.015625 -105.132812 40.515625 -102.75 C 38.015625 -100.363281 36.765625 -97.285156 36.765625 -93.515625 C 36.765625 -88.742188 38.898438 -84.664062 43.171875 -81.28125 C 47.441406 -77.894531 54.070312 -73.875 63.0625 -69.21875 C 69.71875 -65.894531 75.625 -62.707031 80.78125 -59.65625 C 85.9375 -56.601562 89.984375 -53.132812 92.921875 -49.25 C 95.867188 -45.363281 97.34375 -40.375 97.34375 -34.28125 C 97.34375 -28.625 96.117188 -23.578125 93.671875 -19.140625 C 91.234375 -14.703125 87.878906 -10.957031 83.609375 -7.90625 C 79.335938 -4.851562 74.507812 -2.519531 69.125 -0.90625 C 63.75 0.695312 58.234375 1.5 52.578125 1.5 Z M 52.578125 1.5 "/></g></g></g><g fill="#000000" fill-opacity="1"><g transform="translate(338.400821, 434.144252)"><g><path d="M 52.578125 1.5 C 46.472656 1.5 41.367188 0.914062 37.265625 -0.25 C 33.160156 -1.414062 30.054688 -2 27.953125 -2 C 26.179688 -2 24.796875 -1.691406 23.796875 -1.078125 C 22.796875 -0.472656 21.9375 0.128906 21.21875 0.734375 C 20.5 1.347656 19.523438 1.65625 18.296875 1.65625 C 16.859375 1.65625 15.554688 1.046875 14.390625 -0.171875 C 13.222656 -1.390625 12.363281 -3.773438 11.8125 -7.328125 C 11.039062 -11.984375 10.40625 -16.332031 9.90625 -20.375 C 9.40625 -24.425781 9.039062 -28.335938 8.8125 -32.109375 C 8.707031 -34.660156 8.957031 -36.65625 9.5625 -38.09375 C 10.175781 -39.539062 11.316406 -40.265625 12.984375 -40.265625 C 14.640625 -40.265625 15.9375 -39.679688 16.875 -38.515625 C 17.820312 -37.347656 19.1875 -35.328125 20.96875 -32.453125 C 22.632812 -29.671875 24.878906 -26.585938 27.703125 -23.203125 C 30.535156 -19.828125 34.171875 -16.914062 38.609375 -14.46875 C 43.046875 -12.03125 48.367188 -10.8125 54.578125 -10.8125 C 59.785156 -10.707031 63.5 -12.039062 65.71875 -14.8125 C 67.9375 -17.582031 69.101562 -20.578125 69.21875 -23.796875 C 69.21875 -27.234375 67.910156 -30.3125 65.296875 -33.03125 C 62.691406 -35.75 59.335938 -38.300781 55.234375 -40.6875 C 51.128906 -43.070312 46.804688 -45.425781 42.265625 -47.75 C 35.941406 -51.082031 30.394531 -54.21875 25.625 -57.15625 C 20.851562 -60.09375 17.109375 -63.585938 14.390625 -67.640625 C 11.671875 -71.691406 10.3125 -76.929688 10.3125 -83.359375 C 10.3125 -89.898438 12.195312 -95.773438 15.96875 -100.984375 C 19.738281 -106.203125 24.867188 -110.335938 31.359375 -113.390625 C 37.847656 -116.441406 45.085938 -117.96875 53.078125 -117.96875 C 57.296875 -117.96875 61.125 -117.550781 64.5625 -116.71875 C 68 -115.882812 70.601562 -115.46875 72.375 -115.46875 C 74.59375 -115.46875 76.171875 -115.882812 77.109375 -116.71875 C 78.054688 -117.550781 79.421875 -117.96875 81.203125 -117.96875 C 82.753906 -117.96875 84.082031 -117.410156 85.1875 -116.296875 C 86.300781 -115.191406 87.242188 -112.863281 88.015625 -109.3125 C 88.679688 -106.101562 89.289062 -102.75 89.84375 -99.25 C 90.40625 -95.757812 90.738281 -92.238281 90.84375 -88.6875 C 91.070312 -86.132812 90.796875 -84.109375 90.015625 -82.609375 C 89.242188 -81.109375 87.914062 -80.359375 86.03125 -80.359375 C 84.582031 -80.359375 83.273438 -80.992188 82.109375 -82.265625 C 80.941406 -83.546875 79.414062 -85.519531 77.53125 -88.1875 C 75.644531 -90.851562 73.425781 -93.597656 70.875 -96.421875 C 68.332031 -99.253906 65.421875 -101.613281 62.140625 -103.5 C 58.867188 -105.382812 55.238281 -106.328125 51.25 -106.328125 C 46.59375 -106.328125 43.015625 -105.132812 40.515625 -102.75 C 38.015625 -100.363281 36.765625 -97.285156 36.765625 -93.515625 C 36.765625 -88.742188 38.898438 -84.664062 43.171875 -81.28125 C 47.441406 -77.894531 54.070312 -73.875 63.0625 -69.21875 C 69.71875 -65.894531 75.625 -62.707031 80.78125 -59.65625 C 85.9375 -56.601562 89.984375 -53.132812 92.921875 -49.25 C 95.867188 -45.363281 97.34375 -40.375 97.34375 -34.28125 C 97.34375 -28.625 96.117188 -23.578125 93.671875 -19.140625 C 91.234375 -14.703125 87.878906 -10.957031 83.609375 -7.90625 C 79.335938 -4.851562 74.507812 -2.519531 69.125 -0.90625 C 63.75 0.695312 58.234375 1.5 52.578125 1.5 Z M 52.578125 1.5 "/></g></g></g><g fill="#000000" fill-opacity="1"><g transform="translate(443.738555, 434.144252)"><g/></g></g><g fill="#000000" fill-opacity="1"><g transform="translate(0.453433, 573.64424)"><g><path d="M 13.8125 -116.46875 L 52.40625 -116.46875 C 64.164062 -116.46875 74.207031 -114.632812 82.53125 -110.96875 C 90.851562 -107.3125 97.257812 -102.15625 101.75 -95.5 C 106.238281 -88.851562 108.484375 -80.976562 108.484375 -71.875 C 108.484375 -59.226562 104.101562 -49.851562 95.34375 -43.75 C 86.582031 -37.65625 73.878906 -34.609375 57.234375 -34.609375 L 46.25 -34.609375 C 45.144531 -34.609375 44.3125 -34.441406 43.75 -34.109375 C 43.195312 -33.773438 42.921875 -32.832031 42.921875 -31.28125 L 42.921875 -29.625 C 42.921875 -24.519531 43.472656 -20.773438 44.578125 -18.390625 C 45.691406 -16.003906 47 -14.28125 48.5 -13.21875 C 50 -12.164062 51.300781 -11.140625 52.40625 -10.140625 C 53.519531 -9.148438 54.078125 -7.546875 54.078125 -5.328125 C 54.078125 -3.328125 53.382812 -1.9375 52 -1.15625 C 50.613281 -0.382812 48.035156 0 44.265625 0 L 13.8125 0 C 10.257812 0 7.734375 -0.382812 6.234375 -1.15625 C 4.742188 -1.9375 4 -3.328125 4 -5.328125 C 4 -7.097656 4.382812 -8.453125 5.15625 -9.390625 C 5.9375 -10.335938 6.878906 -11.171875 7.984375 -11.890625 C 9.097656 -12.617188 10.234375 -13.59375 11.390625 -14.8125 C 12.554688 -16.03125 13.523438 -17.773438 14.296875 -20.046875 C 15.078125 -22.328125 15.46875 -25.519531 15.46875 -29.625 L 15.46875 -85.53125 C 15.46875 -87.519531 15.441406 -89.125 15.390625 -90.34375 C 15.335938 -91.570312 15.195312 -92.738281 14.96875 -93.84375 C 14.53125 -96.726562 13.726562 -98.890625 12.5625 -100.328125 C 11.394531 -101.773438 10.144531 -102.941406 8.8125 -103.828125 C 7.488281 -104.710938 6.351562 -105.65625 5.40625 -106.65625 C 4.46875 -107.65625 4 -109.15625 4 -111.15625 C 4 -113.144531 4.742188 -114.523438 6.234375 -115.296875 C 7.734375 -116.078125 10.257812 -116.46875 13.8125 -116.46875 Z M 55.734375 -46.09375 C 63.722656 -46.09375 69.90625 -48.195312 74.28125 -52.40625 C 78.664062 -56.625 80.859375 -62.335938 80.859375 -69.546875 C 80.859375 -77.421875 79.441406 -83.992188 76.609375 -89.265625 C 73.785156 -94.535156 70.179688 -98.53125 65.796875 -101.25 C 61.421875 -103.96875 56.847656 -105.328125 52.078125 -105.328125 C 47.859375 -105.328125 45.273438 -105.019531 44.328125 -104.40625 C 43.390625 -103.800781 42.921875 -102.609375 42.921875 -100.828125 L 42.921875 -51.75 C 42.921875 -49.644531 43.863281 -48.175781 45.75 -47.34375 C 47.644531 -46.507812 50.972656 -46.09375 55.734375 -46.09375 Z M 55.734375 -46.09375 "/></g></g></g><g fill="#000000" fill-opacity="1"><g transform="translate(111.438614, 573.64424)"><g><path d="M 89.015625 -42.421875 L 100.5 -22.796875 C 102.164062 -19.796875 103.859375 -17.578125 105.578125 -16.140625 C 107.296875 -14.703125 108.816406 -13.566406 110.140625 -12.734375 C 111.472656 -11.898438 112.554688 -10.953125 113.390625 -9.890625 C 114.222656 -8.835938 114.640625 -7.316406 114.640625 -5.328125 C 114.640625 -3.328125 113.945312 -1.9375 112.5625 -1.15625 C 111.175781 -0.382812 108.707031 0 105.15625 0 L 77.375 0 C 74.707031 0 72.707031 -0.382812 71.375 -1.15625 C 70.050781 -1.9375 69.390625 -3.328125 69.390625 -5.328125 C 69.390625 -6.992188 69.800781 -8.40625 70.625 -9.5625 C 71.457031 -10.726562 72.289062 -11.921875 73.125 -13.140625 C 73.957031 -14.359375 74.425781 -15.769531 74.53125 -17.375 C 74.644531 -18.988281 73.984375 -21.070312 72.546875 -23.625 L 64.71875 -37.109375 C 63.613281 -36.992188 62.503906 -36.9375 61.390625 -36.9375 C 60.285156 -36.9375 59.125 -36.9375 57.90625 -36.9375 L 46.25 -36.9375 C 44.03125 -36.9375 42.921875 -35.828125 42.921875 -33.609375 L 42.921875 -29.625 C 42.921875 -24.519531 43.472656 -20.773438 44.578125 -18.390625 C 45.691406 -16.003906 47 -14.28125 48.5 -13.21875 C 50 -12.164062 51.300781 -11.140625 52.40625 -10.140625 C 53.519531 -9.148438 54.078125 -7.546875 54.078125 -5.328125 C 54.078125 -3.328125 53.382812 -1.9375 52 -1.15625 C 50.613281 -0.382812 48.035156 0 44.265625 0 L 13.8125 0 C 10.257812 0 7.734375 -0.382812 6.234375 -1.15625 C 4.742188 -1.9375 4 -3.328125 4 -5.328125 C 4 -7.097656 4.382812 -8.453125 5.15625 -9.390625 C 5.9375 -10.335938 6.878906 -11.171875 7.984375 -11.890625 C 9.097656 -12.617188 10.234375 -13.59375 11.390625 -14.8125 C 12.554688 -16.03125 13.523438 -17.773438 14.296875 -20.046875 C 15.078125 -22.328125 15.46875 -25.519531 15.46875 -29.625 L 15.46875 -85.53125 C 15.46875 -87.519531 15.441406 -89.125 15.390625 -90.34375 C 15.335938 -91.570312 15.195312 -92.738281 14.96875 -93.84375 C 14.53125 -96.726562 13.726562 -98.890625 12.5625 -100.328125 C 11.394531 -101.773438 10.144531 -102.941406 8.8125 -103.828125 C 7.488281 -104.710938 6.351562 -105.65625 5.40625 -106.65625 C 4.46875 -107.65625 4 -109.15625 4 -111.15625 C 4 -113.144531 4.742188 -114.523438 6.234375 -115.296875 C 7.734375 -116.078125 10.257812 -116.46875 13.8125 -116.46875 L 52.90625 -116.46875 C 64.664062 -116.46875 74.625 -114.664062 82.78125 -111.0625 C 90.9375 -107.457031 97.117188 -102.492188 101.328125 -96.171875 C 105.546875 -89.847656 107.65625 -82.472656 107.65625 -74.046875 C 107.65625 -58.734375 101.441406 -48.191406 89.015625 -42.421875 Z M 56.40625 -48.421875 C 64.28125 -48.421875 70.160156 -50.523438 74.046875 -54.734375 C 77.929688 -58.953125 79.875 -64.613281 79.875 -71.71875 C 79.875 -78.8125 78.597656 -84.851562 76.046875 -89.84375 C 73.492188 -94.84375 70.109375 -98.671875 65.890625 -101.328125 C 61.671875 -103.992188 57.007812 -105.328125 51.90625 -105.328125 C 48.03125 -105.328125 45.5625 -105.019531 44.5 -104.40625 C 43.445312 -103.800781 42.921875 -102.609375 42.921875 -100.828125 L 42.921875 -54.078125 C 42.921875 -51.972656 43.972656 -50.503906 46.078125 -49.671875 C 48.191406 -48.835938 51.632812 -48.421875 56.40625 -48.421875 Z M 56.40625 -48.421875 "/></g></g></g><g fill="#000000" fill-opacity="1"><g transform="translate(229.245985, 573.64424)"><g><path d="M 62.0625 1.65625 C 54.300781 1.65625 47.0625 0.300781 40.34375 -2.40625 C 33.632812 -5.125 27.753906 -8.953125 22.703125 -13.890625 C 17.660156 -18.828125 13.722656 -24.675781 10.890625 -31.4375 C 8.066406 -38.207031 6.65625 -45.695312 6.65625 -53.90625 C 6.65625 -62.78125 8.207031 -71.097656 11.3125 -78.859375 C 14.414062 -86.628906 18.796875 -93.453125 24.453125 -99.328125 C 30.117188 -105.210938 36.75 -109.816406 44.34375 -113.140625 C 51.9375 -116.472656 60.171875 -118.140625 69.046875 -118.140625 C 80.253906 -118.140625 89.988281 -115.613281 98.25 -110.5625 C 106.519531 -105.519531 112.925781 -98.695312 117.46875 -90.09375 C 122.019531 -81.5 124.296875 -71.820312 124.296875 -61.0625 C 124.296875 -52.1875 122.738281 -43.921875 119.625 -36.265625 C 116.519531 -28.617188 112.195312 -21.96875 106.65625 -16.3125 C 101.113281 -10.65625 94.539062 -6.242188 86.9375 -3.078125 C 79.34375 0.078125 71.050781 1.65625 62.0625 1.65625 Z M 71.375 -13.140625 C 77.695312 -13.140625 82.769531 -14.632812 86.59375 -17.625 C 90.425781 -20.625 93.226562 -24.675781 95 -29.78125 C 96.78125 -34.882812 97.671875 -40.597656 97.671875 -46.921875 C 97.671875 -53.691406 96.8125 -60.484375 95.09375 -67.296875 C 93.375 -74.117188 90.90625 -80.359375 87.6875 -86.015625 C 84.46875 -91.679688 80.554688 -96.234375 75.953125 -99.671875 C 71.347656 -103.109375 66.164062 -104.828125 60.40625 -104.828125 C 54.300781 -104.828125 49.28125 -103.273438 45.34375 -100.171875 C 41.40625 -97.066406 38.460938 -92.90625 36.515625 -87.6875 C 34.578125 -82.476562 33.609375 -76.710938 33.609375 -70.390625 C 33.609375 -63.734375 34.46875 -57.019531 36.1875 -50.25 C 37.90625 -43.476562 40.398438 -37.289062 43.671875 -31.6875 C 46.953125 -26.09375 50.921875 -21.601562 55.578125 -18.21875 C 60.234375 -14.832031 65.5 -13.140625 71.375 -13.140625 Z M 71.375 -13.140625 "/></g></g></g><g fill="#000000" fill-opacity="1"><g transform="translate(360.697686, 573.64424)"><g><path d="M 47.59375 -37.265625 L 47.59375 -86.859375 C 47.59375 -91.960938 47.035156 -95.707031 45.921875 -98.09375 C 44.816406 -100.476562 43.515625 -102.195312 42.015625 -103.25 C 40.515625 -104.300781 39.207031 -105.328125 38.09375 -106.328125 C 36.988281 -107.328125 36.4375 -108.9375 36.4375 -111.15625 C 36.4375 -113.144531 37.128906 -114.523438 38.515625 -115.296875 C 39.898438 -116.078125 42.476562 -116.46875 46.25 -116.46875 L 76.875 -116.46875 C 80.425781 -116.46875 82.921875 -116.078125 84.359375 -115.296875 C 85.796875 -114.523438 86.515625 -113.144531 86.515625 -111.15625 C 86.515625 -109.375 86.125 -108.007812 85.34375 -107.0625 C 84.570312 -106.125 83.628906 -105.296875 82.515625 -104.578125 C 81.410156 -103.859375 80.300781 -102.882812 79.1875 -101.65625 C 78.082031 -100.4375 77.140625 -98.691406 76.359375 -96.421875 C 75.585938 -94.148438 75.203125 -90.960938 75.203125 -86.859375 L 75.375 -50.078125 C 75.375 -42.867188 74.898438 -36.128906 73.953125 -29.859375 C 73.015625 -23.597656 71.1875 -18.109375 68.46875 -13.390625 C 65.75 -8.679688 61.695312 -4.992188 56.3125 -2.328125 C 50.9375 0.328125 43.757812 1.65625 34.78125 1.65625 C 27.34375 1.65625 21.128906 0.300781 16.140625 -2.40625 C 11.148438 -5.125 7.40625 -8.675781 4.90625 -13.0625 C 2.414062 -17.445312 1.171875 -22.078125 1.171875 -26.953125 C 1.171875 -31.390625 2.390625 -34.632812 4.828125 -36.6875 C 7.265625 -38.738281 10.035156 -39.765625 13.140625 -39.765625 C 17.023438 -39.765625 19.960938 -38.628906 21.953125 -36.359375 C 23.953125 -34.085938 25.175781 -31.34375 25.625 -28.125 C 26.507812 -23.019531 27.703125 -19.023438 29.203125 -16.140625 C 30.703125 -13.253906 33.113281 -11.8125 36.4375 -11.8125 C 43.875 -11.8125 47.59375 -20.296875 47.59375 -37.265625 Z M 47.59375 -37.265625 "/></g></g></g><g fill="#000000" fill-opacity="1"><g transform="translate(449.718774, 573.64424)"><g><path d="M 95.171875 -37.609375 C 97.171875 -37.160156 98.390625 -36.242188 98.828125 -34.859375 C 99.273438 -33.472656 99.441406 -31.503906 99.328125 -28.953125 C 99.222656 -24.066406 98.921875 -19.875 98.421875 -16.375 C 97.921875 -12.882812 97.335938 -9.921875 96.671875 -7.484375 C 95.898438 -4.828125 94.566406 -2.914062 92.671875 -1.75 C 90.785156 -0.582031 87.40625 0 82.53125 0 L 13.8125 0 C 10.257812 0 7.734375 -0.382812 6.234375 -1.15625 C 4.742188 -1.9375 4 -3.328125 4 -5.328125 C 4 -7.316406 4.46875 -8.8125 5.40625 -9.8125 C 6.351562 -10.8125 7.488281 -11.753906 8.8125 -12.640625 C 10.144531 -13.535156 11.394531 -14.726562 12.5625 -16.21875 C 13.726562 -17.71875 14.53125 -19.851562 14.96875 -22.625 C 15.195312 -23.84375 15.335938 -25.035156 15.390625 -26.203125 C 15.441406 -27.367188 15.46875 -28.953125 15.46875 -30.953125 L 15.46875 -85.53125 C 15.46875 -87.519531 15.441406 -89.125 15.390625 -90.34375 C 15.335938 -91.570312 15.195312 -92.738281 14.96875 -93.84375 C 14.53125 -96.726562 13.726562 -98.890625 12.5625 -100.328125 C 11.394531 -101.773438 10.144531 -102.941406 8.8125 -103.828125 C 7.488281 -104.710938 6.351562 -105.65625 5.40625 -106.65625 C 4.46875 -107.65625 4 -109.15625 4 -111.15625 C 4 -113.144531 4.742188 -114.523438 6.234375 -115.296875 C 7.734375 -116.078125 10.257812 -116.46875 13.8125 -116.46875 L 78.53125 -116.46875 C 83.414062 -116.46875 86.882812 -115.910156 88.9375 -114.796875 C 90.988281 -113.691406 92.398438 -112.195312 93.171875 -110.3125 C 95.390625 -105.65625 97.164062 -100 98.5 -93.34375 C 99.050781 -90.90625 99.132812 -88.910156 98.75 -87.359375 C 98.363281 -85.804688 97.394531 -84.75 95.84375 -84.1875 C 92.84375 -83.195312 90.015625 -84.695312 87.359375 -88.6875 C 83.921875 -93.894531 80.285156 -97.832031 76.453125 -100.5 C 72.628906 -103.164062 68.109375 -104.5 62.890625 -104.5 L 55.734375 -104.5 C 50.523438 -104.5 47.085938 -103.882812 45.421875 -102.65625 C 43.753906 -101.4375 42.921875 -99.5 42.921875 -96.84375 L 42.921875 -76.046875 C 42.921875 -72.710938 43.835938 -70.519531 45.671875 -69.46875 C 47.503906 -68.414062 50.195312 -67.890625 53.75 -67.890625 L 57.078125 -67.890625 C 59.734375 -67.890625 61.695312 -68.550781 62.96875 -69.875 C 64.25 -71.207031 65.222656 -72.707031 65.890625 -74.375 C 66.554688 -76.039062 67.304688 -77.535156 68.140625 -78.859375 C 68.972656 -80.191406 70.273438 -80.859375 72.046875 -80.859375 C 73.929688 -80.859375 75.289062 -80.21875 76.125 -78.9375 C 76.957031 -77.664062 77.375 -75.476562 77.375 -72.375 L 77.375 -50.921875 C 77.375 -45.484375 75.597656 -42.765625 72.046875 -42.765625 C 70.273438 -42.765625 68.972656 -43.425781 68.140625 -44.75 C 67.304688 -46.082031 66.554688 -47.609375 65.890625 -49.328125 C 65.222656 -51.046875 64.25 -52.570312 62.96875 -53.90625 C 61.695312 -55.238281 59.734375 -55.90625 57.078125 -55.90625 L 53.75 -55.90625 C 50.195312 -55.90625 47.503906 -55.40625 45.671875 -54.40625 C 43.835938 -53.40625 42.921875 -51.1875 42.921875 -47.75 L 42.921875 -19.640625 C 42.921875 -16.972656 43.804688 -15.03125 45.578125 -13.8125 C 47.359375 -12.59375 51.191406 -11.984375 57.078125 -11.984375 L 67.390625 -12.140625 C 70.828125 -12.140625 73.625 -12.890625 75.78125 -14.390625 C 77.945312 -15.890625 79.890625 -18.082031 81.609375 -20.96875 C 83.328125 -23.851562 85.1875 -27.289062 87.1875 -31.28125 C 88.632812 -34.164062 89.96875 -36.023438 91.1875 -36.859375 C 92.40625 -37.691406 93.734375 -37.941406 95.171875 -37.609375 Z M 95.171875 -37.609375 "/></g></g></g><g fill="#000000" fill-opacity="1"><g transform="translate(554.713775, 573.64424)"><g><path d="M 65.0625 1.65625 C 53.851562 1.65625 43.835938 -0.671875 35.015625 -5.328125 C 26.203125 -9.984375 19.269531 -16.609375 14.21875 -25.203125 C 9.175781 -33.804688 6.65625 -44.097656 6.65625 -56.078125 C 6.65625 -64.617188 8.207031 -72.628906 11.3125 -80.109375 C 14.414062 -87.597656 18.769531 -94.195312 24.375 -99.90625 C 29.976562 -105.625 36.519531 -110.09375 44 -113.3125 C 51.488281 -116.53125 59.5625 -118.140625 68.21875 -118.140625 C 73.65625 -118.140625 77.984375 -117.609375 81.203125 -116.546875 C 84.421875 -115.492188 86.914062 -114.96875 88.6875 -114.96875 C 90.238281 -114.96875 91.429688 -115.21875 92.265625 -115.71875 C 93.097656 -116.21875 93.957031 -116.71875 94.84375 -117.21875 C 95.726562 -117.71875 96.894531 -117.96875 98.34375 -117.96875 C 99.894531 -117.96875 101.195312 -117.410156 102.25 -116.296875 C 103.300781 -115.191406 104.378906 -112.863281 105.484375 -109.3125 C 106.484375 -105.988281 107.453125 -102.410156 108.390625 -98.578125 C 109.335938 -94.753906 110.144531 -90.40625 110.8125 -85.53125 C 111.144531 -82.863281 111.035156 -80.835938 110.484375 -79.453125 C 109.929688 -78.066406 108.546875 -77.257812 106.328125 -77.03125 C 104.441406 -76.925781 102.941406 -77.535156 101.828125 -78.859375 C 100.722656 -80.191406 99.171875 -82.25 97.171875 -85.03125 C 93.066406 -90.90625 88.519531 -95.894531 83.53125 -100 C 78.539062 -104.101562 72.769531 -106.15625 66.21875 -106.15625 C 59.789062 -106.15625 54.21875 -104.546875 49.5 -101.328125 C 44.78125 -98.109375 41.144531 -93.671875 38.59375 -88.015625 C 36.050781 -82.359375 34.78125 -75.757812 34.78125 -68.21875 C 34.78125 -61.226562 35.640625 -54.570312 37.359375 -48.25 C 39.078125 -41.925781 41.625 -36.296875 45 -31.359375 C 48.382812 -26.421875 52.515625 -22.535156 57.390625 -19.703125 C 62.273438 -16.878906 67.9375 -15.46875 74.375 -15.46875 C 80.363281 -15.46875 85.910156 -16.71875 91.015625 -19.21875 C 96.117188 -21.71875 101.054688 -25.515625 105.828125 -30.609375 C 107.265625 -32.171875 108.648438 -32.785156 109.984375 -32.453125 C 111.316406 -32.117188 112.285156 -31.226562 112.890625 -29.78125 C 113.503906 -28.34375 113.367188 -26.679688 112.484375 -24.796875 C 110.035156 -19.472656 106.398438 -14.8125 101.578125 -10.8125 C 96.753906 -6.820312 91.207031 -3.742188 84.9375 -1.578125 C 78.675781 0.578125 72.050781 1.65625 65.0625 1.65625 Z M 65.0625 1.65625 "/></g></g></g><g fill="#000000" fill-opacity="1"><g transform="translate(672.354726, 573.64424)"><g><path d="M 68.21875 -96.671875 L 68.21875 -29.625 C 68.21875 -24.519531 68.769531 -20.773438 69.875 -18.390625 C 70.988281 -16.003906 72.296875 -14.28125 73.796875 -13.21875 C 75.296875 -12.164062 76.597656 -11.140625 77.703125 -10.140625 C 78.816406 -9.148438 79.375 -7.546875 79.375 -5.328125 C 79.375 -3.328125 78.675781 -1.9375 77.28125 -1.15625 C 75.894531 -0.382812 73.316406 0 69.546875 0 L 39.109375 0 C 35.554688 0 33.03125 -0.382812 31.53125 -1.15625 C 30.03125 -1.9375 29.28125 -3.328125 29.28125 -5.328125 C 29.28125 -7.097656 29.664062 -8.453125 30.4375 -9.390625 C 31.21875 -10.335938 32.191406 -11.171875 33.359375 -11.890625 C 34.523438 -12.617188 35.660156 -13.59375 36.765625 -14.8125 C 37.878906 -16.03125 38.820312 -17.773438 39.59375 -20.046875 C 40.375 -22.328125 40.765625 -25.519531 40.765625 -29.625 L 40.765625 -96.671875 C 40.765625 -101.222656 38.488281 -103.5 33.9375 -103.5 C 30.613281 -103.5 27.867188 -102.832031 25.703125 -101.5 C 23.546875 -100.164062 21.632812 -98.140625 19.96875 -95.421875 C 18.300781 -92.703125 16.414062 -89.347656 14.3125 -85.359375 C 13.425781 -83.472656 12.484375 -82.003906 11.484375 -80.953125 C 10.484375 -79.898438 9.316406 -79.375 7.984375 -79.375 C 6.210938 -79.375 4.992188 -80.09375 4.328125 -81.53125 C 3.660156 -82.96875 3.382812 -84.960938 3.5 -87.515625 C 3.71875 -92.398438 4.046875 -96.585938 4.484375 -100.078125 C 4.929688 -103.578125 5.488281 -106.546875 6.15625 -108.984375 C 6.9375 -111.648438 8.269531 -113.5625 10.15625 -114.71875 C 12.039062 -115.882812 15.421875 -116.46875 20.296875 -116.46875 L 88.515625 -116.46875 C 93.503906 -116.46875 96.941406 -115.882812 98.828125 -114.71875 C 100.722656 -113.5625 102 -111.648438 102.65625 -108.984375 C 103.320312 -106.546875 103.90625 -103.578125 104.40625 -100.078125 C 104.90625 -96.585938 105.210938 -92.398438 105.328125 -87.515625 C 105.429688 -85.078125 105.175781 -83.109375 104.5625 -81.609375 C 103.957031 -80.117188 102.710938 -79.375 100.828125 -79.375 C 99.503906 -79.375 98.367188 -79.898438 97.421875 -80.953125 C 96.472656 -82.003906 95.503906 -83.472656 94.515625 -85.359375 C 91.515625 -91.347656 88.738281 -95.894531 86.1875 -99 C 83.632812 -102.101562 79.863281 -103.65625 74.875 -103.65625 C 70.4375 -103.65625 68.21875 -101.328125 68.21875 -96.671875 Z M 68.21875 -96.671875 "/></g></g></g></g></g></g><g fill="#000000" fill-opacity="1"><g transform="translate(9.426523, 628.199142)"><g><path d="M 25.984375 -30.3125 L 29.328125 -30.3125 C 30.015625 -30.3125 30.515625 -30.238281 30.828125 -30.09375 C 31.148438 -29.957031 31.3125 -29.6875 31.3125 -29.28125 C 31.3125 -28.9375 31.195312 -28.660156 30.96875 -28.453125 C 30.738281 -28.253906 30.460938 -28.035156 30.140625 -27.796875 C 29.828125 -27.566406 29.550781 -27.242188 29.3125 -26.828125 C 29.082031 -26.410156 28.96875 -25.796875 28.96875 -24.984375 L 28.96875 -1.6875 C 28.96875 -1.226562 28.867188 -0.832031 28.671875 -0.5 C 28.472656 -0.164062 28.210938 0 27.890625 0 L 27.5 0 C 27.21875 0 26.96875 -0.0703125 26.75 -0.21875 C 26.53125 -0.363281 26.234375 -0.648438 25.859375 -1.078125 L 6.71875 -23.34375 L 6.75 -5.328125 C 6.75 -4.515625 6.875 -3.898438 7.125 -3.484375 C 7.375 -3.066406 7.65625 -2.742188 7.96875 -2.515625 C 8.289062 -2.285156 8.566406 -2.078125 8.796875 -1.890625 C 9.023438 -1.703125 9.140625 -1.421875 9.140625 -1.046875 C 9.140625 -0.640625 8.972656 -0.363281 8.640625 -0.21875 C 8.304688 -0.0703125 7.804688 0 7.140625 0 L 3.765625 0 C 2.460938 0 1.8125 -0.347656 1.8125 -1.046875 C 1.8125 -1.390625 1.925781 -1.660156 2.15625 -1.859375 C 2.394531 -2.066406 2.664062 -2.285156 2.96875 -2.515625 C 3.269531 -2.742188 3.535156 -3.066406 3.765625 -3.484375 C 3.992188 -3.898438 4.109375 -4.515625 4.109375 -5.328125 L 4.109375 -23.6875 C 4.109375 -24.15625 4.101562 -24.523438 4.09375 -24.796875 C 4.082031 -25.066406 4.046875 -25.332031 3.984375 -25.59375 C 3.898438 -26.257812 3.71875 -26.75 3.4375 -27.0625 C 3.164062 -27.382812 2.878906 -27.640625 2.578125 -27.828125 C 2.273438 -28.015625 2.003906 -28.207031 1.765625 -28.40625 C 1.535156 -28.613281 1.421875 -28.90625 1.421875 -29.28125 C 1.421875 -29.96875 2.175781 -30.3125 3.6875 -30.3125 L 6.40625 -30.3125 C 6.78125 -30.3125 7.097656 -30.238281 7.359375 -30.09375 C 7.617188 -29.957031 7.878906 -29.742188 8.140625 -29.453125 L 26.375 -8.09375 L 26.328125 -24.984375 C 26.328125 -25.796875 26.210938 -26.410156 25.984375 -26.828125 C 25.753906 -27.242188 25.476562 -27.566406 25.15625 -27.796875 C 24.84375 -28.035156 24.570312 -28.25 24.34375 -28.4375 C 24.113281 -28.625 24 -28.90625 24 -29.28125 C 24 -29.6875 24.15625 -29.957031 24.46875 -30.09375 C 24.789062 -30.238281 25.296875 -30.3125 25.984375 -30.3125 Z M 25.984375 -30.3125 "/></g></g></g><g fill="#000000" fill-opacity="1"><g transform="translate(63.054073, 628.199142)"><g><path d="M 15.9375 0.4375 C 13.132812 0.4375 10.664062 -0.179688 8.53125 -1.421875 C 6.394531 -2.671875 4.71875 -4.375 3.5 -6.53125 C 2.289062 -8.695312 1.6875 -11.179688 1.6875 -13.984375 C 1.6875 -16.296875 2.082031 -18.46875 2.875 -20.5 C 3.675781 -22.539062 4.796875 -24.328125 6.234375 -25.859375 C 7.679688 -27.390625 9.378906 -28.585938 11.328125 -29.453125 C 13.273438 -30.316406 15.421875 -30.75 17.765625 -30.75 C 20.648438 -30.75 23.144531 -30.101562 25.25 -28.8125 C 27.351562 -27.53125 28.988281 -25.785156 30.15625 -23.578125 C 31.332031 -21.367188 31.921875 -18.878906 31.921875 -16.109375 C 31.921875 -13.742188 31.53125 -11.554688 30.75 -9.546875 C 29.96875 -7.546875 28.867188 -5.789062 27.453125 -4.28125 C 26.046875 -2.78125 24.363281 -1.617188 22.40625 -0.796875 C 20.457031 0.0234375 18.300781 0.4375 15.9375 0.4375 Z M 17.96875 -2.515625 C 19.988281 -2.515625 21.660156 -3.007812 22.984375 -4 C 24.316406 -5 25.304688 -6.3125 25.953125 -7.9375 C 26.609375 -9.570312 26.9375 -11.34375 26.9375 -13.25 C 26.9375 -15.15625 26.679688 -16.988281 26.171875 -18.75 C 25.671875 -20.507812 24.9375 -22.085938 23.96875 -23.484375 C 23 -24.890625 21.835938 -26.003906 20.484375 -26.828125 C 19.128906 -27.648438 17.597656 -28.0625 15.890625 -28.0625 C 13.867188 -28.0625 12.179688 -27.546875 10.828125 -26.515625 C 9.472656 -25.492188 8.445312 -24.179688 7.75 -22.578125 C 7.0625 -20.984375 6.71875 -19.304688 6.71875 -17.546875 C 6.71875 -15.546875 6.972656 -13.644531 7.484375 -11.84375 C 8.003906 -10.039062 8.75 -8.4375 9.71875 -7.03125 C 10.6875 -5.632812 11.867188 -4.53125 13.265625 -3.71875 C 14.671875 -2.914062 16.238281 -2.515625 17.96875 -2.515625 Z M 17.96875 -2.515625 "/></g></g></g><g fill="#000000" fill-opacity="1"><g transform="translate(117.547946, 628.199142)"><g><path d="M 25.984375 -30.3125 L 29.328125 -30.3125 C 30.015625 -30.3125 30.515625 -30.238281 30.828125 -30.09375 C 31.148438 -29.957031 31.3125 -29.6875 31.3125 -29.28125 C 31.3125 -28.9375 31.195312 -28.660156 30.96875 -28.453125 C 30.738281 -28.253906 30.460938 -28.035156 30.140625 -27.796875 C 29.828125 -27.566406 29.550781 -27.242188 29.3125 -26.828125 C 29.082031 -26.410156 28.96875 -25.796875 28.96875 -24.984375 L 28.96875 -1.6875 C 28.96875 -1.226562 28.867188 -0.832031 28.671875 -0.5 C 28.472656 -0.164062 28.210938 0 27.890625 0 L 27.5 0 C 27.21875 0 26.96875 -0.0703125 26.75 -0.21875 C 26.53125 -0.363281 26.234375 -0.648438 25.859375 -1.078125 L 6.71875 -23.34375 L 6.75 -5.328125 C 6.75 -4.515625 6.875 -3.898438 7.125 -3.484375 C 7.375 -3.066406 7.65625 -2.742188 7.96875 -2.515625 C 8.289062 -2.285156 8.566406 -2.078125 8.796875 -1.890625 C 9.023438 -1.703125 9.140625 -1.421875 9.140625 -1.046875 C 9.140625 -0.640625 8.972656 -0.363281 8.640625 -0.21875 C 8.304688 -0.0703125 7.804688 0 7.140625 0 L 3.765625 0 C 2.460938 0 1.8125 -0.347656 1.8125 -1.046875 C 1.8125 -1.390625 1.925781 -1.660156 2.15625 -1.859375 C 2.394531 -2.066406 2.664062 -2.285156 2.96875 -2.515625 C 3.269531 -2.742188 3.535156 -3.066406 3.765625 -3.484375 C 3.992188 -3.898438 4.109375 -4.515625 4.109375 -5.328125 L 4.109375 -23.6875 C 4.109375 -24.15625 4.101562 -24.523438 4.09375 -24.796875 C 4.082031 -25.066406 4.046875 -25.332031 3.984375 -25.59375 C 3.898438 -26.257812 3.71875 -26.75 3.4375 -27.0625 C 3.164062 -27.382812 2.878906 -27.640625 2.578125 -27.828125 C 2.273438 -28.015625 2.003906 -28.207031 1.765625 -28.40625 C 1.535156 -28.613281 1.421875 -28.90625 1.421875 -29.28125 C 1.421875 -29.96875 2.175781 -30.3125 3.6875 -30.3125 L 6.40625 -30.3125 C 6.78125 -30.3125 7.097656 -30.238281 7.359375 -30.09375 C 7.617188 -29.957031 7.878906 -29.742188 8.140625 -29.453125 L 26.375 -8.09375 L 26.328125 -24.984375 C 26.328125 -25.796875 26.210938 -26.410156 25.984375 -26.828125 C 25.753906 -27.242188 25.476562 -27.566406 25.15625 -27.796875 C 24.84375 -28.035156 24.570312 -28.25 24.34375 -28.4375 C 24.113281 -28.625 24 -28.90625 24 -29.28125 C 24 -29.6875 24.15625 -29.957031 24.46875 -30.09375 C 24.789062 -30.238281 25.296875 -30.3125 25.984375 -30.3125 Z M 25.984375 -30.3125 "/></g></g></g><g fill="#000000" fill-opacity="1"><g transform="translate(171.175496, 628.199142)"><g><path d="M 11.484375 -11.390625 L 2.734375 -11.390625 C 2.035156 -11.390625 1.757812 -11.707031 1.90625 -12.34375 L 2.078125 -12.953125 C 2.191406 -13.523438 2.550781 -13.8125 3.15625 -13.8125 L 11.90625 -13.8125 C 12.632812 -13.8125 12.910156 -13.492188 12.734375 -12.859375 L 12.5625 -12.25 C 12.445312 -11.675781 12.085938 -11.390625 11.484375 -11.390625 Z M 11.484375 -11.390625 "/></g></g></g><g fill="#000000" fill-opacity="1"><g transform="translate(206.696653, 628.199142)"><g><path d="M 3.859375 -30.3125 L 12.390625 -30.3125 C 15.472656 -30.3125 18.082031 -29.828125 20.21875 -28.859375 C 22.363281 -27.898438 23.988281 -26.585938 25.09375 -24.921875 C 26.207031 -23.265625 26.765625 -21.394531 26.765625 -19.3125 C 26.765625 -16.113281 25.648438 -13.664062 23.421875 -11.96875 C 21.203125 -10.28125 17.925781 -9.4375 13.59375 -9.4375 L 10.171875 -9.4375 C 9.796875 -9.4375 9.554688 -9.394531 9.453125 -9.3125 C 9.359375 -9.226562 9.3125 -8.984375 9.3125 -8.578125 L 9.3125 -6.75 C 9.3125 -5.476562 9.441406 -4.546875 9.703125 -3.953125 C 9.960938 -3.367188 10.269531 -2.953125 10.625 -2.703125 C 10.988281 -2.460938 11.300781 -2.238281 11.5625 -2.03125 C 11.820312 -1.832031 11.953125 -1.503906 11.953125 -1.046875 C 11.953125 -0.660156 11.78125 -0.390625 11.4375 -0.234375 C 11.09375 -0.078125 10.5 0 9.65625 0 L 3.859375 0 C 2.328125 0 1.5625 -0.347656 1.5625 -1.046875 C 1.5625 -1.503906 1.695312 -1.832031 1.96875 -2.03125 C 2.238281 -2.238281 2.554688 -2.460938 2.921875 -2.703125 C 3.285156 -2.953125 3.601562 -3.367188 3.875 -3.953125 C 4.144531 -4.546875 4.28125 -5.476562 4.28125 -6.75 L 4.28125 -23.6875 C 4.28125 -24.15625 4.273438 -24.523438 4.265625 -24.796875 C 4.253906 -25.066406 4.21875 -25.332031 4.15625 -25.59375 C 4.070312 -26.257812 3.890625 -26.75 3.609375 -27.0625 C 3.335938 -27.382812 3.039062 -27.640625 2.71875 -27.828125 C 2.40625 -28.015625 2.132812 -28.207031 1.90625 -28.40625 C 1.675781 -28.613281 1.5625 -28.90625 1.5625 -29.28125 C 1.5625 -29.96875 2.328125 -30.3125 3.859375 -30.3125 Z M 13.390625 -11.6875 C 15.785156 -11.6875 17.734375 -12.222656 19.234375 -13.296875 C 20.734375 -14.367188 21.484375 -16.128906 21.484375 -18.578125 C 21.484375 -20.484375 21.078125 -22.148438 20.265625 -23.578125 C 19.460938 -25.015625 18.375 -26.117188 17 -26.890625 C 15.625 -27.671875 14.054688 -28.0625 12.296875 -28.0625 C 10.972656 -28.0625 10.144531 -27.984375 9.8125 -27.828125 C 9.476562 -27.671875 9.3125 -27.359375 9.3125 -26.890625 L 9.3125 -13.03125 C 9.3125 -12.570312 9.554688 -12.234375 10.046875 -12.015625 C 10.535156 -11.796875 11.648438 -11.6875 13.390625 -11.6875 Z M 13.390625 -11.6875 "/></g></g></g><g fill="#000000" fill-opacity="1"><g transform="translate(255.212825, 628.199142)"><g><path d="M 21.140625 -11.265625 L 24.6875 -5.03125 C 25.09375 -4.300781 25.503906 -3.753906 25.921875 -3.390625 C 26.335938 -3.035156 26.710938 -2.753906 27.046875 -2.546875 C 27.378906 -2.347656 27.644531 -2.144531 27.84375 -1.9375 C 28.050781 -1.738281 28.15625 -1.441406 28.15625 -1.046875 C 28.15625 -0.347656 27.503906 0 26.203125 0 L 20.65625 0 C 19.96875 0 19.441406 -0.078125 19.078125 -0.234375 C 18.710938 -0.390625 18.53125 -0.6875 18.53125 -1.125 C 18.53125 -1.445312 18.640625 -1.722656 18.859375 -1.953125 C 19.078125 -2.179688 19.296875 -2.425781 19.515625 -2.6875 C 19.734375 -2.945312 19.851562 -3.269531 19.875 -3.65625 C 19.90625 -4.050781 19.734375 -4.566406 19.359375 -5.203125 L 16.59375 -10.171875 C 15.78125 -10.085938 14.910156 -10.046875 13.984375 -10.046875 L 10.171875 -10.046875 C 9.597656 -10.046875 9.3125 -9.757812 9.3125 -9.1875 L 9.3125 -6.75 C 9.3125 -5.476562 9.441406 -4.546875 9.703125 -3.953125 C 9.960938 -3.367188 10.269531 -2.953125 10.625 -2.703125 C 10.988281 -2.460938 11.300781 -2.238281 11.5625 -2.03125 C 11.820312 -1.832031 11.953125 -1.503906 11.953125 -1.046875 C 11.953125 -0.660156 11.78125 -0.390625 11.4375 -0.234375 C 11.09375 -0.078125 10.5 0 9.65625 0 L 3.859375 0 C 2.328125 0 1.5625 -0.347656 1.5625 -1.046875 C 1.5625 -1.503906 1.695312 -1.832031 1.96875 -2.03125 C 2.238281 -2.238281 2.554688 -2.460938 2.921875 -2.703125 C 3.285156 -2.953125 3.601562 -3.367188 3.875 -3.953125 C 4.144531 -4.546875 4.28125 -5.476562 4.28125 -6.75 L 4.28125 -23.6875 C 4.28125 -24.15625 4.273438 -24.523438 4.265625 -24.796875 C 4.253906 -25.066406 4.21875 -25.332031 4.15625 -25.59375 C 4.070312 -26.257812 3.890625 -26.75 3.609375 -27.0625 C 3.335938 -27.382812 3.039062 -27.640625 2.71875 -27.828125 C 2.40625 -28.015625 2.132812 -28.207031 1.90625 -28.40625 C 1.675781 -28.613281 1.5625 -28.90625 1.5625 -29.28125 C 1.5625 -29.96875 2.328125 -30.3125 3.859375 -30.3125 L 12.515625 -30.3125 C 15.660156 -30.3125 18.285156 -29.847656 20.390625 -28.921875 C 22.503906 -28.003906 24.085938 -26.757812 25.140625 -25.1875 C 26.191406 -23.613281 26.71875 -21.832031 26.71875 -19.84375 C 26.71875 -15.707031 24.859375 -12.847656 21.140625 -11.265625 Z M 13.8125 -12.34375 C 16.039062 -12.34375 17.859375 -12.875 19.265625 -13.9375 C 20.679688 -15.007812 21.390625 -16.726562 21.390625 -19.09375 C 21.390625 -20.832031 21.019531 -22.375 20.28125 -23.71875 C 19.550781 -25.0625 18.503906 -26.117188 17.140625 -26.890625 C 15.785156 -27.671875 14.203125 -28.0625 12.390625 -28.0625 C 11.085938 -28.0625 10.25 -27.984375 9.875 -27.828125 C 9.5 -27.671875 9.3125 -27.359375 9.3125 -26.890625 L 9.3125 -13.640625 C 9.3125 -13.179688 9.59375 -12.847656 10.15625 -12.640625 C 10.71875 -12.441406 11.9375 -12.34375 13.8125 -12.34375 Z M 13.8125 -12.34375 "/></g></g></g><g fill="#000000" fill-opacity="1"><g transform="translate(305.158463, 628.199142)"><g><path d="M 15.9375 0.4375 C 13.132812 0.4375 10.664062 -0.179688 8.53125 -1.421875 C 6.394531 -2.671875 4.71875 -4.375 3.5 -6.53125 C 2.289062 -8.695312 1.6875 -11.179688 1.6875 -13.984375 C 1.6875 -16.296875 2.082031 -18.46875 2.875 -20.5 C 3.675781 -22.539062 4.796875 -24.328125 6.234375 -25.859375 C 7.679688 -27.390625 9.378906 -28.585938 11.328125 -29.453125 C 13.273438 -30.316406 15.421875 -30.75 17.765625 -30.75 C 20.648438 -30.75 23.144531 -30.101562 25.25 -28.8125 C 27.351562 -27.53125 28.988281 -25.785156 30.15625 -23.578125 C 31.332031 -21.367188 31.921875 -18.878906 31.921875 -16.109375 C 31.921875 -13.742188 31.53125 -11.554688 30.75 -9.546875 C 29.96875 -7.546875 28.867188 -5.789062 27.453125 -4.28125 C 26.046875 -2.78125 24.363281 -1.617188 22.40625 -0.796875 C 20.457031 0.0234375 18.300781 0.4375 15.9375 0.4375 Z M 17.96875 -2.515625 C 19.988281 -2.515625 21.660156 -3.007812 22.984375 -4 C 24.316406 -5 25.304688 -6.3125 25.953125 -7.9375 C 26.609375 -9.570312 26.9375 -11.34375 26.9375 -13.25 C 26.9375 -15.15625 26.679688 -16.988281 26.171875 -18.75 C 25.671875 -20.507812 24.9375 -22.085938 23.96875 -23.484375 C 23 -24.890625 21.835938 -26.003906 20.484375 -26.828125 C 19.128906 -27.648438 17.597656 -28.0625 15.890625 -28.0625 C 13.867188 -28.0625 12.179688 -27.546875 10.828125 -26.515625 C 9.472656 -25.492188 8.445312 -24.179688 7.75 -22.578125 C 7.0625 -20.984375 6.71875 -19.304688 6.71875 -17.546875 C 6.71875 -15.546875 6.972656 -13.644531 7.484375 -11.84375 C 8.003906 -10.039062 8.75 -8.4375 9.71875 -7.03125 C 10.6875 -5.632812 11.867188 -4.53125 13.265625 -3.71875 C 14.671875 -2.914062 16.238281 -2.515625 17.96875 -2.515625 Z M 17.96875 -2.515625 "/></g></g></g><g fill="#000000" fill-opacity="1"><g transform="translate(359.652324, 628.199142)"><g><path d="M 24.5625 -24.390625 C 24.644531 -23.898438 24.65625 -23.492188 24.59375 -23.171875 C 24.539062 -22.859375 24.34375 -22.640625 24 -22.515625 C 23.625 -22.398438 23.289062 -22.457031 23 -22.6875 C 22.707031 -22.925781 22.40625 -23.316406 22.09375 -23.859375 C 21.3125 -25.222656 20.425781 -26.25 19.4375 -26.9375 C 18.457031 -27.632812 17.21875 -27.984375 15.71875 -27.984375 L 13.734375 -27.984375 C 12.460938 -27.984375 11.507812 -27.910156 10.875 -27.765625 C 10.238281 -27.617188 9.816406 -27.398438 9.609375 -27.109375 C 9.410156 -26.828125 9.3125 -26.4375 9.3125 -25.9375 L 9.3125 -18.75 C 9.3125 -17.769531 9.597656 -17.171875 10.171875 -16.953125 C 10.753906 -16.734375 11.59375 -16.625 12.6875 -16.625 L 15.03125 -16.625 C 15.71875 -16.625 16.234375 -16.789062 16.578125 -17.125 C 16.929688 -17.457031 17.191406 -17.847656 17.359375 -18.296875 C 17.535156 -18.742188 17.71875 -19.132812 17.90625 -19.46875 C 18.09375 -19.800781 18.390625 -19.96875 18.796875 -19.96875 C 19.203125 -19.96875 19.476562 -19.789062 19.625 -19.4375 C 19.769531 -19.09375 19.84375 -18.472656 19.84375 -17.578125 L 19.84375 -13.03125 C 19.84375 -11.625 19.492188 -10.921875 18.796875 -10.921875 C 18.390625 -10.921875 18.09375 -11.09375 17.90625 -11.4375 C 17.71875 -11.78125 17.535156 -12.175781 17.359375 -12.625 C 17.191406 -13.070312 16.929688 -13.46875 16.578125 -13.8125 C 16.234375 -14.164062 15.71875 -14.34375 15.03125 -14.34375 L 12.6875 -14.34375 C 11.59375 -14.34375 10.753906 -14.238281 10.171875 -14.03125 C 9.597656 -13.832031 9.3125 -13.226562 9.3125 -12.21875 L 9.3125 -6.796875 C 9.3125 -5.523438 9.441406 -4.59375 9.703125 -4 C 9.960938 -3.414062 10.269531 -2.992188 10.625 -2.734375 C 10.988281 -2.472656 11.300781 -2.25 11.5625 -2.0625 C 11.820312 -1.875 11.953125 -1.546875 11.953125 -1.078125 C 11.953125 -0.703125 11.78125 -0.4375 11.4375 -0.28125 C 11.09375 -0.125 10.5 -0.046875 9.65625 -0.046875 L 3.859375 -0.046875 C 2.328125 -0.046875 1.5625 -0.390625 1.5625 -1.078125 C 1.5625 -1.546875 1.695312 -1.875 1.96875 -2.0625 C 2.238281 -2.25 2.554688 -2.472656 2.921875 -2.734375 C 3.285156 -2.992188 3.601562 -3.414062 3.875 -4 C 4.144531 -4.59375 4.28125 -5.523438 4.28125 -6.796875 L 4.28125 -23.6875 C 4.28125 -24.15625 4.273438 -24.523438 4.265625 -24.796875 C 4.253906 -25.066406 4.21875 -25.332031 4.15625 -25.59375 C 4.070312 -26.257812 3.890625 -26.75 3.609375 -27.0625 C 3.335938 -27.382812 3.039062 -27.640625 2.71875 -27.828125 C 2.40625 -28.015625 2.132812 -28.207031 1.90625 -28.40625 C 1.675781 -28.613281 1.5625 -28.90625 1.5625 -29.28125 C 1.5625 -29.96875 2.328125 -30.3125 3.859375 -30.3125 L 19.96875 -30.359375 C 21.238281 -30.359375 22.070312 -30.242188 22.46875 -30.015625 C 22.875 -29.785156 23.164062 -29.425781 23.34375 -28.9375 C 23.570312 -28.351562 23.800781 -27.6875 24.03125 -26.9375 C 24.269531 -26.1875 24.445312 -25.335938 24.5625 -24.390625 Z M 24.5625 -24.390625 "/></g></g></g><g fill="#000000" fill-opacity="1"><g transform="translate(405.48285, 628.199142)"><g><path d="M 4.28125 -6.75 L 4.28125 -23.5625 C 4.28125 -24.832031 4.148438 -25.765625 3.890625 -26.359375 C 3.640625 -26.953125 3.332031 -27.367188 2.96875 -27.609375 C 2.601562 -27.859375 2.289062 -28.082031 2.03125 -28.28125 C 1.769531 -28.488281 1.640625 -28.820312 1.640625 -29.28125 C 1.640625 -29.6875 1.8125 -29.957031 2.15625 -30.09375 C 2.507812 -30.238281 3.101562 -30.3125 3.9375 -30.3125 L 9.75 -30.3125 C 11.28125 -30.3125 12.046875 -29.96875 12.046875 -29.28125 C 12.046875 -28.820312 11.90625 -28.488281 11.625 -28.28125 C 11.351562 -28.082031 11.035156 -27.859375 10.671875 -27.609375 C 10.316406 -27.367188 10 -26.953125 9.71875 -26.359375 C 9.445312 -25.765625 9.3125 -24.832031 9.3125 -23.5625 L 9.3125 -6.75 C 9.3125 -5.476562 9.441406 -4.546875 9.703125 -3.953125 C 9.960938 -3.367188 10.269531 -2.953125 10.625 -2.703125 C 10.988281 -2.460938 11.300781 -2.238281 11.5625 -2.03125 C 11.820312 -1.832031 11.953125 -1.503906 11.953125 -1.046875 C 11.953125 -0.660156 11.78125 -0.390625 11.4375 -0.234375 C 11.09375 -0.078125 10.5 0 9.65625 0 L 3.859375 0 C 2.328125 0 1.5625 -0.347656 1.5625 -1.046875 C 1.5625 -1.503906 1.695312 -1.832031 1.96875 -2.03125 C 2.238281 -2.238281 2.554688 -2.460938 2.921875 -2.703125 C 3.285156 -2.953125 3.601562 -3.367188 3.875 -3.953125 C 4.144531 -4.546875 4.28125 -5.476562 4.28125 -6.75 Z M 4.28125 -6.75 "/></g></g></g><g fill="#000000" fill-opacity="1"><g transform="translate(439.877772, 628.199142)"><g><path d="M 16.453125 -25.90625 L 16.453125 -6.75 C 16.453125 -5.476562 16.582031 -4.546875 16.84375 -3.953125 C 17.101562 -3.367188 17.40625 -2.953125 17.75 -2.703125 C 18.101562 -2.460938 18.410156 -2.238281 18.671875 -2.03125 C 18.929688 -1.832031 19.0625 -1.503906 19.0625 -1.046875 C 19.0625 -0.660156 18.894531 -0.390625 18.5625 -0.234375 C 18.226562 -0.078125 17.644531 0 16.8125 0 L 10.953125 0 C 9.453125 0 8.703125 -0.347656 8.703125 -1.046875 C 8.703125 -1.503906 8.835938 -1.832031 9.109375 -2.03125 C 9.390625 -2.238281 9.703125 -2.460938 10.046875 -2.703125 C 10.390625 -2.953125 10.695312 -3.367188 10.96875 -3.953125 C 11.25 -4.546875 11.390625 -5.476562 11.390625 -6.75 L 11.390625 -25.859375 C 11.390625 -26.546875 11.226562 -27.054688 10.90625 -27.390625 C 10.59375 -27.722656 10.046875 -27.890625 9.265625 -27.890625 C 8.222656 -27.890625 7.40625 -27.738281 6.8125 -27.4375 C 6.226562 -27.132812 5.722656 -26.671875 5.296875 -26.046875 C 4.878906 -25.429688 4.425781 -24.644531 3.9375 -23.6875 C 3.363281 -22.5625 2.816406 -22 2.296875 -22 C 1.859375 -22 1.582031 -22.164062 1.46875 -22.5 C 1.351562 -22.832031 1.3125 -23.226562 1.34375 -23.6875 C 1.375 -24.8125 1.4375 -25.765625 1.53125 -26.546875 C 1.632812 -27.328125 1.773438 -28.035156 1.953125 -28.671875 C 2.097656 -29.253906 2.394531 -29.671875 2.84375 -29.921875 C 3.289062 -30.179688 4.175781 -30.3125 5.5 -30.3125 L 22.3125 -30.359375 C 23.664062 -30.359375 24.566406 -30.222656 25.015625 -29.953125 C 25.460938 -29.679688 25.757812 -29.253906 25.90625 -28.671875 C 26.21875 -27.546875 26.414062 -25.898438 26.5 -23.734375 C 26.53125 -23.273438 26.476562 -22.878906 26.34375 -22.546875 C 26.21875 -22.210938 25.941406 -22.046875 25.515625 -22.046875 C 25.023438 -22.046875 24.488281 -22.59375 23.90625 -23.6875 C 23.414062 -24.644531 22.960938 -25.429688 22.546875 -26.046875 C 22.128906 -26.671875 21.625 -27.140625 21.03125 -27.453125 C 20.4375 -27.773438 19.617188 -27.9375 18.578125 -27.9375 C 17.828125 -27.9375 17.285156 -27.769531 16.953125 -27.4375 C 16.617188 -27.101562 16.453125 -26.59375 16.453125 -25.90625 Z M 16.453125 -25.90625 "/></g></g></g></g></g></svg>